<svg viewBox="0 0 263 262" fill="none" xmlns="http://www.w3.org/2000/svg">
    <path d="M35.2726 233.898C38.6 233.898 121.659 233.316 145.119 233.316C146.759 233.316 144.684 230.476 143.783 230.282C140.895 229.648 137.888 229.617 134.958 229.313C132.074 229.038 129.248 228.332 126.574 227.217C124.264 226.242 121.963 225.121 119.464 224.728C114.627 223.968 110.388 226.588 105.84 227.741C104.464 228.14 103.019 228.246 101.6 228.053C100.18 227.86 98.8166 227.372 97.5972 226.62C95.5012 225.362 93.599 223.853 91.4087 222.742C87.2134 220.678 82.6372 219.503 77.9667 219.289C73.2961 219.075 68.6318 219.828 64.2655 221.5C62.1838 222.298 60.1935 223.317 58.3286 224.539C56.1173 225.991 54.21 227.846 51.9882 229.281C47.0678 232.467 40.9842 231.43 35.6184 233.253C35.3198 233.342 34.9896 233.898 35.2726 233.898Z" fill="#EBEBEB"/>
    <path d="M158.748 139.017C163.15 139.017 237.196 139.505 241.849 139.358C242.185 139.358 242.373 138.834 242.033 138.687C239.098 137.236 235.771 137.529 232.721 136.502C230.929 135.894 229.823 134.726 228.581 133.358C227.55 132.183 226.216 131.314 224.725 130.843C223.363 130.43 221.917 130.385 220.533 130.712C219.029 131.068 217.724 131.927 216.294 132.472C212.736 133.814 209.277 132.541 206.736 129.905C204.64 127.735 202.586 125.713 199.735 124.518C197.351 123.543 194.705 123.339 192.321 124.419C189.601 125.65 187.741 128.123 185.189 129.611C182.166 131.377 178.545 130.963 175.207 131.493C171.869 132.022 169.301 134.841 166.372 136.46C165.416 137.073 164.311 137.415 163.176 137.45C162.523 137.391 161.875 137.299 161.232 137.173C160.226 137.052 159.267 137.078 158.612 137.922C158.413 138.147 158.449 139.017 158.748 139.017Z" fill="#EBEBEB"/>
    <path d="M20.9883 44.9959C24.2057 44.9959 78.2668 45.3522 81.6623 45.2421C81.9086 45.2421 82.0396 44.8753 81.7933 44.7548C79.6554 43.7068 77.224 43.9112 74.9813 43.1828C73.6713 42.7427 72.8853 41.8885 71.9578 40.9034C71.2069 40.0468 70.2354 39.4125 69.1492 39.0694C68.1535 38.7686 67.096 38.736 66.0838 38.9751C64.9886 39.2319 64.0349 39.8607 62.9869 40.2589C60.3669 41.2388 57.8674 40.3061 56.0125 38.383C54.4824 36.811 52.9785 35.3071 50.9035 34.453C50.0534 34.0707 49.134 33.867 48.202 33.8544C47.2701 33.8418 46.3454 34.0205 45.4853 34.3796C43.5046 35.2757 42.1422 37.0835 40.2768 38.1681C38.0707 39.4624 35.4298 39.1533 32.9932 39.5463C30.5566 39.9393 28.6806 41.9881 26.5427 43.1723C25.8451 43.6197 25.0393 43.8696 24.2109 43.8955C23.7341 43.8955 23.2625 43.754 22.7909 43.6911C22.052 43.602 21.3551 43.623 20.8626 44.2151C20.7578 44.3618 20.7787 44.9959 20.9883 44.9959Z" fill="#EBEBEB"/>
    <path d="M177.255 186.02C180.468 186.02 234.529 186.376 237.924 186.272C238.17 186.272 238.301 185.905 238.06 185.784C235.917 184.736 233.486 184.935 231.248 184.186C229.938 183.746 229.152 182.886 228.23 181.907C227.477 181.049 226.504 180.414 225.416 180.067C224.42 179.769 223.363 179.737 222.351 179.973C221.256 180.235 220.302 180.864 219.254 181.257C216.66 182.237 214.135 181.309 212.28 179.386C210.75 177.814 209.246 176.305 207.171 175.451C206.321 175.069 205.401 174.865 204.469 174.852C203.537 174.84 202.613 175.018 201.752 175.378C199.772 176.279 198.409 178.081 196.549 179.171C194.338 180.46 191.697 180.156 189.26 180.544C186.824 180.932 184.948 182.986 182.81 184.17C182.113 184.618 181.307 184.868 180.478 184.893C180.001 184.893 179.53 184.752 179.058 184.694C178.324 184.6 177.622 184.621 177.13 185.218C177.02 185.391 177.041 186.02 177.255 186.02Z" fill="#EBEBEB"/>
    <path d="M28.3244 194.655C31.5365 194.655 85.5976 195.007 88.9984 194.902C89.2394 194.902 89.3704 194.535 89.1294 194.414C86.9862 193.366 84.5601 193.566 82.3174 192.842C81.0074 192.402 80.2214 191.543 79.2939 190.563C78.5389 189.708 77.5666 189.072 76.48 188.724C75.4853 188.428 74.4309 188.396 73.4199 188.629C72.3195 188.891 71.371 189.52 70.323 189.919C67.703 190.898 65.2035 189.966 63.3486 188.043C61.8185 186.471 60.3146 184.967 58.2343 184.113C57.3859 183.728 56.4674 183.523 55.5361 183.51C54.6048 183.496 53.6807 183.675 52.8214 184.034C50.8355 184.935 49.4783 186.743 47.6129 187.828C45.4068 189.117 42.7659 188.813 40.324 189.201C37.8822 189.588 36.0167 191.648 33.8736 192.827C33.1773 193.277 32.3706 193.527 31.5418 193.55C31.0649 193.55 30.5986 193.408 30.1217 193.351C29.3881 193.262 28.6912 193.283 28.1934 193.875C28.0886 194.016 28.1148 194.655 28.3244 194.655Z" fill="#EBEBEB"/>
    <path d="M168.18 39.3C171.392 39.3 225.453 39.6563 228.849 39.5515C229.095 39.5515 229.226 39.1847 228.985 39.0642C226.842 38.0162 224.41 38.2153 222.173 37.4922C220.863 37.052 220.077 36.1926 219.149 35.2128C218.417 34.3443 217.463 33.6906 216.388 33.3211C215.392 33.023 214.335 32.9905 213.323 33.2268C212.227 33.4888 211.274 34.1176 210.231 34.5106C207.611 35.4905 205.106 34.563 203.251 32.6399C201.726 31.0679 200.223 29.5588 198.142 28.7047C197.292 28.3224 196.373 28.1187 195.441 28.1061C194.509 28.0935 193.584 28.2722 192.724 28.6313C190.743 29.5326 189.381 31.3352 187.521 32.4251C185.31 33.7141 182.669 33.4102 180.232 33.798C177.795 34.1857 175.919 36.2398 173.782 37.4241C173.084 37.8721 172.278 38.1221 171.45 38.1472C170.973 38.1472 170.501 38.0057 170.03 37.948C169.296 37.8537 168.594 37.8747 168.101 38.472C167.96 38.6397 167.981 39.3 168.18 39.3Z" fill="#EBEBEB"/>
    <path d="M111.556 95.2055C114.769 95.2055 168.83 95.5618 172.225 95.4518C172.471 95.4518 172.603 95.085 172.361 94.9645C170.218 93.9165 167.787 94.1156 165.549 93.3925C164.245 92.9523 163.453 92.0982 162.531 91.1131C161.777 90.2579 160.804 89.624 159.717 89.2791C158.722 88.9792 157.665 88.9449 156.652 89.1795C155.557 89.4415 154.603 90.0703 153.555 90.4686C150.961 91.4484 148.436 90.5157 146.581 88.5926C145.051 87.0206 143.552 85.5168 141.472 84.6626C140.622 84.278 139.703 84.0729 138.77 84.0603C137.838 84.0476 136.913 84.2277 136.053 84.5893C134.073 85.4853 132.71 87.2931 130.85 88.3778C128.639 89.6721 125.998 89.3629 123.561 89.7559C121.125 90.1489 119.249 92.1978 117.111 93.382C116.413 93.8285 115.607 94.0766 114.779 94.0999C114.302 94.0999 113.831 93.9584 113.359 93.9008C112.625 93.8117 111.923 93.8326 111.431 94.4248C111.321 94.5715 111.342 95.2055 111.556 95.2055Z" fill="#EBEBEB"/>
    <path d="M82.3908 71.1487C82.4537 71.3268 167.598 71.1487 166.524 71.1487C166.032 71.1487 167.268 70.4151 166.786 70.1793C164.014 68.8011 160.98 68.7645 157.962 68.4867C156.18 68.4106 154.43 67.9851 152.811 67.2344C151.208 66.396 150.191 64.934 149.065 63.5664C147.309 61.488 145.052 59.8917 142.508 58.928C139.964 57.9644 137.216 57.6654 134.524 58.0591C128.471 59.0076 123.698 63.6188 117.635 64.4677C113.993 64.9917 110.545 63.5664 106.987 63.0686C104.053 62.6651 101.611 63.2363 98.9912 64.5358C97.0681 65.4842 95.2917 66.2859 93.1223 66.4379C91.456 66.5532 89.7845 66.3645 88.1129 66.3488C85.3769 66.3987 82.7533 67.4459 80.735 69.2937C80.4677 69.5557 79.6241 71.1487 82.3908 71.1487Z" fill="#EBEBEB"/>
    <path d="M137.479 156.424C135.907 154.559 135.33 153.108 135.11 151.708C134.89 150.309 134.115 131.686 142.446 124.298C144.265 122.684 145.784 123.978 147.031 125.802C151.223 131.912 154.53 132.2 155.195 133.662C155.861 135.124 137.479 156.424 137.479 156.424Z" fill="#455A64"/>
    <path d="M144.542 132.106C143.018 133.154 141.985 139.274 143.08 142.397C143.274 142.958 148.289 137.257 148.389 136.685C148.488 136.114 147.76 135.548 146.612 133.866C145.706 132.541 145.176 131.655 144.542 132.106Z" fill="#FF9BBC"/>
    <path d="M169.825 132.955C170.177 131.383 172.514 128.28 178.786 124.817C183.785 122.061 187.39 121.861 188.768 122.37C190.518 123.02 189.952 127.515 189.847 133.206C189.743 138.897 190.675 145.782 190.057 146.159C189.439 146.537 169.825 132.955 169.825 132.955Z" fill="#455A64"/>
    <path d="M185.608 129.376C184.524 129.145 179.739 131.796 179.415 133.568C179.305 134.144 184.466 137.393 184.969 137.12C185.472 136.848 185.441 134.568 185.776 132.556C186.054 130.864 186.368 129.538 185.608 129.376Z" fill="#FF9BBC"/>
    <path d="M207.443 197.548C214.743 195.866 222.042 197.228 226.014 201.986C229.42 206.068 227.853 214.08 224.966 218.408C224.966 218.408 236.541 219.42 239.088 224.031C240.66 226.892 237.82 231.77 235.168 232.415C232.517 233.06 226.003 231.676 221.942 231.776C217.881 231.875 210.137 232.824 206.421 231.598C198.326 228.878 194.186 223.329 194.705 212.99C194.831 209.373 196.148 205.898 198.451 203.106C200.755 200.313 203.916 198.36 207.443 197.548Z" fill="#455A64"/>
    <path d="M235.472 226.724C236.85 225.991 239.612 227.772 238.663 229.344C238.609 228.993 238.421 228.676 238.139 228.459C237.28 227.767 236.442 227.411 235.451 226.719L235.472 226.724Z" fill="#263238"/>
    <path d="M236.52 224.073C237.898 223.339 240.66 225.121 239.711 226.693C239.655 226.342 239.468 226.026 239.187 225.807C238.333 225.116 237.49 224.759 236.504 224.068L236.52 224.073Z" fill="#263238"/>
    <path d="M186.457 180.864C187.84 179.701 196.974 170.745 199.033 168.12C200.081 166.742 200.961 161.832 204.022 160.784C207.38 159.647 210.561 163.928 211.635 166.47C212.295 168.005 212.406 170.897 210.786 174.099C209.167 177.301 206.5 184.579 204.498 188.771C202.497 192.963 197.283 198.072 197.283 198.072L186.457 180.864Z" fill="#455A64"/>
    <path opacity="0.1" d="M197.288 198.072C198.706 196.632 200.048 195.119 201.307 193.539L192.232 175.304C189.454 177.877 187.274 180.183 186.468 180.869L197.288 198.072Z" fill="black"/>
    <path d="M204.624 167.528C205.672 167.104 208.418 170.148 208.738 171.757C209.057 173.365 206.532 174.628 205.332 174.183C204.32 173.811 204.284 172.553 204.016 170.604C203.812 169.194 203.864 167.842 204.624 167.528Z" fill="#FF9BBC"/>
    <path d="M205.258 166.904C204.64 167.261 203.781 165.736 204.21 165.432C204.64 165.128 206.17 166.375 205.258 166.904Z" fill="#FF9BBC"/>
    <path d="M203.576 167.324C202.837 167.622 202.177 165.904 202.706 165.636C203.236 165.369 204.661 166.878 203.576 167.324Z" fill="#FF9BBC"/>
    <path d="M203.173 169.635C202.345 169.975 201.601 168.063 202.219 167.78C202.837 167.497 204.399 169.131 203.173 169.635Z" fill="#FF9BBC"/>
    <path d="M206.715 168.204C206.165 168.319 205.641 166.826 206.055 166.632C206.469 166.438 207.842 167.979 206.715 168.204Z" fill="#FF9BBC"/>
    <path d="M133.402 172.218C133.192 174.476 140.214 182.609 142.153 183.5C142.153 183.5 145.858 199.167 146.298 205.838C146.738 212.508 145.679 221.668 146.298 225.75C146.916 229.832 152.434 237.225 155.546 239.18C158.659 241.134 171.465 243.964 179.205 242.544C186.944 241.124 191.299 234.736 195.569 233.4C199.84 232.064 210.687 230.109 213.265 225.661C215.843 221.212 209.597 204.517 205.887 199.083C202.177 193.649 188.38 180.052 188.38 180.052C193.626 175.974 197.492 170.382 199.452 164.033C200.264 161.413 189.559 141.58 178.403 132.813C175.914 130.859 155.012 131.073 150.657 134.595C146.476 137.98 135.168 153.008 133.402 172.218Z" fill="#455A64"/>
    <path d="M205.248 198.208C206.872 199.979 207.915 202.201 208.947 204.344C209.97 206.51 210.789 208.766 211.394 211.083C210.587 209.186 209.34 206.472 208.47 204.564C207.454 202.416 206.542 200.21 205.248 198.208Z" fill="#263238"/>
    <path d="M204.561 230.869C206.657 229.821 208.842 228.883 210.996 227.95C209.161 229.497 206.934 230.507 204.561 230.869Z" fill="#263238"/>
    <path d="M196.067 171.463C194.375 174.927 191.849 178.239 188.38 180.057C191.372 177.688 193.788 174.502 196.067 171.463Z" fill="#263238"/>
    <path d="M151.48 134.071C158.166 130.644 168.578 130.502 175.846 132.037C167.688 131.996 159.408 131.912 151.48 134.071Z" fill="#263238"/>
    <path d="M139.753 150.152C138.469 153.024 137.463 156.115 136.174 158.987C136.787 155.843 137.819 152.699 139.753 150.152Z" fill="#263238"/>
    <path d="M188.139 143.083C189.907 144.845 191.354 146.902 192.415 149.162C190.759 147.308 189.324 145.268 188.139 143.083Z" fill="#263238"/>
    <path d="M181.238 155.177C183.104 154.721 184.497 156.351 185.032 158.52C185.462 160.281 184.801 162.351 183.014 162.791C181.228 163.231 179.598 161.392 179.195 159.736C178.791 158.08 179.215 155.675 181.238 155.177Z" fill="#263238"/>
    <path d="M158.145 158.992C155.525 158.866 154.137 160.795 154.022 163.126C154.007 163.644 154.095 164.159 154.282 164.642C154.468 165.125 154.749 165.566 155.107 165.94C155.465 166.313 155.895 166.612 156.369 166.818C156.844 167.024 157.355 167.134 157.873 167.14C158.935 167.164 159.966 166.779 160.754 166.065C161.541 165.352 162.025 164.364 162.107 163.305C162.135 162.76 162.054 162.216 161.87 161.703C161.685 161.19 161.4 160.719 161.031 160.317C160.662 159.916 160.217 159.592 159.722 159.364C159.226 159.137 158.69 159.01 158.145 158.992Z" fill="#263238"/>
    <path d="M169.862 161.612C169.988 162.105 173.221 163.54 173.567 163.493C173.913 163.446 176.711 161.198 176.711 160.69C176.711 160.182 173.918 160.381 173.21 160.475C172.503 160.569 169.752 161.13 169.862 161.612Z" fill="#263238"/>
    <path d="M179.404 163.923C179.024 164.692 178.605 165.441 178.146 166.166C177.929 166.512 177.674 166.834 177.387 167.125C177.345 167.19 177.289 167.246 177.223 167.287C177.157 167.328 177.083 167.354 177.006 167.363C176.928 167.372 176.85 167.364 176.776 167.339C176.703 167.314 176.635 167.273 176.58 167.219C176.267 167.001 175.996 166.73 175.778 166.417C175.537 166.083 175.32 165.733 175.128 165.369C174.728 164.636 174.378 163.876 174.08 163.095L173.53 161.659L173.226 163.163C173.024 164.167 172.738 165.152 172.372 166.108C172.191 166.575 171.969 167.024 171.706 167.449C171.484 167.845 171.153 168.168 170.753 168.382L170.611 168.429H170.465C170.355 168.437 170.244 168.437 170.134 168.429C169.899 168.396 169.669 168.334 169.448 168.246C168.984 168.048 168.547 167.791 168.148 167.481C167.321 166.839 166.563 166.114 165.885 165.317C166.437 166.23 167.11 167.064 167.886 167.795C168.284 168.176 168.734 168.497 169.223 168.749C169.754 169.056 170.383 169.144 170.978 168.995C171.54 168.771 172.017 168.375 172.34 167.863C172.653 167.406 172.921 166.92 173.142 166.412C173.56 165.414 173.883 164.379 174.106 163.32L173.257 163.394C173.581 164.216 173.97 165.012 174.421 165.773C174.652 166.159 174.909 166.528 175.191 166.878C175.488 167.259 175.861 167.573 176.286 167.801C176.541 167.933 176.83 167.984 177.114 167.947C177.383 167.872 177.621 167.714 177.795 167.497C178.085 167.149 178.329 166.765 178.518 166.354C178.889 165.573 179.185 164.759 179.404 163.923Z" fill="#263238"/>
    <path d="M174.945 160.868C174.987 161.135 174.337 161.45 173.504 161.57C172.671 161.691 171.932 161.57 171.932 161.303C171.932 161.036 172.54 160.727 173.373 160.606C174.206 160.485 174.908 160.575 174.945 160.868Z" fill="#37474F"/>
    <path d="M190.518 163.163C192.441 162.807 194.375 162.513 196.319 162.262C198.263 162.01 200.202 161.79 202.151 161.654C203.12 161.56 204.1 161.507 205.075 161.444C206.049 161.382 207.024 161.355 208.004 161.329C209.958 161.251 211.913 161.282 213.873 161.287C212.898 161.209 211.923 161.125 210.944 161.083C209.964 161.041 208.979 161.02 207.999 161.025C206.039 161.025 204.074 161.12 202.119 161.261C200.165 161.402 198.21 161.649 196.272 161.963C195.307 162.12 194.338 162.293 193.379 162.487C192.42 162.681 191.461 162.896 190.518 163.163Z" fill="#263238"/>
    <path d="M191.43 164.206C192.31 164.153 193.191 164.101 194.076 164.07C194.962 164.038 195.837 163.986 196.696 163.965C198.462 163.907 200.223 163.865 201.983 163.886C202.864 163.886 203.749 163.886 204.629 163.886L207.249 163.965L208.57 164.017L209.89 164.096C210.776 164.127 211.651 164.227 212.537 164.269C210.792 163.991 209.031 163.781 207.265 163.666C205.499 163.551 203.733 163.488 201.962 163.477C200.191 163.467 198.425 163.525 196.659 163.645C194.894 163.766 193.175 163.939 191.43 164.206Z" fill="#263238"/>
    <path d="M191.047 165.364C191.786 165.406 192.52 165.448 193.253 165.511C193.987 165.573 194.715 165.615 195.449 165.684C196.911 165.815 198.378 165.946 199.835 166.108C201.292 166.27 202.754 166.443 204.21 166.632C205.667 166.821 207.124 167.035 208.586 167.229C207.868 167.051 207.15 166.889 206.432 166.737C205.714 166.585 204.986 166.454 204.257 166.333C202.806 166.071 201.344 165.883 199.877 165.715C198.41 165.547 196.942 165.442 195.47 165.38C193.997 165.317 192.52 165.285 191.047 165.364Z" fill="#263238"/>
    <path d="M147.603 169.776C146.387 169.776 145.176 169.876 143.935 169.959C142.693 170.043 141.514 170.185 140.303 170.331C137.888 170.62 135.482 171.018 133.093 171.484C130.704 171.951 128.335 172.532 125.993 173.177C124.819 173.496 123.661 173.863 122.498 174.225C121.916 174.408 121.345 174.613 120.774 174.817L119.06 175.44C121.392 174.749 123.713 174.041 126.071 173.465C127.245 173.161 128.429 172.889 129.608 172.606C130.787 172.323 131.977 172.082 133.172 171.862C135.545 171.369 137.945 170.976 140.345 170.625C142.745 170.274 145.182 169.975 147.603 169.776Z" fill="#263238"/>
    <path d="M146.869 171.348C144.694 171.641 142.541 172.055 140.392 172.516C138.244 172.978 136.127 173.533 134.01 174.12C131.893 174.707 129.818 175.383 127.748 176.127C125.678 176.871 123.645 177.699 121.649 178.6C122.697 178.239 123.698 177.819 124.74 177.479L126.312 176.929L127.884 176.405C128.932 176.059 129.98 175.734 131.028 175.404C132.076 175.074 133.124 174.775 134.172 174.487C136.268 173.874 138.39 173.323 140.518 172.799C141.566 172.537 142.63 172.286 143.709 172.045C144.726 171.783 145.795 171.552 146.869 171.348Z" fill="#263238"/>
    <path d="M147.712 172.579C145.936 173.004 144.186 173.549 142.472 174.151C140.759 174.754 139.024 175.383 137.327 176.054C135.629 176.724 133.952 177.468 132.302 178.26C131.474 178.647 130.661 179.061 129.844 179.465C129.027 179.868 128.225 180.319 127.423 180.759C129.095 180.02 130.75 179.255 132.427 178.537C134.104 177.819 135.781 177.096 137.473 176.441C139.166 175.786 140.864 175.1 142.572 174.455C143.421 174.13 144.28 173.821 145.14 173.517C145.999 173.213 146.848 172.873 147.712 172.579Z" fill="#263238"/>
    <path d="M168.18 178.401C169.571 178.022 170.875 177.378 172.021 176.504C172.105 176.436 172.278 176.546 172.267 176.661C172.236 176.981 172.147 177.872 172.131 178.008L172.335 177.861C172.559 177.691 172.772 177.507 172.975 177.311C173.784 176.53 174.417 175.585 174.83 174.539C175.039 174.015 175.17 173.439 175.327 172.878C175.327 172.852 175.385 172.878 175.385 172.904C175.394 173.522 175.305 174.137 175.123 174.728C174.964 175.274 174.744 175.802 174.468 176.3C174.188 176.797 173.848 177.258 173.457 177.673C173.249 177.887 173.029 178.088 172.796 178.275C172.582 178.486 172.322 178.645 172.037 178.742C171.838 178.799 171.638 178.511 171.691 178.364C171.743 178.218 171.932 177.086 171.953 176.913C171.487 177.287 170.976 177.602 170.433 177.851C169.739 178.165 169.006 178.385 168.253 178.506C168.18 178.527 168.122 178.422 168.18 178.401Z" fill="#263238"/>
    <path d="M151.412 165.862C150.427 165.687 149.414 165.772 148.472 166.108C148.457 166.112 148.443 166.121 148.433 166.134C148.424 166.147 148.418 166.163 148.418 166.179C148.418 166.195 148.424 166.21 148.433 166.223C148.443 166.236 148.457 166.245 148.472 166.249C149.453 166.429 150.462 166.364 151.412 166.061C151.47 166.014 151.48 165.888 151.412 165.862Z" fill="#263238"/>
    <path d="M152.35 167.156C151.444 167.407 150.634 167.924 150.023 168.639C150.015 168.653 150.011 168.669 150.012 168.686C150.013 168.702 150.019 168.718 150.029 168.73C150.04 168.743 150.054 168.752 150.07 168.757C150.086 168.761 150.102 168.76 150.118 168.754C150.804 168.649 152.303 167.706 152.481 167.324C152.488 167.304 152.49 167.282 152.487 167.261C152.483 167.24 152.475 167.22 152.462 167.204C152.449 167.187 152.432 167.174 152.412 167.165C152.392 167.157 152.371 167.154 152.35 167.156Z" fill="#263238"/>
    <path d="M153.587 168.125C153.079 168.601 152.769 169.25 152.717 169.944C152.718 169.957 152.723 169.97 152.731 169.981C152.739 169.991 152.749 170 152.761 170.006C152.773 170.012 152.786 170.014 152.8 170.014C152.813 170.013 152.826 170.009 152.837 170.001C153.344 169.529 153.67 168.896 153.76 168.209C153.744 168.146 153.639 168.083 153.587 168.125Z" fill="#263238"/>
    <path d="M187.657 160.412C188.529 159.922 189.513 159.668 190.513 159.673C190.581 159.673 190.623 159.757 190.555 159.81C189.687 160.301 188.712 160.573 187.715 160.601C187.694 160.597 187.676 160.589 187.66 160.575C187.645 160.562 187.633 160.544 187.627 160.524C187.621 160.505 187.621 160.484 187.626 160.464C187.631 160.444 187.642 160.426 187.657 160.412Z" fill="#263238"/>
    <path d="M187.18 161.963C188.119 161.9 189.055 162.119 189.868 162.592C189.882 162.602 189.892 162.616 189.897 162.633C189.902 162.649 189.901 162.666 189.895 162.682C189.889 162.698 189.878 162.712 189.864 162.721C189.85 162.73 189.833 162.735 189.816 162.733C189.13 162.864 187.416 162.482 187.112 162.162C187.099 162.146 187.091 162.126 187.087 162.106C187.084 162.085 187.086 162.064 187.092 162.044C187.099 162.025 187.111 162.007 187.126 161.993C187.141 161.978 187.16 161.968 187.18 161.963Z" fill="#263238"/>
    <path d="M186.332 163.278C186.967 163.559 187.473 164.068 187.752 164.704C187.755 164.717 187.754 164.73 187.751 164.743C187.747 164.756 187.74 164.768 187.731 164.777C187.721 164.786 187.709 164.793 187.697 164.797C187.684 164.801 187.67 164.801 187.657 164.798C187.021 164.522 186.504 164.03 186.195 163.409C186.185 163.347 186.263 163.257 186.332 163.278Z" fill="#263238"/>
    <path opacity="0.2" d="M162.531 185.072C169.472 185.486 176.41 184.207 182.747 181.346C177.439 185.465 168.961 186.979 162.531 185.072Z" fill="black"/>
    <path opacity="0.2" d="M168.18 187.32C171.891 187.566 175.605 186.882 178.985 185.328C177.439 186.431 175.671 187.181 173.804 187.525C171.937 187.869 170.017 187.799 168.18 187.32Z" fill="black"/>
    <path d="M146.366 207.174C145.318 204.145 137.301 195.253 135.975 188.582C134.649 181.912 139.203 173.811 147.713 172.862C151.962 172.391 156.647 178.322 157.297 181.938C157.946 185.554 154.949 188.75 150.123 188.635C148.677 188.549 147.246 188.296 145.858 187.88L146.366 207.174Z" fill="#455A64"/>
    <path d="M152.188 184.448C153.733 184.684 154.87 187.775 153.173 188.457C153.342 188.148 153.387 187.786 153.298 187.445C153.026 186.397 152.57 185.59 152.188 184.448Z" fill="#263238"/>
    <path d="M154.614 182.944C156.154 183.185 157.296 186.271 155.599 186.958C155.763 186.648 155.808 186.288 155.724 185.947C155.452 184.899 154.991 184.086 154.614 182.944Z" fill="#263238"/>
    <path d="M137.715 179.271C139.811 174.995 144.925 171.82 149.845 172.553C152.864 173.245 155.028 175.771 156.411 178.396C157.375 180.413 158.208 182.782 157.459 185.03C157.106 185.869 156.572 186.621 155.894 187.229C155.216 187.838 154.412 188.29 153.54 188.551C151.601 189.075 149.599 188.855 147.676 188.493C145.769 188.165 143.924 187.545 142.205 186.654C143.982 187.349 145.846 187.796 147.744 187.985C149.578 188.21 151.527 188.336 153.288 187.775C154.017 187.521 154.684 187.114 155.245 186.582C155.805 186.05 156.245 185.405 156.537 184.689C157.097 182.761 156.327 180.628 155.463 178.873C154.043 176.143 151.601 173.287 148.305 173.313C144.087 173.282 139.968 175.713 137.699 179.271H137.715Z" fill="#263238"/>
    <path d="M151.936 215.395C153.576 212.414 157.993 207.363 166.697 208.992C170.606 209.726 174.924 214.599 174.924 214.599C174.924 214.599 176.716 210.994 178.435 209.396C180.153 207.797 187.982 206.414 189.821 211.156C191.66 215.898 187.091 224.497 186.677 227.285C186.263 230.073 186.803 232.452 184.55 234.228C182.296 236.004 177.518 235.564 176.522 235.365C174.997 235.051 174.531 234.59 174.531 234.59C174.531 234.59 164.575 243.01 157.213 238.677C151.894 235.533 145.889 226.426 151.936 215.395Z" fill="#455A64"/>
    <path d="M184.099 212.896C186.248 213.006 188.375 218.094 187.505 220.164C186.635 222.234 181.217 222.181 179.514 220.966C178.094 219.949 179.105 218.471 180.373 216.082C181.28 214.347 182.517 212.812 184.099 212.896Z" fill="#FF9BBC"/>
    <path d="M185.561 212.545C184.188 212.377 184.33 209.731 185.346 209.783C186.363 209.836 187.568 212.791 185.561 212.545Z" fill="#FF9BBC"/>
    <path d="M182.286 212.01C180.782 211.696 181.511 209.107 182.642 209.27C183.774 209.432 184.503 212.472 182.286 212.01Z" fill="#FF9BBC"/>
    <path d="M179.368 214.384C177.727 213.829 178.901 210.983 180.143 211.319C181.385 211.654 181.804 215.196 179.368 214.384Z" fill="#FF9BBC"/>
    <path d="M187.379 215.023C186.331 214.793 186.74 212.403 187.62 212.435C188.501 212.466 189.517 215.485 187.379 215.023Z" fill="#FF9BBC"/>
    <path d="M172.482 232.782C173.293 233.692 174.297 234.408 175.422 234.878C176.548 235.318 177.801 235.266 178.99 235.239C181.086 235.077 184.115 234.893 185.226 232.871C186.101 230.251 185.996 227.421 186.887 224.775C187.61 222.826 188.417 220.714 188.941 218.712C189.695 215.636 190.948 211.067 187.369 209.364C185.195 208.4 182.765 208.178 180.452 208.73C179.307 208.992 178.311 209.694 177.68 210.685C176.202 212.635 174.979 214.766 174.038 217.025C174.797 214.668 175.883 212.43 177.266 210.376C177.927 209.243 179.005 208.414 180.269 208.065C183.303 207.294 187.002 207.431 189.412 209.679C190.874 211.125 190.885 213.441 190.686 215.301C190.335 218.393 189.25 221.374 188.155 224.262C186.908 227.112 187.081 230.293 185.964 233.201C184.434 235.973 179.876 235.873 177.135 235.617C175.249 235.465 173.588 234.228 172.482 232.766V232.782Z" fill="#263238"/>
    <path d="M149.982 216.197C152.078 213.132 154.771 210.271 158.366 209.003C163.118 207.305 168.846 208.306 172.577 211.722C173.509 212.548 174.302 213.519 174.924 214.599C173.565 212.989 171.884 211.681 169.988 210.761C168.093 209.84 166.026 209.327 163.92 209.254C157.884 208.935 153.927 212.063 149.961 216.197H149.982Z" fill="#263238"/>
    <path d="M167.347 238.802C169.878 237.545 172.309 236.345 174.536 234.61C172.838 236.89 170.093 238.278 167.347 238.802Z" fill="#263238"/>
    <path d="M205.85 127.28C206.228 154.915 206.275 185.926 205.966 213.561C205.583 185.926 205.546 154.915 205.85 127.28Z" fill="#263238"/>
    <g opacity="0.8">
        <path d="M202.13 129.847C202.13 129.847 199.468 138.194 199.913 138.65C200.359 139.106 211.101 139.174 211.331 138.734C211.562 138.294 209.702 129.905 209.702 129.905L202.13 129.847Z" fill="#FFC727"/>
        <path d="M206.165 63.1839C187.961 63.0477 173.106 77.5206 173.96 99.7382C174.814 121.956 195.596 131.608 204.75 131.676C211.363 131.723 237.683 126.494 237.893 98.5173C238.066 74.6124 224.306 63.3202 206.165 63.1839Z" fill="#FFC727"/>
    </g>
    <path opacity="0.2" d="M201.058 107.384C212.167 106.709 220.626 97.1547 219.95 86.045C219.275 74.9353 209.721 66.4768 198.611 67.1524C187.501 67.828 179.043 77.3819 179.718 88.4916C180.394 99.6013 189.948 108.06 201.058 107.384Z" fill="white"/>
    <path opacity="0.4" d="M186.641 85.1815C187.315 87.4682 188.652 89.5037 190.483 91.0303C192.314 92.557 194.557 93.5062 196.928 93.758C199.299 94.0098 201.691 93.5528 203.802 92.4449C205.913 91.3369 207.648 89.6278 208.787 87.5337C209.926 85.4395 210.419 83.0545 210.203 80.6802C209.987 78.306 209.071 76.0492 207.572 74.1954C206.073 72.3416 204.058 70.974 201.782 70.2657C199.505 69.5573 197.07 69.5401 194.784 70.216C191.72 71.1218 189.141 73.207 187.614 76.0132C186.087 78.8194 185.737 82.1171 186.641 85.1815Z" fill="white"/>
    <path d="M205.457 159.988C208.502 160.412 211.693 165.228 211.855 167.476C212.082 169.826 211.562 172.188 210.367 174.225L209.896 171.924C209.896 171.924 205.646 174.141 203.225 171.222C200.804 168.304 199.437 159.149 205.457 159.988Z" fill="#455A64"/>
    <path d="M210.875 171.406C208.879 172.611 206.112 173.475 203.906 172.207C201.873 170.74 201.035 168.131 200.867 165.731C200.729 164.107 201.15 162.486 202.062 161.135C201.342 162.541 201.066 164.133 201.271 165.699C202.14 171.731 205.07 173.958 210.875 171.406Z" fill="#263238"/>
    <path d="M209.896 171.924C210.194 172.335 210.334 172.839 210.289 173.344C209.99 172.934 209.851 172.43 209.896 171.924Z" fill="#263238"/>
    <path d="M205.552 167.748C203.98 167.575 202.009 170.331 203.508 171.463C203.422 171.109 203.472 170.734 203.65 170.415C204.205 169.43 204.871 168.77 205.552 167.738V167.748Z" fill="#263238"/>
    <path d="M203.875 164.505C202.303 164.332 200.333 167.088 201.831 168.22C201.744 167.865 201.796 167.489 201.978 167.172C202.534 166.187 203.199 165.526 203.875 164.494V164.505Z" fill="#263238"/>
    <path d="M70.5641 129.15C69.1441 127.961 62.1172 122.7 60.0212 119.996C58.9208 118.581 58.0405 113.54 54.9017 112.477C51.4591 111.308 48.1945 115.725 47.0941 118.309C46.4182 119.881 46.3029 122.852 47.964 126.137C49.6251 129.423 50.0181 132.949 52.0983 137.262C54.1786 141.574 59.4343 146.793 59.4343 146.793L70.5641 129.15Z" fill="#FFC727"/>
    <path opacity="0.5" d="M70.5641 129.15C69.1441 127.961 62.1172 122.7 60.0212 119.996C58.9208 118.581 58.0405 113.54 54.9017 112.477C51.4591 111.308 48.1945 115.725 47.0941 118.309C46.4182 119.881 46.3029 122.852 47.964 126.137C49.6251 129.423 50.0181 132.949 52.0983 137.262C54.1786 141.574 59.4343 146.793 59.4343 146.793L70.5641 129.15Z" fill="white"/>
    <path opacity="0.1" d="M59.4552 146.799C57.9976 145.325 56.621 143.773 55.3313 142.151L64.3598 124.157C66.9379 126.331 69.7256 128.448 70.564 129.156L59.4552 146.799Z" fill="black"/>
    <path d="M51.9307 115.474C50.8827 115.039 48.0374 118.141 47.7072 119.813C47.3771 121.484 49.9709 122.758 51.2023 122.302C52.2503 121.919 52.2922 120.63 52.549 118.634C52.7376 117.182 52.7062 115.804 51.9307 115.474Z" fill="#FF9BBC"/>
    <path d="M51.2757 114.829C51.9097 115.196 52.7953 113.635 52.3237 113.326C51.8521 113.016 50.343 114.29 51.2757 114.829Z" fill="#FF9BBC"/>
    <path d="M53.0049 115.28C53.7594 115.589 54.4354 113.823 53.8957 113.551C53.3559 113.278 51.8887 114.808 53.0049 115.28Z" fill="#FF9BBC"/>
    <path d="M53.424 117.638C54.2782 117.984 54.996 116.066 54.4039 115.736C53.8118 115.406 52.1612 117.119 53.424 117.638Z" fill="#FF9BBC"/>
    <path d="M49.7822 116.171C50.3429 116.281 50.8826 114.756 50.4582 114.557C50.0337 114.358 48.6294 115.935 49.7822 116.171Z" fill="#FF9BBC"/>
    <path d="M55.7715 146.311C49.0171 141.842 39.0035 143.985 39.0035 143.985C39.0035 143.985 38.6262 140.663 37.8874 139.379C37.1485 138.095 33.6587 137.251 31.8666 139.326C29.6029 141.946 25.6677 150.524 28.906 154.124C32.1443 157.724 36.132 160.868 36.9547 162.042C38.6157 164.379 43.0121 169.446 47.7071 176.436L55.7715 146.311Z" fill="#FFC727"/>
    <path opacity="0.5" d="M55.7715 146.311C49.0171 141.842 39.0035 143.985 39.0035 143.985C39.0035 143.985 38.6262 140.663 37.8874 139.379C37.1485 138.095 33.6587 137.251 31.8666 139.326C29.6029 141.946 25.6677 150.524 28.906 154.124C32.1443 157.724 36.132 160.868 36.9547 162.042C38.6157 164.379 43.0121 169.446 47.7071 176.436L55.7715 146.311Z" fill="white"/>
    <path d="M33.0405 141.753C31.851 141.412 29.1681 145.09 29.0109 146.93C28.8537 148.769 31.8038 149.827 33.0772 149.193C34.1252 148.669 34.0518 147.265 34.0885 145.075C34.1147 143.492 33.9208 142.004 33.0405 141.753Z" fill="#FF9BBC"/>
    <path d="M32.2598 141.139C32.9882 141.454 33.7532 139.667 33.2345 139.384C32.7157 139.101 31.1909 140.668 32.2598 141.139Z" fill="#FF9BBC"/>
    <path d="M34.1723 141.396C35.0265 141.637 35.5452 139.656 34.9269 139.426C34.3086 139.195 32.9147 141.04 34.1723 141.396Z" fill="#FF9BBC"/>
    <path d="M34.9007 143.901C35.8596 144.179 36.4203 141.999 35.7286 141.737C35.0369 141.475 33.5121 143.497 34.9007 143.901Z" fill="#FF9BBC"/>
    <path d="M30.8082 142.759C31.4317 142.811 31.8247 141.103 31.3322 140.94C30.8396 140.778 29.5401 142.643 30.8082 142.759Z" fill="#FF9BBC"/>
    <path opacity="0.1" d="M47.707 176.436C42.991 169.446 38.6156 164.384 36.9545 162.042C36.4282 161.408 35.8498 160.819 35.2253 160.281L52.7007 144.776C53.7792 145.164 54.8081 145.677 55.7661 146.306L47.707 176.436Z" fill="black"/>
    <path d="M123.116 98.2605C124.903 100.844 124.416 105.429 124.961 106.199C125.506 106.969 129.493 116.925 130.263 122.176C131.034 127.426 127.911 132.017 127.911 132.017C127.911 132.017 130.803 149.461 124.767 169.566C118.73 189.672 108.345 202.395 99.6933 205.287C91.0421 208.18 81.7201 206.456 69.6681 198.365C57.6161 190.275 43.8873 175.016 40.9005 166.056C37.9137 157.095 57.9777 141.265 58.3445 140.977C58.7113 140.689 58.9628 137.052 67.2996 126.305C67.2996 126.305 63.6316 122.637 63.705 118.602C63.7783 114.567 67.8551 106.037 72.2881 100.084C72.2881 100.084 72.6549 96.7252 74.1326 94.8073C75.6103 92.8895 82.8205 87.1203 86.0431 85.6216C89.2657 84.123 105.541 85.5902 109.246 86.6696C112.95 87.7491 120.245 94.0738 123.116 98.2605Z" fill="#FFC727"/>
    <path opacity="0.5" d="M123.116 98.2605C124.903 100.844 124.416 105.429 124.961 106.199C125.506 106.969 129.493 116.925 130.263 122.176C131.034 127.426 127.911 132.017 127.911 132.017C127.911 132.017 130.803 149.461 124.767 169.566C118.73 189.672 108.345 202.395 99.6933 205.287C91.0421 208.18 81.7201 206.456 69.6681 198.365C57.6161 190.275 43.8873 175.016 40.9005 166.056C37.9137 157.095 57.9777 141.265 58.3445 140.977C58.7113 140.689 58.9628 137.052 67.2996 126.305C67.2996 126.305 63.6316 122.637 63.705 118.602C63.7783 114.567 67.8551 106.037 72.2881 100.084C72.2881 100.084 72.6549 96.7252 74.1326 94.8073C75.6103 92.8895 82.8205 87.1203 86.0431 85.6216C89.2657 84.123 105.541 85.5902 109.246 86.6696C112.95 87.7491 120.245 94.0738 123.116 98.2605Z" fill="white"/>
    <g opacity="0.1">
        <path d="M67.2996 126.284C69.3744 127.677 71.3447 129.22 73.1946 130.9C70.9204 129.804 68.9097 128.229 67.2996 126.284Z" fill="black"/>
        <path d="M127.932 132.017C127.085 133.302 125.818 134.252 124.347 134.705C125.418 133.654 126.623 132.75 127.932 132.017Z" fill="black"/>
    </g>
    <path d="M118.101 144.048C115.486 142.798 112.584 142.272 109.696 142.522C106.809 142.773 104.041 143.792 101.679 145.473C98.4305 147.836 97.4873 148.952 97.4873 148.952C97.4873 148.952 88.1287 148.376 81.5368 154.643C79.8442 156.257 81.3691 161.675 84.7122 162.272C88.0553 162.87 95.9049 161.387 98.8602 162.629C101.816 163.871 104.519 169.325 109.492 170.3C114.465 171.275 118.851 167.842 118.851 167.842L118.101 144.048Z" fill="#FFC727"/>
    <path opacity="0.5" d="M118.101 144.048C115.486 142.798 112.584 142.272 109.696 142.522C106.809 142.773 104.041 143.792 101.679 145.473C98.4305 147.836 97.4873 148.952 97.4873 148.952C97.4873 148.952 88.1287 148.376 81.5368 154.643C79.8442 156.257 81.3691 161.675 84.7122 162.272C88.0553 162.87 95.9049 161.387 98.8602 162.629C101.816 163.871 104.519 169.325 109.492 170.3C114.465 171.275 118.851 167.842 118.851 167.842L118.101 144.048Z" fill="white"/>
    <path d="M84.8327 158.248C83.5227 157.321 80.4835 158.772 81.2433 160.501C81.339 160.154 81.5639 159.856 81.8721 159.668C82.8362 159.076 83.7375 158.819 84.8327 158.248Z" fill="#263238"/>
    <path d="M84.1148 155.413C82.8048 154.486 79.7603 155.937 80.5254 157.666C80.6223 157.318 80.8468 157.019 81.1542 156.828C82.1131 156.236 83.0196 155.984 84.1148 155.413Z" fill="#263238"/>
    <path d="M118.101 144.048C111.515 141.218 103.901 143.44 98.7604 148.114C97.5416 149.196 96.4292 150.393 95.4382 151.688C95.9274 150.695 96.5156 149.754 97.1936 148.879C101.883 142.753 111.31 139.541 118.101 144.048Z" fill="#263238"/>
    <path d="M97.4715 148.952C92.2315 148.601 87.0649 150.702 82.9672 153.836C82.4703 154.222 82.0123 154.655 81.5995 155.13C80.4467 156.592 81.3009 158.652 82.286 160.024C82.6403 160.509 83.0765 160.927 83.575 161.261C84.0874 161.531 84.6569 161.675 85.2361 161.68C86.5305 161.763 87.8283 161.777 89.1242 161.722L93.0699 161.612C94.8253 161.612 96.696 161.408 98.4252 161.974C100.521 162.948 102.093 164.751 103.665 166.323C105.462 168.162 107.522 169.855 110.158 170.117C112.759 170.483 115.411 170.107 117.808 169.032C114.85 170.664 111.378 171.099 108.109 170.248C104.21 169.037 102.051 165.16 98.6767 163.174C98.1725 162.857 97.5947 162.676 96.9999 162.65C95.7053 162.571 94.4075 162.56 93.1118 162.618L89.1661 162.754C87.3269 162.754 85.3828 162.917 83.575 162.372C82.741 161.974 82.0269 161.363 81.5052 160.601C80.1952 158.824 79.3673 155.843 81.3061 154.166C85.6396 150.393 91.7442 148.13 97.4872 148.926L97.4715 148.952Z" fill="#263238"/>
    <path d="M93.5677 171.652C80.1795 166.711 67.5616 176.268 69.1755 191.239C69.1755 191.239 60.0003 191.831 57.9462 194.483C55.8921 197.134 58.2239 202.521 60.8439 203.49C63.4639 204.46 71.0462 203.218 75.1649 203.847C79.2835 204.475 84.5654 207.179 88.5111 206.393C97.1047 204.68 103.707 199.581 104.54 189.002C104.878 185.305 103.985 181.6 102.001 178.463C100.017 175.326 97.0521 172.932 93.5677 171.652Z" fill="#FFC727"/>
    <path opacity="0.5" d="M93.5677 171.652C80.1795 166.711 67.5616 176.268 69.1755 191.239C69.1755 191.239 60.0003 191.831 57.9462 194.483C55.8921 197.134 58.2239 202.521 60.8439 203.49C63.4639 204.46 71.0462 203.218 75.1649 203.847C79.2835 204.475 84.5654 207.179 88.5111 206.393C97.1047 204.68 103.707 199.581 104.54 189.002C104.878 185.305 103.985 181.6 102.001 178.463C100.017 175.326 97.0521 172.932 93.5677 171.652Z" fill="white"/>
    <path d="M61.2473 197.69C59.9425 196.767 56.8981 198.214 57.6579 199.943C57.7565 199.596 57.9807 199.299 58.2867 199.11C59.2508 198.517 60.1521 198.266 61.2473 197.69Z" fill="#263238"/>
    <path d="M60.5295 194.86C59.2248 193.932 56.1803 195.384 56.9401 197.113C57.0373 196.766 57.2619 196.469 57.5689 196.28C58.5331 195.688 59.4344 195.431 60.5295 194.86Z" fill="#263238"/>
    <path d="M61.9338 192.418C64.2015 191.394 66.7016 190.994 69.1755 191.26C66.7494 191.784 64.3809 192.056 61.9338 192.439V192.418Z" fill="#263238"/>
    <path d="M95.3754 170.96C88.6839 169.781 80.9654 170.174 75.6625 174.843C72.966 177.001 70.9335 179.876 69.799 183.138C68.7804 186.486 68.795 190.064 69.8409 193.403C68.3944 190.102 68.1045 186.41 69.0182 182.923C69.9509 179.412 72.2513 176.389 74.9866 174.068C80.499 169.242 88.663 168.938 95.3754 170.981V170.96Z" fill="#263238"/>
    <path d="M88.5843 85.1134C86.4097 83.6514 81.9191 81.9694 80.8763 82.2419C79.5401 82.5772 77.7795 84.7571 71.7797 88.7709C67.6401 91.5429 62.8035 92.8319 62.1171 94.0476C61.4307 95.2633 62.5258 96.6938 62.945 102.395C63.1703 105.492 60.9067 110.522 61.4149 111.004C61.9232 111.486 67.7029 108.882 70.4539 104.26C72.0927 101.529 73.197 98.5117 73.708 95.3681C73.708 95.3681 81.7671 88.5561 82.9304 87.6653C84.0937 86.7745 88.5843 85.1134 88.5843 85.1134Z" fill="#FFC727"/>
    <path opacity="0.7" d="M88.5843 85.1134C86.4097 83.6514 81.9191 81.9694 80.8763 82.2419C79.5401 82.5772 77.7795 84.7571 71.7797 88.7709C67.6401 91.5429 62.8035 92.8319 62.1171 94.0476C61.4307 95.2633 62.5258 96.6938 62.945 102.395C63.1703 105.492 60.9067 110.522 61.4149 111.004C61.9232 111.486 67.7029 108.882 70.4539 104.26C72.0927 101.529 73.197 98.5117 73.708 95.3681C73.708 95.3681 81.7671 88.5561 82.9304 87.6653C84.0937 86.7745 88.5843 85.1134 88.5843 85.1134Z" fill="black"/>
    <path d="M110.173 87.0365C112.542 85.9203 117.237 84.9405 118.227 85.3701C119.495 85.8941 120.905 88.3255 126.223 93.2301C129.891 96.5995 134.476 98.6116 134.974 99.9164C135.472 101.221 134.167 102.468 132.878 108.044C132.181 111.067 133.654 116.38 133.077 116.779C132.501 117.177 127.182 113.729 125.17 108.746C123.966 105.8 123.333 102.653 123.305 99.471C123.305 99.471 116.377 91.5062 115.361 90.4529C114.344 89.3997 110.173 87.0365 110.173 87.0365Z" fill="#FFC727"/>
    <path opacity="0.7" d="M110.173 87.0365C112.542 85.9203 117.237 84.9405 118.227 85.3701C119.495 85.8941 120.905 88.3255 126.223 93.2301C129.891 96.5995 134.476 98.6116 134.974 99.9164C135.472 101.221 134.167 102.468 132.878 108.044C132.181 111.067 133.654 116.38 133.077 116.779C132.501 117.177 127.182 113.729 125.17 108.746C123.966 105.8 123.333 102.653 123.305 99.471C123.305 99.471 116.377 91.5062 115.361 90.4529C114.344 89.3997 110.173 87.0365 110.173 87.0365Z" fill="black"/>
    <path opacity="0.7" d="M113.212 122.852C112.977 125.189 109.89 129.418 106.83 129.397C104.991 129.397 102.36 127.935 101.302 126.101C99.5757 126.833 97.6929 127.119 95.8273 126.931C93.9617 126.743 92.1735 126.088 90.6279 125.026C89.2289 126.598 86.3573 127.51 84.5548 127.164C81.5523 126.578 79.3672 121.814 79.5977 119.483C79.975 115.746 86.5512 113.1 87.8979 111.727C89.2446 110.354 92.0899 107.148 97.7596 107.693C103.429 108.238 105.593 112 106.631 113.603C107.668 115.207 113.584 119.116 113.212 122.852Z" fill="black"/>
    <path d="M84.7854 104.873C82.5322 105.245 81.7462 107.525 82.1654 109.38C82.5741 111.14 84.1251 112.052 85.9382 111.785C87.5888 111.544 88.9879 109.616 88.3748 107.341C88.211 106.546 87.7458 105.845 87.0768 105.385C86.4077 104.925 85.5866 104.742 84.7854 104.873Z" fill="#263238"/>
    <path d="M109.303 107.336C107.055 107.703 106.264 109.956 106.683 111.843C107.092 113.598 108.643 114.51 110.451 114.242C112.101 114.001 113.501 112.078 112.887 109.799C112.722 109.006 112.258 108.307 111.59 107.848C110.922 107.389 110.103 107.206 109.303 107.336Z" fill="#263238"/>
    <path d="M79.6553 109.443C78.7525 109.016 77.7528 108.835 76.7576 108.919C76.7421 108.92 76.7274 108.926 76.7156 108.936C76.7038 108.946 76.6956 108.96 76.6921 108.975C76.6886 108.99 76.69 109.006 76.6961 109.021C76.7022 109.035 76.7128 109.047 76.7262 109.055C77.313 109.432 79.1523 109.794 79.6134 109.647C79.692 109.61 79.7392 109.516 79.6553 109.443Z" fill="#263238"/>
    <path d="M80.2371 110.957C79.302 110.958 78.389 111.241 77.6171 111.769C77.6052 111.78 77.597 111.795 77.5936 111.81C77.5902 111.826 77.5917 111.843 77.598 111.858C77.6043 111.873 77.6151 111.885 77.6288 111.894C77.6425 111.902 77.6586 111.906 77.6747 111.905C78.3716 111.984 80.0589 111.486 80.3366 111.151C80.3486 111.132 80.3555 111.111 80.3566 111.089C80.3577 111.067 80.353 111.045 80.3429 111.025C80.3328 111.006 80.3177 110.989 80.2991 110.977C80.2806 110.965 80.2592 110.958 80.2371 110.957Z" fill="#263238"/>
    <path d="M81.1959 112.209C80.5815 112.533 80.1104 113.075 79.8754 113.729C79.8741 113.742 79.8761 113.756 79.8811 113.769C79.8862 113.781 79.8943 113.792 79.9045 113.801C79.9148 113.81 79.9271 113.816 79.9403 113.819C79.9534 113.822 79.9671 113.822 79.9802 113.818C80.5937 113.496 81.0756 112.969 81.3426 112.33C81.3269 112.267 81.2378 112.183 81.1959 112.209Z" fill="#263238"/>
    <path d="M115.136 113.001C116.108 112.759 117.126 112.773 118.091 113.043C118.106 113.047 118.12 113.056 118.13 113.069C118.14 113.082 118.145 113.097 118.145 113.113C118.145 113.129 118.14 113.145 118.13 113.158C118.12 113.171 118.106 113.18 118.091 113.184C117.122 113.425 116.109 113.425 115.141 113.184C115.067 113.184 115.047 113.032 115.136 113.001Z" fill="#263238"/>
    <path d="M114.271 114.368C115.191 114.556 116.034 115.014 116.692 115.684C116.7 115.697 116.704 115.713 116.703 115.728C116.703 115.744 116.698 115.76 116.689 115.773C116.681 115.786 116.668 115.796 116.654 115.803C116.639 115.809 116.624 115.811 116.608 115.809C115.911 115.752 114.355 114.929 114.15 114.541C114.142 114.522 114.14 114.501 114.142 114.48C114.144 114.459 114.152 114.439 114.164 114.422C114.176 114.405 114.192 114.391 114.21 114.382C114.229 114.372 114.25 114.368 114.271 114.368Z" fill="#263238"/>
    <path d="M113.102 115.406C113.638 115.849 113.99 116.474 114.093 117.161C114.092 117.175 114.087 117.188 114.08 117.199C114.072 117.211 114.062 117.22 114.051 117.227C114.039 117.234 114.025 117.237 114.012 117.238C113.998 117.238 113.985 117.235 113.972 117.229C113.432 116.793 113.061 116.181 112.924 115.5C112.928 115.481 112.936 115.464 112.948 115.448C112.959 115.433 112.974 115.42 112.991 115.411C113.008 115.402 113.027 115.397 113.046 115.396C113.065 115.395 113.085 115.398 113.102 115.406Z" fill="#263238"/>
    <path d="M97.0522 115.621C96.0776 115.511 93.5886 114.049 92.8602 113.378C92.6973 113.228 92.5673 113.045 92.4784 112.843C92.3894 112.64 92.3435 112.42 92.3435 112.199C92.3435 111.977 92.3894 111.758 92.4784 111.555C92.5673 111.352 92.6973 111.17 92.8602 111.02C93.2899 110.69 98.6923 110.496 101.637 111.916C102.481 112.325 102.041 113.65 101.857 113.823C101.27 114.41 98.1945 115.752 97.0522 115.621Z" fill="#263238"/>
    <path d="M100.175 112.325C100.139 112.849 98.8234 113.147 97.2409 113.032C95.6585 112.917 94.4009 112.414 94.4375 111.906C94.4742 111.397 95.7895 111.083 97.3719 111.198C98.9544 111.313 100.212 111.816 100.175 112.325Z" fill="#37474F"/>
    <path opacity="0.2" d="M92.1266 97.8937C90.7328 97.485 88.8621 96.3846 87.5573 97.3697C86.1241 98.7255 84.5661 99.9431 82.9042 101.006C81.3031 101.942 79.6127 102.716 77.8581 103.317C77.0459 103.668 76.2442 104.04 75.8459 104.779C75.4473 105.578 75.2838 106.474 75.3743 107.362C75.0601 106.453 75.0601 105.464 75.3743 104.554C75.7307 103.611 76.6529 103.013 77.4965 102.573C79.1891 101.729 80.8449 101.111 82.3435 100.115C83.8702 99.1433 85.3463 98.0939 86.7661 96.9715C88.401 95.4781 90.628 96.9715 92.1161 97.9042L92.1266 97.8937Z" fill="black"/>
    <path opacity="0.2" d="M105.211 99.209C106.856 98.5697 109.33 97.5636 110.634 99.3505C111.829 100.718 113.045 102.075 114.355 103.307C115.665 104.538 117.121 105.513 118.61 106.676C119.354 107.273 120.14 108.038 120.302 109.039C120.439 109.989 120.255 110.957 119.778 111.79C120.041 110.939 120.057 110.03 119.825 109.17C119.589 108.374 118.872 107.845 118.148 107.341C116.546 106.406 115.042 105.312 113.658 104.077C112.24 102.704 110.956 101.201 109.822 99.5863C109.392 99.0203 108.648 98.9208 107.941 98.9155C107.034 98.9561 106.131 99.0576 105.237 99.2195L105.211 99.209Z" fill="black"/>
    <path d="M100.369 117.062C99.6671 120.394 98.6296 121.893 96.6017 121.778C94.5739 121.662 93.6831 120.09 93.3005 116.711L96.8795 115.966L100.369 117.062Z" fill="#FF9BBC"/>
    <path d="M96.8794 115.982C97.079 117.38 97.0097 118.803 96.675 120.174C96.4754 118.777 96.5448 117.354 96.8794 115.982Z" fill="#263238"/>
    <path d="M84.9111 113.022C86.022 114.594 87.4892 116.04 89.3337 116.627C90.6542 116.695 92.0271 116.239 93.3633 115.966C94.3601 115.712 95.3716 115.517 96.392 115.385C97.1727 115.413 97.9424 115.578 98.6661 115.872C100.238 116.396 101.883 117.193 103.445 117.622C104.441 117.827 105.588 117.449 106.531 117.041C107.57 116.597 108.515 115.958 109.314 115.16C108.306 116.62 106.843 117.705 105.153 118.246C104.032 118.691 102.664 118.387 101.569 117.973C100.049 117.486 98.3255 116.716 96.7797 116.443C96.2647 116.419 95.7491 116.472 95.2497 116.601L93.5781 116.936C92.1371 117.156 90.6647 117.622 89.1451 117.355C87.2236 116.518 85.7058 114.963 84.9164 113.022H84.9111Z" fill="#263238"/>
    <path d="M92.53 122.537C93.6634 123.235 94.9403 123.667 96.2646 123.799C97.5889 123.932 98.9261 123.762 100.175 123.302C99.0169 124.102 97.6124 124.464 96.2122 124.323C94.8119 124.183 93.5069 123.55 92.53 122.537Z" fill="#263238"/>
    <path opacity="0.2" d="M85.3879 131.293C91.9722 133.531 99.0011 134.137 105.871 133.059C99.6565 135.627 91.0838 134.841 85.3879 131.293Z" fill="black"/>
    <path opacity="0.2" d="M90.2246 134.961C93.7378 136.183 97.5006 136.507 101.171 135.905C99.3886 136.558 97.4844 136.812 95.593 136.649C93.7015 136.486 91.8689 135.91 90.2246 134.961Z" fill="black"/>
    <path d="M52.7063 79.648C53.0102 107.284 52.9683 138.294 52.5858 165.93C52.2818 138.294 52.3238 107.284 52.7063 79.648Z" fill="#263238"/>
    <g opacity="0.8">
        <path d="M56.4267 82.2156C56.4267 82.2156 59.0886 90.563 58.6379 91.0188C58.1873 91.4747 47.4505 91.5428 47.22 91.1027C46.9894 90.6625 48.8496 82.268 48.8496 82.268L56.4267 82.2156Z" fill="#455A64"/>
        <path d="M52.3761 15.5523C70.5798 15.4161 85.4405 29.889 84.5864 52.1066C83.7322 74.3242 62.9504 83.9763 53.7909 84.0444C47.178 84.0915 20.8575 78.862 20.6531 50.8857C20.4854 26.9808 34.2457 15.6886 52.3761 15.5523Z" fill="#455A64"/>
    </g>
    <path opacity="0.2" d="M78.052 45.3574C76.9223 49.1794 74.6848 52.5807 71.6222 55.1311C68.5597 57.6815 64.8097 59.2666 60.8464 59.6861C56.8831 60.1055 52.8844 59.3403 49.3559 57.4874C45.8274 55.6345 42.9275 52.7769 41.0228 49.276C39.1182 45.7752 38.2943 41.7882 38.6554 37.8191C39.0165 33.85 40.5463 30.0772 43.0514 26.9774C45.5565 23.8777 48.9244 21.5904 52.7294 20.4046C56.5343 19.2188 60.6055 19.1878 64.428 20.3155C66.9672 21.0646 69.334 22.3067 71.393 23.9707C73.4521 25.6348 75.1631 27.6883 76.4283 30.0138C77.6935 32.3393 78.4881 34.8914 78.7667 37.5241C79.0453 40.1568 78.8025 42.8186 78.052 45.3574Z" fill="white"/>
    <path opacity="0.4" d="M71.9108 37.5499C71.2349 39.8355 69.8964 41.8695 68.0646 43.3945C66.2328 44.9195 63.99 45.8671 61.6197 46.1175C59.2493 46.3679 56.858 45.9099 54.748 44.8013C52.638 43.6926 50.9041 41.9833 49.7655 39.8893C48.6269 37.7953 48.1348 35.4107 48.3514 33.0371C48.568 30.6634 49.4835 28.4073 50.9822 26.554C52.481 24.7006 54.4956 23.3333 56.7714 22.6248C59.0472 21.9164 61.482 21.8987 63.7678 22.5739C65.286 23.0224 66.7009 23.7655 67.9318 24.7609C69.1626 25.7563 70.1854 26.9844 70.9416 28.3751C71.6977 29.7658 72.1725 31.2918 72.3388 32.8661C72.5051 34.4403 72.3597 36.0319 71.9108 37.5499Z" fill="white"/>
    <path d="M53.0991 112.351C50.0494 112.775 46.8635 117.591 46.6958 119.844C46.4718 122.194 46.9924 124.555 48.184 126.593L48.6608 124.293C48.6608 124.293 52.9052 126.509 55.3313 123.591C57.7575 120.672 59.1146 111.512 53.0991 112.351Z" fill="#FFC727"/>
    <path opacity="0.5" d="M53.0991 112.351C50.0494 112.775 46.8635 117.591 46.6958 119.844C46.4718 122.194 46.9924 124.555 48.184 126.593L48.6608 124.293C48.6608 124.293 52.9052 126.509 55.3313 123.591C57.7575 120.672 59.1146 111.512 53.0991 112.351Z" fill="white"/>
    <path d="M47.6602 123.774C53.4766 126.326 56.4005 124.094 57.2703 118.068C57.4751 116.499 57.1973 114.905 56.4738 113.498C57.3869 114.85 57.8086 116.474 57.6686 118.099C57.5009 120.499 56.6677 123.109 54.6346 124.576C52.4233 125.844 49.6618 124.979 47.6602 123.774Z" fill="#263238"/>
    <path d="M48.6609 124.293C48.7046 124.799 48.563 125.303 48.2626 125.713C48.219 125.207 48.3605 124.702 48.6609 124.293Z" fill="#263238"/>
    <path d="M53.1306 120.305C54.7026 120.132 56.6729 122.889 55.1742 124.02C55.2605 123.666 55.21 123.291 55.0327 122.972C54.4773 121.987 53.8118 121.327 53.1306 120.295V120.305Z" fill="#263238"/>
    <path d="M54.8074 117.062C56.3794 116.889 58.3496 119.645 56.851 120.772C56.9395 120.416 56.8869 120.041 56.7043 119.724C56.1488 118.738 55.4833 118.078 54.8074 117.046V117.062Z" fill="#263238"/>
</svg>
