<svg viewBox="0 0 282 245" fill="none" xmlns="http://www.w3.org/2000/svg">
  <path
    d="M91.5992 253.4L99.1004 228.381C99.1004 228.381 79.0954 221.381 74.0927 211.252C69.09 201.122 73.2185 148.986 78.2212 133.854C83.2238 118.722 103.731 99.3429 131.361 92.5919C158.992 85.8408 187.502 99.0779 198.128 112.456C208.753 125.834 226.948 170.136 228.076 182.764C229.204 195.392 208.945 210.372 208.945 210.372L222.013 253.405L91.5992 253.4Z"
    fill="#FFDEDE"
  />
  <g opacity="0.1">
    <path
      d="M99.1004 228.38C102.169 228.736 105.118 229.576 108.124 230.23C109.912 230.591 111.734 230.794 113.55 231.195C108.581 232.052 103.545 230.569 99.1061 228.375L99.1004 228.38Z"
      fill="black"
    />
    <path
      d="M196.464 218.037C198.962 216.238 201.698 214.873 204.36 213.339C205.939 212.402 207.388 211.353 208.962 210.366C205.99 214.427 201.196 216.649 196.481 218.037H196.464Z"
      fill="black"
    />
  </g>
  <path
    opacity="0.45"
    d="M194.879 253.4C194.879 253.4 184.941 232.571 177.626 228.381C170.311 224.19 135.811 226.356 128.671 236.198C122.896 244.156 119.647 253.4 119.647 253.4H194.879Z"
    fill="white"
  />
  <path
    opacity="0.45"
    d="M152.946 224.743C124.954 228.24 110.183 204.794 111.96 191.106C114.108 174.558 137.718 167.677 135.399 149.088C134.001 137.909 125.372 135.648 124.61 129.556C123.437 120.177 132.264 103.714 137.746 103.048C143.228 102.383 155.828 116.156 157.001 125.535C157.762 131.626 149.951 135.941 151.361 147.119C153.684 165.703 178.263 166.572 184.417 182.087C189.504 194.89 180.942 221.246 152.946 224.743Z"
    fill="white"
  />
  <path
    d="M113.251 158.405C101.633 159.855 103.872 177.908 115.507 176.453C127.143 174.998 124.881 156.95 113.251 158.405Z"
    fill="#263238"
  />
  <path
    d="M103.421 150.588C103.748 145.969 109.907 143.025 113.539 146.076C111.847 146.392 110.279 146.55 108.739 147.204C106.76 147.999 105.209 149.229 103.421 150.554V150.588Z"
    fill="#263238"
  />
  <path
    d="M182.736 140.656C180.677 139.816 178.867 139.003 176.758 138.716C175.099 138.451 173.52 138.682 171.823 138.789C174.614 134.914 181.258 136.257 182.736 140.656Z"
    fill="#263238"
  />
  <path
    d="M174.936 150.701C163.323 152.15 165.557 170.204 177.192 168.749C188.827 167.294 186.566 149.246 174.936 150.701Z"
    fill="#263238"
  />
  <path
    d="M156.482 188.867C155.974 192.369 155.123 197.423 149.533 198.122C143.944 198.821 141.874 194.129 140.509 190.863C140.509 190.863 143.408 191.89 145.145 190.412C146.883 188.934 147.097 178.686 147.097 178.686C147.097 178.686 149.821 188.568 151.868 189.577C153.916 190.587 156.482 188.867 156.482 188.867Z"
    fill="#FF9BBC"
  />
  <path
    d="M149.099 194.614C147.685 189.55 147.029 184.304 147.153 179.047C148.566 184.112 149.221 189.357 149.099 194.614Z"
    fill="#263238"
  />
  <path
    d="M159.009 170.074C159.178 171.439 157.943 173.03 157.418 173.735C156.318 175.178 153.955 175.928 153.165 175.184C152.246 174.327 154.705 173.537 154.384 172.64C154.147 171.969 153.256 170.948 152.037 171.332C150.819 171.715 151.716 175.094 151.293 176.227C150.971 177.052 150.435 177.777 149.742 178.328C149.048 178.878 148.221 179.236 147.345 179.363H147.221C146.339 179.457 145.448 179.315 144.639 178.953C143.829 178.59 143.13 178.019 142.613 177.299C141.925 176.306 141.976 172.787 140.69 172.736C139.404 172.685 138.8 173.864 138.733 174.581C138.642 175.528 141.22 175.709 140.543 176.746C139.979 177.66 137.481 177.513 136.065 176.385C135.383 175.821 133.809 174.592 133.623 173.233C133.392 171.411 136.815 167.141 145.557 166.053H145.681C154.418 164.959 158.783 168.252 159.009 170.074Z"
    fill="#263238"
  />
  <path
    d="M132.269 182.821C132.949 183.802 133.72 184.718 134.57 185.556C136.183 187.192 137.892 188.805 140.013 189.696C141.434 190.26 143.047 190.824 144.384 190.068C145.371 189.16 145.585 187.13 145.929 185.748C146.369 183.441 146.696 181.078 147.102 178.703C147.497 181.828 147.886 188.957 145.546 191.298C143.713 192.702 141.135 192.003 139.342 191.089C137.086 189.961 135.394 188.043 133.978 186.013C133.261 185.039 132.691 183.965 132.286 182.826L132.269 182.821Z"
    fill="#263238"
  />
  <path
    d="M162.5 179.047C162.381 180.256 162.085 181.44 161.62 182.561C160.751 184.851 159.561 187.146 157.672 188.765C156.172 190.091 153.842 191.405 151.727 190.491C148.907 188.799 147.503 181.794 147.114 178.647C148.095 180.852 148.992 183.057 149.985 185.184C150.656 186.441 151.366 188.359 152.551 188.991C154.023 189.374 155.455 188.455 156.69 187.558C158.535 186.171 159.787 184.174 160.949 182.206C161.57 181.194 162.093 180.125 162.511 179.014L162.5 179.047Z"
    fill="#263238"
  />
  <path
    d="M161.868 204.664C159.048 206.08 156.025 207.231 153.075 207.484C152.838 207.484 152.754 207.913 152.957 208.048C153.521 208.449 155.072 209.571 155.314 209.74C155.134 209.774 154.953 209.808 154.75 209.831C154.142 209.913 153.531 209.962 152.917 209.977C151.69 210.007 150.462 209.92 149.251 209.718C148.038 209.515 146.85 209.188 145.704 208.742C144.536 208.296 143.448 207.687 142.32 207.123C142.269 207.123 142.224 207.208 142.269 207.247C143.264 208.133 144.383 208.869 145.591 209.43C146.712 209.98 147.888 210.409 149.099 210.71C150.314 211.011 151.559 211.17 152.81 211.184C153.462 211.188 154.113 211.158 154.762 211.094C155.412 211.078 156.053 210.931 156.645 210.66C157.04 210.445 156.877 209.763 156.561 209.633C156.369 209.554 154.164 208.178 153.842 207.969C155.132 207.825 156.401 207.537 157.627 207.112C159.154 206.561 160.604 205.816 161.941 204.896C162.054 204.839 161.975 204.602 161.868 204.664Z"
    fill="#263238"
  />
  <path
    opacity="0.1"
    d="M91.5993 253.4L99.1005 228.381C99.1005 228.381 79.0954 221.381 74.0927 211.252C70.1109 203.187 71.9157 168.512 75.3391 147.069C75.2207 155.529 74.8485 197.868 81.9718 207.936C89.0951 218.003 103.167 224.292 121.548 228.381C121.548 228.381 113.539 236.57 113.539 243.135C113.539 247.562 119.873 253.4 146.313 253.4H91.5993Z"
    fill="black"
  />
  <path
    opacity="0.1"
    d="M209.543 212.329C209.543 212.329 212.132 237.382 211.133 243.383C210.135 249.384 188.878 253.4 188.878 253.4H222.013L209.543 212.329Z"
    fill="black"
  />
  <path
    d="M116.009 97.8878C113.669 98.5928 110.042 96.9065 108.356 95.096C106.669 93.2856 103.601 86.9011 103.601 86.9011C103.601 86.9011 102.665 92.778 103.167 95.5303C103.422 97.0996 104.019 98.5937 104.915 99.907C102.561 98.6617 100.512 96.9109 98.9143 94.7802C96.6583 91.5316 95.2878 89.4053 92.1463 88.8413C89.0048 88.2773 79.8906 101.345 72.7052 105.722C65.5199 110.098 58.0412 112.349 55.3228 116.601C52.6043 120.854 52.8242 140.853 57.2009 152.861C61.5775 164.868 73.3256 177.113 78.5765 175.24C83.8273 173.368 80.6689 159.629 88.6721 142.376C94.8197 129.122 103.336 123.228 103.336 123.228L116.009 97.8878Z"
    fill="#FFDEDE"
  />
  <path
    opacity="0.1"
    d="M101.717 124.531C98.9482 126.923 93.1784 132.675 88.6834 142.376C80.6858 159.629 83.8442 173.368 78.5934 175.24C73.3426 177.113 61.5888 164.863 57.2122 152.844C59.7784 158.484 71.8254 169.595 75.4688 166.848C78.2888 164.727 80.3531 150.092 84.7861 141.84C89.112 133.865 100.956 125.073 101.717 124.531Z"
    fill="black"
  />
  <path
    d="M116.009 97.8878C113.189 98.6041 109.777 96.946 107.893 94.814C106.991 93.6056 106.175 92.3354 105.451 91.0127C104.712 89.7042 104.007 88.3788 103.325 87.0365L103.889 86.9519C103.398 91.165 102.642 95.9759 105.276 99.6193L106.466 101.266L104.684 100.336C102.992 99.4504 101.438 98.3238 100.071 96.9911C97.4197 94.4587 96.0267 90.0257 91.9828 89.4617C90.5953 89.6986 89.5125 90.945 88.4465 91.8587C84.4985 95.6882 80.872 100.037 76.6758 103.703C71.1317 108.711 63.4444 110.555 57.7141 115.146C56.3829 116.2 55.4889 117.708 55.2043 119.382C54.5446 122.959 54.2704 126.597 54.3865 130.233C54.5501 137.526 55.3792 144.948 57.6521 151.891C58.8503 155.336 60.472 158.619 62.4799 161.665C65.1364 165.872 72.9591 175.94 78.3791 174.778C79.0333 174.564 79.5522 173.83 79.9357 173.058C81.0637 170.587 81.5488 167.835 82.1184 165.162C84.3349 154.446 86.1397 142.782 93.3589 134.091C88.7511 139.951 86.5909 147.238 84.9948 154.395C84.2165 158.01 83.6299 161.659 82.9644 165.308C82.4004 168.055 81.9831 170.875 80.8156 173.469C79.3492 177.068 75.6663 176.103 73.0042 174.502C68.1594 171.518 64.4427 167.074 61.2786 162.432C54.849 153.041 53.0668 141.395 52.7509 130.245C52.7115 128.378 52.7509 126.505 52.8412 124.605C53.0837 121.722 53.1852 118.773 54.6347 116.105C56.2647 113.623 58.9493 112.101 61.4027 110.741C65.5143 108.547 69.7386 106.793 73.5343 104.205C75.7185 102.553 77.7684 100.731 79.665 98.7564C82.2763 96.1564 84.741 93.3815 87.4933 90.8322C88.5875 89.8734 89.6704 88.8356 91.1086 88.2998C91.5451 88.1416 92.0197 88.1219 92.4678 88.2434L92.8344 88.328C96.7824 89.315 98.2206 93.545 100.792 96.224C102.059 97.5052 103.505 98.5957 105.084 99.4614L104.492 100.178C103.837 99.1998 103.34 98.1243 103.02 96.9911C102.005 93.342 102.907 89.5012 103.415 85.8521C104.825 88.8244 106.235 91.8925 108.119 94.5828C109.901 96.6922 113.133 98.4631 115.964 97.8653L116.009 97.8878Z"
    fill="#263238"
  />
  <path
    d="M156.386 91.4864C158.822 91.6782 162.026 89.2304 163.267 87.1211C164.508 85.0117 166.154 78.0971 166.154 78.0971C166.154 78.0971 168.326 83.6412 168.41 86.433C168.496 88.02 168.232 89.6064 167.638 91.0804C169.669 89.3595 171.296 87.2125 172.404 84.7918C173.909 81.137 174.795 78.7626 177.728 77.5444C180.66 76.3261 192.392 87.1324 200.333 89.879C208.274 92.6257 216.125 93.2123 219.639 96.788C223.152 100.364 227.292 119.957 225.6 132.619C223.908 145.281 215.002 159.759 209.475 159.048C203.948 158.337 204.095 144.243 192.589 129.1C183.751 117.464 174.169 113.528 174.169 113.528L156.386 91.4864Z"
    fill="#FFDEDE"
  />
  <path
    opacity="0.1"
    d="M225.6 132.613C223.908 145.275 215.031 159.759 209.498 159.054C204.484 158.411 204.145 146.742 195.522 133.268C195.52 133.254 195.52 133.241 195.522 133.228C200.271 137.481 206.272 152.607 210.524 153.109C214.777 153.611 221.342 141.88 223.214 133.933C224.342 129.145 224.878 113.387 224.906 113.031C225.916 119.568 226.356 126.804 225.6 132.613Z"
    fill="black"
  />
  <path
    d="M156.386 91.4864C159.268 91.4864 162.065 89.0443 163.351 86.6022C164.626 83.5679 165.331 80.2741 166.075 77.0706C167.35 80.5223 169.053 84.0867 168.839 87.8655C168.775 89.0403 168.52 90.1966 168.083 91.289L167.356 90.725C168.711 89.5393 169.891 88.1663 170.858 86.6473C172.798 83.4889 173.272 79.0446 176.938 77.2342C177.443 76.9202 178.038 76.7815 178.63 76.8394C180.147 77.0537 181.45 77.8376 182.708 78.5314C185.956 80.432 188.94 82.6203 192.048 84.6C194.322 86.1268 196.715 87.4678 199.205 88.61C203.463 90.302 207.964 91.1367 212.448 92.4057C215.166 93.201 218.088 94.0977 220.236 96.1958C222.222 98.4857 222.949 101.345 223.806 104.092C224.314 105.902 224.731 107.73 225.092 109.563C227.168 120.521 227.912 132.281 223.643 142.839C221.55 148.05 218.866 153.188 214.777 157.136C212.521 159.24 209.137 161.028 206.92 157.802C205.228 155.512 204.202 152.855 203.079 150.289C201.647 146.866 200.299 143.425 198.759 140.064C195.691 133.392 191.991 126.736 186.244 122.016C195.161 128.964 199.408 139.945 203.869 149.968C204.997 152.297 207.061 158.038 209.582 158.557C215.11 158.557 220.642 146.956 222.306 142.348C223.617 138.944 224.5 135.389 224.934 131.767C225.668 124.497 224.895 117.069 223.491 109.912C222.828 106.334 221.782 102.838 220.372 99.4839C219.736 97.9113 218.54 96.6296 217.016 95.8856C210.434 92.6257 202.532 92.4678 196.046 88.7623C191.162 86.089 186.695 82.6147 182.014 79.7383C180.779 79.0672 179.459 78.0858 178.066 78.1535C174.237 79.5691 173.825 84.1939 171.772 87.2339C170.723 88.8286 169.446 90.2613 167.982 91.4864L166.442 92.7836L167.249 90.9112C169.042 86.7827 167.277 82.2594 165.901 78.2437L166.465 78.2042C166.092 79.6594 165.681 81.1032 165.241 82.5414C164.816 83.9884 164.29 85.4038 163.667 86.777C162.285 89.253 159.319 91.6161 156.397 91.5146L156.386 91.4864Z"
    fill="#263238"
  />
  <path
    d="M64.296 250.715C63.6925 254.702 67.9507 259.434 70.7651 259.908C73.5795 260.382 75.7339 258.312 75.7339 258.312C75.7339 258.312 78.2663 262.26 83.0659 262.717C84.4094 262.88 85.7724 262.708 87.0331 262.216C88.2938 261.724 89.413 260.927 90.2908 259.897C90.2908 259.897 93.1108 262.051 98.074 262.051C103.037 262.051 105.468 257.184 105.468 257.184C105.468 257.184 108.852 258.126 111.283 256.158C113.714 254.189 114.283 249.311 112.597 245.56C110.911 241.809 100.956 230.112 88.909 229.96C76.8619 229.807 65.2153 244.528 64.296 250.715Z"
    fill="#FFDEDE"
  />
  <path
    opacity="0.1"
    d="M104.972 257.974C104.047 259.35 101.746 262.063 98.0345 262.063C93.0656 262.063 90.2513 259.908 90.2513 259.908C89.3744 260.938 88.2561 261.734 86.9964 262.226C85.7367 262.718 84.3747 262.891 83.0321 262.728C78.2494 262.26 75.7001 258.318 75.7001 258.318C75.7001 258.318 73.5456 260.382 70.7312 259.914C67.9169 259.446 63.653 254.714 64.2622 250.726C64.8262 246.897 69.513 239.807 75.8411 234.991C69.7047 240.89 67.8999 246.197 68.588 249.502C69.2761 252.807 72.0905 255.819 75.356 254.505C75.356 254.505 79.3604 259.124 83.3592 259.908C84.567 260.115 85.8063 260.04 86.9804 259.689C88.1544 259.337 89.2313 258.719 90.1272 257.883C90.1272 257.883 94.7858 260.935 98.5477 260.822C102.31 260.709 104.972 257.974 104.972 257.974Z"
    fill="black"
  />
  <path
    d="M187.141 253.4H237.213C237.213 253.4 234.917 216.903 235.013 215.837C235.109 214.771 242.763 211.776 241.95 204.207C241.386 198.957 237.799 199.419 237.123 198.161C236.446 196.904 236.26 187.744 231.59 186.532C226.92 185.319 226.937 188.117 225.121 187.801C223.305 187.485 223.665 184.236 219.227 184.789C213.982 185.438 212.498 190.717 211.331 191.783C210.163 192.849 207.58 191.038 203.638 195.443C199.876 199.65 204.856 208.009 204.202 209.836C203.807 210.936 187.141 253.4 187.141 253.4Z"
    fill="#FFDEDE"
  />
  <path
    opacity="0.2"
    d="M218.731 244.776C217.512 241.725 216.582 238.538 216.548 235.47C216.548 235.227 216.136 235.109 215.984 235.306C215.527 235.842 214.23 237.354 214.044 237.591C214.044 237.399 214.004 237.213 213.999 237.027C213.965 236.392 213.965 235.755 213.999 235.12C214.067 233.855 214.256 232.599 214.563 231.37C214.875 230.137 215.312 228.939 215.865 227.794C216.429 226.632 217.151 225.538 217.822 224.41C217.856 224.359 217.749 224.303 217.704 224.348C216.707 225.296 215.854 226.385 215.172 227.58C214.509 228.688 213.967 229.864 213.553 231.088C213.138 232.314 212.868 233.584 212.746 234.872C212.684 235.541 212.662 236.214 212.679 236.886C212.639 237.558 212.735 238.231 212.961 238.865C213.147 239.288 213.863 239.181 214.027 238.865C214.123 238.679 215.719 236.519 215.978 236.209C216.016 237.542 216.206 238.866 216.542 240.157C216.978 241.778 217.621 243.336 218.454 244.793C218.533 244.962 218.781 244.9 218.731 244.776Z"
    fill="black"
  />
  <path
    d="M224.664 197.626C224.72 197.028 224.856 196.436 224.951 195.838C225.283 194.411 225.792 193.031 226.469 191.732C226.67 191.38 226.907 191.05 227.174 190.745C227.508 190.309 228 190.021 228.544 189.943C229.088 189.865 229.64 190.003 230.084 190.327C230.861 190.823 231.518 191.486 232.007 192.268C233.135 193.96 233.885 195.77 233.744 197.817C233.707 198.81 233.435 199.78 232.95 200.648C232.466 201.515 231.783 202.256 230.958 202.809C230.528 203.127 230.034 203.348 229.51 203.457C228.986 203.566 228.445 203.561 227.923 203.441C227.402 203.321 226.913 203.089 226.489 202.762C226.066 202.435 225.718 202.02 225.47 201.545C224.781 200.362 224.497 198.985 224.664 197.626Z"
    fill="#FF9BBC"
  />
  <path
    d="M214.247 199.137C213.675 198.163 213.374 197.054 213.374 195.925C213.374 194.796 213.675 193.687 214.247 192.713C215.345 190.744 217.117 189.238 219.238 188.472C219.62 188.335 220.018 188.252 220.422 188.224C220.908 188.146 221.405 188.248 221.82 188.511C222.235 188.774 222.54 189.179 222.678 189.651C223.02 190.692 223.121 191.797 222.972 192.882C222.904 193.7 222.78 194.518 222.678 195.336C222.482 196.829 221.875 198.239 220.924 199.408C220.303 200.17 219.465 200.727 218.522 201.004C217.703 201.24 216.828 201.182 216.048 200.841C215.267 200.5 214.63 199.898 214.247 199.137Z"
    fill="#FF9BBC"
  />
  <path
    d="M207.986 206.915C207.115 206.297 206.428 205.454 206.002 204.474C205.575 203.495 205.425 202.418 205.567 201.359C205.603 201.107 205.654 200.856 205.719 200.609C206.012 199.074 206.752 197.659 207.845 196.543C207.953 196.436 208.068 196.336 208.189 196.244C209.379 195.336 210.513 195.449 211.494 196.588C212.181 197.44 212.693 198.419 213 199.47C213.526 200.801 213.748 202.233 213.649 203.66C213.561 204.542 213.246 205.385 212.735 206.108C212.489 206.488 212.166 206.813 211.788 207.062C211.41 207.311 210.984 207.478 210.538 207.554C210.091 207.63 209.634 207.612 209.195 207.502C208.756 207.392 208.344 207.192 207.986 206.915Z"
    fill="#FF9BBC"
  />
  <path
    d="M231.24 216.412C231.24 216.632 231.178 216.852 231.138 217.14C230.608 219.232 229.17 220.456 227.055 220.913C224.903 221.351 222.664 220.947 220.8 219.785C219.568 219.049 218.126 218.739 216.7 218.905C214.562 219.207 212.388 218.7 210.603 217.484C209.846 217.018 209.227 216.358 208.81 215.573C208.392 214.788 208.192 213.906 208.229 213.017C208.264 212.295 208.447 211.587 208.766 210.939C209.085 210.29 209.534 209.713 210.084 209.244C210.697 208.694 211.373 208.219 212.098 207.828C213.676 206.984 215.105 205.887 216.328 204.58C216.906 203.945 217.608 203.435 218.391 203.082C219.174 202.729 220.021 202.54 220.88 202.527C221.739 202.514 222.591 202.677 223.384 203.005C224.178 203.334 224.895 203.822 225.493 204.439C226.274 205.228 226.826 206.214 227.089 207.293C227.44 208.718 228.148 210.03 229.148 211.105C230.419 212.392 231.171 214.103 231.257 215.91C231.262 216.078 231.256 216.246 231.24 216.412Z"
    fill="#FF9BBC"
  />
  <path
    d="M238.363 207.355C237.799 209.859 236.463 211.449 234.252 212.222C233.766 212.423 233.24 212.508 232.716 212.471C232.192 212.433 231.683 212.274 231.231 212.006C230.779 211.737 230.396 211.368 230.111 210.925C229.827 210.483 229.65 209.981 229.593 209.458C229.471 208.653 229.546 207.831 229.813 207.061C230.428 205.223 231.686 203.847 233.079 202.589C233.588 202.137 234.158 201.757 234.771 201.461C235.028 201.309 235.314 201.214 235.611 201.181C235.907 201.148 236.207 201.179 236.491 201.272C236.775 201.364 237.036 201.515 237.256 201.716C237.477 201.917 237.653 202.163 237.771 202.436C238.323 203.492 238.578 204.677 238.51 205.866C238.476 206.424 238.392 206.988 238.363 207.355Z"
    fill="#FF9BBC"
  />
  <path
    opacity="0.1"
    d="M227.817 186.571C227.286 186.853 226.158 188.077 225.188 188.032C224.218 187.987 222.701 185.877 222.092 185.55C221.483 185.223 219.227 184.789 216.773 186.3C214.32 187.812 213.192 190.987 211.771 192.324C210.349 193.661 209.582 193.074 208.24 193.452C206.898 193.83 204.642 195.454 204.145 198.771C203.649 202.087 206.83 209.644 206.706 210.395C206.582 211.145 196.988 240.433 198.771 245.78C200.75 251.73 222.994 253.315 222.994 253.315L222.836 253.428H187.141C187.141 253.428 203.807 210.975 204.207 209.864C204.862 208.037 199.882 199.679 203.643 195.471C207.591 191.066 210.169 192.877 211.331 191.811C212.493 190.745 213.976 185.466 219.227 184.817C223.665 184.253 223.305 187.513 225.121 187.829C226.198 187.987 226.655 187.084 227.817 186.571Z"
    fill="black"
  />
</svg>
