<svg viewBox="0 0 283 282" fill="none" xmlns="http://www.w3.org/2000/svg">
    <path d="M230.499 69.4284C230.589 68.4696 230.804 67.5221 230.962 66.5689C231.593 64.3129 232.208 62.0569 233.393 59.9927C233.713 59.4272 234.091 58.8962 234.521 58.4078C235.863 56.9132 237.47 56.7158 239.185 57.7423C240.431 58.5349 241.483 59.5969 242.264 60.85C244.047 63.5402 245.27 66.49 245.045 69.7386C244.986 71.3294 244.552 72.8838 243.776 74.274C243.001 75.6642 241.907 76.8507 240.584 77.7361C237.436 79.868 233.731 78.9882 231.791 75.717C230.691 73.8157 230.238 71.6091 230.499 69.4284Z" fill="#EBEBEB"/>
    <path d="M213.81 71.8536C211.96 68.4696 211.893 64.9502 213.81 61.5662C215.567 58.4169 218.407 56.012 221.802 54.7982C222.415 54.578 223.054 54.4414 223.703 54.3922C224.477 54.2748 225.267 54.4422 225.927 54.8633C226.586 55.2844 227.071 55.9307 227.29 56.682C227.839 58.3493 228.003 60.1196 227.769 61.8595C227.657 63.1736 227.459 64.4821 227.301 65.8075C226.873 68.2102 226.111 70.4605 224.481 72.3386C223.483 73.5575 222.14 74.4478 220.629 74.8936C219.316 75.2575 217.918 75.1532 216.674 74.5985C215.429 74.0438 214.417 73.0733 213.81 71.8536Z" fill="#EBEBEB"/>
    <path d="M203.782 84.318C200.793 82.124 199.586 79.0784 199.896 75.4124C199.957 75.0077 200.04 74.6067 200.145 74.2111C200.604 71.7458 201.786 69.4726 203.54 67.68C203.718 67.5109 203.907 67.3527 204.104 67.2062C206.01 65.7455 207.832 65.926 209.405 67.7702C210.507 69.1329 211.325 70.7013 211.814 72.3838C212.53 74.5608 213.145 76.7604 212.857 79.101C212.718 80.5208 212.215 81.8807 211.396 83.049C209.53 85.6039 206.36 86.1961 203.782 84.318Z" fill="#EBEBEB"/>
    <path d="M241.063 99.5404C241.029 99.89 240.967 100.24 240.899 100.668C240.053 104.052 237.747 105.981 234.363 106.714C230.787 107.487 227.442 106.681 224.34 104.887C222.366 103.704 220.056 103.208 217.77 103.477C214.256 103.855 210.934 103.246 207.996 101.193C205.531 99.4727 204.048 97.1434 204.194 94.0357C204.253 92.8788 204.547 91.746 205.058 90.7065C205.569 89.6669 206.286 88.7425 207.167 87.9896C208.148 87.1144 209.229 86.3573 210.387 85.7336C212.913 84.3839 215.2 82.627 217.155 80.5335C218.082 79.52 219.206 78.7065 220.458 78.143C221.711 77.5795 223.065 77.278 224.438 77.2568C225.812 77.2357 227.175 77.4955 228.444 78.0201C229.713 78.5448 230.862 79.3233 231.819 80.308C233.065 81.576 233.948 83.1558 234.374 84.882C234.934 87.1664 236.07 89.2692 237.673 90.9901C239.713 93.0509 240.918 95.7929 241.057 98.6887C241.08 98.9721 241.082 99.2567 241.063 99.5404Z" fill="#EBEBEB"/>
    <path d="M252.45 85.0174C251.542 89.033 249.404 91.5823 245.857 92.8175C242.309 94.0527 238.959 92.1068 238.395 88.3957C238.201 87.1037 238.323 85.784 238.75 84.5492C239.732 81.6108 241.745 79.4056 243.979 77.3865C244.785 76.6737 245.684 76.0741 246.652 75.6042C248.649 74.6285 250.386 75.232 251.469 77.1665C252.347 78.8586 252.755 80.7561 252.647 82.6598C252.608 83.5679 252.495 84.4703 252.45 85.0174Z" fill="#EBEBEB"/>
    <path d="M96.3178 46.4962C95.861 45.0918 95.5846 43.631 95.2237 42.1985C94.733 38.6396 94.2085 35.0864 94.6258 31.4825C94.7331 30.4938 94.941 29.5187 95.2462 28.5722C96.2163 25.662 98.3426 24.3817 101.383 24.7991C103.61 25.1527 105.73 26.0007 107.587 27.2807C111.726 29.9766 115.229 33.3211 116.909 38.0587C118.59 42.7963 118.291 47.6467 115.516 51.9952C112.409 56.902 106.667 57.9228 101.952 54.5162C99.2536 52.5251 97.276 49.7101 96.3178 46.4962Z" fill="#DBDBDB"/>
    <path d="M74.3839 60.0547C69.7196 56.4169 67.4862 51.5383 68.0784 45.6445C68.6159 40.1439 71.1285 35.0245 75.151 31.2343C75.8757 30.5538 76.6897 29.9751 77.5705 29.5141C79.9562 28.2338 82.0825 28.5892 84.0058 30.5406C85.929 32.492 86.9668 34.968 87.824 37.5116C88.4726 39.418 88.9859 41.375 89.5612 43.3096C90.4297 46.9417 90.7343 50.557 89.595 54.1835C88.9406 56.5023 87.5997 58.5688 85.7485 60.1111C82.4604 62.7676 77.9315 62.824 74.3839 60.0547Z" fill="#DBDBDB"/>
    <path d="M67.9093 83.6525C62.3765 82.4004 58.8289 78.8585 57.0354 73.5005C56.8697 72.898 56.7417 72.2858 56.6519 71.6675C55.9018 67.8605 55.9976 64.1042 57.4697 60.4552C57.6062 60.1136 57.7625 59.7802 57.9378 59.4569C59.7257 56.2477 62.3878 55.3904 65.7041 56.9922C68.0845 58.2325 70.1936 59.9352 71.9081 62.0005C74.2374 64.6175 76.4201 67.3303 77.4635 70.782C78.1231 72.8514 78.2416 75.0553 77.8075 77.1834C76.7585 81.9548 72.6526 84.7297 67.9093 83.6525Z" fill="#DBDBDB"/>
    <path d="M129.481 82.2876C129.65 82.8065 129.774 83.331 129.96 84.0135C130.812 89.2361 128.77 93.3928 124.467 96.4835C119.927 99.7434 114.738 100.646 109.29 100.02C105.8 99.5668 102.259 100.281 99.2169 102.05C94.5244 104.718 89.4935 105.885 84.1186 104.797C79.6066 103.883 76.138 101.509 74.4291 97.0757C73.8025 95.4179 73.5223 93.6493 73.6057 91.879C73.6891 90.1087 74.1344 88.3742 74.9141 86.7827C75.7547 84.9514 76.8071 83.2251 78.0499 81.639C80.777 78.2028 82.9223 74.3427 84.4006 70.2124C85.0791 68.2223 86.1582 66.3923 87.5712 64.8353C88.9843 63.2783 90.7014 62.0274 92.6165 61.1596C94.5317 60.2919 96.6044 59.8257 98.7067 59.7899C100.809 59.7541 102.896 60.1494 104.84 60.9515C107.366 61.962 109.569 63.6406 111.213 65.8075C113.394 68.6715 116.271 70.9296 119.572 72.3668C123.689 74.1886 127.011 76.9409 128.99 81.1088C129.18 81.4906 129.344 81.8843 129.481 82.2876Z" fill="#DBDBDB"/>
    <path d="M136.604 54.9844C137.777 61.1884 136.334 66.0444 132.092 69.9416C127.772 73.9291 121.98 73.1508 118.923 68.2891C117.865 66.5843 117.232 64.6499 117.079 62.6491C116.667 57.9284 118.15 53.6251 120.057 49.4177C120.75 47.9259 121.646 46.5367 122.719 45.2892C124.924 42.7061 127.727 42.4692 130.423 44.5504C132.797 46.3608 134.309 48.8255 135.426 51.5327C135.978 52.8355 136.339 54.1891 136.604 54.9844Z" fill="#DBDBDB"/>
    <path d="M53.657 138.428C53.1832 137.588 52.8166 136.691 52.4049 135.817C51.6322 133.595 50.8426 131.389 50.6452 129.049C50.5776 128.402 50.5776 127.75 50.6452 127.103C50.8934 125.112 52.0891 124.018 54.0913 123.9C55.5667 123.837 57.0373 124.107 58.3946 124.689C61.3894 125.885 64.0684 127.582 65.7266 130.402C66.5835 131.744 67.1114 133.268 67.2672 134.852C67.4231 136.436 67.2024 138.034 66.6233 139.517C65.2585 143.064 61.7109 144.452 58.2479 142.872C56.2763 141.928 54.6651 140.368 53.657 138.428Z" fill="#EBEBEB"/>
    <path d="M41.3335 149.939C37.8762 148.202 35.8232 145.365 35.4453 141.479C35.0797 137.882 36.0338 134.274 38.13 131.327C38.506 130.796 38.954 130.32 39.461 129.912C40.0286 129.372 40.773 129.058 41.5554 129.026C42.3379 128.995 43.105 129.25 43.7136 129.743C45.1112 130.79 46.2544 132.14 47.0581 133.691C47.718 134.819 48.2989 136.02 48.9193 137.187C49.9401 139.404 50.6113 141.699 50.3349 144.158C50.2108 145.726 49.6217 147.22 48.6429 148.45C47.7871 149.509 46.5895 150.236 45.2557 150.508C43.922 150.78 42.5352 150.579 41.3335 149.939Z" fill="#EBEBEB"/>
    <path d="M40.2112 165.901C36.5057 165.805 33.7759 163.994 31.9429 160.825C31.7605 160.458 31.5985 160.081 31.4579 159.697C30.4405 157.407 30.1227 154.868 30.5442 152.398C30.5879 152.162 30.6462 151.928 30.7191 151.699C31.4523 149.409 33.0484 148.524 35.3777 149.122C37.0548 149.612 38.6188 150.429 39.9799 151.524C41.8073 152.9 43.567 154.344 44.6668 156.437C45.3555 157.679 45.7129 159.077 45.7045 160.497C45.6707 163.678 43.3921 165.98 40.2112 165.901Z" fill="#EBEBEB"/>
    <path d="M79.5163 157.125C79.6911 157.429 79.8321 157.751 80.0408 158.168C81.259 161.406 80.4807 164.333 78.1232 166.865C75.6303 169.538 72.4211 170.785 68.8454 171.084C66.549 171.241 64.3685 172.151 62.6414 173.673C59.9793 175.991 56.8999 177.384 53.3128 177.378C50.3067 177.378 47.7743 176.289 46.1105 173.667C45.495 172.685 45.0878 171.587 44.9141 170.441C44.7405 169.295 44.8041 168.126 45.101 167.006C45.4055 165.725 45.8579 164.483 46.4489 163.306C47.7559 160.754 48.6361 158.005 49.0546 155.168C49.2337 153.803 49.6908 152.49 50.3975 151.308C51.1043 150.127 52.0457 149.104 53.1636 148.301C54.2816 147.498 55.5523 146.933 56.8972 146.64C58.2422 146.348 59.6328 146.334 60.9832 146.601C62.7335 146.925 64.3629 147.719 65.6983 148.896C67.4645 150.454 69.6004 151.534 71.9023 152.032C74.7504 152.562 77.3019 154.127 79.0651 156.425C79.2303 156.649 79.381 156.882 79.5163 157.125Z" fill="#EBEBEB"/>
    <path d="M80.5879 138.705C82.1332 142.517 81.8343 145.828 79.6291 148.857C77.4238 151.885 73.5548 152.212 70.9773 149.488C70.077 148.531 69.4228 147.37 69.071 146.104C68.2024 143.126 68.5972 140.165 69.2797 137.238C69.5318 136.192 69.9286 135.186 70.4584 134.249C71.5413 132.303 73.2784 131.807 75.3032 132.783C76.9899 133.669 78.4063 134.994 79.4035 136.618C79.8998 137.407 80.3059 138.225 80.5879 138.705Z" fill="#EBEBEB"/>
    <path d="M16.0947 253.287L47.4418 253.151L78.7946 253.101L141.5 253.005L204.206 253.101L235.558 253.151L266.906 253.287L235.558 253.428L204.206 253.479L141.5 253.569L78.7946 253.473L47.4418 253.428L16.0947 253.287Z" fill="#263238"/>
    <path d="M252.636 172.787C252.636 173.678 255.941 235.329 257.075 253.287H205.091C207.832 240.473 221.109 171.371 221.346 170.345C221.791 168.45 215.886 160.717 219.146 156.104C222.53 151.282 225.35 152.788 226.365 151.592C227.38 150.396 228.271 144.982 233.41 143.735C237.758 142.681 237.764 145.946 239.613 146.053C240.708 146.115 241.057 145.168 242.152 144.525H242.18C242.186 144.522 242.193 144.521 242.199 144.521C242.206 144.521 242.213 144.522 242.219 144.525C242.964 144.113 244.041 143.848 245.874 144.108C250.651 144.784 251.881 153.854 252.698 155.032C253.516 156.211 257.03 155.337 258.186 160.486C259.872 167.869 252.608 171.715 252.636 172.787Z" fill="#455A64"/>
    <path opacity="0.2" d="M232.423 203.294C234.058 200.446 235.434 197.417 235.902 194.394C235.942 194.151 236.359 194.089 236.5 194.309C236.878 194.907 237.944 196.565 238.096 196.847C238.141 196.661 238.187 196.475 238.22 196.283C238.342 195.66 238.43 195.032 238.486 194.4C238.594 193.134 238.58 191.861 238.446 190.598C238.31 189.334 238.047 188.087 237.662 186.876C237.267 185.646 236.709 184.467 236.201 183.266C236.201 183.21 236.292 183.17 236.331 183.221C237.183 184.301 237.873 185.5 238.378 186.78C238.884 187.97 239.262 189.21 239.506 190.48C239.745 191.753 239.832 193.05 239.766 194.343C239.733 195.014 239.662 195.683 239.551 196.345C239.496 197.016 239.304 197.669 238.987 198.263C238.745 198.658 238.051 198.449 237.933 198.116C237.865 197.913 236.585 195.55 236.382 195.206C236.153 196.529 235.775 197.821 235.254 199.058C234.592 200.601 233.735 202.053 232.705 203.378C232.592 203.514 232.349 203.418 232.423 203.294Z" fill="black"/>
    <path d="M240.273 155.873C240.273 155.269 240.324 154.666 240.358 154.068C240.521 152.612 240.87 151.183 241.396 149.815C241.547 149.442 241.736 149.085 241.96 148.749C242.242 148.285 242.694 147.948 243.22 147.809C243.746 147.67 244.305 147.74 244.78 148.005C245.608 148.403 246.336 148.981 246.912 149.697C248.203 151.237 249.168 152.962 249.269 155.01C249.347 156.001 249.188 156.997 248.805 157.914C248.423 158.832 247.828 159.646 247.07 160.289C246.678 160.654 246.213 160.929 245.705 161.097C245.197 161.265 244.658 161.321 244.127 161.261C243.595 161.201 243.083 161.026 242.625 160.75C242.167 160.473 241.775 160.1 241.475 159.657C240.675 158.559 240.254 157.231 240.273 155.873Z" fill="#263238"/>
    <path d="M230.099 158.563C229.417 157.663 228.987 156.597 228.855 155.476C228.723 154.354 228.894 153.218 229.349 152.184C230.213 150.102 231.802 148.403 233.821 147.401C234.179 147.224 234.558 147.095 234.949 147.018C235.42 146.889 235.922 146.936 236.361 147.15C236.8 147.364 237.146 147.73 237.335 148.18C237.796 149.174 238.024 150.26 238.001 151.355C238.029 152.178 238.001 153.002 238.001 153.825C237.978 155.334 237.534 156.807 236.72 158.078C236.192 158.905 235.425 159.553 234.521 159.933C233.739 160.251 232.871 160.287 232.065 160.038C231.259 159.788 230.564 159.267 230.099 158.563Z" fill="#263238"/>
    <path d="M224.769 167.006C223.831 166.493 223.052 165.733 222.515 164.808C221.978 163.884 221.704 162.83 221.723 161.761C221.732 161.506 221.754 161.252 221.791 160.999C221.908 159.441 222.483 157.951 223.444 156.719C223.538 156.601 223.639 156.49 223.748 156.386C224.825 155.343 225.965 155.326 227.07 156.346C227.863 157.113 228.492 158.032 228.92 159.048C229.599 160.309 229.985 161.706 230.048 163.137C230.06 164.023 229.844 164.896 229.422 165.675C229.22 166.083 228.935 166.445 228.585 166.737C228.235 167.029 227.828 167.244 227.39 167.369C226.952 167.495 226.492 167.527 226.041 167.464C225.59 167.402 225.156 167.246 224.769 167.006Z" fill="#263238"/>
    <path d="M248.97 173.785C248.97 174.005 248.97 174.225 248.97 174.519C248.688 176.656 247.397 178.038 245.349 178.732C243.259 179.411 240.986 179.26 239.004 178.309C237.695 177.719 236.228 177.578 234.831 177.908C232.745 178.447 230.533 178.19 228.627 177.186C227.822 176.811 227.132 176.227 226.628 175.495C226.124 174.763 225.825 173.91 225.762 173.024C225.715 172.304 225.816 171.583 226.058 170.904C226.301 170.225 226.68 169.603 227.172 169.076C227.717 168.461 228.332 167.912 229.005 167.44C230.478 166.424 231.774 165.172 232.84 163.735C233.341 163.043 233.977 162.46 234.711 162.022C235.445 161.584 236.26 161.299 237.107 161.186C237.954 161.074 238.815 161.134 239.637 161.365C240.46 161.595 241.227 161.991 241.892 162.528C242.757 163.224 243.416 164.142 243.798 165.184C244.311 166.561 245.167 167.784 246.286 168.738C247.69 169.866 248.629 171.472 248.925 173.25C248.948 173.441 248.965 173.61 248.97 173.785Z" fill="#263238"/>
    <path d="M254.994 163.972C254.717 166.527 253.573 168.258 251.463 169.279C251.004 169.535 250.491 169.68 249.966 169.703C249.44 169.726 248.917 169.626 248.437 169.411C247.957 169.197 247.533 168.873 247.2 168.467C246.867 168.06 246.633 167.581 246.517 167.068C246.306 166.281 246.288 165.455 246.466 164.66C246.867 162.765 247.955 161.276 249.196 159.843C249.646 159.344 250.162 158.91 250.73 158.552C250.968 158.37 251.241 158.241 251.533 158.174C251.824 158.107 252.127 158.103 252.42 158.162C252.714 158.221 252.991 158.342 253.233 158.518C253.476 158.693 253.678 158.918 253.826 159.178C254.495 160.161 254.885 161.307 254.954 162.494C255.005 163.058 254.983 163.628 254.994 163.972Z" fill="#263238"/>
    <path d="M242.248 144.469C242.217 144.483 242.186 144.501 242.157 144.52L242.248 144.469Z" fill="black"/>
    <path d="M228.734 212.848C228.734 212.735 228.734 212.622 228.762 212.476C228.826 211.985 229.033 211.525 229.355 211.15C229.678 210.775 230.103 210.503 230.578 210.366C231.072 210.209 231.592 210.155 232.107 210.208C232.622 210.26 233.121 210.418 233.573 210.671C234.173 210.996 234.87 211.092 235.536 210.942C236.029 210.817 236.543 210.794 237.046 210.872C237.549 210.951 238.031 211.13 238.463 211.398C238.845 211.619 239.162 211.936 239.383 212.319C239.604 212.701 239.72 213.134 239.721 213.576C239.735 214.32 239.462 215.04 238.959 215.589C238.703 215.907 238.396 216.182 238.051 216.401C236.681 217.168 235.761 217.208 233.872 216.965C231.983 216.723 231.108 216.446 229.89 215.465C229.553 215.168 229.279 214.806 229.085 214.401C228.892 213.996 228.782 213.556 228.762 213.107C228.74 213.028 228.734 212.938 228.734 212.848Z" fill="#263238"/>
    <path d="M80.2778 253.287H32.084C31.4241 230.23 30.533 198.883 30.5274 198.139C30.5274 196.199 22.9359 190.085 25.0058 184.834C27.1998 179.352 30.2566 180.142 30.956 178.737C31.6554 177.333 31.238 171.868 35.9361 169.437C39.8841 167.384 40.6906 170.565 42.5067 170.221C43.584 170.023 43.7024 169.014 44.6104 168.134L44.6894 168.061C45.3098 167.497 46.2968 166.983 48.1298 166.803C52.9294 166.318 56.2796 174.84 57.3512 175.788C58.4228 176.735 61.632 175.06 63.9782 179.786C67.3622 186.605 61.2259 192.07 61.5022 193.102C61.7222 193.824 73.5042 231.59 80.2778 253.287Z" fill="#FFDEDE"/>
    <path opacity="0.4" d="M80.2778 253.287H32.084C31.4241 230.23 30.533 198.883 30.5274 198.139C30.5274 196.199 22.9359 190.085 25.0058 184.834C27.1998 179.352 30.2566 180.142 30.956 178.737C31.6554 177.333 31.238 171.868 35.9361 169.437C39.8841 167.384 40.6906 170.565 42.5067 170.221C43.584 170.023 43.7024 169.014 44.6104 168.134L44.6894 168.061C45.3098 167.497 46.2968 166.983 48.1298 166.803C52.9294 166.318 56.2796 174.84 57.3512 175.788C58.4228 176.735 61.632 175.06 63.9782 179.786C67.3622 186.605 61.2259 192.07 61.5022 193.102C61.7222 193.824 73.5042 231.59 80.2778 253.287Z" fill="black"/>
    <path opacity="0.2" d="M56.2796 225.871C54.08 223.429 52.1004 220.761 51.0062 217.896C50.916 217.67 50.493 217.698 50.4027 217.941C50.1602 218.606 49.4721 220.473 49.3762 220.761C49.2916 220.592 49.207 220.422 49.1337 220.253C48.8851 219.668 48.6685 219.069 48.4851 218.46C48.1117 217.248 47.8567 216.004 47.7237 214.743C47.594 213.477 47.594 212.202 47.7237 210.936C47.8478 209.65 48.1467 208.381 48.3892 207.095C48.3892 207.044 48.2821 207.027 48.2539 207.095C47.6488 208.33 47.227 209.647 47.0018 211.004C46.7625 212.273 46.6623 213.565 46.7029 214.856C46.741 216.148 46.9302 217.431 47.2669 218.68C47.4349 219.324 47.6382 219.958 47.876 220.58C48.0724 221.223 48.3966 221.82 48.8292 222.334C49.1506 222.673 49.788 222.334 49.8274 221.968C49.8556 221.759 50.6114 219.176 50.7355 218.798C51.2367 220.042 51.8742 221.226 52.6362 222.329C53.6041 223.696 54.7411 224.935 56.0202 226.017C56.1612 226.119 56.3755 225.978 56.2796 225.871Z" fill="black"/>
    <path d="M45.4958 179.595C45.3435 179.031 45.2646 178.41 45.1518 177.818C44.9657 176.365 44.9657 174.894 45.1518 173.441C45.2179 173.041 45.3237 172.648 45.4676 172.268C45.6365 171.748 46.0009 171.314 46.4838 171.057C46.9668 170.8 47.5307 170.741 48.0564 170.892C48.955 171.08 49.8007 171.465 50.5323 172.02C52.1567 173.21 53.5046 174.654 54.0855 176.622C54.3929 177.566 54.4729 178.568 54.319 179.548C54.1651 180.529 53.7817 181.458 53.2001 182.262C52.9072 182.71 52.5208 183.089 52.0676 183.373C51.6144 183.657 51.105 183.84 50.5744 183.908C50.0439 183.977 49.5048 183.93 48.9942 183.77C48.4836 183.611 48.0136 183.343 47.6165 182.984C46.5618 182.113 45.8178 180.924 45.4958 179.595Z" fill="#FF9BBC"/>
    <path d="M36.2575 184.625C35.3783 183.915 34.7054 182.982 34.3087 181.924C33.912 180.866 33.8059 179.721 34.0015 178.608C34.345 176.379 35.4852 174.351 37.2107 172.9C37.5206 172.636 37.8662 172.418 38.2372 172.251C38.6644 172.015 39.1632 171.941 39.6405 172.045C40.1178 172.149 40.5411 172.423 40.8316 172.815C41.5189 173.67 41.9996 174.672 42.2359 175.742C42.4559 176.532 42.6251 177.344 42.7999 178.145C43.136 179.616 43.0559 181.151 42.5687 182.578C42.2534 183.506 41.6633 184.317 40.8767 184.902C40.1935 185.397 39.3599 185.64 38.5177 185.589C37.6755 185.539 36.8768 185.198 36.2575 184.625Z" fill="#FF9BBC"/>
    <path d="M33.0824 194.089C31.9168 193.787 30.8747 193.128 30.1013 192.205C29.3279 191.282 28.8617 190.141 28.7678 188.94C28.5013 187.4 28.6976 185.816 29.3318 184.389C29.3954 184.251 29.467 184.117 29.5461 183.988C30.347 182.725 31.4524 182.437 32.7665 183.165C33.7062 183.725 34.5248 184.467 35.1748 185.347C36.1302 186.411 36.8355 187.675 37.2391 189.047C37.4619 189.905 37.4619 190.806 37.2391 191.664C37.1421 192.106 36.9546 192.523 36.6884 192.888C36.4222 193.254 36.0831 193.56 35.6925 193.788C35.3018 194.016 34.8682 194.16 34.419 194.212C33.9697 194.264 33.5146 194.222 33.0824 194.089Z" fill="#FF9BBC"/>
    <path d="M58.1971 194.93C58.2535 195.144 58.293 195.364 58.355 195.646C58.5806 197.795 57.6557 199.442 55.8339 200.604C53.962 201.756 51.7196 202.148 49.5679 201.698C48.1561 201.435 46.6971 201.645 45.4169 202.296C43.5175 203.317 41.3057 203.595 39.2129 203.074C38.3388 202.899 37.5278 202.492 36.8642 201.897C36.2006 201.302 35.7087 200.54 35.4397 199.69C35.2212 199 35.1464 198.273 35.2202 197.553C35.2939 196.833 35.5145 196.136 35.8683 195.505C36.2525 194.778 36.72 194.099 37.2614 193.48C38.4419 192.141 39.3945 190.616 40.0814 188.968C40.4036 188.172 40.8855 187.451 41.4973 186.849C42.1091 186.247 42.8378 185.776 43.6384 185.467C44.4391 185.157 45.2948 185.014 46.1526 185.048C47.0104 185.082 47.8522 185.291 48.626 185.663C49.6437 186.136 50.5118 186.879 51.1358 187.812C51.9587 189.029 53.0789 190.015 54.3901 190.677C56.0302 191.44 57.3286 192.785 58.0335 194.45C58.0985 194.606 58.1532 194.766 58.1971 194.93Z" fill="#FF9BBC"/>
    <path d="M61.7223 183.971C62.0607 186.515 61.3614 188.483 59.5509 189.961C59.1655 190.317 58.7025 190.579 58.1984 190.726C57.6943 190.873 57.163 190.9 56.6465 190.806C56.13 190.712 55.6425 190.499 55.2226 190.184C54.8026 189.869 54.4617 189.46 54.2268 188.991C53.8374 188.283 53.6228 187.492 53.6007 186.684C53.5387 184.755 54.2437 183.029 55.1122 181.365C55.4299 180.773 55.8264 180.227 56.291 179.741C56.4795 179.509 56.7153 179.319 56.9828 179.185C57.2503 179.052 57.5432 178.976 57.8421 178.964C58.141 178.953 58.439 179.005 58.7162 179.117C58.9933 179.23 59.2433 179.4 59.4494 179.617C60.3295 180.416 60.9783 181.437 61.3275 182.572C61.5136 183.08 61.6321 183.638 61.7223 183.971Z" fill="#FF9BBC"/>
    <path d="M48.2709 236.26C48.2314 236.152 48.2032 236.045 48.1581 235.904C48.0423 235.423 48.0692 234.919 48.2355 234.453C48.4018 233.988 48.7002 233.58 49.0944 233.282C49.4971 232.957 49.9623 232.719 50.4611 232.582C50.9598 232.446 51.4814 232.413 51.9933 232.486C52.6722 232.574 53.3598 232.412 53.9278 232.03C54.3434 231.736 54.8138 231.53 55.3108 231.422C55.8079 231.315 56.3216 231.308 56.8212 231.404C57.2573 231.472 57.6677 231.654 58.0112 231.931C58.3547 232.208 58.6193 232.571 58.7782 232.983C59.0544 233.674 59.0544 234.446 58.7782 235.137C58.6503 235.526 58.4598 235.892 58.2142 236.22C57.2047 237.427 56.3643 237.794 54.52 238.262C52.6758 238.73 51.7508 238.769 50.2618 238.301C49.8379 238.147 49.4495 237.908 49.12 237.6C48.7905 237.292 48.5266 236.92 48.3442 236.508C48.3142 236.427 48.2897 236.344 48.2709 236.26Z" fill="#FF9BBC"/>
    <path d="M92.0991 253.4L99.6003 228.381C99.6003 228.381 79.5952 221.381 74.5925 211.252C69.5898 201.122 73.7183 148.986 78.721 133.854C83.7237 118.722 104.231 99.3429 131.861 92.5919C159.491 85.8408 188.002 99.0779 198.627 112.456C209.253 125.834 227.448 170.136 228.576 182.764C229.704 195.392 209.445 210.372 209.445 210.372L222.513 253.405L92.0991 253.4Z" fill="#FFDEDE"/>
    <g opacity="0.1">
        <path d="M99.6003 228.381C102.669 228.736 105.618 229.576 108.624 230.23C110.412 230.591 112.234 230.794 114.05 231.195C109.081 232.052 104.045 230.569 99.606 228.375L99.6003 228.381Z" fill="black"/>
        <path d="M196.964 218.037C199.462 216.238 202.198 214.873 204.86 213.339C206.439 212.402 207.888 211.353 209.462 210.366C206.49 214.427 201.696 216.649 196.981 218.037H196.964Z" fill="black"/>
    </g>
    <path opacity="0.45" d="M195.379 253.4C195.379 253.4 185.441 232.571 178.126 228.381C170.811 224.19 136.311 226.356 129.171 236.198C123.396 244.156 120.147 253.4 120.147 253.4H195.379Z" fill="white"/>
    <path opacity="0.45" d="M153.445 224.743C125.454 228.24 110.683 204.794 112.459 191.106C114.608 174.558 138.217 167.677 135.899 149.088C134.501 137.909 125.871 135.648 125.11 129.556C123.937 120.177 132.763 103.714 138.246 103.048C143.728 102.383 156.327 116.156 157.501 125.535C158.262 131.626 150.451 135.941 151.861 147.119C154.184 165.703 178.763 166.572 184.917 182.087C190.004 194.89 181.442 221.246 153.445 224.743Z" fill="white"/>
    <path d="M113.751 158.405C102.133 159.854 104.372 177.908 116.007 176.453C127.643 174.998 125.381 156.95 113.751 158.405Z" fill="#263238"/>
    <path d="M103.921 150.588C104.248 145.969 110.407 143.025 114.039 146.076C112.347 146.392 110.779 146.55 109.239 147.204C107.26 147.999 105.709 149.229 103.921 150.554V150.588Z" fill="#263238"/>
    <path d="M183.236 140.656C181.177 139.816 179.367 139.003 177.258 138.716C175.599 138.451 174.02 138.682 172.323 138.789C175.114 134.914 181.758 136.257 183.236 140.656Z" fill="#263238"/>
    <path d="M175.436 150.701C163.823 152.15 166.056 170.204 177.692 168.749C189.327 167.294 187.065 149.246 175.436 150.701Z" fill="#263238"/>
    <path d="M156.982 188.867C156.474 192.369 155.623 197.423 150.033 198.122C144.444 198.821 142.374 194.129 141.009 190.863C141.009 190.863 143.908 191.89 145.645 190.412C147.382 188.934 147.597 178.686 147.597 178.686C147.597 178.686 150.321 188.568 152.368 189.577C154.416 190.587 156.982 188.867 156.982 188.867Z" fill="#FF9BBC"/>
    <path d="M149.599 194.614C148.184 189.55 147.529 184.304 147.653 179.047C149.066 184.112 149.721 189.357 149.599 194.614Z" fill="#263238"/>
    <path d="M159.508 170.074C159.678 171.439 158.442 173.03 157.918 173.735C156.818 175.178 154.455 175.929 153.665 175.184C152.746 174.327 155.205 173.537 154.884 172.64C154.647 171.969 153.756 170.948 152.537 171.332C151.319 171.715 152.216 175.094 151.793 176.227C151.47 177.052 150.935 177.777 150.242 178.328C149.548 178.878 148.721 179.236 147.845 179.363H147.721C146.839 179.457 145.948 179.315 145.138 178.953C144.329 178.59 143.63 178.02 143.113 177.299C142.425 176.306 142.476 172.787 141.19 172.736C139.904 172.686 139.3 173.864 139.233 174.581C139.142 175.528 141.72 175.709 141.043 176.746C140.479 177.66 137.98 177.513 136.565 176.385C135.882 175.821 134.309 174.592 134.123 173.233C133.891 171.411 137.315 167.141 146.057 166.053H146.181C154.917 164.959 159.283 168.252 159.508 170.074Z" fill="#263238"/>
    <path d="M132.769 182.821C133.449 183.802 134.22 184.718 135.07 185.556C136.683 187.192 138.392 188.805 140.513 189.696C141.934 190.26 143.547 190.824 144.884 190.068C145.871 189.16 146.085 187.13 146.429 185.748C146.869 183.441 147.196 181.078 147.602 178.703C147.997 181.828 148.386 188.957 146.046 191.298C144.213 192.702 141.635 192.003 139.842 191.089C137.586 189.961 135.894 188.043 134.478 186.013C133.761 185.039 133.191 183.965 132.786 182.826L132.769 182.821Z" fill="#263238"/>
    <path d="M163 179.047C162.881 180.256 162.585 181.44 162.12 182.561C161.251 184.851 160.061 187.146 158.172 188.765C156.672 190.091 154.342 191.405 152.227 190.491C149.407 188.799 148.003 181.794 147.614 178.647C148.595 180.852 149.492 183.057 150.485 185.184C151.156 186.441 151.866 188.359 153.051 188.991C154.523 189.374 155.955 188.455 157.19 187.558C159.035 186.171 160.287 184.174 161.449 182.206C162.07 181.194 162.593 180.125 163.011 179.014L163 179.047Z" fill="#263238"/>
    <path d="M162.368 204.664C159.548 206.08 156.525 207.231 153.575 207.484C153.338 207.484 153.254 207.913 153.457 208.048C154.021 208.449 155.572 209.571 155.814 209.74C155.634 209.774 155.453 209.808 155.25 209.831C154.643 209.913 154.031 209.962 153.417 209.977C152.19 210.007 150.962 209.92 149.751 209.718C148.538 209.515 147.35 209.188 146.204 208.742C145.036 208.296 143.948 207.687 142.82 207.123C142.769 207.123 142.724 207.208 142.769 207.247C143.764 208.133 144.883 208.869 146.091 209.43C147.212 209.98 148.388 210.409 149.599 210.71C150.814 211.011 152.059 211.17 153.31 211.184C153.962 211.188 154.613 211.158 155.262 211.094C155.913 211.078 156.553 210.931 157.145 210.66C157.54 210.445 157.377 209.763 157.061 209.633C156.869 209.554 154.664 208.178 154.342 207.969C155.632 207.825 156.901 207.537 158.127 207.112C159.654 206.561 161.104 205.816 162.441 204.896C162.554 204.839 162.475 204.602 162.368 204.664Z" fill="#263238"/>
    <path opacity="0.1" d="M92.0992 253.4L99.6004 228.381C99.6004 228.381 79.5953 221.381 74.5926 211.252C70.6108 203.187 72.4156 168.512 75.8391 147.069C75.7206 155.529 75.3484 197.868 82.4717 207.936C89.595 218.003 103.667 224.292 122.048 228.381C122.048 228.381 114.039 236.57 114.039 243.135C114.039 247.562 120.373 253.4 146.813 253.4H92.0992Z" fill="black"/>
    <path opacity="0.1" d="M210.043 212.329C210.043 212.329 212.632 237.382 211.633 243.383C210.635 249.384 189.378 253.4 189.378 253.4H222.513L210.043 212.329Z" fill="black"/>
    <path d="M116.509 97.8878C114.169 98.5928 110.542 96.9065 108.856 95.096C107.169 93.2856 104.101 86.9011 104.101 86.9011C104.101 86.9011 103.165 92.778 103.667 95.5303C103.922 97.0996 104.519 98.5937 105.415 99.9069C103.061 98.6617 101.012 96.9109 99.4143 94.7802C97.1583 91.5315 95.7878 89.4053 92.6463 88.8413C89.5048 88.2773 80.3906 101.345 73.2052 105.722C66.0199 110.098 58.5412 112.349 55.8228 116.601C53.1043 120.854 53.3242 140.853 57.7009 152.861C62.0775 164.868 73.8256 177.113 79.0765 175.24C84.3273 173.368 81.1689 159.629 89.1721 142.376C95.3197 129.122 103.836 123.228 103.836 123.228L116.509 97.8878Z" fill="#FFDEDE"/>
    <path opacity="0.1" d="M102.217 124.531C99.4482 126.923 93.6784 132.675 89.1834 142.376C81.1858 159.629 84.3442 173.368 79.0934 175.24C73.8426 177.113 62.0888 164.863 57.7122 152.844C60.2784 158.484 72.3254 169.595 75.9688 166.848C78.7888 164.727 80.8531 150.092 85.2861 141.84C89.612 133.865 101.456 125.073 102.217 124.531Z" fill="black"/>
    <path d="M116.509 97.8878C113.689 98.6041 110.277 96.9459 108.393 94.814C107.491 93.6056 106.675 92.3354 105.951 91.0127C105.212 89.7042 104.507 88.3788 103.825 87.0365L104.389 86.9519C103.898 91.1649 103.142 95.9759 105.776 99.6193L106.966 101.266L105.184 100.336C103.492 99.4504 101.938 98.3238 100.57 96.9911C97.9197 94.4587 96.5266 90.0257 92.4827 89.4617C91.0953 89.6985 90.0124 90.945 88.9464 91.8587C84.9984 95.6882 81.3719 100.037 77.1758 103.703C71.6316 108.711 63.9443 110.555 58.2141 115.146C56.8829 116.2 55.9888 117.708 55.7043 119.382C55.0445 122.959 54.7704 126.597 54.8865 130.233C55.05 137.526 55.8791 144.948 58.152 151.891C59.3502 155.336 60.9719 158.619 62.9799 161.665C65.6363 165.872 73.459 175.94 78.879 174.778C79.5333 174.564 80.0522 173.83 80.4357 173.058C81.5637 170.587 82.0487 167.835 82.6184 165.162C84.8349 154.446 86.6397 142.782 93.8589 134.091C89.251 139.951 87.0909 147.238 85.4948 154.395C84.7164 158.01 84.1299 161.659 83.4644 165.308C82.9004 168.055 82.483 170.875 81.3155 173.469C79.8491 177.068 76.1662 176.103 73.5041 174.502C68.6594 171.518 64.9426 167.074 61.7786 162.432C55.349 153.041 53.5667 141.395 53.2509 130.245C53.2114 128.378 53.2509 126.505 53.3411 124.605C53.5836 121.722 53.6852 118.773 55.1346 116.105C56.7646 113.623 59.4492 112.101 61.9026 110.741C66.0142 108.547 70.2386 106.793 74.0343 104.205C76.2184 102.553 78.2684 100.731 80.165 98.7564C82.7763 96.1563 85.241 93.3815 87.9933 90.8322C89.0874 89.8734 90.1703 88.8356 91.6085 88.2998C92.045 88.1416 92.5197 88.1219 92.9678 88.2434L93.3344 88.328C97.2824 89.315 98.7206 93.545 101.292 96.224C102.559 97.5052 104.005 98.5957 105.584 99.4614L104.992 100.178C104.337 99.1998 103.84 98.1243 103.52 96.9911C102.505 93.342 103.407 89.5011 103.915 85.8521C105.325 88.8243 106.735 91.8925 108.619 94.5828C110.401 96.6921 113.633 98.4631 116.464 97.8653L116.509 97.8878Z" fill="#263238"/>
    <path d="M156.886 91.4864C159.322 91.6782 162.526 89.2304 163.767 87.1211C165.008 85.0117 166.654 78.0971 166.654 78.0971C166.654 78.0971 168.826 83.6412 168.91 86.433C168.996 88.02 168.732 89.6064 168.138 91.0804C170.169 89.3595 171.796 87.2125 172.904 84.7917C174.409 81.137 175.295 78.7626 178.228 77.5443C181.161 76.3261 192.892 87.1323 200.833 89.879C208.774 92.6257 216.625 93.2123 220.139 96.788C223.652 100.364 227.792 119.957 226.1 132.619C224.408 145.281 215.503 159.759 209.975 159.048C204.448 158.337 204.595 144.243 193.089 129.1C184.251 117.464 174.669 113.528 174.669 113.528L156.886 91.4864Z" fill="#FFDEDE"/>
    <path opacity="0.1" d="M226.1 132.613C224.408 145.275 215.531 159.759 209.998 159.054C204.984 158.411 204.645 146.742 196.022 133.268C196.02 133.254 196.02 133.241 196.022 133.228C200.771 137.481 206.772 152.607 211.024 153.109C215.277 153.611 221.842 141.88 223.714 133.933C224.842 129.145 225.378 113.387 225.406 113.031C226.416 119.568 226.856 126.804 226.1 132.613Z" fill="black"/>
    <path d="M156.886 91.4864C159.768 91.4864 162.565 89.0443 163.851 86.6022C165.126 83.5679 165.831 80.2741 166.576 77.0706C167.85 80.5223 169.553 84.0867 169.339 87.8655C169.275 89.0403 169.02 90.1966 168.583 91.289L167.856 90.725C169.211 89.5393 170.391 88.1663 171.358 86.6473C173.298 83.4889 173.772 79.0446 177.438 77.2342C177.943 76.9202 178.538 76.7815 179.13 76.8394C180.647 77.0537 181.95 77.8376 183.208 78.5314C186.457 80.432 189.44 82.6203 192.548 84.6C194.822 86.1268 197.215 87.4678 199.705 88.61C203.963 90.302 208.464 91.1367 212.948 92.4057C215.666 93.201 218.588 94.0977 220.736 96.1958C222.722 98.4857 223.449 101.345 224.307 104.092C224.814 105.902 225.232 107.73 225.592 109.563C227.668 120.521 228.412 132.281 224.143 142.839C222.051 148.05 219.366 153.188 215.277 157.136C213.021 159.24 209.637 161.028 207.42 157.802C205.728 155.512 204.702 152.855 203.58 150.289C202.147 146.866 200.799 143.425 199.259 140.064C196.191 133.392 192.491 126.736 186.744 122.016C195.661 128.964 199.908 139.945 204.369 149.968C205.497 152.297 207.561 158.038 210.082 158.557C215.61 158.557 221.143 146.956 222.806 142.348C224.117 138.944 225 135.389 225.435 131.767C226.168 124.497 225.395 117.069 223.991 109.912C223.328 106.334 222.282 102.838 220.872 99.4839C220.236 97.9113 219.041 96.6296 217.516 95.8856C210.934 92.6257 203.032 92.4678 196.546 88.7623C191.662 86.089 187.195 82.6147 182.514 79.7383C181.279 79.0672 179.959 78.0858 178.566 78.1535C174.737 79.5691 174.325 84.1939 172.272 87.2339C171.223 88.8286 169.946 90.2613 168.482 91.4864L166.942 92.7836L167.749 90.9112C169.542 86.7827 167.777 82.2594 166.401 78.2437L166.965 78.2042C166.592 79.6594 166.181 81.1032 165.741 82.5414C165.316 83.9884 164.79 85.4038 164.167 86.777C162.785 89.253 159.819 91.6161 156.897 91.5146L156.886 91.4864Z" fill="#263238"/>
    <path d="M64.7961 250.715C64.1926 254.702 68.4508 259.434 71.2652 259.908C74.0795 260.382 76.234 258.312 76.234 258.312C76.234 258.312 78.7663 262.26 83.566 262.717C84.9095 262.88 86.2724 262.708 87.5331 262.216C88.7938 261.724 89.9131 260.927 90.7908 259.897C90.7908 259.897 93.6108 262.051 98.574 262.051C103.537 262.051 105.968 257.184 105.968 257.184C105.968 257.184 109.352 258.126 111.783 256.158C114.214 254.189 114.783 249.311 113.097 245.56C111.411 241.809 101.456 230.112 89.409 229.96C77.362 229.807 65.7154 244.528 64.7961 250.715Z" fill="#FFDEDE"/>
    <path d="M77.204 247.647C76.3016 251.223 75.7658 254.77 76.3919 258.436C74.1923 255.244 74.8127 250.54 77.204 247.647Z" fill="#263238"/>
    <path d="M103.757 245.842C106.667 248.56 108.072 253.495 105.866 257.032C106.43 253.084 105.269 249.423 103.757 245.842Z" fill="#263238"/>
    <path d="M90.5426 248.16C91.2645 252.052 91.1404 255.938 90.8415 259.88C89.5838 256.129 89.7135 251.984 90.5426 248.16Z" fill="#263238"/>
    <path opacity="0.1" d="M105.472 257.974C104.547 259.35 102.246 262.063 98.5344 262.063C93.5656 262.063 90.7512 259.908 90.7512 259.908C89.8743 260.938 88.7561 261.734 87.4964 262.226C86.2366 262.718 84.8747 262.891 83.532 262.728C78.7493 262.26 76.2 258.318 76.2 258.318C76.2 258.318 74.0456 260.382 71.2312 259.914C68.4168 259.446 64.153 254.714 64.7621 250.726C65.3261 246.897 70.013 239.807 76.341 234.991C70.2047 240.89 68.3999 246.197 69.088 249.502C69.7761 252.807 72.5904 255.819 75.856 254.505C75.856 254.505 79.8604 259.124 83.8592 259.908C85.067 260.115 86.3063 260.04 87.4803 259.689C88.6543 259.337 89.7313 258.719 90.6272 257.883C90.6272 257.883 95.2858 260.935 99.0477 260.822C102.81 260.709 105.472 257.974 105.472 257.974Z" fill="black"/>
    <path d="M187.641 253.4H237.713C237.713 253.4 235.417 216.903 235.513 215.837C235.609 214.771 243.263 211.776 242.45 204.207C241.886 198.957 238.299 199.419 237.623 198.161C236.946 196.904 236.76 187.744 232.09 186.532C227.42 185.319 227.437 188.117 225.621 187.801C223.805 187.485 224.166 184.236 219.727 184.789C214.482 185.438 212.998 190.717 211.831 191.783C210.663 192.849 208.08 191.038 204.138 195.443C200.376 199.65 205.356 208.009 204.702 209.836C204.307 210.936 187.641 253.4 187.641 253.4Z" fill="#FFDEDE"/>
    <path opacity="0.2" d="M219.23 244.776C218.012 241.725 217.082 238.538 217.048 235.47C217.048 235.227 216.636 235.109 216.484 235.306C216.027 235.842 214.73 237.354 214.544 237.591C214.544 237.399 214.504 237.213 214.498 237.027C214.465 236.392 214.465 235.755 214.498 235.12C214.567 233.855 214.756 232.599 215.062 231.37C215.375 230.137 215.812 228.939 216.365 227.794C216.929 226.632 217.651 225.538 218.322 224.41C218.356 224.359 218.249 224.303 218.204 224.348C217.207 225.296 216.353 226.385 215.672 227.58C215.009 228.688 214.467 229.864 214.053 231.088C213.638 232.314 213.368 233.584 213.246 234.872C213.184 235.541 213.162 236.214 213.179 236.886C213.139 237.558 213.235 238.231 213.461 238.865C213.647 239.288 214.363 239.181 214.527 238.865C214.623 238.679 216.219 236.519 216.478 236.209C216.516 237.542 216.705 238.866 217.042 240.157C217.478 241.778 218.121 243.336 218.954 244.793C219.033 244.962 219.281 244.9 219.23 244.776Z" fill="black"/>
    <path d="M225.164 197.626C225.22 197.028 225.355 196.436 225.451 195.838C225.783 194.411 226.292 193.031 226.968 191.732C227.17 191.38 227.407 191.05 227.673 190.745C228.008 190.309 228.5 190.021 229.044 189.943C229.587 189.865 230.14 190.003 230.584 190.327C231.361 190.823 232.018 191.486 232.507 192.268C233.635 193.96 234.385 195.77 234.244 197.817C234.207 198.81 233.935 199.78 233.45 200.648C232.966 201.515 232.283 202.256 231.458 202.809C231.028 203.127 230.534 203.348 230.01 203.457C229.486 203.566 228.945 203.561 228.423 203.441C227.902 203.321 227.412 203.089 226.989 202.762C226.566 202.435 226.218 202.02 225.97 201.545C225.28 200.362 224.997 198.985 225.164 197.626Z" fill="#FF9BBC"/>
    <path d="M214.747 199.137C214.175 198.163 213.874 197.054 213.874 195.925C213.874 194.796 214.175 193.687 214.747 192.713C215.845 190.744 217.617 189.238 219.738 188.472C220.12 188.335 220.518 188.252 220.922 188.224C221.408 188.146 221.905 188.248 222.32 188.511C222.735 188.774 223.04 189.179 223.178 189.651C223.52 190.692 223.621 191.797 223.472 192.882C223.404 193.7 223.28 194.518 223.178 195.336C222.982 196.829 222.375 198.239 221.424 199.408C220.803 200.17 219.965 200.727 219.022 201.004C218.203 201.24 217.328 201.182 216.548 200.841C215.767 200.5 215.13 199.898 214.747 199.137Z" fill="#FF9BBC"/>
    <path d="M208.486 206.915C207.615 206.297 206.928 205.454 206.502 204.474C206.075 203.495 205.925 202.418 206.067 201.359C206.103 201.107 206.154 200.856 206.219 200.609C206.512 199.074 207.252 197.659 208.345 196.543C208.453 196.436 208.568 196.336 208.689 196.244C209.879 195.336 211.013 195.449 211.994 196.588C212.682 197.44 213.193 198.419 213.5 199.47C214.027 200.801 214.248 202.233 214.149 203.66C214.061 204.542 213.746 205.385 213.235 206.108C212.989 206.488 212.666 206.813 212.288 207.062C211.91 207.311 211.484 207.478 211.038 207.554C210.591 207.63 210.134 207.612 209.695 207.502C209.256 207.392 208.844 207.192 208.486 206.915Z" fill="#FF9BBC"/>
    <path d="M231.74 216.412C231.74 216.632 231.678 216.852 231.638 217.14C231.108 219.232 229.67 220.456 227.555 220.913C225.403 221.351 223.164 220.947 221.3 219.785C220.067 219.049 218.626 218.739 217.2 218.905C215.062 219.207 212.888 218.7 211.103 217.484C210.346 217.018 209.727 216.358 209.31 215.573C208.892 214.788 208.692 213.906 208.729 213.017C208.764 212.295 208.947 211.587 209.266 210.939C209.585 210.29 210.034 209.713 210.584 209.244C211.197 208.694 211.873 208.219 212.598 207.828C214.176 206.984 215.605 205.887 216.828 204.58C217.406 203.945 218.108 203.435 218.891 203.082C219.674 202.729 220.521 202.54 221.38 202.527C222.238 202.514 223.091 202.677 223.884 203.005C224.677 203.334 225.395 203.822 225.993 204.439C226.774 205.228 227.326 206.214 227.589 207.293C227.94 208.718 228.648 210.03 229.647 211.105C230.919 212.392 231.671 214.103 231.757 215.91C231.762 216.078 231.756 216.246 231.74 216.412Z" fill="#FF9BBC"/>
    <path d="M238.863 207.355C238.299 209.859 236.962 211.449 234.752 212.222C234.266 212.423 233.74 212.508 233.216 212.471C232.691 212.433 232.183 212.274 231.731 212.006C231.279 211.737 230.895 211.368 230.611 210.925C230.327 210.483 230.149 209.981 230.093 209.458C229.971 208.653 230.046 207.831 230.313 207.061C230.928 205.223 232.185 203.847 233.578 202.589C234.088 202.137 234.657 201.757 235.27 201.461C235.527 201.309 235.814 201.214 236.11 201.181C236.407 201.148 236.707 201.179 236.991 201.272C237.275 201.364 237.536 201.515 237.756 201.716C237.977 201.917 238.152 202.163 238.271 202.437C238.823 203.492 239.078 204.677 239.01 205.866C238.976 206.424 238.891 206.988 238.863 207.355Z" fill="#FF9BBC"/>
    <path opacity="0.1" d="M228.317 186.571C227.786 186.853 226.658 188.077 225.688 188.032C224.718 187.987 223.201 185.877 222.592 185.55C221.983 185.223 219.727 184.789 217.273 186.3C214.82 187.812 213.692 190.987 212.271 192.324C210.849 193.661 210.082 193.074 208.74 193.452C207.398 193.83 205.142 195.454 204.645 198.771C204.149 202.087 207.33 209.644 207.206 210.395C207.082 211.145 197.488 240.433 199.271 245.78C201.25 251.73 223.494 253.315 223.494 253.315L223.336 253.428H187.641C187.641 253.428 204.307 210.975 204.708 209.864C205.362 208.037 200.382 199.679 204.144 195.471C208.092 191.066 210.669 192.877 211.831 191.811C212.993 190.745 214.476 185.466 219.727 184.817C224.166 184.253 223.805 187.513 225.621 187.829C226.698 187.987 227.155 187.084 228.317 186.571Z" fill="black"/>
</svg>
