<svg viewBox="0 0 121 121" fill="none" xmlns="http://www.w3.org/2000/svg">
<path d="M64.781 12.63C73.8246 14.4498 84.1023 19.481 88.3034 28.2027C94.6535 41.382 106.076 41.2489 109.011 66.1967C109.457 69.8381 109.505 73.5172 109.154 77.169C108.979 78.9548 108.688 80.7275 108.285 82.476C104.74 97.8987 93.0394 107.521 79.6301 110.306C61.9956 113.994 51.5461 102.954 45.2928 95.6917C39.0395 88.4292 18.2759 81.796 15.1976 57.2838C14.7118 53.5433 14.6598 49.7591 15.0428 46.0066C15.9478 37.4471 19.5222 28.3237 25.9328 22.3269C26.4168 21.8768 26.9129 21.4412 27.4211 21.0201C37.3769 12.7728 52.4511 10.1495 64.781 12.63Z" fill="#FF8551"/>
<path opacity="0.7" d="M64.781 12.63C73.8246 14.4498 84.1023 19.481 88.3034 28.2027C94.6535 41.382 106.076 41.2489 109.011 66.1967C109.457 69.8381 109.505 73.5172 109.154 77.169C108.979 78.9548 108.688 80.7275 108.285 82.476C104.74 97.8987 93.0394 107.521 79.6301 110.306C61.9956 113.994 51.5461 102.954 45.2928 95.6917C39.0395 88.4292 18.2759 81.796 15.1976 57.2838C14.7118 53.5433 14.6598 49.7591 15.0428 46.0066C15.9478 37.4471 19.5222 28.3237 25.9328 22.3269C26.4168 21.8768 26.9129 21.4412 27.4211 21.0201C37.3769 12.7728 52.4511 10.1495 64.781 12.63Z" fill="white"/>
<g opacity="0.3">
<path d="M87.9161 11.3449C86.3078 12.2274 84.6201 12.9566 82.8752 13.5229C80.068 14.4232 77.7061 16.9109 79.2452 20.2336C80.7844 23.5563 82.3138 26.7676 83.6158 28.7786C84.9177 30.7896 88.2138 32.0117 90.6192 30.0806C93.0247 28.1494 92.2455 26.3344 93.3756 22.8206C94.5058 19.3067 96.6692 17.8886 96.9403 15.8026C97.2113 13.7165 95.6698 10.3721 92.7634 10.0502C91.0421 9.85385 89.3102 10.3164 87.9161 11.3449Z" fill="black"/>
<path d="M74.4659 24.517C74.4659 24.517 72.058 24.788 70.8092 26.3005C69.5605 27.813 71.632 29.8482 73.6479 30.976C75.6638 32.1037 79.0614 31.4188 80.4239 29.766C81.7864 28.1131 80.649 25.4632 79.3518 24.9429C78.0547 24.4226 74.4659 24.517 74.4659 24.517Z" fill="black"/>
<path d="M65.945 17.816C65.945 17.816 67.576 21.054 69.8605 22.4672C72.145 23.8805 74.7949 23.9193 76.3171 21.9833C77.8393 20.0473 76.351 17.5522 74.6473 16.1752C72.9436 14.7983 69.4975 13.9973 67.6293 14.2707C65.761 14.5442 65.7296 17.0876 65.945 17.816Z" fill="black"/>
<path d="M68.3505 10.3769C68.3505 10.3769 69.4734 11.7225 72.2902 12.9615C75.1071 14.2005 77.4618 14.0892 78.9089 13.1817C80.3561 12.2742 80.9684 9.88326 79.6349 7.98598C78.3015 6.0887 74.4973 5.27074 72.7403 5.7136C70.9834 6.15646 68.6457 7.4076 68.1423 8.34172C67.639 9.27584 67.7261 9.79856 68.3505 10.3769Z" fill="black"/>
<path d="M79.3518 5.10133C79.3518 5.10133 81.3507 8.48933 83.5529 9.61705C85.7551 10.7448 88.2695 9.51541 88.7365 8.20135C89.2036 6.88729 88.9495 4.60281 86.3746 2.67891C83.7997 0.755012 79.9664 1.71091 79.4365 2.52645C78.9065 3.34199 79.3518 5.10133 79.3518 5.10133Z" fill="black"/>
</g>
<g opacity="0.3">
<path d="M108.934 88.8285C108.032 87.2303 107.284 85.5507 106.698 83.8118C105.769 81.0143 103.264 78.679 99.9509 80.2569C96.6379 81.8347 93.4435 83.4029 91.4542 84.7218C89.465 86.0407 88.2719 89.3536 90.2273 91.7398C92.1827 94.1259 93.9928 93.3249 97.5139 94.4163C101.035 95.5077 102.482 97.6542 104.58 97.9035C106.678 98.1528 109.996 96.5725 110.287 93.6612C110.463 91.9373 109.979 90.2106 108.934 88.8285Z" fill="black"/>
<path d="M95.6118 75.5233C95.6118 75.5233 95.3141 73.1179 93.7895 71.8933C92.2649 70.6688 90.2515 72.7452 89.1383 74.7828C88.0251 76.8205 88.7559 80.1988 90.4209 81.5395C92.0859 82.8801 94.7285 81.7161 95.2343 80.4142C95.74 79.1122 95.6118 75.5233 95.6118 75.5233Z" fill="black"/>
<path d="M102.218 66.9299C102.218 66.9299 98.9925 68.5949 97.6204 70.8963C96.2482 73.1977 96.2168 75.8452 98.1818 77.3456C100.147 78.846 102.613 77.3311 103.97 75.6129C105.328 73.8947 106.098 70.4414 105.798 68.5659C105.497 66.6904 102.944 66.7049 102.218 66.9299Z" fill="black"/>
<path d="M109.684 69.2531C109.684 69.2531 108.351 70.3905 107.143 73.2219C105.935 76.0533 106.076 78.4031 106.998 79.8406C107.92 81.2781 110.318 81.8662 112.201 80.5037C114.084 79.1412 114.863 75.337 114.398 73.5849C113.934 71.8328 112.668 69.5096 111.717 69.0063C110.766 68.5029 110.255 68.6239 109.684 69.2531Z" fill="black"/>
<path d="M115.081 80.1939C115.081 80.1939 111.727 82.2316 110.613 84.458C109.5 86.6844 110.766 89.1721 112.087 89.6271C113.409 90.0821 115.686 89.7989 117.581 87.2071C119.475 84.6153 118.483 80.7868 117.658 80.269C116.833 79.7511 115.081 80.1939 115.081 80.1939Z" fill="black"/>
</g>
<g opacity="0.3">
<path d="M33.4081 90.0627C32.5148 91.6651 31.7742 93.3479 31.1962 95.089C30.2814 97.8914 27.7864 100.236 24.4637 98.6731C21.1411 97.1097 17.9443 95.5634 15.9478 94.2469C13.9513 92.9304 12.7461 89.6271 14.6918 87.2289C16.6375 84.8307 18.45 85.6244 21.9663 84.5209C25.4826 83.4174 26.9201 81.2587 29.0182 81.0022C31.1163 80.7457 34.439 82.309 34.7415 85.2179C34.9264 86.9434 34.4499 88.6748 33.4081 90.0627Z" fill="black"/>
<path d="M20.1466 103.426C20.1466 103.426 19.861 105.831 18.3412 107.07C16.8215 108.309 14.7984 106.238 13.6779 104.2C12.5574 102.163 13.2713 98.7844 14.9315 97.4389C16.5916 96.0933 19.2366 97.2404 19.7473 98.54C20.2579 99.8395 20.1466 103.426 20.1466 103.426Z" fill="black"/>
<path d="M26.7918 111.99C26.7918 111.99 23.5563 110.337 22.1672 108.043C20.7781 105.749 20.7443 103.092 22.702 101.592C24.6598 100.091 27.1331 101.592 28.51 103.3C29.887 105.009 30.6614 108.462 30.3662 110.337C30.0709 112.213 27.5178 112.211 26.7918 111.99Z" fill="black"/>
<path d="M34.2478 109.626C34.2478 109.626 32.912 108.503 31.702 105.677C30.492 102.85 30.6081 100.5 31.5253 99.0578C32.4425 97.6155 34.8359 97.0202 36.7259 98.3705C38.6159 99.7209 39.4073 103.528 38.9523 105.282C38.4973 107.037 37.2414 109.365 36.2903 109.88C35.3392 110.396 34.8214 110.262 34.2478 109.626Z" fill="black"/>
<path d="M39.5961 98.6682C39.5961 98.6682 36.2323 96.6475 35.1095 94.438C33.9866 92.2286 35.2401 89.7215 36.5615 89.2617C37.8828 88.8019 40.1624 89.0753 42.067 91.6623C43.9715 94.2493 42.9987 98.0777 42.1759 98.6004C41.3531 99.1232 39.5961 98.6682 39.5961 98.6682Z" fill="black"/>
</g>
<path d="M56.9692 47.3376C56.9692 47.3376 56.945 43.8601 57.7242 43.5987C58.5035 43.3374 59.6312 45.3315 59.8901 45.9389C60.1491 46.5463 56.9692 47.3376 56.9692 47.3376Z" fill="#263238"/>
<path d="M56.8506 47.4925V47.3376C56.8506 46.7423 56.8675 43.7585 57.6903 43.485C58.6172 43.1752 59.8078 45.4331 60.0038 45.8905C60.0227 45.934 60.0315 45.9812 60.0294 46.0286C60.0273 46.076 60.0144 46.1223 59.9917 46.1639C59.6917 46.7689 57.2765 47.386 57.0006 47.4562L56.8506 47.4925ZM57.8718 43.6955C57.8347 43.6961 57.7979 43.7026 57.7629 43.7149C57.2789 43.877 57.095 45.8639 57.0902 47.1828C58.092 46.9214 59.5924 46.418 59.7739 46.055C59.7791 46.0445 59.7818 46.0329 59.7818 46.0212C59.7818 46.0094 59.7791 45.9978 59.7739 45.9873C59.4932 45.3169 58.5131 43.6955 57.8718 43.6955Z" fill="#263238"/>
<path d="M67.8519 39.4267C67.8519 39.4267 68.6021 36.0387 69.4201 35.9491C70.238 35.8596 70.8939 38.0618 71.01 38.7128C71.1262 39.3637 67.8519 39.4267 67.8519 39.4267Z" fill="#263238"/>
<path d="M67.7019 39.5501L67.7334 39.4001C67.8616 38.8193 68.5465 35.9128 69.408 35.8281C70.376 35.7362 71.0415 38.1997 71.131 38.691C71.1387 38.7372 71.1362 38.7845 71.1236 38.8297C71.1111 38.8748 71.0888 38.9167 71.0584 38.9524C70.6277 39.4775 68.1375 39.5404 67.8544 39.5477L67.7019 39.5501ZM69.454 36.058H69.4225C68.9095 36.1064 68.2924 37.994 67.9947 39.2887C69.0305 39.2573 70.6035 39.1 70.86 38.7878C70.8684 38.7793 70.8748 38.769 70.8786 38.7577C70.8823 38.7463 70.8834 38.7343 70.8818 38.7224C70.7559 37.994 70.1171 36.058 69.454 36.058Z" fill="#263238"/>
<path d="M84.5742 47.6571C84.5742 47.6571 85.3244 44.2691 86.1424 44.1795C86.9603 44.09 87.6162 46.2946 87.7347 46.9432C87.8533 47.5917 84.5742 47.6571 84.5742 47.6571Z" fill="#263238"/>
<path d="M84.4241 47.7805L84.4555 47.6305C84.5838 47.0497 85.2687 44.1432 86.1302 44.061C87.0982 43.9642 87.7637 46.4326 87.8532 46.9214C87.861 46.9676 87.8586 47.015 87.846 47.0602C87.8335 47.1053 87.8112 47.1472 87.7806 47.1828C87.3499 47.7079 84.8597 47.7732 84.5765 47.7781L84.4241 47.7805ZM86.1858 44.2981H86.152C85.6389 44.3489 85.0218 46.2462 84.7242 47.5288C85.7599 47.4974 87.3329 47.3425 87.5894 47.0279C87.5979 47.0194 87.6042 47.0091 87.608 46.9978C87.6118 46.9864 87.6129 46.9744 87.6112 46.9625C87.4781 46.222 86.8392 44.2981 86.1858 44.2981Z" fill="#263238"/>
<path d="M75.6492 38.5603C75.6492 38.5603 76.3994 35.1723 77.2173 35.0828C78.0353 34.9932 78.6911 37.1954 78.8097 37.8464C78.9283 38.4974 75.6492 38.5603 75.6492 38.5603Z" fill="#263238"/>
<path d="M75.504 38.6837L75.5355 38.5337C75.6637 37.9529 76.3486 35.0465 77.2101 34.9618C78.1781 34.8674 78.8436 37.3334 78.9332 37.8246C78.9408 37.8708 78.9383 37.9182 78.9257 37.9633C78.9132 38.0085 78.891 38.0503 78.8606 38.086C78.4322 38.6111 75.9396 38.674 75.6565 38.6813L75.504 38.6837ZM77.2658 35.2013H77.2343C76.7237 35.2497 76.1042 37.1373 75.8065 38.432C76.8423 38.4006 78.4153 38.2433 78.6718 37.9311C78.6804 37.9226 78.687 37.9124 78.6912 37.9011C78.6953 37.8898 78.697 37.8778 78.696 37.8658C78.5532 37.1204 77.924 35.2013 77.261 35.2013H77.2658Z" fill="#263238"/>
<path d="M61.8818 117.968C61.8818 117.968 63.5951 98.0028 63.5951 95.5295C63.5951 93.0563 62.4529 87.362 62.4529 87.362C62.4529 87.362 61.5018 84.1313 61.1219 83.1803C60.742 82.2292 59.2198 79.5672 59.9821 78.425C60.7444 77.2827 61.693 78.8049 61.693 78.8049C61.6802 77.5921 61.553 76.3832 61.3131 75.1943C60.9307 73.4809 60.8291 70.8383 60.8291 70.8383C59.895 68.0335 59.6602 62.5425 59.4255 61.9569C59.1907 61.3712 57.0902 59.1521 56.0375 55.5293C54.9848 51.9066 56.9716 47.3497 56.9716 47.3497C56.9716 47.3497 56.8554 46.1809 58.4914 45.5977C60.1273 45.0144 62.92 47.6885 62.92 47.6885C62.92 47.6885 64.551 40.6705 67.939 38.5748C71.327 36.4791 72.5975 40.2011 72.9484 41.019C72.9484 41.019 75.6588 36.9365 77.7618 37.5221C79.8648 38.1078 82.4373 41.9628 83.1366 43.5987C83.836 45.2347 83.6061 47.5724 83.6061 47.5724C83.6061 47.5724 85.7091 44.8838 87.5773 46.7544C89.4456 48.6251 90.3821 53.0634 89.7989 56.5699C89.2157 60.0765 85.7091 62.6466 85.7091 62.6466C85.7091 62.6466 86.4109 68.9579 84.6564 71.7627C84.4483 72.0967 84.2595 72.4072 84.0901 72.6944C84.0901 72.6944 83.5505 77.2755 83.3641 79.7463C83.1778 82.2171 83.7465 91.9165 83.7465 96.1006C83.7465 100.285 86.0261 117.588 86.0261 117.588" fill="#FF8551"/>
<path d="M62.0029 117.977L61.7609 117.958C61.7778 117.757 63.4718 97.9689 63.4718 95.5295C63.4718 93.0902 62.3441 87.4346 62.332 87.3765C62.332 87.3548 61.3809 84.1482 61.0082 83.2141C60.9405 83.0471 60.8364 82.8221 60.7154 82.5607C60.1177 81.2781 59.2174 79.3421 59.8781 78.3499C59.952 78.2119 60.0599 78.0949 60.1916 78.0102C60.3233 77.9255 60.4744 77.8759 60.6307 77.8659C61.0082 77.8659 61.3567 78.1757 61.5624 78.4201C61.5312 77.3394 61.4074 76.2634 61.1922 75.2039C60.8292 73.5753 60.7082 71.0754 60.7082 70.8479C60.0935 68.9894 59.7813 65.9692 59.5732 63.9703C59.5281 63.3057 59.4416 62.6446 59.3142 61.9907C59.173 61.7298 59.0112 61.4805 58.8302 61.2454C58.0897 60.2048 56.7103 58.2639 55.9262 55.5511C54.9171 52.0736 56.6934 47.7031 56.8555 47.3231C56.8555 47.1174 56.8846 46.0381 58.4551 45.4791C59.9386 44.9467 62.2497 46.9069 62.8692 47.4659C63.1669 46.2801 64.7834 40.4092 67.8931 38.478C68.8878 37.8609 69.7977 37.6818 70.6035 37.9408C71.995 38.3933 72.6872 40.0317 72.9921 40.7746C73.5632 39.9639 75.8961 36.8784 77.8127 37.4108C79.8842 37.9867 82.5003 41.7668 83.265 43.5576C83.8143 44.8354 83.8046 46.5027 83.7683 47.2287C84.1676 46.8077 85.0243 46.0429 86.0189 45.9824C86.3299 45.9685 86.6401 46.0233 86.9275 46.1429C87.2148 46.2626 87.4723 46.4441 87.6815 46.6745C89.5279 48.521 90.5395 52.9665 89.9345 56.5965C89.39 59.866 86.3045 62.3562 85.8544 62.7095C85.9294 63.4355 86.4545 69.1491 84.7775 71.8329C84.5718 72.1596 84.3903 72.4596 84.2257 72.7404C84.1822 73.1106 83.6788 77.4182 83.4997 79.7584C83.3908 81.1692 83.5336 85.0146 83.674 88.7317C83.7756 91.4784 83.8821 94.3171 83.8821 96.1031C83.8821 100.232 86.1399 117.399 86.1617 117.573L85.9197 117.605C85.8955 117.433 83.6377 100.246 83.6377 96.1031C83.6377 94.3219 83.5312 91.4857 83.4295 88.7414C83.2892 85.017 83.1464 81.1644 83.2577 79.7414C83.4441 77.2948 83.9837 72.7234 83.9837 72.6823L84.0007 72.6339C84.1701 72.3459 84.3588 72.0362 84.5694 71.6998C86.2803 68.9628 85.61 62.724 85.6027 62.6635V62.5933L85.6584 62.5522C85.6947 62.5256 89.1311 59.9676 89.7022 56.553C90.2951 52.9956 89.3126 48.6396 87.5242 46.8415C87.3389 46.6358 87.1106 46.4735 86.8554 46.366C86.6003 46.2585 86.3246 46.2085 86.048 46.2196C84.8089 46.2922 83.7417 47.6353 83.732 47.6474L83.4755 47.9765L83.5167 47.5627C83.5167 47.5385 83.7393 45.2371 83.0569 43.6471C82.3091 41.8999 79.7608 38.1949 77.7619 37.6407C75.763 37.0865 73.084 41.0456 73.0598 41.0868L72.934 41.2731L72.8469 41.0674L72.7767 40.898C72.4936 40.2059 71.8305 38.5893 70.5213 38.1634C69.7953 37.9214 68.9434 38.1005 68.0141 38.6765C64.706 40.7286 63.0652 47.645 63.0483 47.7151L62.9999 47.9233L62.8474 47.7756C62.8184 47.749 60.079 45.1475 58.5302 45.6993C56.9814 46.251 57.0782 47.282 57.0782 47.3255V47.357V47.386C57.0588 47.432 55.1228 51.9453 56.1489 55.4834C56.9257 58.1454 58.2882 60.0814 59.0214 61.105C59.2156 61.3547 59.3873 61.6212 59.5345 61.9012C59.6167 62.1069 59.6845 62.7433 59.8103 63.9461C60.016 65.9402 60.3282 68.9555 60.9381 70.7898V70.8213C60.9381 70.8479 61.047 73.4833 61.4221 75.158C61.6633 76.3533 61.7921 77.5686 61.8068 78.788V79.209L61.5818 78.8533C61.5818 78.8533 61.1123 78.1128 60.6138 78.1055C60.4995 78.1165 60.3899 78.1562 60.2951 78.2209C60.2003 78.2856 60.1235 78.3733 60.0717 78.4758C59.4861 79.3542 60.3887 81.2926 60.926 82.4518C61.0494 82.7156 61.1559 82.9358 61.2236 83.1173C61.6036 84.0635 62.5207 87.1805 62.5595 87.3112C62.574 87.379 63.7065 93.066 63.7065 95.5223C63.7065 97.9785 62.0198 117.779 62.0029 117.977Z" fill="#263238"/>
<path d="M62.9999 74.8434C62.9774 74.847 62.9546 74.847 62.9321 74.8434C62.6538 74.7514 61.8697 73.0792 61.4269 72.0894L61.6471 71.9902C62.1674 73.1518 62.7966 74.4102 62.995 74.5989C63.0925 74.2935 63.1343 73.973 63.1185 73.6527V73.4107L63.7936 73.9189L63.7065 73.3042L64.6406 73.9601V73.205H64.8826V74.415L64.026 73.81L64.1179 74.4513L63.3556 73.8802C63.3411 74.2166 63.2903 74.6788 63.1136 74.8022C63.0808 74.8273 63.0411 74.8417 62.9999 74.8434Z" fill="#263238"/>
<path d="M79.0445 79.1703L79.1461 77.6699L77.9022 78.1152V76.0606H78.1442V77.7716L79.4123 77.319L79.3324 78.5072L80.3634 77.3965L80.8595 78.0571L81.7161 75.9662L81.963 76.7963L82.3889 75.3104L82.6212 75.3782L81.9702 77.6554L81.6798 76.6922L80.9224 78.5435L80.344 77.774L79.0445 79.1703Z" fill="#263238"/>
<path d="M80.6949 59.4715C79.3252 58.252 78.0734 56.9062 76.956 55.4519C75.1701 53.1069 72.0434 51.7106 69.4177 54.2782C66.792 56.8458 64.2825 59.3602 62.8305 61.2575C61.3785 63.1548 61.3228 66.6735 63.9461 68.2924C66.5694 69.9114 68.0214 68.5707 71.7071 68.4594C75.3927 68.3481 77.457 69.9114 79.5236 69.4661C81.5903 69.0209 84.2136 66.4508 83.5433 63.6025C83.1497 61.9151 82.1321 60.4393 80.6949 59.4715Z" fill="#263238"/>
<path d="M63.7791 51.2097C63.7791 51.2097 62.7191 49.0317 60.8751 48.3613C59.0311 47.691 57.8065 50.3143 57.4145 52.6036C57.0225 54.8929 58.8108 57.8526 60.8194 58.5786C62.828 59.3046 64.9528 57.3492 65.0085 55.9553C65.0641 54.5614 63.7791 51.2097 63.7791 51.2097Z" fill="#263238"/>
<path d="M67.2397 40.9368C67.2397 40.9368 64.7278 43.56 64.1712 46.1833C63.6146 48.8066 64.4495 51.321 66.7944 52.1026C69.1394 52.8843 70.981 50.6506 71.707 48.584C72.433 46.5173 72.0434 43.001 71.148 41.324C70.2526 39.6469 67.8544 40.4891 67.2397 40.9368Z" fill="#263238"/>
<path d="M75.0563 40.7117C75.0563 40.7117 74.1633 42.2193 73.9406 45.2903C73.718 48.3613 74.611 50.5393 75.9492 51.5993C77.2875 52.6592 79.7462 52.4366 81.0869 50.5393C82.4276 48.642 81.9242 44.787 80.9199 43.2793C79.9156 41.7716 77.9603 39.9833 76.9003 39.8163C75.8403 39.6493 75.3926 39.93 75.0563 40.7117Z" fill="#263238"/>
<path d="M83.7102 49.31C83.7102 49.31 81.1982 52.3253 80.8642 54.7816C80.5303 57.2379 82.5389 59.1932 83.9352 59.1932C85.3316 59.1932 87.3958 58.1865 88.3445 55.1155C89.2931 52.0446 87.1175 48.7509 86.1665 48.5283C85.2154 48.3057 83.7102 49.31 83.7102 49.31Z" fill="#263238"/>
<path d="M27.104 72.7355C27.104 72.7355 28.3527 74.4997 29.0158 74.4997C29.6789 74.4997 29.9838 72.6629 29.9838 72.3677C29.9838 72.0725 27.104 72.7355 27.104 72.7355Z" fill="#263238"/>
<path d="M39.0127 77.3674C39.0127 77.3674 40.2638 79.134 40.9245 79.134C41.5852 79.134 41.8804 77.2948 41.8804 76.9996C41.8804 76.7043 39.0127 77.3674 39.0127 77.3674Z" fill="#263238"/>
<path d="M46.5123 74.1318C46.5123 74.1318 47.7635 75.8985 48.4241 75.8985C49.0848 75.8985 49.3921 74.0592 49.3921 73.764C49.3921 73.4688 46.5123 74.1318 46.5123 74.1318Z" fill="#263238"/>
<path d="M52.1752 63.9848C52.1752 63.9848 53.4263 65.749 54.087 65.749C54.7476 65.749 55.0429 63.9122 55.0429 63.617C55.0429 63.3217 52.1752 63.9848 52.1752 63.9848Z" fill="#263238"/>
<path d="M30.8792 3.93977C30.8792 3.93977 37.2486 28.2559 37.798 30.008C38.3473 31.7601 42.955 42.1855 44.4893 43.5019C46.0235 44.8184 51.183 51.5121 53.0488 53.9249C54.9146 56.3376 55.4688 60.1806 55.1324 63.0313C54.796 65.8821 52.6084 64.568 52.6084 64.568V65.9934C52.6084 66.6517 52.7197 66.6517 51.8412 69.3959C50.9628 72.1402 50.1956 73.9939 48.6589 74.7708C47.1222 75.5476 44.1601 73.8947 44.1601 73.8947C44.1601 73.8947 43.0639 76.9657 41.1981 77.8442C39.3322 78.7226 35.4941 76.4164 34.2865 75.6492C33.079 74.8821 31.4334 71.92 31.4334 71.92C31.4334 71.92 29.6813 73.8778 27.6751 73.2074C25.6689 72.5371 23.4933 68.5247 22.489 66.3516C21.4847 64.1784 24.3282 60.9985 24.8316 56.6474C25.335 52.2962 23.3264 45.1064 23.3264 45.1064C23.3264 45.1064 21.8889 39.0056 21.2306 37.4689C20.5724 35.9322 19.585 36.8106 19.4761 33.2992C19.3672 29.7878 11.1997 13.31 10.5415 12.2017" fill="#FF8551"/>
<path d="M40.2058 78.166C38.248 78.166 35.4723 76.5543 34.2211 75.746C33.1418 75.0587 31.7576 72.7234 31.4091 72.116C30.9783 72.5443 29.4199 73.9141 27.6363 73.326C25.376 72.571 23.0383 67.8374 22.3801 66.4048C21.8065 65.1609 22.4115 63.6702 23.1811 61.785C23.7934 60.2822 24.4855 58.5809 24.7105 56.6377C25.1945 52.3615 23.2295 45.2129 23.2077 45.1427C23.1859 45.0725 21.7557 39.0273 21.1193 37.5197C20.9599 37.1426 20.7107 36.8102 20.3933 36.5517C19.8923 36.0919 19.4253 35.6563 19.3454 33.3016C19.2462 29.8531 11.0714 13.31 10.4374 12.2646L10.6455 12.1387C11.2941 13.2205 19.4833 29.7128 19.5995 33.2992C19.6697 35.5522 20.1077 35.9612 20.5675 36.3774C20.9055 36.659 21.171 37.0175 21.3419 37.4229C21.9977 38.9523 23.3844 44.8305 23.4425 45.0822C23.4618 45.1475 25.4486 52.3422 24.9501 56.6643C24.7226 58.6414 24.0233 60.3596 23.4037 61.877C22.6584 63.7089 22.0703 65.1561 22.5979 66.3032C23.941 69.2072 25.9859 72.5226 27.7138 73.0961C29.6183 73.7301 31.3268 71.8595 31.3438 71.8401L31.4575 71.7143L31.5398 71.8619C31.5567 71.8934 33.1854 74.807 34.3518 75.55C35.8038 76.4793 39.4048 78.558 41.1472 77.728C42.9452 76.881 44.0367 73.8753 44.0512 73.856L44.0996 73.7205L44.2254 73.7906C44.2545 73.8076 47.1488 75.3951 48.6105 74.6667C50.0334 73.9407 50.8054 72.2467 51.7298 69.362C52.5091 66.9251 52.5042 66.6807 52.4946 66.1894C52.4946 66.1289 52.4946 66.066 52.4946 65.9958V64.3575L52.6785 64.4664C52.6785 64.4664 53.5327 64.9697 54.1982 64.6406C54.6435 64.4204 54.9242 63.8759 55.0186 63.0216C55.3381 60.2701 54.8226 56.415 52.9592 54.0023L52.8092 53.8063C50.9216 51.3645 45.9049 44.8716 44.419 43.5963C42.8847 42.2822 38.2746 31.9198 37.689 30.0443C37.1469 28.3067 30.8331 4.2108 30.7678 3.9688L31.0098 3.90588C31.0727 4.14788 37.3865 28.239 37.9286 29.9717C38.4973 31.7964 43.1195 42.1564 44.5836 43.4124C46.0888 44.7022 50.9385 50.9773 53.0076 53.6562L53.1576 53.8523C55.0646 56.3182 55.5897 60.2459 55.2679 63.0483C55.159 63.9896 54.8371 64.5995 54.312 64.8584C53.7263 65.1464 53.0608 64.9141 52.7438 64.7689V65.9958C52.7438 66.066 52.7438 66.1265 52.7438 66.1846C52.7438 66.7025 52.7608 66.9614 51.9694 69.4346C51.1781 71.9079 50.3771 74.0568 48.7266 74.8821C47.3133 75.5887 44.8256 74.3763 44.2375 74.0689C43.9955 74.6764 42.9525 77.1617 41.2633 77.9555C40.9308 78.1033 40.5696 78.1752 40.2058 78.166Z" fill="#263238"/>
<path d="M27.3291 44.3417L26.0561 42.3282L25.3568 42.9768L24.5872 41.549C24.4299 41.7644 24.1347 42.0959 23.8176 42.1032C23.7255 42.1028 23.6351 42.0774 23.5562 42.0297C23.4774 41.982 23.413 41.9137 23.3699 41.8321C22.9053 41.1376 22.7891 39.5839 22.7843 39.5186L23.0263 39.4992C23.0263 39.5162 23.1425 41.0577 23.5708 41.699C23.6797 41.8636 23.7789 41.8612 23.8128 41.8612C24.0742 41.8612 24.4009 41.4086 24.4952 41.2513L24.6041 41.0698L25.41 42.592L26.0973 41.958L27.0774 43.5092V42.6138H27.3194L27.3291 44.3417Z" fill="#263238"/>
<path d="M35.9176 30.2742L34.9811 30.1556L35.0101 29.916L35.574 29.9862L34.9182 27.9268L35.7531 28.0188L34.9738 25.9013L36.0628 26.9927L34.7899 23.8902L35.0126 23.7983L36.7429 28.0163L35.5813 26.8523L36.1161 28.3019L35.2618 28.2075L35.9176 30.2742Z" fill="#263238"/>
<path d="M30.4097 59.4401C30.3395 58.6947 30.325 58.2155 30.325 58.2107H30.567C30.567 58.2107 30.5815 58.6947 30.6492 59.4207L30.4097 59.4401Z" fill="#263238"/>
<path d="M31.5446 71.9708L31.3244 71.874C31.3389 71.8377 32.8248 68.3698 31.6511 65.2722C31.1108 63.7787 30.7406 62.229 30.5476 60.6525L30.7896 60.621C30.9801 62.1784 31.3454 63.7094 31.8786 65.1851C33.0862 68.3771 31.5616 71.9345 31.5446 71.9708Z" fill="#263238"/>
<path d="M44.044 71.7893C43.9514 70.8421 43.7674 69.906 43.4947 68.9942C42.9453 67.1405 41.8515 64.8028 40.9706 62.9248C40.4503 61.8141 40.0389 60.9356 39.8743 60.4395C39.4412 59.1351 38.3497 55.4253 38.3376 55.389L38.5796 55.3212C38.5796 55.3575 39.6807 59.0625 40.1139 60.3621C40.2736 60.8461 40.7044 61.7608 41.2005 62.8232C42.0838 64.7084 43.1825 67.0534 43.7367 68.924C44.0105 69.8521 44.1944 70.8043 44.286 71.7675L44.044 71.7893Z" fill="#263238"/>
<path d="M44.2859 73.9165L44.0439 73.8753C44.1028 73.4034 44.1198 72.9273 44.0948 72.4524H44.3368C44.3642 72.9409 44.3472 73.431 44.2859 73.9165Z" fill="#263238"/>
<path d="M48.0394 55.0139C47.7441 54.6412 47.4537 54.3072 47.1996 54.012C46.7485 53.5384 46.3553 53.0128 46.0284 52.4462L45.3701 51.1298L45.5855 51.0209L46.2437 52.3373C46.564 52.8853 46.9465 53.3945 47.3836 53.8547C47.6401 54.1499 47.9281 54.4863 48.2306 54.8614L48.0394 55.0139Z" fill="#263238"/>
<path d="M52.4922 64.5995C52.4922 64.5753 51.9259 62.2618 50.3142 58.6971C49.8179 57.596 49.2054 56.5511 48.4871 55.5801L48.6807 55.4374C49.4093 56.4167 50.0308 57.4714 50.5344 58.5834C52.1655 62.1746 52.7317 64.5075 52.7366 64.5293L52.4922 64.5995Z" fill="#263238"/>
</svg>
