<svg viewBox="0 0 500 500" fill="none" xmlns="http://www.w3.org/2000/svg">
    <path d="M250 169.625H276.48V157.849H250V169.625Z" stroke="#EBEBEB" stroke-width="0.75" stroke-miterlimit="10"/>
    <path d="M264.77 154.776H291.25V143H264.77V154.776Z" stroke="#EBEBEB" stroke-width="0.75" stroke-miterlimit="10"/>
    <path d="M279.48 169.625H305.96V157.849H279.48V169.625Z" stroke="#EBEBEB" stroke-width="0.75" stroke-miterlimit="10"/>
    <path d="M56.12 315.777H82.6V304.001H56.12V315.777Z" stroke="#EBEBEB" stroke-width="0.75" stroke-miterlimit="10"/>
    <path d="M41.34 300.928H67.82V289.152H41.34V300.928Z" stroke="#EBEBEB" stroke-width="0.75" stroke-miterlimit="10"/>
    <path d="M417.4 315.777H443.88V304.001H417.4V315.777Z" stroke="#EBEBEB" stroke-width="0.75" stroke-miterlimit="10"/>
    <path d="M208.82 421.54V289.3L235.55 250.899V178.991" stroke="#EBEBEB" stroke-miterlimit="10"/>
    <path d="M233.18 176.539C233.18 177.035 233.32 177.519 233.582 177.931C233.844 178.344 234.216 178.665 234.652 178.854C235.087 179.043 235.566 179.092 236.028 178.995C236.49 178.897 236.914 178.658 237.246 178.306C237.579 177.955 237.805 177.508 237.895 177.021C237.986 176.534 237.938 176.031 237.756 175.573C237.574 175.116 237.268 174.725 236.875 174.451C236.482 174.177 236.021 174.032 235.55 174.034C235.238 174.034 234.929 174.099 234.641 174.225C234.353 174.351 234.091 174.536 233.871 174.768C233.65 175.001 233.476 175.277 233.358 175.581C233.239 175.885 233.179 176.21 233.18 176.539Z" stroke="#EBEBEB" stroke-miterlimit="10"/>
    <path d="M215.71 421.54V293.941L242.44 255.54V205.3" stroke="#EBEBEB" stroke-miterlimit="10"/>
    <path d="M240.06 202.837C240.058 203.333 240.196 203.819 240.456 204.232C240.717 204.645 241.088 204.968 241.522 205.159C241.957 205.35 242.436 205.401 242.898 205.306C243.361 205.21 243.786 204.973 244.119 204.623C244.453 204.273 244.681 203.827 244.774 203.34C244.866 202.854 244.82 202.35 244.64 201.892C244.46 201.434 244.155 201.042 243.763 200.766C243.372 200.491 242.911 200.343 242.44 200.343C241.811 200.343 241.207 200.606 240.761 201.073C240.315 201.541 240.063 202.175 240.06 202.837Z" stroke="#EBEBEB" stroke-miterlimit="10"/>
    <path d="M202.19 421.54V246.416" stroke="#EBEBEB" stroke-miterlimit="10"/>
    <path d="M199.81 243.911C199.808 244.407 199.946 244.892 200.206 245.306C200.467 245.719 200.838 246.042 201.272 246.233C201.707 246.424 202.186 246.475 202.648 246.38C203.111 246.284 203.536 246.046 203.869 245.697C204.203 245.347 204.431 244.9 204.524 244.414C204.616 243.928 204.57 243.424 204.39 242.966C204.21 242.508 203.905 242.116 203.513 241.84C203.122 241.564 202.661 241.417 202.19 241.417C201.561 241.417 200.957 241.68 200.511 242.147C200.065 242.615 199.813 243.249 199.81 243.911Z" stroke="#EBEBEB" stroke-miterlimit="10"/>
    <path d="M195.8 421.54V332.531L177.66 296.519V231.935" stroke="#EBEBEB" stroke-miterlimit="10"/>
    <path d="M175.28 229.441C175.28 229.937 175.42 230.421 175.681 230.833C175.943 231.245 176.314 231.566 176.749 231.755C177.184 231.945 177.663 231.994 178.124 231.898C178.586 231.801 179.01 231.563 179.343 231.212C179.676 230.862 179.902 230.416 179.994 229.93C180.086 229.444 180.039 228.94 179.859 228.483C179.679 228.025 179.374 227.634 178.982 227.359C178.591 227.084 178.131 226.937 177.66 226.937C177.347 226.935 177.037 226.999 176.748 227.124C176.458 227.25 176.195 227.434 175.974 227.667C175.753 227.9 175.578 228.177 175.459 228.481C175.339 228.786 175.279 229.112 175.28 229.441Z" stroke="#EBEBEB" stroke-miterlimit="10"/>
    <path d="M189.45 421.54V336.383L168.06 296.561V254.035" stroke="#EBEBEB" stroke-miterlimit="10"/>
    <path d="M165.68 251.541C165.678 252.037 165.816 252.522 166.076 252.935C166.337 253.349 166.708 253.671 167.142 253.862C167.577 254.054 168.056 254.105 168.518 254.009C168.981 253.914 169.406 253.676 169.739 253.326C170.073 252.976 170.301 252.53 170.394 252.044C170.486 251.558 170.44 251.054 170.26 250.595C170.08 250.137 169.775 249.745 169.383 249.47C168.992 249.194 168.531 249.047 168.06 249.047C167.431 249.05 166.829 249.313 166.384 249.78C165.938 250.247 165.685 250.879 165.68 251.541Z" stroke="#EBEBEB" stroke-miterlimit="10"/>
    <path d="M183.79 460.4C242.559 460.4 290.2 452.793 290.2 443.41C290.2 434.027 242.559 426.42 183.79 426.42C125.021 426.42 77.38 434.027 77.38 443.41C77.38 452.793 125.021 460.4 183.79 460.4Z" fill="#EBEBEB"/>
    <path d="M332.39 176.42H267.37V421.59H332.39V176.42Z" fill="#37474F"/>
    <path d="M452.05 176.42H332.39V421.59H452.05V176.42Z" fill="#455A64"/>
    <path d="M444.58 389.79H341.37V413.63H444.58V389.79Z" fill="#37474F"/>
    <path d="M404.46 393.73H345.71V395.74H404.46V393.73Z" fill="#455A64"/>
    <path d="M404.46 397.22H345.71V399.23H404.46V397.22Z" fill="#455A64"/>
    <path d="M404.46 400.71H345.71V402.72H404.46V400.71Z" fill="#455A64"/>
    <path d="M404.46 404.19H345.71V406.2H404.46V404.19Z" fill="#455A64"/>
    <path d="M404.46 407.68H345.71V409.69H404.46V407.68Z" fill="#455A64"/>
    <path d="M415.17 395.73C415.17 396.126 415.053 396.512 414.833 396.841C414.613 397.17 414.301 397.426 413.935 397.578C413.57 397.729 413.168 397.769 412.78 397.692C412.392 397.614 412.036 397.424 411.756 397.144C411.476 396.864 411.286 396.508 411.208 396.12C411.131 395.732 411.171 395.33 411.322 394.965C411.474 394.599 411.73 394.287 412.059 394.067C412.388 393.847 412.774 393.73 413.17 393.73C413.7 393.73 414.209 393.941 414.584 394.316C414.959 394.691 415.17 395.2 415.17 395.73Z" fill="#FFC727"/>
    <path d="M421.75 395.73C421.75 396.126 421.633 396.512 421.413 396.841C421.193 397.17 420.881 397.426 420.515 397.578C420.15 397.729 419.748 397.769 419.36 397.692C418.972 397.614 418.615 397.424 418.336 397.144C418.056 396.864 417.866 396.508 417.788 396.12C417.711 395.732 417.751 395.33 417.902 394.965C418.054 394.599 418.31 394.287 418.639 394.067C418.968 393.847 419.354 393.73 419.75 393.73C420.28 393.73 420.789 393.941 421.164 394.316C421.539 394.691 421.75 395.2 421.75 395.73Z" fill="#FFC727"/>
    <path d="M428.33 395.73C428.33 396.126 428.213 396.512 427.993 396.841C427.773 397.17 427.461 397.426 427.095 397.578C426.73 397.729 426.328 397.769 425.94 397.692C425.552 397.614 425.195 397.424 424.916 397.144C424.636 396.864 424.446 396.508 424.368 396.12C424.291 395.732 424.331 395.33 424.482 394.965C424.634 394.599 424.89 394.287 425.219 394.067C425.548 393.847 425.934 393.73 426.33 393.73C426.86 393.73 427.369 393.941 427.744 394.316C428.119 394.691 428.33 395.2 428.33 395.73Z" fill="#FFC727"/>
    <path d="M434.9 395.73C434.9 396.126 434.783 396.512 434.563 396.841C434.343 397.17 434.031 397.426 433.665 397.578C433.3 397.729 432.898 397.769 432.51 397.692C432.122 397.614 431.765 397.424 431.486 397.144C431.206 396.864 431.016 396.508 430.938 396.12C430.861 395.732 430.901 395.33 431.052 394.965C431.204 394.599 431.46 394.287 431.789 394.067C432.118 393.847 432.504 393.73 432.9 393.73C433.43 393.73 433.939 393.941 434.314 394.316C434.689 394.691 434.9 395.2 434.9 395.73Z" fill="#FFC727"/>
    <path d="M441.48 395.73C441.48 396.126 441.363 396.512 441.143 396.841C440.923 397.17 440.611 397.426 440.245 397.578C439.88 397.729 439.478 397.769 439.09 397.692C438.702 397.614 438.346 397.424 438.066 397.144C437.786 396.864 437.596 396.508 437.518 396.12C437.441 395.732 437.481 395.33 437.632 394.965C437.784 394.599 438.04 394.287 438.369 394.067C438.698 393.847 439.084 393.73 439.48 393.73C440.01 393.73 440.519 393.941 440.894 394.316C441.269 394.691 441.48 395.2 441.48 395.73Z" fill="#FFC727"/>
    <path d="M415.17 401.71C415.17 402.106 415.053 402.492 414.833 402.821C414.613 403.15 414.301 403.406 413.935 403.558C413.57 403.709 413.168 403.749 412.78 403.672C412.392 403.594 412.036 403.404 411.756 403.124C411.476 402.844 411.286 402.488 411.208 402.1C411.131 401.712 411.171 401.31 411.322 400.945C411.474 400.579 411.73 400.267 412.059 400.047C412.388 399.827 412.774 399.71 413.17 399.71C413.7 399.71 414.209 399.921 414.584 400.296C414.959 400.671 415.17 401.18 415.17 401.71Z" fill="#FFC727"/>
    <path d="M421.75 401.71C421.75 402.106 421.633 402.492 421.413 402.821C421.193 403.15 420.881 403.406 420.515 403.558C420.15 403.709 419.748 403.749 419.36 403.672C418.972 403.594 418.615 403.404 418.336 403.124C418.056 402.844 417.866 402.488 417.788 402.1C417.711 401.712 417.751 401.31 417.902 400.945C418.054 400.579 418.31 400.267 418.639 400.047C418.968 399.827 419.354 399.71 419.75 399.71C420.28 399.71 420.789 399.921 421.164 400.296C421.539 400.671 421.75 401.18 421.75 401.71Z" fill="#FFC727"/>
    <path d="M428.33 401.71C428.33 402.106 428.213 402.492 427.993 402.821C427.773 403.15 427.461 403.406 427.095 403.558C426.73 403.709 426.328 403.749 425.94 403.672C425.552 403.594 425.195 403.404 424.916 403.124C424.636 402.844 424.446 402.488 424.368 402.1C424.291 401.712 424.331 401.31 424.482 400.945C424.634 400.579 424.89 400.267 425.219 400.047C425.548 399.827 425.934 399.71 426.33 399.71C426.86 399.71 427.369 399.921 427.744 400.296C428.119 400.671 428.33 401.18 428.33 401.71Z" fill="#FFC727"/>
    <path d="M434.9 401.71C434.9 402.106 434.783 402.492 434.563 402.821C434.343 403.15 434.031 403.406 433.665 403.558C433.3 403.709 432.898 403.749 432.51 403.672C432.122 403.594 431.765 403.404 431.486 403.124C431.206 402.844 431.016 402.488 430.938 402.1C430.861 401.712 430.901 401.31 431.052 400.945C431.204 400.579 431.46 400.267 431.789 400.047C432.118 399.827 432.504 399.71 432.9 399.71C433.43 399.71 433.939 399.921 434.314 400.296C434.689 400.671 434.9 401.18 434.9 401.71Z" fill="#FFC727"/>
    <path d="M441.48 401.71C441.48 402.106 441.363 402.492 441.143 402.821C440.923 403.15 440.611 403.406 440.245 403.558C439.88 403.709 439.478 403.749 439.09 403.672C438.702 403.594 438.346 403.404 438.066 403.124C437.786 402.844 437.596 402.488 437.518 402.1C437.441 401.712 437.481 401.31 437.632 400.945C437.784 400.579 438.04 400.267 438.369 400.047C438.698 399.827 439.084 399.71 439.48 399.71C440.01 399.71 440.519 399.921 440.894 400.296C441.269 400.671 441.48 401.18 441.48 401.71Z" fill="#FFC727"/>
    <path d="M413.18 409.7C414.285 409.7 415.18 408.805 415.18 407.7C415.18 406.595 414.285 405.7 413.18 405.7C412.075 405.7 411.18 406.595 411.18 407.7C411.18 408.805 412.075 409.7 413.18 409.7Z" fill="#FFC727"/>
    <path d="M421.75 407.7C421.75 408.096 421.633 408.482 421.413 408.811C421.193 409.14 420.881 409.396 420.515 409.548C420.15 409.699 419.748 409.739 419.36 409.662C418.972 409.584 418.615 409.394 418.336 409.114C418.056 408.835 417.866 408.478 417.788 408.09C417.711 407.702 417.751 407.3 417.902 406.935C418.054 406.569 418.31 406.257 418.639 406.037C418.968 405.817 419.354 405.7 419.75 405.7C420.28 405.7 420.789 405.911 421.164 406.286C421.539 406.661 421.75 407.17 421.75 407.7Z" fill="#FFC727"/>
    <path d="M426.33 409.7C427.435 409.7 428.33 408.805 428.33 407.7C428.33 406.595 427.435 405.7 426.33 405.7C425.225 405.7 424.33 406.595 424.33 407.7C424.33 408.805 425.225 409.7 426.33 409.7Z" fill="#FFC727"/>
    <path d="M434.9 407.7C434.9 408.096 434.783 408.482 434.563 408.811C434.343 409.14 434.031 409.396 433.665 409.548C433.3 409.699 432.898 409.739 432.51 409.662C432.122 409.584 431.765 409.394 431.486 409.114C431.206 408.835 431.016 408.478 430.938 408.09C430.861 407.702 430.901 407.3 431.052 406.935C431.204 406.569 431.46 406.257 431.789 406.037C432.118 405.817 432.504 405.7 432.9 405.7C433.43 405.7 433.939 405.911 434.314 406.286C434.689 406.661 434.9 407.17 434.9 407.7Z" fill="#FFC727"/>
    <path d="M441.48 407.7C441.48 408.096 441.363 408.482 441.143 408.811C440.923 409.14 440.611 409.396 440.245 409.548C439.88 409.699 439.478 409.739 439.09 409.662C438.702 409.584 438.346 409.394 438.066 409.114C437.786 408.835 437.596 408.478 437.518 408.09C437.441 407.702 437.481 407.3 437.632 406.935C437.784 406.569 438.04 406.257 438.369 406.037C438.698 405.817 439.084 405.7 439.48 405.7C440.01 405.7 440.519 405.911 440.894 406.286C441.269 406.661 441.48 407.17 441.48 407.7Z" fill="#FFC727"/>
    <path d="M408.55 393.73H407.4V409.69H408.55V393.73Z" fill="#263238"/>
    <path d="M444.58 361.07H341.37V384.91H444.58V361.07Z" fill="#37474F"/>
    <path d="M404.46 365H345.71V367.01H404.46V365Z" fill="#455A64"/>
    <path d="M404.46 368.49H345.71V370.5H404.46V368.49Z" fill="#455A64"/>
    <path d="M404.46 371.98H345.71V373.99H404.46V371.98Z" fill="#455A64"/>
    <path d="M404.46 375.47H345.71V377.48H404.46V375.47Z" fill="#455A64"/>
    <path d="M404.46 378.95H345.71V380.96H404.46V378.95Z" fill="#455A64"/>
    <path d="M415.17 367C415.17 367.396 415.053 367.782 414.833 368.111C414.613 368.44 414.301 368.696 413.935 368.848C413.57 368.999 413.168 369.039 412.78 368.962C412.392 368.884 412.036 368.694 411.756 368.414C411.476 368.135 411.286 367.778 411.208 367.39C411.131 367.002 411.171 366.6 411.322 366.235C411.474 365.869 411.73 365.557 412.059 365.337C412.388 365.117 412.774 365 413.17 365C413.7 365 414.209 365.211 414.584 365.586C414.959 365.961 415.17 366.47 415.17 367Z" fill="#FFC727"/>
    <path d="M421.75 367C421.75 367.396 421.633 367.782 421.413 368.111C421.193 368.44 420.881 368.696 420.515 368.848C420.15 368.999 419.748 369.039 419.36 368.962C418.972 368.884 418.615 368.694 418.336 368.414C418.056 368.135 417.866 367.778 417.788 367.39C417.711 367.002 417.751 366.6 417.902 366.235C418.054 365.869 418.31 365.557 418.639 365.337C418.968 365.117 419.354 365 419.75 365C420.28 365 420.789 365.211 421.164 365.586C421.539 365.961 421.75 366.47 421.75 367Z" fill="#FFC727"/>
    <path d="M428.33 367C428.33 367.396 428.213 367.782 427.993 368.111C427.773 368.44 427.461 368.696 427.095 368.848C426.73 368.999 426.328 369.039 425.94 368.962C425.552 368.884 425.195 368.694 424.916 368.414C424.636 368.135 424.446 367.778 424.368 367.39C424.291 367.002 424.331 366.6 424.482 366.235C424.634 365.869 424.89 365.557 425.219 365.337C425.548 365.117 425.934 365 426.33 365C426.86 365 427.369 365.211 427.744 365.586C428.119 365.961 428.33 366.47 428.33 367Z" fill="#FFC727"/>
    <path d="M434.9 367C434.9 367.396 434.783 367.782 434.563 368.111C434.343 368.44 434.031 368.696 433.665 368.848C433.3 368.999 432.898 369.039 432.51 368.962C432.122 368.884 431.765 368.694 431.486 368.414C431.206 368.135 431.016 367.778 430.938 367.39C430.861 367.002 430.901 366.6 431.052 366.235C431.204 365.869 431.46 365.557 431.789 365.337C432.118 365.117 432.504 365 432.9 365C433.43 365 433.939 365.211 434.314 365.586C434.689 365.961 434.9 366.47 434.9 367Z" fill="#FFC727"/>
    <path d="M441.48 367C441.48 367.396 441.363 367.782 441.143 368.111C440.923 368.44 440.611 368.696 440.245 368.848C439.88 368.999 439.478 369.039 439.09 368.962C438.702 368.884 438.346 368.694 438.066 368.414C437.786 368.135 437.596 367.778 437.518 367.39C437.441 367.002 437.481 366.6 437.632 366.235C437.784 365.869 438.04 365.557 438.369 365.337C438.698 365.117 439.084 365 439.48 365C440.01 365 440.519 365.211 440.894 365.586C441.269 365.961 441.48 366.47 441.48 367Z" fill="#FFC727"/>
    <path d="M415.17 373C415.17 373.396 415.053 373.782 414.833 374.111C414.613 374.44 414.301 374.696 413.935 374.848C413.57 374.999 413.168 375.039 412.78 374.962C412.392 374.884 412.036 374.694 411.756 374.414C411.476 374.135 411.286 373.778 411.208 373.39C411.131 373.002 411.171 372.6 411.322 372.235C411.474 371.869 411.73 371.557 412.059 371.337C412.388 371.117 412.774 371 413.17 371C413.7 371 414.209 371.211 414.584 371.586C414.959 371.961 415.17 372.47 415.17 373Z" fill="#FFC727"/>
    <path d="M421.75 373C421.75 373.396 421.633 373.782 421.413 374.111C421.193 374.44 420.881 374.696 420.515 374.848C420.15 374.999 419.748 375.039 419.36 374.962C418.972 374.884 418.615 374.694 418.336 374.414C418.056 374.135 417.866 373.778 417.788 373.39C417.711 373.002 417.751 372.6 417.902 372.235C418.054 371.869 418.31 371.557 418.639 371.337C418.968 371.117 419.354 371 419.75 371C420.28 371 420.789 371.211 421.164 371.586C421.539 371.961 421.75 372.47 421.75 373Z" fill="#FFC727"/>
    <path d="M428.33 373C428.33 373.396 428.213 373.782 427.993 374.111C427.773 374.44 427.461 374.696 427.095 374.848C426.73 374.999 426.328 375.039 425.94 374.962C425.552 374.884 425.195 374.694 424.916 374.414C424.636 374.135 424.446 373.778 424.368 373.39C424.291 373.002 424.331 372.6 424.482 372.235C424.634 371.869 424.89 371.557 425.219 371.337C425.548 371.117 425.934 371 426.33 371C426.86 371 427.369 371.211 427.744 371.586C428.119 371.961 428.33 372.47 428.33 373Z" fill="#FFC727"/>
    <path d="M434.9 373C434.9 373.396 434.783 373.782 434.563 374.111C434.343 374.44 434.031 374.696 433.665 374.848C433.3 374.999 432.898 375.039 432.51 374.962C432.122 374.884 431.765 374.694 431.486 374.414C431.206 374.135 431.016 373.778 430.938 373.39C430.861 373.002 430.901 372.6 431.052 372.235C431.204 371.869 431.46 371.557 431.789 371.337C432.118 371.117 432.504 371 432.9 371C433.43 371 433.939 371.211 434.314 371.586C434.689 371.961 434.9 372.47 434.9 373Z" fill="#FFC727"/>
    <path d="M441.48 373C441.48 373.396 441.363 373.782 441.143 374.111C440.923 374.44 440.611 374.696 440.245 374.848C439.88 374.999 439.478 375.039 439.09 374.962C438.702 374.884 438.346 374.694 438.066 374.414C437.786 374.135 437.596 373.778 437.518 373.39C437.441 373.002 437.481 372.6 437.632 372.235C437.784 371.869 438.04 371.557 438.369 371.337C438.698 371.117 439.084 371 439.48 371C440.01 371 440.519 371.211 440.894 371.586C441.269 371.961 441.48 372.47 441.48 373Z" fill="#FFC727"/>
    <path d="M415.17 379C415.17 379.396 415.053 379.782 414.833 380.111C414.613 380.44 414.301 380.696 413.935 380.848C413.57 380.999 413.168 381.039 412.78 380.962C412.392 380.884 412.036 380.694 411.756 380.414C411.476 380.135 411.286 379.778 411.208 379.39C411.131 379.002 411.171 378.6 411.322 378.235C411.474 377.869 411.73 377.557 412.059 377.337C412.388 377.117 412.774 377 413.17 377C413.7 377 414.209 377.211 414.584 377.586C414.959 377.961 415.17 378.47 415.17 379Z" fill="#FFC727"/>
    <path d="M421.75 379C421.75 379.396 421.633 379.782 421.413 380.111C421.193 380.44 420.881 380.696 420.515 380.848C420.15 380.999 419.748 381.039 419.36 380.962C418.972 380.884 418.615 380.694 418.336 380.414C418.056 380.135 417.866 379.778 417.788 379.39C417.711 379.002 417.751 378.6 417.902 378.235C418.054 377.869 418.31 377.557 418.639 377.337C418.968 377.117 419.354 377 419.75 377C420.28 377 420.789 377.211 421.164 377.586C421.539 377.961 421.75 378.47 421.75 379Z" fill="#FFC727"/>
    <path d="M428.33 379C428.33 379.396 428.213 379.782 427.993 380.111C427.773 380.44 427.461 380.696 427.095 380.848C426.73 380.999 426.328 381.039 425.94 380.962C425.552 380.884 425.195 380.694 424.916 380.414C424.636 380.135 424.446 379.778 424.368 379.39C424.291 379.002 424.331 378.6 424.482 378.235C424.634 377.869 424.89 377.557 425.219 377.337C425.548 377.117 425.934 377 426.33 377C426.86 377 427.369 377.211 427.744 377.586C428.119 377.961 428.33 378.47 428.33 379Z" fill="#FFC727"/>
    <path d="M434.9 379C434.9 379.396 434.783 379.782 434.563 380.111C434.343 380.44 434.031 380.696 433.665 380.848C433.3 380.999 432.898 381.039 432.51 380.962C432.122 380.884 431.765 380.694 431.486 380.414C431.206 380.135 431.016 379.778 430.938 379.39C430.861 379.002 430.901 378.6 431.052 378.235C431.204 377.869 431.46 377.557 431.789 377.337C432.118 377.117 432.504 377 432.9 377C433.43 377 433.939 377.211 434.314 377.586C434.689 377.961 434.9 378.47 434.9 379Z" fill="#FFC727"/>
    <path d="M441.48 379C441.48 379.396 441.363 379.782 441.143 380.111C440.923 380.44 440.611 380.696 440.245 380.848C439.88 380.999 439.478 381.039 439.09 380.962C438.702 380.884 438.346 380.694 438.066 380.414C437.786 380.135 437.596 379.778 437.518 379.39C437.441 379.002 437.481 378.6 437.632 378.235C437.784 377.869 438.04 377.557 438.369 377.337C438.698 377.117 439.084 377 439.48 377C440.01 377 440.519 377.211 440.894 377.586C441.269 377.961 441.48 378.47 441.48 379Z" fill="#FFC727"/>
    <path d="M408.55 365H407.4V380.96H408.55V365Z" fill="#263238"/>
    <path d="M444.58 332.34H341.37V356.18H444.58V332.34Z" fill="#37474F"/>
    <path d="M404.46 336.28H345.71V338.29H404.46V336.28Z" fill="#455A64"/>
    <path d="M404.46 339.76H345.71V341.77H404.46V339.76Z" fill="#455A64"/>
    <path d="M404.46 343.25H345.71V345.26H404.46V343.25Z" fill="#455A64"/>
    <path d="M404.46 346.74H345.71V348.75H404.46V346.74Z" fill="#455A64"/>
    <path d="M404.46 350.23H345.71V352.24H404.46V350.23Z" fill="#455A64"/>
    <path d="M413.18 340.27C414.285 340.27 415.18 339.375 415.18 338.27C415.18 337.165 414.285 336.27 413.18 336.27C412.075 336.27 411.18 337.165 411.18 338.27C411.18 339.375 412.075 340.27 413.18 340.27Z" fill="#FFC727"/>
    <path d="M421.75 338.27C421.75 338.666 421.633 339.052 421.413 339.381C421.193 339.71 420.881 339.966 420.515 340.118C420.15 340.269 419.748 340.309 419.36 340.232C418.972 340.154 418.615 339.964 418.336 339.684C418.056 339.404 417.866 339.048 417.788 338.66C417.711 338.272 417.751 337.87 417.902 337.505C418.054 337.139 418.31 336.827 418.639 336.607C418.968 336.387 419.354 336.27 419.75 336.27C420.28 336.27 420.789 336.481 421.164 336.856C421.539 337.231 421.75 337.74 421.75 338.27Z" fill="#FFC727"/>
    <path d="M426.33 340.27C427.435 340.27 428.33 339.375 428.33 338.27C428.33 337.165 427.435 336.27 426.33 336.27C425.225 336.27 424.33 337.165 424.33 338.27C424.33 339.375 425.225 340.27 426.33 340.27Z" fill="#FFC727"/>
    <path d="M434.9 338.27C434.9 338.666 434.783 339.052 434.563 339.381C434.343 339.71 434.031 339.966 433.665 340.118C433.3 340.269 432.898 340.309 432.51 340.232C432.122 340.154 431.765 339.964 431.486 339.684C431.206 339.404 431.016 339.048 430.938 338.66C430.861 338.272 430.901 337.87 431.052 337.505C431.204 337.139 431.46 336.827 431.789 336.607C432.118 336.387 432.504 336.27 432.9 336.27C433.43 336.27 433.939 336.481 434.314 336.856C434.689 337.231 434.9 337.74 434.9 338.27Z" fill="#FFC727"/>
    <path d="M441.48 338.27C441.48 338.666 441.363 339.052 441.143 339.381C440.923 339.71 440.611 339.966 440.245 340.118C439.88 340.269 439.478 340.309 439.09 340.232C438.702 340.154 438.346 339.964 438.066 339.684C437.786 339.404 437.596 339.048 437.518 338.66C437.441 338.272 437.481 337.87 437.632 337.505C437.784 337.139 438.04 336.827 438.369 336.607C438.698 336.387 439.084 336.27 439.48 336.27C440.01 336.27 440.519 336.481 440.894 336.856C441.269 337.231 441.48 337.74 441.48 338.27Z" fill="#FFC727"/>
    <path d="M415.17 344.26C415.17 344.656 415.053 345.042 414.833 345.371C414.613 345.7 414.301 345.956 413.935 346.108C413.57 346.259 413.168 346.299 412.78 346.222C412.392 346.144 412.036 345.954 411.756 345.674C411.476 345.395 411.286 345.038 411.208 344.65C411.131 344.262 411.171 343.86 411.322 343.495C411.474 343.129 411.73 342.817 412.059 342.597C412.388 342.377 412.774 342.26 413.17 342.26C413.7 342.26 414.209 342.471 414.584 342.846C414.959 343.221 415.17 343.73 415.17 344.26Z" fill="#FFC727"/>
    <path d="M421.75 344.26C421.75 344.656 421.633 345.042 421.413 345.371C421.193 345.7 420.881 345.956 420.515 346.108C420.15 346.259 419.748 346.299 419.36 346.222C418.972 346.144 418.615 345.954 418.336 345.674C418.056 345.395 417.866 345.038 417.788 344.65C417.711 344.262 417.751 343.86 417.902 343.495C418.054 343.129 418.31 342.817 418.639 342.597C418.968 342.377 419.354 342.26 419.75 342.26C420.28 342.26 420.789 342.471 421.164 342.846C421.539 343.221 421.75 343.73 421.75 344.26Z" fill="#FFC727"/>
    <path d="M428.33 344.26C428.33 344.656 428.213 345.042 427.993 345.371C427.773 345.7 427.461 345.956 427.095 346.108C426.73 346.259 426.328 346.299 425.94 346.222C425.552 346.144 425.195 345.954 424.916 345.674C424.636 345.395 424.446 345.038 424.368 344.65C424.291 344.262 424.331 343.86 424.482 343.495C424.634 343.129 424.89 342.817 425.219 342.597C425.548 342.377 425.934 342.26 426.33 342.26C426.86 342.26 427.369 342.471 427.744 342.846C428.119 343.221 428.33 343.73 428.33 344.26Z" fill="#FFC727"/>
    <path d="M434.9 344.26C434.9 344.656 434.783 345.042 434.563 345.371C434.343 345.7 434.031 345.956 433.665 346.108C433.3 346.259 432.898 346.299 432.51 346.222C432.122 346.144 431.765 345.954 431.486 345.674C431.206 345.395 431.016 345.038 430.938 344.65C430.861 344.262 430.901 343.86 431.052 343.495C431.204 343.129 431.46 342.817 431.789 342.597C432.118 342.377 432.504 342.26 432.9 342.26C433.43 342.26 433.939 342.471 434.314 342.846C434.689 343.221 434.9 343.73 434.9 344.26Z" fill="#FFC727"/>
    <path d="M441.48 344.26C441.48 344.656 441.363 345.042 441.143 345.371C440.923 345.7 440.611 345.956 440.245 346.108C439.88 346.259 439.478 346.299 439.09 346.222C438.702 346.144 438.346 345.954 438.066 345.674C437.786 345.395 437.596 345.038 437.518 344.65C437.441 344.262 437.481 343.86 437.632 343.495C437.784 343.129 438.04 342.817 438.369 342.597C438.698 342.377 439.084 342.26 439.48 342.26C440.01 342.26 440.519 342.471 440.894 342.846C441.269 343.221 441.48 343.73 441.48 344.26Z" fill="#FFC727"/>
    <path d="M415.17 350.24C415.17 350.636 415.053 351.022 414.833 351.351C414.613 351.68 414.301 351.936 413.935 352.088C413.57 352.239 413.168 352.279 412.78 352.202C412.392 352.124 412.036 351.934 411.756 351.654C411.476 351.375 411.286 351.018 411.208 350.63C411.131 350.242 411.171 349.84 411.322 349.475C411.474 349.109 411.73 348.797 412.059 348.577C412.388 348.357 412.774 348.24 413.17 348.24C413.7 348.24 414.209 348.451 414.584 348.826C414.959 349.201 415.17 349.71 415.17 350.24Z" fill="#FFC727"/>
    <path d="M421.75 350.24C421.75 350.636 421.633 351.022 421.413 351.351C421.193 351.68 420.881 351.936 420.515 352.088C420.15 352.239 419.748 352.279 419.36 352.202C418.972 352.124 418.615 351.934 418.336 351.654C418.056 351.375 417.866 351.018 417.788 350.63C417.711 350.242 417.751 349.84 417.902 349.475C418.054 349.109 418.31 348.797 418.639 348.577C418.968 348.357 419.354 348.24 419.75 348.24C420.28 348.24 420.789 348.451 421.164 348.826C421.539 349.201 421.75 349.71 421.75 350.24Z" fill="#FFC727"/>
    <path d="M428.33 350.24C428.33 350.636 428.213 351.022 427.993 351.351C427.773 351.68 427.461 351.936 427.095 352.088C426.73 352.239 426.328 352.279 425.94 352.202C425.552 352.124 425.195 351.934 424.916 351.654C424.636 351.375 424.446 351.018 424.368 350.63C424.291 350.242 424.331 349.84 424.482 349.475C424.634 349.109 424.89 348.797 425.219 348.577C425.548 348.357 425.934 348.24 426.33 348.24C426.86 348.24 427.369 348.451 427.744 348.826C428.119 349.201 428.33 349.71 428.33 350.24Z" fill="#FFC727"/>
    <path d="M434.9 350.24C434.9 350.636 434.783 351.022 434.563 351.351C434.343 351.68 434.031 351.936 433.665 352.088C433.3 352.239 432.898 352.279 432.51 352.202C432.122 352.124 431.765 351.934 431.486 351.654C431.206 351.375 431.016 351.018 430.938 350.63C430.861 350.242 430.901 349.84 431.052 349.475C431.204 349.109 431.46 348.797 431.789 348.577C432.118 348.357 432.504 348.24 432.9 348.24C433.43 348.24 433.939 348.451 434.314 348.826C434.689 349.201 434.9 349.71 434.9 350.24Z" fill="#FFC727"/>
    <path d="M441.48 350.24C441.48 350.636 441.363 351.022 441.143 351.351C440.923 351.68 440.611 351.936 440.245 352.088C439.88 352.239 439.478 352.279 439.09 352.202C438.702 352.124 438.346 351.934 438.066 351.654C437.786 351.375 437.596 351.018 437.518 350.63C437.441 350.242 437.481 349.84 437.632 349.475C437.784 349.109 438.04 348.797 438.369 348.577C438.698 348.357 439.084 348.24 439.48 348.24C440.01 348.24 440.519 348.451 440.894 348.826C441.269 349.201 441.48 349.71 441.48 350.24Z" fill="#FFC727"/>
    <path d="M408.55 336.28H407.4V352.24H408.55V336.28Z" fill="#263238"/>
    <path d="M444.58 303.61H341.37V327.45H444.58V303.61Z" fill="#37474F"/>
    <path d="M404.46 307.55H345.71V309.56H404.46V307.55Z" fill="#455A64"/>
    <path d="M404.46 311.03H345.71V313.04H404.46V311.03Z" fill="#455A64"/>
    <path d="M404.46 314.52H345.71V316.53H404.46V314.52Z" fill="#455A64"/>
    <path d="M404.46 318.01H345.71V320.02H404.46V318.01Z" fill="#455A64"/>
    <path d="M404.46 321.5H345.71V323.51H404.46V321.5Z" fill="#455A64"/>
    <path d="M415.17 309.54C415.17 309.936 415.053 310.322 414.833 310.651C414.613 310.98 414.301 311.236 413.935 311.388C413.57 311.539 413.168 311.579 412.78 311.502C412.392 311.424 412.036 311.234 411.756 310.954C411.476 310.674 411.286 310.318 411.208 309.93C411.131 309.542 411.171 309.14 411.322 308.775C411.474 308.409 411.73 308.097 412.059 307.877C412.388 307.657 412.774 307.54 413.17 307.54C413.7 307.54 414.209 307.751 414.584 308.126C414.959 308.501 415.17 309.01 415.17 309.54Z" fill="#FFC727"/>
    <path d="M421.75 309.54C421.75 309.936 421.633 310.322 421.413 310.651C421.193 310.98 420.881 311.236 420.515 311.388C420.15 311.539 419.748 311.579 419.36 311.502C418.972 311.424 418.615 311.234 418.336 310.954C418.056 310.674 417.866 310.318 417.788 309.93C417.711 309.542 417.751 309.14 417.902 308.775C418.054 308.409 418.31 308.097 418.639 307.877C418.968 307.657 419.354 307.54 419.75 307.54C420.28 307.54 420.789 307.751 421.164 308.126C421.539 308.501 421.75 309.01 421.75 309.54Z" fill="#FFC727"/>
    <path d="M428.33 309.54C428.33 309.936 428.213 310.322 427.993 310.651C427.773 310.98 427.461 311.236 427.095 311.388C426.73 311.539 426.328 311.579 425.94 311.502C425.552 311.424 425.195 311.234 424.916 310.954C424.636 310.674 424.446 310.318 424.368 309.93C424.291 309.542 424.331 309.14 424.482 308.775C424.634 308.409 424.89 308.097 425.219 307.877C425.548 307.657 425.934 307.54 426.33 307.54C426.86 307.54 427.369 307.751 427.744 308.126C428.119 308.501 428.33 309.01 428.33 309.54Z" fill="#FFC727"/>
    <path d="M434.9 309.54C434.9 309.936 434.783 310.322 434.563 310.651C434.343 310.98 434.031 311.236 433.665 311.388C433.3 311.539 432.898 311.579 432.51 311.502C432.122 311.424 431.765 311.234 431.486 310.954C431.206 310.674 431.016 310.318 430.938 309.93C430.861 309.542 430.901 309.14 431.052 308.775C431.204 308.409 431.46 308.097 431.789 307.877C432.118 307.657 432.504 307.54 432.9 307.54C433.43 307.54 433.939 307.751 434.314 308.126C434.689 308.501 434.9 309.01 434.9 309.54Z" fill="#FFC727"/>
    <path d="M441.48 309.54C441.48 309.936 441.363 310.322 441.143 310.651C440.923 310.98 440.611 311.236 440.245 311.388C439.88 311.539 439.478 311.579 439.09 311.502C438.702 311.424 438.346 311.234 438.066 310.954C437.786 310.674 437.596 310.318 437.518 309.93C437.441 309.542 437.481 309.14 437.632 308.775C437.784 308.409 438.04 308.097 438.369 307.877C438.698 307.657 439.084 307.54 439.48 307.54C440.01 307.54 440.519 307.751 440.894 308.126C441.269 308.501 441.48 309.01 441.48 309.54Z" fill="#FFC727"/>
    <path d="M413.18 317.53C414.285 317.53 415.18 316.635 415.18 315.53C415.18 314.425 414.285 313.53 413.18 313.53C412.075 313.53 411.18 314.425 411.18 315.53C411.18 316.635 412.075 317.53 413.18 317.53Z" fill="#FFC727"/>
    <path d="M421.75 315.53C421.75 315.926 421.633 316.312 421.413 316.641C421.193 316.97 420.881 317.226 420.515 317.378C420.15 317.529 419.748 317.569 419.36 317.492C418.972 317.414 418.615 317.224 418.336 316.944C418.056 316.664 417.866 316.308 417.788 315.92C417.711 315.532 417.751 315.13 417.902 314.765C418.054 314.399 418.31 314.087 418.639 313.867C418.968 313.647 419.354 313.53 419.75 313.53C420.28 313.53 420.789 313.741 421.164 314.116C421.539 314.491 421.75 315 421.75 315.53Z" fill="#FFC727"/>
    <path d="M426.33 317.53C427.435 317.53 428.33 316.635 428.33 315.53C428.33 314.425 427.435 313.53 426.33 313.53C425.225 313.53 424.33 314.425 424.33 315.53C424.33 316.635 425.225 317.53 426.33 317.53Z" fill="#FFC727"/>
    <path d="M434.9 315.53C434.9 315.926 434.783 316.312 434.563 316.641C434.343 316.97 434.031 317.226 433.665 317.378C433.3 317.529 432.898 317.569 432.51 317.492C432.122 317.414 431.765 317.224 431.486 316.944C431.206 316.664 431.016 316.308 430.938 315.92C430.861 315.532 430.901 315.13 431.052 314.765C431.204 314.399 431.46 314.087 431.789 313.867C432.118 313.647 432.504 313.53 432.9 313.53C433.43 313.53 433.939 313.741 434.314 314.116C434.689 314.491 434.9 315 434.9 315.53Z" fill="#FFC727"/>
    <path d="M441.48 315.53C441.48 315.926 441.363 316.312 441.143 316.641C440.923 316.97 440.611 317.226 440.245 317.378C439.88 317.529 439.478 317.569 439.09 317.492C438.702 317.414 438.346 317.224 438.066 316.944C437.786 316.664 437.596 316.308 437.518 315.92C437.441 315.532 437.481 315.13 437.632 314.765C437.784 314.399 438.04 314.087 438.369 313.867C438.698 313.647 439.084 313.53 439.48 313.53C440.01 313.53 440.519 313.741 440.894 314.116C441.269 314.491 441.48 315 441.48 315.53Z" fill="#FFC727"/>
    <path d="M413.18 323.51C414.285 323.51 415.18 322.615 415.18 321.51C415.18 320.405 414.285 319.51 413.18 319.51C412.075 319.51 411.18 320.405 411.18 321.51C411.18 322.615 412.075 323.51 413.18 323.51Z" fill="#FFC727"/>
    <path d="M421.75 321.51C421.75 321.906 421.633 322.292 421.413 322.621C421.193 322.95 420.881 323.206 420.515 323.358C420.15 323.509 419.748 323.549 419.36 323.472C418.972 323.394 418.615 323.204 418.336 322.924C418.056 322.645 417.866 322.288 417.788 321.9C417.711 321.512 417.751 321.11 417.902 320.745C418.054 320.379 418.31 320.067 418.639 319.847C418.968 319.627 419.354 319.51 419.75 319.51C420.28 319.51 420.789 319.721 421.164 320.096C421.539 320.471 421.75 320.98 421.75 321.51Z" fill="#FFC727"/>
    <path d="M426.33 323.51C427.435 323.51 428.33 322.615 428.33 321.51C428.33 320.405 427.435 319.51 426.33 319.51C425.225 319.51 424.33 320.405 424.33 321.51C424.33 322.615 425.225 323.51 426.33 323.51Z" fill="#FFC727"/>
    <path d="M434.9 321.51C434.9 321.906 434.783 322.292 434.563 322.621C434.343 322.95 434.031 323.206 433.665 323.358C433.3 323.509 432.898 323.549 432.51 323.472C432.122 323.394 431.765 323.204 431.486 322.924C431.206 322.645 431.016 322.288 430.938 321.9C430.861 321.512 430.901 321.11 431.052 320.745C431.204 320.379 431.46 320.067 431.789 319.847C432.118 319.627 432.504 319.51 432.9 319.51C433.43 319.51 433.939 319.721 434.314 320.096C434.689 320.471 434.9 320.98 434.9 321.51Z" fill="#FFC727"/>
    <path d="M441.48 321.51C441.48 321.906 441.363 322.292 441.143 322.621C440.923 322.95 440.611 323.206 440.245 323.358C439.88 323.509 439.478 323.549 439.09 323.472C438.702 323.394 438.346 323.204 438.066 322.924C437.786 322.645 437.596 322.288 437.518 321.9C437.441 321.512 437.481 321.11 437.632 320.745C437.784 320.379 438.04 320.067 438.369 319.847C438.698 319.627 439.084 319.51 439.48 319.51C440.01 319.51 440.519 319.721 440.894 320.096C441.269 320.471 441.48 320.98 441.48 321.51Z" fill="#FFC727"/>
    <path d="M408.55 307.55H407.4V323.51H408.55V307.55Z" fill="#263238"/>
    <path d="M444.58 274.88H341.37V298.72H444.58V274.88Z" fill="#37474F"/>
    <path d="M404.46 278.82H345.71V280.83H404.46V278.82Z" fill="#455A64"/>
    <path d="M404.46 282.31H345.71V284.32H404.46V282.31Z" fill="#455A64"/>
    <path d="M404.46 285.79H345.71V287.8H404.46V285.79Z" fill="#455A64"/>
    <path d="M404.46 289.28H345.71V291.29H404.46V289.28Z" fill="#455A64"/>
    <path d="M404.46 292.77H345.71V294.78H404.46V292.77Z" fill="#455A64"/>
    <path d="M413.18 282.82C414.285 282.82 415.18 281.925 415.18 280.82C415.18 279.715 414.285 278.82 413.18 278.82C412.075 278.82 411.18 279.715 411.18 280.82C411.18 281.925 412.075 282.82 413.18 282.82Z" fill="#FFC727"/>
    <path d="M421.75 280.82C421.75 281.216 421.633 281.602 421.413 281.931C421.193 282.26 420.881 282.516 420.515 282.668C420.15 282.819 419.748 282.859 419.36 282.782C418.972 282.704 418.615 282.514 418.336 282.234C418.056 281.955 417.866 281.598 417.788 281.21C417.711 280.822 417.751 280.42 417.902 280.055C418.054 279.689 418.31 279.377 418.639 279.157C418.968 278.937 419.354 278.82 419.75 278.82C420.28 278.82 420.789 279.031 421.164 279.406C421.539 279.781 421.75 280.29 421.75 280.82Z" fill="#FFC727"/>
    <path d="M426.33 282.82C427.435 282.82 428.33 281.925 428.33 280.82C428.33 279.715 427.435 278.82 426.33 278.82C425.225 278.82 424.33 279.715 424.33 280.82C424.33 281.925 425.225 282.82 426.33 282.82Z" fill="#FFC727"/>
    <path d="M434.9 280.82C434.9 281.216 434.783 281.602 434.563 281.931C434.343 282.26 434.031 282.516 433.665 282.668C433.3 282.819 432.898 282.859 432.51 282.782C432.122 282.704 431.765 282.514 431.486 282.234C431.206 281.955 431.016 281.598 430.938 281.21C430.861 280.822 430.901 280.42 431.052 280.055C431.204 279.689 431.46 279.377 431.789 279.157C432.118 278.937 432.504 278.82 432.9 278.82C433.43 278.82 433.939 279.031 434.314 279.406C434.689 279.781 434.9 280.29 434.9 280.82Z" fill="#FFC727"/>
    <path d="M441.48 280.82C441.48 281.216 441.363 281.602 441.143 281.931C440.923 282.26 440.611 282.516 440.245 282.668C439.88 282.819 439.478 282.859 439.09 282.782C438.702 282.704 438.346 282.514 438.066 282.234C437.786 281.955 437.596 281.598 437.518 281.21C437.441 280.822 437.481 280.42 437.632 280.055C437.784 279.689 438.04 279.377 438.369 279.157C438.698 278.937 439.084 278.82 439.48 278.82C440.01 278.82 440.519 279.031 440.894 279.406C441.269 279.781 441.48 280.29 441.48 280.82Z" fill="#FFC727"/>
    <path d="M413.18 288.8C414.285 288.8 415.18 287.905 415.18 286.8C415.18 285.695 414.285 284.8 413.18 284.8C412.075 284.8 411.18 285.695 411.18 286.8C411.18 287.905 412.075 288.8 413.18 288.8Z" fill="#FFC727"/>
    <path d="M421.75 286.8C421.75 287.196 421.633 287.582 421.413 287.911C421.193 288.24 420.881 288.496 420.515 288.648C420.15 288.799 419.748 288.839 419.36 288.762C418.972 288.684 418.615 288.494 418.336 288.214C418.056 287.934 417.866 287.578 417.788 287.19C417.711 286.802 417.751 286.4 417.902 286.035C418.054 285.669 418.31 285.357 418.639 285.137C418.968 284.917 419.354 284.8 419.75 284.8C420.28 284.8 420.789 285.011 421.164 285.386C421.539 285.761 421.75 286.27 421.75 286.8Z" fill="#FFC727"/>
    <path d="M426.33 288.8C427.435 288.8 428.33 287.905 428.33 286.8C428.33 285.695 427.435 284.8 426.33 284.8C425.225 284.8 424.33 285.695 424.33 286.8C424.33 287.905 425.225 288.8 426.33 288.8Z" fill="#FFC727"/>
    <path d="M434.9 286.8C434.9 287.196 434.783 287.582 434.563 287.911C434.343 288.24 434.031 288.496 433.665 288.648C433.3 288.799 432.898 288.839 432.51 288.762C432.122 288.684 431.765 288.494 431.486 288.214C431.206 287.934 431.016 287.578 430.938 287.19C430.861 286.802 430.901 286.4 431.052 286.035C431.204 285.669 431.46 285.357 431.789 285.137C432.118 284.917 432.504 284.8 432.9 284.8C433.43 284.8 433.939 285.011 434.314 285.386C434.689 285.761 434.9 286.27 434.9 286.8Z" fill="#FFC727"/>
    <path d="M441.48 286.8C441.48 287.196 441.363 287.582 441.143 287.911C440.923 288.24 440.611 288.496 440.245 288.648C439.88 288.799 439.478 288.839 439.09 288.762C438.702 288.684 438.346 288.494 438.066 288.214C437.786 287.934 437.596 287.578 437.518 287.19C437.441 286.802 437.481 286.4 437.632 286.035C437.784 285.669 438.04 285.357 438.369 285.137C438.698 284.917 439.084 284.8 439.48 284.8C440.01 284.8 440.519 285.011 440.894 285.386C441.269 285.761 441.48 286.27 441.48 286.8Z" fill="#FFC727"/>
    <path d="M415.17 292.79C415.17 293.186 415.053 293.572 414.833 293.901C414.613 294.23 414.301 294.486 413.935 294.638C413.57 294.789 413.168 294.829 412.78 294.752C412.392 294.674 412.036 294.484 411.756 294.204C411.476 293.924 411.286 293.568 411.208 293.18C411.131 292.792 411.171 292.39 411.322 292.025C411.474 291.659 411.73 291.347 412.059 291.127C412.388 290.907 412.774 290.79 413.17 290.79C413.7 290.79 414.209 291.001 414.584 291.376C414.959 291.751 415.17 292.26 415.17 292.79Z" fill="#FFC727"/>
    <path d="M421.75 292.79C421.75 293.186 421.633 293.572 421.413 293.901C421.193 294.23 420.881 294.486 420.515 294.638C420.15 294.789 419.748 294.829 419.36 294.752C418.972 294.674 418.615 294.484 418.336 294.204C418.056 293.924 417.866 293.568 417.788 293.18C417.711 292.792 417.751 292.39 417.902 292.025C418.054 291.659 418.31 291.347 418.639 291.127C418.968 290.907 419.354 290.79 419.75 290.79C420.28 290.79 420.789 291.001 421.164 291.376C421.539 291.751 421.75 292.26 421.75 292.79Z" fill="#FFC727"/>
    <path d="M428.33 292.79C428.33 293.186 428.213 293.572 427.993 293.901C427.773 294.23 427.461 294.486 427.095 294.638C426.73 294.789 426.328 294.829 425.94 294.752C425.552 294.674 425.195 294.484 424.916 294.204C424.636 293.924 424.446 293.568 424.368 293.18C424.291 292.792 424.331 292.39 424.482 292.025C424.634 291.659 424.89 291.347 425.219 291.127C425.548 290.907 425.934 290.79 426.33 290.79C426.86 290.79 427.369 291.001 427.744 291.376C428.119 291.751 428.33 292.26 428.33 292.79Z" fill="#FFC727"/>
    <path d="M434.9 292.79C434.9 293.186 434.783 293.572 434.563 293.901C434.343 294.23 434.031 294.486 433.665 294.638C433.3 294.789 432.898 294.829 432.51 294.752C432.122 294.674 431.765 294.484 431.486 294.204C431.206 293.924 431.016 293.568 430.938 293.18C430.861 292.792 430.901 292.39 431.052 292.025C431.204 291.659 431.46 291.347 431.789 291.127C432.118 290.907 432.504 290.79 432.9 290.79C433.43 290.79 433.939 291.001 434.314 291.376C434.689 291.751 434.9 292.26 434.9 292.79Z" fill="#FFC727"/>
    <path d="M441.48 292.79C441.48 293.186 441.363 293.572 441.143 293.901C440.923 294.23 440.611 294.486 440.245 294.638C439.88 294.789 439.478 294.829 439.09 294.752C438.702 294.674 438.346 294.484 438.066 294.204C437.786 293.924 437.596 293.568 437.518 293.18C437.441 292.792 437.481 292.39 437.632 292.025C437.784 291.659 438.04 291.347 438.369 291.127C438.698 290.907 439.084 290.79 439.48 290.79C440.01 290.79 440.519 291.001 440.894 291.376C441.269 291.751 441.48 292.26 441.48 292.79Z" fill="#FFC727"/>
    <path d="M408.55 278.82H407.4V294.78H408.55V278.82Z" fill="#263238"/>
    <path d="M444.58 246.15H341.37V269.99H444.58V246.15Z" fill="#37474F"/>
    <path d="M404.46 250.09H345.71V252.1H404.46V250.09Z" fill="#455A64"/>
    <path d="M404.46 253.58H345.71V255.59H404.46V253.58Z" fill="#455A64"/>
    <path d="M404.46 257.07H345.71V259.08H404.46V257.07Z" fill="#455A64"/>
    <path d="M404.46 260.55H345.71V262.56H404.46V260.55Z" fill="#455A64"/>
    <path d="M404.46 264.04H345.71V266.05H404.46V264.04Z" fill="#455A64"/>
    <path d="M415.17 252.09C415.17 252.486 415.053 252.872 414.833 253.201C414.613 253.53 414.301 253.786 413.935 253.938C413.57 254.089 413.168 254.129 412.78 254.052C412.392 253.974 412.036 253.784 411.756 253.504C411.476 253.224 411.286 252.868 411.208 252.48C411.131 252.092 411.171 251.69 411.322 251.325C411.474 250.959 411.73 250.647 412.059 250.427C412.388 250.207 412.774 250.09 413.17 250.09C413.7 250.09 414.209 250.301 414.584 250.676C414.959 251.051 415.17 251.56 415.17 252.09Z" fill="#FFC727"/>
    <path d="M421.75 252.09C421.75 252.486 421.633 252.872 421.413 253.201C421.193 253.53 420.881 253.786 420.515 253.938C420.15 254.089 419.748 254.129 419.36 254.052C418.972 253.974 418.615 253.784 418.336 253.504C418.056 253.224 417.866 252.868 417.788 252.48C417.711 252.092 417.751 251.69 417.902 251.325C418.054 250.959 418.31 250.647 418.639 250.427C418.968 250.207 419.354 250.09 419.75 250.09C420.28 250.09 420.789 250.301 421.164 250.676C421.539 251.051 421.75 251.56 421.75 252.09Z" fill="#FFC727"/>
    <path d="M428.33 252.09C428.33 252.486 428.213 252.872 427.993 253.201C427.773 253.53 427.461 253.786 427.095 253.938C426.73 254.089 426.328 254.129 425.94 254.052C425.552 253.974 425.195 253.784 424.916 253.504C424.636 253.224 424.446 252.868 424.368 252.48C424.291 252.092 424.331 251.69 424.482 251.325C424.634 250.959 424.89 250.647 425.219 250.427C425.548 250.207 425.934 250.09 426.33 250.09C426.86 250.09 427.369 250.301 427.744 250.676C428.119 251.051 428.33 251.56 428.33 252.09Z" fill="#FFC727"/>
    <path d="M434.9 252.09C434.9 252.486 434.783 252.872 434.563 253.201C434.343 253.53 434.031 253.786 433.665 253.938C433.3 254.089 432.898 254.129 432.51 254.052C432.122 253.974 431.765 253.784 431.486 253.504C431.206 253.224 431.016 252.868 430.938 252.48C430.861 252.092 430.901 251.69 431.052 251.325C431.204 250.959 431.46 250.647 431.789 250.427C432.118 250.207 432.504 250.09 432.9 250.09C433.43 250.09 433.939 250.301 434.314 250.676C434.689 251.051 434.9 251.56 434.9 252.09Z" fill="#FFC727"/>
    <path d="M441.48 252.09C441.48 252.486 441.363 252.872 441.143 253.201C440.923 253.53 440.611 253.786 440.245 253.938C439.88 254.089 439.478 254.129 439.09 254.052C438.702 253.974 438.346 253.784 438.066 253.504C437.786 253.224 437.596 252.868 437.518 252.48C437.441 252.092 437.481 251.69 437.632 251.325C437.784 250.959 438.04 250.647 438.369 250.427C438.698 250.207 439.084 250.09 439.48 250.09C440.01 250.09 440.519 250.301 440.894 250.676C441.269 251.051 441.48 251.56 441.48 252.09Z" fill="#FFC727"/>
    <path d="M415.17 258.07C415.17 258.466 415.053 258.852 414.833 259.181C414.613 259.51 414.301 259.766 413.935 259.918C413.57 260.069 413.168 260.109 412.78 260.032C412.392 259.954 412.036 259.764 411.756 259.484C411.476 259.205 411.286 258.848 411.208 258.46C411.131 258.072 411.171 257.67 411.322 257.305C411.474 256.939 411.73 256.627 412.059 256.407C412.388 256.187 412.774 256.07 413.17 256.07C413.7 256.07 414.209 256.281 414.584 256.656C414.959 257.031 415.17 257.54 415.17 258.07Z" fill="#FFC727"/>
    <path d="M421.75 258.07C421.75 258.466 421.633 258.852 421.413 259.181C421.193 259.51 420.881 259.766 420.515 259.918C420.15 260.069 419.748 260.109 419.36 260.032C418.972 259.954 418.615 259.764 418.336 259.484C418.056 259.205 417.866 258.848 417.788 258.46C417.711 258.072 417.751 257.67 417.902 257.305C418.054 256.939 418.31 256.627 418.639 256.407C418.968 256.187 419.354 256.07 419.75 256.07C420.28 256.07 420.789 256.281 421.164 256.656C421.539 257.031 421.75 257.54 421.75 258.07Z" fill="#FFC727"/>
    <path d="M428.33 258.07C428.33 258.466 428.213 258.852 427.993 259.181C427.773 259.51 427.461 259.766 427.095 259.918C426.73 260.069 426.328 260.109 425.94 260.032C425.552 259.954 425.195 259.764 424.916 259.484C424.636 259.205 424.446 258.848 424.368 258.46C424.291 258.072 424.331 257.67 424.482 257.305C424.634 256.939 424.89 256.627 425.219 256.407C425.548 256.187 425.934 256.07 426.33 256.07C426.86 256.07 427.369 256.281 427.744 256.656C428.119 257.031 428.33 257.54 428.33 258.07Z" fill="#FFC727"/>
    <path d="M434.9 258.07C434.9 258.466 434.783 258.852 434.563 259.181C434.343 259.51 434.031 259.766 433.665 259.918C433.3 260.069 432.898 260.109 432.51 260.032C432.122 259.954 431.765 259.764 431.486 259.484C431.206 259.205 431.016 258.848 430.938 258.46C430.861 258.072 430.901 257.67 431.052 257.305C431.204 256.939 431.46 256.627 431.789 256.407C432.118 256.187 432.504 256.07 432.9 256.07C433.43 256.07 433.939 256.281 434.314 256.656C434.689 257.031 434.9 257.54 434.9 258.07Z" fill="#FFC727"/>
    <path d="M441.48 258.07C441.48 258.466 441.363 258.852 441.143 259.181C440.923 259.51 440.611 259.766 440.245 259.918C439.88 260.069 439.478 260.109 439.09 260.032C438.702 259.954 438.346 259.764 438.066 259.484C437.786 259.205 437.596 258.848 437.518 258.46C437.441 258.072 437.481 257.67 437.632 257.305C437.784 256.939 438.04 256.627 438.369 256.407C438.698 256.187 439.084 256.07 439.48 256.07C440.01 256.07 440.519 256.281 440.894 256.656C441.269 257.031 441.48 257.54 441.48 258.07Z" fill="#FFC727"/>
    <path d="M415.17 264.06C415.17 264.456 415.053 264.842 414.833 265.171C414.613 265.5 414.301 265.756 413.935 265.908C413.57 266.059 413.168 266.099 412.78 266.022C412.392 265.944 412.036 265.754 411.756 265.474C411.476 265.195 411.286 264.838 411.208 264.45C411.131 264.062 411.171 263.66 411.322 263.295C411.474 262.929 411.73 262.617 412.059 262.397C412.388 262.177 412.774 262.06 413.17 262.06C413.7 262.06 414.209 262.271 414.584 262.646C414.959 263.021 415.17 263.53 415.17 264.06Z" fill="#FFC727"/>
    <path d="M421.75 264.06C421.75 264.456 421.633 264.842 421.413 265.171C421.193 265.5 420.881 265.756 420.515 265.908C420.15 266.059 419.748 266.099 419.36 266.022C418.972 265.944 418.615 265.754 418.336 265.474C418.056 265.195 417.866 264.838 417.788 264.45C417.711 264.062 417.751 263.66 417.902 263.295C418.054 262.929 418.31 262.617 418.639 262.397C418.968 262.177 419.354 262.06 419.75 262.06C420.28 262.06 420.789 262.271 421.164 262.646C421.539 263.021 421.75 263.53 421.75 264.06Z" fill="#FFC727"/>
    <path d="M428.33 264.06C428.33 264.456 428.213 264.842 427.993 265.171C427.773 265.5 427.461 265.756 427.095 265.908C426.73 266.059 426.328 266.099 425.94 266.022C425.552 265.944 425.195 265.754 424.916 265.474C424.636 265.195 424.446 264.838 424.368 264.45C424.291 264.062 424.331 263.66 424.482 263.295C424.634 262.929 424.89 262.617 425.219 262.397C425.548 262.177 425.934 262.06 426.33 262.06C426.86 262.06 427.369 262.271 427.744 262.646C428.119 263.021 428.33 263.53 428.33 264.06Z" fill="#FFC727"/>
    <path d="M434.9 264.06C434.9 264.456 434.783 264.842 434.563 265.171C434.343 265.5 434.031 265.756 433.665 265.908C433.3 266.059 432.898 266.099 432.51 266.022C432.122 265.944 431.765 265.754 431.486 265.474C431.206 265.195 431.016 264.838 430.938 264.45C430.861 264.062 430.901 263.66 431.052 263.295C431.204 262.929 431.46 262.617 431.789 262.397C432.118 262.177 432.504 262.06 432.9 262.06C433.43 262.06 433.939 262.271 434.314 262.646C434.689 263.021 434.9 263.53 434.9 264.06Z" fill="#FFC727"/>
    <path d="M441.48 264.06C441.48 264.456 441.363 264.842 441.143 265.171C440.923 265.5 440.611 265.756 440.245 265.908C439.88 266.059 439.478 266.099 439.09 266.022C438.702 265.944 438.346 265.754 438.066 265.474C437.786 265.195 437.596 264.838 437.518 264.45C437.441 264.062 437.481 263.66 437.632 263.295C437.784 262.929 438.04 262.617 438.369 262.397C438.698 262.177 439.084 262.06 439.48 262.06C440.01 262.06 440.519 262.271 440.894 262.646C441.269 263.021 441.48 263.53 441.48 264.06Z" fill="#FFC727"/>
    <path d="M408.55 250.09H407.4V266.05H408.55V250.09Z" fill="#263238"/>
    <path d="M444.58 217.43H341.37V241.27H444.58V217.43Z" fill="#37474F"/>
    <path d="M404.46 221.36H345.71V223.37H404.46V221.36Z" fill="#455A64"/>
    <path d="M404.46 224.85H345.71V226.86H404.46V224.85Z" fill="#455A64"/>
    <path d="M404.46 228.34H345.71V230.35H404.46V228.34Z" fill="#455A64"/>
    <path d="M404.46 231.83H345.71V233.84H404.46V231.83Z" fill="#455A64"/>
    <path d="M404.46 235.31H345.71V237.32H404.46V235.31Z" fill="#455A64"/>
    <path d="M415.17 223.36C415.17 223.756 415.053 224.142 414.833 224.471C414.613 224.8 414.301 225.056 413.935 225.208C413.57 225.359 413.168 225.399 412.78 225.322C412.392 225.244 412.036 225.054 411.756 224.774C411.476 224.494 411.286 224.138 411.208 223.75C411.131 223.362 411.171 222.96 411.322 222.595C411.474 222.229 411.73 221.917 412.059 221.697C412.388 221.477 412.774 221.36 413.17 221.36C413.7 221.36 414.209 221.571 414.584 221.946C414.959 222.321 415.17 222.83 415.17 223.36Z" fill="#FFC727"/>
    <path d="M421.75 223.36C421.75 223.756 421.633 224.142 421.413 224.471C421.193 224.8 420.881 225.056 420.515 225.208C420.15 225.359 419.748 225.399 419.36 225.322C418.972 225.244 418.615 225.054 418.336 224.774C418.056 224.494 417.866 224.138 417.788 223.75C417.711 223.362 417.751 222.96 417.902 222.595C418.054 222.229 418.31 221.917 418.639 221.697C418.968 221.477 419.354 221.36 419.75 221.36C420.28 221.36 420.789 221.571 421.164 221.946C421.539 222.321 421.75 222.83 421.75 223.36Z" fill="#FFC727"/>
    <path d="M428.33 223.36C428.33 223.756 428.213 224.142 427.993 224.471C427.773 224.8 427.461 225.056 427.095 225.208C426.73 225.359 426.328 225.399 425.94 225.322C425.552 225.244 425.195 225.054 424.916 224.774C424.636 224.494 424.446 224.138 424.368 223.75C424.291 223.362 424.331 222.96 424.482 222.595C424.634 222.229 424.89 221.917 425.219 221.697C425.548 221.477 425.934 221.36 426.33 221.36C426.86 221.36 427.369 221.571 427.744 221.946C428.119 222.321 428.33 222.83 428.33 223.36Z" fill="#FFC727"/>
    <path d="M434.9 223.36C434.9 223.756 434.783 224.142 434.563 224.471C434.343 224.8 434.031 225.056 433.665 225.208C433.3 225.359 432.898 225.399 432.51 225.322C432.122 225.244 431.765 225.054 431.486 224.774C431.206 224.494 431.016 224.138 430.938 223.75C430.861 223.362 430.901 222.96 431.052 222.595C431.204 222.229 431.46 221.917 431.789 221.697C432.118 221.477 432.504 221.36 432.9 221.36C433.43 221.36 433.939 221.571 434.314 221.946C434.689 222.321 434.9 222.83 434.9 223.36Z" fill="#FFC727"/>
    <path d="M441.48 223.36C441.48 223.756 441.363 224.142 441.143 224.471C440.923 224.8 440.611 225.056 440.245 225.208C439.88 225.359 439.478 225.399 439.09 225.322C438.702 225.244 438.346 225.054 438.066 224.774C437.786 224.494 437.596 224.138 437.518 223.75C437.441 223.362 437.481 222.96 437.632 222.595C437.784 222.229 438.04 221.917 438.369 221.697C438.698 221.477 439.084 221.36 439.48 221.36C440.01 221.36 440.519 221.571 440.894 221.946C441.269 222.321 441.48 222.83 441.48 223.36Z" fill="#FFC727"/>
    <path d="M415.17 229.35C415.17 229.746 415.053 230.132 414.833 230.461C414.613 230.79 414.301 231.046 413.935 231.198C413.57 231.349 413.168 231.389 412.78 231.312C412.392 231.234 412.036 231.044 411.756 230.764C411.476 230.484 411.286 230.128 411.208 229.74C411.131 229.352 411.171 228.95 411.322 228.585C411.474 228.219 411.73 227.907 412.059 227.687C412.388 227.467 412.774 227.35 413.17 227.35C413.7 227.35 414.209 227.561 414.584 227.936C414.959 228.311 415.17 228.82 415.17 229.35Z" fill="#FFC727"/>
    <path d="M421.75 229.35C421.75 229.746 421.633 230.132 421.413 230.461C421.193 230.79 420.881 231.046 420.515 231.198C420.15 231.349 419.748 231.389 419.36 231.312C418.972 231.234 418.615 231.044 418.336 230.764C418.056 230.484 417.866 230.128 417.788 229.74C417.711 229.352 417.751 228.95 417.902 228.585C418.054 228.219 418.31 227.907 418.639 227.687C418.968 227.467 419.354 227.35 419.75 227.35C420.28 227.35 420.789 227.561 421.164 227.936C421.539 228.311 421.75 228.82 421.75 229.35Z" fill="#FFC727"/>
    <path d="M428.33 229.35C428.33 229.746 428.213 230.132 427.993 230.461C427.773 230.79 427.461 231.046 427.095 231.198C426.73 231.349 426.328 231.389 425.94 231.312C425.552 231.234 425.195 231.044 424.916 230.764C424.636 230.484 424.446 230.128 424.368 229.74C424.291 229.352 424.331 228.95 424.482 228.585C424.634 228.219 424.89 227.907 425.219 227.687C425.548 227.467 425.934 227.35 426.33 227.35C426.86 227.35 427.369 227.561 427.744 227.936C428.119 228.311 428.33 228.82 428.33 229.35Z" fill="#FFC727"/>
    <path d="M434.9 229.35C434.9 229.746 434.783 230.132 434.563 230.461C434.343 230.79 434.031 231.046 433.665 231.198C433.3 231.349 432.898 231.389 432.51 231.312C432.122 231.234 431.765 231.044 431.486 230.764C431.206 230.484 431.016 230.128 430.938 229.74C430.861 229.352 430.901 228.95 431.052 228.585C431.204 228.219 431.46 227.907 431.789 227.687C432.118 227.467 432.504 227.35 432.9 227.35C433.43 227.35 433.939 227.561 434.314 227.936C434.689 228.311 434.9 228.82 434.9 229.35Z" fill="#FFC727"/>
    <path d="M441.48 229.35C441.48 229.746 441.363 230.132 441.143 230.461C440.923 230.79 440.611 231.046 440.245 231.198C439.88 231.349 439.478 231.389 439.09 231.312C438.702 231.234 438.346 231.044 438.066 230.764C437.786 230.484 437.596 230.128 437.518 229.74C437.441 229.352 437.481 228.95 437.632 228.585C437.784 228.219 438.04 227.907 438.369 227.687C438.698 227.467 439.084 227.35 439.48 227.35C440.01 227.35 440.519 227.561 440.894 227.936C441.269 228.311 441.48 228.82 441.48 229.35Z" fill="#FFC727"/>
    <path d="M415.17 235.33C415.17 235.726 415.053 236.112 414.833 236.441C414.613 236.77 414.301 237.026 413.935 237.178C413.57 237.329 413.168 237.369 412.78 237.292C412.392 237.214 412.036 237.024 411.756 236.744C411.476 236.464 411.286 236.108 411.208 235.72C411.131 235.332 411.171 234.93 411.322 234.565C411.474 234.199 411.73 233.887 412.059 233.667C412.388 233.447 412.774 233.33 413.17 233.33C413.7 233.33 414.209 233.541 414.584 233.916C414.959 234.291 415.17 234.8 415.17 235.33Z" fill="#FFC727"/>
    <path d="M421.75 235.33C421.75 235.726 421.633 236.112 421.413 236.441C421.193 236.77 420.881 237.026 420.515 237.178C420.15 237.329 419.748 237.369 419.36 237.292C418.972 237.214 418.615 237.024 418.336 236.744C418.056 236.464 417.866 236.108 417.788 235.72C417.711 235.332 417.751 234.93 417.902 234.565C418.054 234.199 418.31 233.887 418.639 233.667C418.968 233.447 419.354 233.33 419.75 233.33C420.28 233.33 420.789 233.541 421.164 233.916C421.539 234.291 421.75 234.8 421.75 235.33Z" fill="#FFC727"/>
    <path d="M428.33 235.33C428.33 235.726 428.213 236.112 427.993 236.441C427.773 236.77 427.461 237.026 427.095 237.178C426.73 237.329 426.328 237.369 425.94 237.292C425.552 237.214 425.195 237.024 424.916 236.744C424.636 236.464 424.446 236.108 424.368 235.72C424.291 235.332 424.331 234.93 424.482 234.565C424.634 234.199 424.89 233.887 425.219 233.667C425.548 233.447 425.934 233.33 426.33 233.33C426.86 233.33 427.369 233.541 427.744 233.916C428.119 234.291 428.33 234.8 428.33 235.33Z" fill="#FFC727"/>
    <path d="M434.9 235.33C434.9 235.726 434.783 236.112 434.563 236.441C434.343 236.77 434.031 237.026 433.665 237.178C433.3 237.329 432.898 237.369 432.51 237.292C432.122 237.214 431.765 237.024 431.486 236.744C431.206 236.464 431.016 236.108 430.938 235.72C430.861 235.332 430.901 234.93 431.052 234.565C431.204 234.199 431.46 233.887 431.789 233.667C432.118 233.447 432.504 233.33 432.9 233.33C433.43 233.33 433.939 233.541 434.314 233.916C434.689 234.291 434.9 234.8 434.9 235.33Z" fill="#FFC727"/>
    <path d="M441.48 235.33C441.48 235.726 441.363 236.112 441.143 236.441C440.923 236.77 440.611 237.026 440.245 237.178C439.88 237.329 439.478 237.369 439.09 237.292C438.702 237.214 438.346 237.024 438.066 236.744C437.786 236.464 437.596 236.108 437.518 235.72C437.441 235.332 437.481 234.93 437.632 234.565C437.784 234.199 438.04 233.887 438.369 233.667C438.698 233.447 439.084 233.33 439.48 233.33C440.01 233.33 440.519 233.541 440.894 233.916C441.269 234.291 441.48 234.8 441.48 235.33Z" fill="#FFC727"/>
    <path d="M408.55 221.36H407.4V237.32H408.55V221.36Z" fill="#263238"/>
    <path d="M444.58 188.7H341.37V212.54H444.58V188.7Z" fill="#37474F"/>
    <path d="M404.46 192.64H345.71V194.65H404.46V192.64Z" fill="#455A64"/>
    <path d="M404.46 196.12H345.71V198.13H404.46V196.12Z" fill="#455A64"/>
    <path d="M404.46 199.61H345.71V201.62H404.46V199.61Z" fill="#455A64"/>
    <path d="M404.46 203.1H345.71V205.11H404.46V203.1Z" fill="#455A64"/>
    <path d="M404.46 206.59H345.71V208.6H404.46V206.59Z" fill="#455A64"/>
    <path d="M415.17 194.63C415.17 195.026 415.053 195.412 414.833 195.741C414.613 196.07 414.301 196.326 413.935 196.478C413.57 196.629 413.168 196.669 412.78 196.592C412.392 196.514 412.036 196.324 411.756 196.044C411.476 195.765 411.286 195.408 411.208 195.02C411.131 194.632 411.171 194.23 411.322 193.865C411.474 193.499 411.73 193.187 412.059 192.967C412.388 192.747 412.774 192.63 413.17 192.63C413.7 192.63 414.209 192.841 414.584 193.216C414.959 193.591 415.17 194.1 415.17 194.63Z" fill="#FFC727"/>
    <path d="M421.75 194.63C421.75 195.026 421.633 195.412 421.413 195.741C421.193 196.07 420.881 196.326 420.515 196.478C420.15 196.629 419.748 196.669 419.36 196.592C418.972 196.514 418.615 196.324 418.336 196.044C418.056 195.765 417.866 195.408 417.788 195.02C417.711 194.632 417.751 194.23 417.902 193.865C418.054 193.499 418.31 193.187 418.639 192.967C418.968 192.747 419.354 192.63 419.75 192.63C420.28 192.63 420.789 192.841 421.164 193.216C421.539 193.591 421.75 194.1 421.75 194.63Z" fill="#FFC727"/>
    <path d="M428.33 194.63C428.33 195.026 428.213 195.412 427.993 195.741C427.773 196.07 427.461 196.326 427.095 196.478C426.73 196.629 426.328 196.669 425.94 196.592C425.552 196.514 425.195 196.324 424.916 196.044C424.636 195.765 424.446 195.408 424.368 195.02C424.291 194.632 424.331 194.23 424.482 193.865C424.634 193.499 424.89 193.187 425.219 192.967C425.548 192.747 425.934 192.63 426.33 192.63C426.86 192.63 427.369 192.841 427.744 193.216C428.119 193.591 428.33 194.1 428.33 194.63Z" fill="#FFC727"/>
    <path d="M434.9 194.63C434.9 195.026 434.783 195.412 434.563 195.741C434.343 196.07 434.031 196.326 433.665 196.478C433.3 196.629 432.898 196.669 432.51 196.592C432.122 196.514 431.765 196.324 431.486 196.044C431.206 195.765 431.016 195.408 430.938 195.02C430.861 194.632 430.901 194.23 431.052 193.865C431.204 193.499 431.46 193.187 431.789 192.967C432.118 192.747 432.504 192.63 432.9 192.63C433.43 192.63 433.939 192.841 434.314 193.216C434.689 193.591 434.9 194.1 434.9 194.63Z" fill="#FFC727"/>
    <path d="M441.48 194.63C441.48 195.026 441.363 195.412 441.143 195.741C440.923 196.07 440.611 196.326 440.245 196.478C439.88 196.629 439.478 196.669 439.09 196.592C438.702 196.514 438.346 196.324 438.066 196.044C437.786 195.765 437.596 195.408 437.518 195.02C437.441 194.632 437.481 194.23 437.632 193.865C437.784 193.499 438.04 193.187 438.369 192.967C438.698 192.747 439.084 192.63 439.48 192.63C440.01 192.63 440.519 192.841 440.894 193.216C441.269 193.591 441.48 194.1 441.48 194.63Z" fill="#FFC727"/>
    <path d="M413.18 202.62C414.285 202.62 415.18 201.725 415.18 200.62C415.18 199.515 414.285 198.62 413.18 198.62C412.075 198.62 411.18 199.515 411.18 200.62C411.18 201.725 412.075 202.62 413.18 202.62Z" fill="#FFC727"/>
    <path d="M421.75 200.62C421.75 201.016 421.633 201.402 421.413 201.731C421.193 202.06 420.881 202.316 420.515 202.468C420.15 202.619 419.748 202.659 419.36 202.582C418.972 202.504 418.615 202.314 418.336 202.034C418.056 201.755 417.866 201.398 417.788 201.01C417.711 200.622 417.751 200.22 417.902 199.855C418.054 199.489 418.31 199.177 418.639 198.957C418.968 198.737 419.354 198.62 419.75 198.62C420.28 198.62 420.789 198.831 421.164 199.206C421.539 199.581 421.75 200.09 421.75 200.62Z" fill="#FFC727"/>
    <path d="M426.33 202.62C427.435 202.62 428.33 201.725 428.33 200.62C428.33 199.515 427.435 198.62 426.33 198.62C425.225 198.62 424.33 199.515 424.33 200.62C424.33 201.725 425.225 202.62 426.33 202.62Z" fill="#FFC727"/>
    <path d="M434.9 200.62C434.9 201.016 434.783 201.402 434.563 201.731C434.343 202.06 434.031 202.316 433.665 202.468C433.3 202.619 432.898 202.659 432.51 202.582C432.122 202.504 431.765 202.314 431.486 202.034C431.206 201.755 431.016 201.398 430.938 201.01C430.861 200.622 430.901 200.22 431.052 199.855C431.204 199.489 431.46 199.177 431.789 198.957C432.118 198.737 432.504 198.62 432.9 198.62C433.43 198.62 433.939 198.831 434.314 199.206C434.689 199.581 434.9 200.09 434.9 200.62Z" fill="#FFC727"/>
    <path d="M441.48 200.62C441.48 201.016 441.363 201.402 441.143 201.731C440.923 202.06 440.611 202.316 440.245 202.468C439.88 202.619 439.478 202.659 439.09 202.582C438.702 202.504 438.346 202.314 438.066 202.034C437.786 201.755 437.596 201.398 437.518 201.01C437.441 200.622 437.481 200.22 437.632 199.855C437.784 199.489 438.04 199.177 438.369 198.957C438.698 198.737 439.084 198.62 439.48 198.62C440.01 198.62 440.519 198.831 440.894 199.206C441.269 199.581 441.48 200.09 441.48 200.62Z" fill="#FFC727"/>
    <path d="M415.17 206.6C415.17 206.996 415.053 207.382 414.833 207.711C414.613 208.04 414.301 208.296 413.935 208.448C413.57 208.599 413.168 208.639 412.78 208.562C412.392 208.484 412.036 208.294 411.756 208.014C411.476 207.734 411.286 207.378 411.208 206.99C411.131 206.602 411.171 206.2 411.322 205.835C411.474 205.469 411.73 205.157 412.059 204.937C412.388 204.717 412.774 204.6 413.17 204.6C413.7 204.6 414.209 204.811 414.584 205.186C414.959 205.561 415.17 206.07 415.17 206.6Z" fill="#FFC727"/>
    <path d="M421.75 206.6C421.75 206.996 421.633 207.382 421.413 207.711C421.193 208.04 420.881 208.296 420.515 208.448C420.15 208.599 419.748 208.639 419.36 208.562C418.972 208.484 418.615 208.294 418.336 208.014C418.056 207.734 417.866 207.378 417.788 206.99C417.711 206.602 417.751 206.2 417.902 205.835C418.054 205.469 418.31 205.157 418.639 204.937C418.968 204.717 419.354 204.6 419.75 204.6C420.28 204.6 420.789 204.811 421.164 205.186C421.539 205.561 421.75 206.07 421.75 206.6Z" fill="#FFC727"/>
    <path d="M428.33 206.6C428.33 206.996 428.213 207.382 427.993 207.711C427.773 208.04 427.461 208.296 427.095 208.448C426.73 208.599 426.328 208.639 425.94 208.562C425.552 208.484 425.195 208.294 424.916 208.014C424.636 207.734 424.446 207.378 424.368 206.99C424.291 206.602 424.331 206.2 424.482 205.835C424.634 205.469 424.89 205.157 425.219 204.937C425.548 204.717 425.934 204.6 426.33 204.6C426.86 204.6 427.369 204.811 427.744 205.186C428.119 205.561 428.33 206.07 428.33 206.6Z" fill="#FFC727"/>
    <path d="M434.9 206.6C434.9 206.996 434.783 207.382 434.563 207.711C434.343 208.04 434.031 208.296 433.665 208.448C433.3 208.599 432.898 208.639 432.51 208.562C432.122 208.484 431.765 208.294 431.486 208.014C431.206 207.734 431.016 207.378 430.938 206.99C430.861 206.602 430.901 206.2 431.052 205.835C431.204 205.469 431.46 205.157 431.789 204.937C432.118 204.717 432.504 204.6 432.9 204.6C433.43 204.6 433.939 204.811 434.314 205.186C434.689 205.561 434.9 206.07 434.9 206.6Z" fill="#FFC727"/>
    <path d="M441.48 206.6C441.48 206.996 441.363 207.382 441.143 207.711C440.923 208.04 440.611 208.296 440.245 208.448C439.88 208.599 439.478 208.639 439.09 208.562C438.702 208.484 438.346 208.294 438.066 208.014C437.786 207.734 437.596 207.378 437.518 206.99C437.441 206.602 437.481 206.2 437.632 205.835C437.784 205.469 438.04 205.157 438.369 204.937C438.698 204.717 439.084 204.6 439.48 204.6C440.01 204.6 440.519 204.811 440.894 205.186C441.269 205.561 441.48 206.07 441.48 206.6Z" fill="#FFC727"/>
    <path d="M408.55 192.64H407.4V208.6H408.55V192.64Z" fill="#263238"/>
    <path d="M427.74 168.86H291.69V176.42H427.74V168.86Z" fill="#37474F"/>
    <path d="M293.05 384.07H277.86V399.26H293.05V384.07Z" fill="#263238"/>
    <path d="M70.02 353.74H43.46V380.3H70.02V353.74Z" fill="#37474F"/>
    <path d="M56.74 375.88C61.6388 375.88 65.61 371.909 65.61 367.01C65.61 362.111 61.6388 358.14 56.74 358.14C51.8412 358.14 47.87 362.111 47.87 367.01C47.87 371.909 51.8412 375.88 56.74 375.88Z" fill="#455A64"/>
    <path d="M55.12 363.43H53.12V370.75H55.12V363.43Z" fill="#263238"/>
    <path d="M60.6801 363.43H58.6801V370.75H60.6801V363.43Z" fill="#263238"/>
    <path d="M36.85 421.59L90.14 421.35L143.43 421.26L250 421.09L356.57 421.26L409.86 421.35L463.15 421.59L409.86 421.84L356.57 421.93L250 422.09L143.43 421.92L90.14 421.83L36.85 421.59Z" fill="#263238"/>
    <path d="M128.08 396.52C129.08 398.64 125.24 413.83 124.08 416.95C122.92 420.07 118.69 437.48 116.65 438.23C114.61 438.98 104.72 438.77 103.32 438.23C101.92 437.69 103.32 434.72 104.93 433.68C106.54 432.64 108.47 431.05 108.47 431.05C108.47 431.05 105.58 404.16 106.12 401.15C106.66 398.14 125.48 390.83 128.08 396.52Z" fill="#FFC727"/>
    <path opacity="0.1" d="M128.08 396.52C129.08 398.64 125.24 413.83 124.08 416.95C122.92 420.07 118.69 437.48 116.65 438.23C114.61 438.98 104.72 438.77 103.32 438.23C101.92 437.69 103.32 434.72 104.93 433.68C106.54 432.64 108.47 431.05 108.47 431.05C108.47 431.05 105.58 404.16 106.12 401.15C106.66 398.14 125.48 390.83 128.08 396.52Z" fill="black"/>
    <path opacity="0.1" d="M107.4 437.06C107.51 436.523 107.731 436.015 108.05 435.57C108.369 435.134 108.75 434.747 109.18 434.42C109.598 434.09 110.082 433.855 110.6 433.73C110.616 433.723 110.633 433.723 110.65 433.728C110.666 433.733 110.679 433.744 110.688 433.759C110.697 433.774 110.7 433.791 110.696 433.808C110.693 433.825 110.684 433.84 110.67 433.85C110.49 434.01 110.29 434.15 110.12 434.32C109.95 434.49 109.76 434.67 109.6 434.85C109.272 435.202 108.986 435.591 108.75 436.01C108.5 436.42 108.27 436.84 108.05 437.28C107.83 437.72 107.72 438.19 107.55 438.65C107.55 438.677 107.539 438.702 107.521 438.721C107.502 438.739 107.477 438.75 107.45 438.75C107.423 438.75 107.398 438.739 107.379 438.721C107.361 438.702 107.35 438.677 107.35 438.65C107.25 438.123 107.267 437.58 107.4 437.06Z" fill="black"/>
    <path opacity="0.1" d="M104.51 435.48C105.06 434.531 105.907 433.79 106.92 433.37C106.99 433.37 107.06 433.42 107 433.47C106.235 434.073 105.585 434.808 105.08 435.64C104.828 436.065 104.664 436.536 104.598 437.026C104.533 437.516 104.568 438.014 104.7 438.49C104.7 438.49 104.7 438.55 104.63 438.49C104.338 438.047 104.173 437.532 104.152 437.002C104.131 436.471 104.255 435.945 104.51 435.48Z" fill="black"/>
    <path opacity="0.1" d="M106.94 416L120.53 428.86C122.03 423.93 123.43 418.57 124.04 416.98C125.24 413.86 129.04 398.67 128.04 396.55C125.43 390.86 106.56 398.17 106.04 401.18C105.83 402.57 106.33 409.27 106.94 416Z" fill="black"/>
    <path d="M179.41 411.72C179.96 412.24 185.31 407.18 186.13 404.81C186.95 402.44 183.53 395.75 184.13 394.61C184.73 393.47 187.68 392.56 189.19 394.31C190.7 396.06 194.57 405.65 193.77 409.75C192.97 413.85 184.74 423 183.87 423C183 423 179.41 411.72 179.41 411.72Z" fill="#FFC727"/>
    <path opacity="0.1" d="M179.41 411.72C179.41 411.72 183.02 422.92 183.87 422.97C184.5 422.97 189.08 418.11 191.82 413.88L184.33 407.57C182.44 409.8 179.79 412.08 179.41 411.72Z" fill="black"/>
    <path d="M149.19 365.46H104.79C104.79 365.46 101.49 394.7 101.85 398.57C102.21 402.44 121.72 431.11 127.77 434.81C133.82 438.51 168.6 438.69 177.06 436.81C183.64 435.36 189.13 426.96 186.4 414.03C185.21 408.37 169.79 394.89 167.64 392.31C165.49 389.73 149.19 365.46 149.19 365.46Z" fill="#C7C7C7"/>
    <path d="M101.85 398.57C102.21 402.44 121.72 431.11 127.78 434.81C133.84 438.51 168.6 438.69 177.07 436.81C183.64 435.36 189.14 426.96 186.4 414.02C185.21 408.37 169.8 394.89 167.65 392.31C166.33 390.73 159.71 381.01 154.77 373.71C151.64 369.09 149.19 365.44 149.19 365.44H104.79C104.79 365.44 103.96 372.78 103.18 380.59C102.4 388.4 101.67 396.64 101.85 398.57Z" fill="#FFC727"/>
    <path opacity="0.1" d="M103.18 380.61C127.04 387.97 148.26 377.5 154.77 373.73C151.64 369.11 149.19 365.46 149.19 365.46H104.79C104.79 365.46 104 372.8 103.18 380.61Z" fill="black"/>
    <path d="M177.91 412.64C177.91 412.64 165.69 404.97 157.12 406.35C148.55 407.73 145.52 425.35 149.63 435.24C149.63 435.24 141.81 437.56 141.81 441.34C141.81 443.49 146.28 444.18 152.72 444.02C159.16 443.86 171.98 443.74 172.26 442.12C172.32 440.785 172.03 439.458 171.42 438.27C171.42 438.27 182.99 436.97 185.26 429.27C187.53 421.57 179.84 413.93 177.91 412.64Z" fill="#FFC727"/>
    <path opacity="0.1" d="M161.22 436.11C164.495 437.451 167.975 438.222 171.51 438.39C171.58 438.39 171.6 438.51 171.51 438.52C167.906 438.876 164.283 438.059 161.18 436.19C161.14 436.17 161.17 436.08 161.22 436.11Z" fill="black"/>
    <path opacity="0.1" d="M146.84 444.07C147.265 442.631 148.214 441.404 149.5 440.63C150.197 440.148 150.958 439.764 151.76 439.49C152.68 439.18 153.62 439.01 154.55 438.72C154.62 438.72 154.68 438.81 154.55 438.84C153.755 439.128 152.985 439.482 152.25 439.9C151.503 440.286 150.779 440.713 150.08 441.18C148.928 442.016 147.916 443.028 147.08 444.18C147.05 444.31 146.8 444.24 146.84 444.07Z" fill="black"/>
    <path opacity="0.1" d="M148.42 438C148.436 438 148.451 438.006 148.462 438.018C148.474 438.029 148.48 438.044 148.48 438.06C148.48 438.076 148.474 438.091 148.462 438.102C148.451 438.114 148.436 438.12 148.42 438.12C146.053 439.108 144.166 440.981 143.16 443.34C143.16 443.44 142.94 443.44 142.96 443.34C143.155 441.973 143.796 440.708 144.783 439.743C145.77 438.777 147.049 438.165 148.42 438Z" fill="black"/>
    <path opacity="0.1" d="M144.61 437.45C144.61 437.45 144.61 437.51 144.61 437.5C146.133 436.599 147.745 435.859 149.42 435.29C149.62 435.64 149.83 435.99 150.06 436.29C150.06 436.36 150.21 436.29 150.17 436.23C148.71 433.144 147.978 429.764 148.03 426.35C148.037 424.542 148.143 422.736 148.35 420.94C148.769 417.79 149.752 414.742 151.25 411.94C152.093 410.18 153.396 408.681 155.02 407.6C156.773 406.747 158.73 406.4 160.67 406.6C162.672 406.734 164.652 407.1 166.57 407.69C168.519 408.229 170.43 408.898 172.29 409.69C168.723 407.664 164.797 406.35 160.73 405.82C158.623 405.526 156.476 405.875 154.57 406.82C152.777 407.959 151.326 409.563 150.37 411.46C148.479 415.143 147.43 419.201 147.3 423.34C147.3 423.81 147.3 424.29 147.3 424.76C147.3 425.39 147.3 426.01 147.3 426.64C147.315 429.611 148.039 432.535 149.41 435.17C147.618 435.434 145.947 436.228 144.61 437.45Z" fill="black"/>
    <path d="M142.43 400.29C143.43 402.4 139.59 417.59 138.43 420.71C137.27 423.83 133 441.24 131 442C129 442.76 119.07 442.54 117.67 442C116.27 441.46 117.67 438.49 119.28 437.45C120.89 436.41 122.81 434.82 122.81 434.82C122.81 434.82 119.93 407.93 120.46 404.92C120.99 401.91 139.83 394.59 142.43 400.29Z" fill="#FFC727"/>
    <path opacity="0.1" d="M135.77 429.15C136.68 426.41 137.87 423.75 138.77 421.02C138.77 420.91 138.98 420.96 138.94 421.07C138.24 423.27 137.71 425.53 137.05 427.75C137.15 427.6 137.24 427.44 137.33 427.29C137.986 426.449 138.515 425.515 138.9 424.52C138.907 424.496 138.922 424.476 138.944 424.464C138.966 424.451 138.991 424.448 139.015 424.455C139.039 424.462 139.059 424.477 139.071 424.499C139.083 424.521 139.087 424.546 139.08 424.57C138.935 425.038 138.737 425.487 138.49 425.91C138.23 426.4 137.96 426.91 137.69 427.38C137.42 427.85 136.98 428.64 136.59 429.25C136.59 429.3 136.59 429.34 136.59 429.38C135.74 432.143 134.739 434.857 133.59 437.51C133.575 437.534 133.552 437.552 133.526 437.562C133.5 437.572 133.471 437.573 133.444 437.566C133.416 437.558 133.393 437.541 133.376 437.518C133.359 437.496 133.35 437.468 133.35 437.44C134.017 434.638 134.825 431.871 135.77 429.15Z" fill="black"/>
    <path opacity="0.1" d="M120.05 409.2C120.05 409.15 120.16 409.13 120.17 409.2C120.46 411.2 120.58 413.3 120.79 415.35C121 417.4 121.26 419.6 121.49 421.73C121.96 425.96 122.67 430.18 123.01 434.42C123.01 434.6 122.7 434.62 122.65 434.42C121.633 430.342 120.947 426.188 120.6 422C120.38 419.92 120.25 417.84 120.15 415.76C119.995 413.577 119.962 411.387 120.05 409.2Z" fill="black"/>
    <path opacity="0.1" d="M121.27 440.61C121.371 440.072 121.59 439.564 121.91 439.12C122.23 438.682 122.614 438.294 123.05 437.97C123.466 437.636 123.951 437.4 124.47 437.28C124.485 437.277 124.5 437.28 124.514 437.286C124.527 437.293 124.538 437.304 124.545 437.318C124.551 437.331 124.554 437.346 124.551 437.361C124.548 437.376 124.541 437.39 124.53 437.4C124.35 437.57 124.15 437.7 123.98 437.87L123.46 438.4C123.137 438.756 122.852 439.145 122.61 439.56C122.37 439.97 122.13 440.39 121.92 440.83C121.71 441.27 121.58 441.74 121.41 442.2C121.403 442.22 121.391 442.237 121.374 442.25C121.357 442.262 121.336 442.269 121.315 442.269C121.294 442.269 121.273 442.262 121.256 442.25C121.239 442.237 121.227 442.22 121.22 442.2C121.115 441.673 121.132 441.129 121.27 440.61Z" fill="black"/>
    <path opacity="0.1" d="M118.37 439C118.923 438.05 119.773 437.308 120.79 436.89C120.85 436.89 120.92 436.94 120.86 436.99C120.096 437.59 119.448 438.326 118.95 439.16C118.693 439.583 118.526 440.054 118.46 440.545C118.395 441.036 118.432 441.535 118.57 442.01C118.57 442.01 118.57 442.07 118.5 442.01C118.207 441.567 118.04 441.053 118.017 440.523C117.994 439.993 118.116 439.466 118.37 439Z" fill="black"/>
    <path d="M121.78 324.81C122.26 323.05 117.88 316.81 116.21 314.76C114.54 312.71 105.35 309.54 102.41 311.15C101.26 311.78 99.12 316.2 96.23 320.03C91.75 325.97 86.53 332.2 88.43 333.87C93.03 337.94 103.54 331.52 106.95 329.37C110.36 327.22 113.47 324.59 114.3 324.68C115.4 324.8 117.7 326.54 118.63 326.68C119.283 326.724 119.933 326.569 120.496 326.235C121.058 325.901 121.506 325.404 121.78 324.81Z" fill="#FFC727"/>
    <path opacity="0.1" d="M121.78 324.81C122.26 323.05 117.88 316.81 116.21 314.76C114.54 312.71 105.35 309.54 102.41 311.15C101.26 311.78 99.12 316.2 96.23 320.03C91.75 325.97 86.53 332.2 88.43 333.87C93.03 337.94 103.54 331.52 106.95 329.37C110.36 327.22 113.47 324.59 114.3 324.68C115.4 324.8 117.7 326.54 118.63 326.68C119.283 326.724 119.933 326.569 120.496 326.235C121.058 325.901 121.506 325.404 121.78 324.81Z" fill="black"/>
    <path d="M143 318.59C153.73 325.01 158.49 342.07 158.78 344.8C159.02 347.02 164.13 354.9 163.22 363.37C162.63 368.81 152.85 376.04 144.89 375.97C143.43 375.97 131.04 380.45 120.57 379.73C110.1 379.01 102.18 371.58 101.87 370.95C101.56 370.32 93 369.1 92.5 360.35C91.65 346.35 105.9 322.59 109.97 319.35C116.72 314 135.66 314.23 143 318.59Z" fill="#FFC727"/>
    <path d="M137.9 326C137.7 324.1 143.27 318.39 145.35 316.5C147.43 314.61 157.49 312.89 160.27 315.05C161.36 315.9 162.85 320.83 165.21 325.29C168.86 332.2 173.21 339.53 171.01 340.95C165.55 344.41 155.71 336.01 152.53 333.2C149.35 330.39 146.53 327.2 145.68 327.12C144.52 327.06 141.84 328.48 140.87 328.43C140.188 328.37 139.54 328.106 139.011 327.672C138.481 327.239 138.094 326.656 137.9 326Z" fill="#FFC727"/>
    <path opacity="0.1" d="M137.9 326C137.7 324.1 143.27 318.39 145.35 316.5C147.43 314.61 157.49 312.89 160.27 315.05C161.36 315.9 162.85 320.83 165.21 325.29C168.86 332.2 173.21 339.53 171.01 340.95C165.55 344.41 155.71 336.01 152.53 333.2C149.35 330.39 146.53 327.2 145.68 327.12C144.52 327.06 141.84 328.48 140.87 328.43C140.188 328.37 139.54 328.106 139.011 327.672C138.481 327.239 138.094 326.656 137.9 326Z" fill="black"/>
    <path opacity="0.1" d="M118.3 349.93C124.88 349.99 127.88 357.04 128.67 358.87C129.46 360.7 133.53 364.87 133.67 369.3C133.81 373.73 125.44 378.6 116.67 377.05C107.9 375.5 103.27 370.56 103.32 366.1C103.32 362.51 106.74 359.4 107.12 358.46C107.5 357.52 112.31 349.87 118.3 349.93Z" fill="black"/>
    <path opacity="0.1" d="M134.48 362.31C135.36 363.311 136.103 364.424 136.69 365.62C137.302 366.824 137.737 368.111 137.98 369.44C138.258 370.818 138.108 372.249 137.55 373.54C137.249 374.177 136.812 374.74 136.27 375.19C135.732 375.599 135.126 375.911 134.48 376.11C135.563 375.444 136.391 374.433 136.83 373.24C137.184 372.059 137.239 370.808 136.99 369.6C136.773 368.348 136.438 367.119 135.99 365.93C135.52 364.72 135 363.51 134.48 362.31Z" fill="black"/>
    <path opacity="0.1" d="M104.33 359.68C103.76 360.39 103.22 361.08 102.72 361.78C102.227 362.464 101.802 363.194 101.45 363.96C101.121 364.707 100.924 365.505 100.87 366.32C100.879 367.178 101.038 368.027 101.34 368.83C100.671 368.165 100.233 367.303 100.09 366.37C99.9913 365.41 100.146 364.441 100.54 363.56C101.333 361.879 102.668 360.512 104.33 359.68Z" fill="black"/>
    <path d="M207.14 453.86C196.37 453.86 184.48 453.67 172.53 453.45C166.37 453.34 161.53 453.25 158.47 453.25C142.94 453.25 138.47 433.25 134.15 413.99C133.55 411.3 132.95 408.61 132.32 405.99C131.08 400.82 130.07 395.61 129.08 390.56C126.08 374.95 123.41 361.48 116.53 360.74C107.44 359.74 99.35 373.36 96.4 394.57L94.4 394.3C97.51 371.94 106.48 357.64 116.72 358.75C125.07 359.64 127.83 373.75 131.02 390.18C132.02 395.18 133.02 400.4 134.24 405.52C134.88 408.17 135.48 410.88 136.09 413.58C140.43 432.96 144.53 451.27 158.45 451.27C161.5 451.27 166.38 451.36 172.55 451.47C186.07 451.73 204.55 452.07 220.25 451.76C245.67 451.26 248.68 449.26 248.99 448.65C248.99 444.49 222.15 439.49 212.05 437.6C201.95 435.71 201.45 435.6 201.56 434.37C201.67 433.14 202.91 433.24 204.81 433.24H246.75C259.9 433.24 264.14 414.32 266.68 403.01C267.114 400.582 267.76 398.196 268.61 395.88C271.55 389.76 278.99 390.65 279.3 390.69L279.04 392.69C278.78 392.69 272.72 391.95 270.41 396.76C269.641 398.943 269.046 401.183 268.63 403.46C265.96 415.35 261.51 435.25 246.75 435.25H210.35L212.44 435.64C236.86 440.2 251 443.81 251 448.74C250.996 449.009 250.936 449.274 250.824 449.518C250.712 449.763 250.551 449.981 250.35 450.16C247.38 453.05 229.71 453.86 207.14 453.86Z" fill="#263238"/>
    <path d="M101.751 393.102L89.4934 392.367L89.0525 399.724L101.31 400.459L101.751 393.102Z" fill="#455A64"/>
    <path d="M99.5744 390.635L91.9282 390.177L91.7882 392.513L99.4344 392.971L99.5744 390.635Z" fill="#37474F"/>
    <path d="M93.1166 399.975L91.6693 399.889L91.333 405.498L92.7804 405.585L93.1166 399.975Z" fill="#FFC727"/>
    <path d="M98.657 400.296L97.2195 400.21L96.8833 405.82L98.3207 405.906L98.657 400.296Z" fill="#FFC727"/>
    <path d="M283.05 385.53V397.81H288.42V385.53H283.05Z" fill="#455A64"/>
    <path d="M278.72 387.84V395.5H283.06V387.84H278.72Z" fill="#37474F"/>
    <path d="M110 360.6C110 360.6 112.61 363.6 113.62 362.98C114.63 362.36 117.16 356.4 117.16 356.4C117.16 356.4 117.77 363.96 119.72 364.17C121.67 364.38 125.01 361.39 125.01 361.39L117.12 355.92L110 360.6Z" fill="#FFC727"/>
    <path opacity="0.1" d="M110 360.6C110 360.6 112.61 363.6 113.62 362.98C114.63 362.36 117.16 356.4 117.16 356.4C117.16 356.4 117.77 363.96 119.72 364.17C121.67 364.38 125.01 361.39 125.01 361.39L117.12 355.92L110 360.6Z" fill="black"/>
    <path opacity="0.1" d="M148.65 351.21C149.427 348.777 149.699 346.212 149.45 343.67C149.337 342.355 149.031 341.065 148.54 339.84C148.273 339.209 147.938 338.608 147.54 338.05C147.157 337.472 146.708 336.942 146.2 336.47C145.946 336.234 145.675 336.017 145.39 335.82C145.1 335.62 144.8 335.46 144.51 335.28L144.06 335.03L143.59 334.84C143.264 334.699 142.93 334.579 142.59 334.48C141.293 334.099 139.935 333.97 138.59 334.1C136.015 334.345 133.561 335.312 131.51 336.89C133.787 336.023 136.203 335.579 138.64 335.58C139.789 335.595 140.927 335.797 142.01 336.18C142.28 336.26 142.53 336.41 142.79 336.51L143.17 336.68L143.53 336.91C143.76 337.06 144.01 337.19 144.24 337.35C144.462 337.509 144.672 337.682 144.87 337.87C145.694 338.624 146.355 339.54 146.81 340.56C147.304 341.623 147.67 342.741 147.9 343.89C148.4 346.298 148.651 348.751 148.65 351.21Z" fill="black"/>
    <path opacity="0.1" d="M99.87 346.1C99.9779 344.02 100.313 341.957 100.87 339.95C101.348 338.089 102.397 336.424 103.87 335.19C104.239 334.921 104.634 334.689 105.05 334.5C105.455 334.324 105.882 334.206 106.32 334.15C107.282 334.041 108.254 334.061 109.21 334.21C111.268 334.575 113.294 335.099 115.27 335.78C114.44 335.08 113.539 334.47 112.58 333.96C112.1 333.71 111.58 333.48 111.1 333.26C110.586 333.053 110.062 332.873 109.53 332.72C108.424 332.38 107.264 332.251 106.11 332.34C105.49 332.385 104.881 332.534 104.31 332.78C103.756 333.017 103.232 333.319 102.75 333.68C101.803 334.402 101.03 335.328 100.49 336.39C99.9864 337.406 99.6488 338.497 99.49 339.62C99.1379 341.782 99.2677 343.994 99.87 346.1Z" fill="black"/>
    <path d="M132.36 348.07C132.36 347.96 132.62 348.22 132.61 348.35C132.37 351.35 132.61 354.85 135.61 355.98C135.7 355.98 135.68 356.17 135.61 356.15C131.94 355.52 131.61 350.89 132.36 348.07Z" fill="#263238"/>
    <path d="M135.46 345.05C140.8 344.91 140.79 354.66 135.84 354.79C130.89 354.92 131 345.16 135.46 345.05Z" fill="#263238"/>
    <path d="M111.73 345.7C111.73 345.59 111.46 345.82 111.45 345.95C111.27 348.95 110.45 352.38 107.45 353.09C107.36 353.09 107.35 353.26 107.45 353.26C111.12 353.14 112.09 348.6 111.73 345.7Z" fill="#263238"/>
    <path d="M109.09 342.28C103.83 341.4 102.47 351.06 107.35 351.87C112.23 352.68 113.51 343 109.09 342.28Z" fill="#263238"/>
    <path d="M116.91 356.12C117.91 356.43 124.45 354.35 123.91 352.35C123.36 350.19 114.1 349.68 112.91 351.08C111.72 352.48 115.92 355.8 116.91 356.12Z" fill="#263238"/>
    <path d="M125.13 361.29C124.078 362.085 122.957 362.785 121.78 363.38C121.218 363.682 120.597 363.859 119.96 363.9C119.58 363.97 119.26 363.46 119.04 362.97C118.641 361.942 118.362 360.872 118.21 359.78C118.01 358.69 117.9 357.57 117.78 356.48L117.47 353.48L116.56 356.43C116.28 357.34 115.95 358.25 115.62 359.16C115.288 360.066 114.894 360.948 114.44 361.8C114.329 362.012 114.198 362.213 114.05 362.4C113.928 362.588 113.772 362.75 113.59 362.88C113.419 362.962 113.225 362.983 113.04 362.94C112.789 362.87 112.547 362.769 112.32 362.64C111.424 362.058 110.624 361.339 109.95 360.51C110.434 361.463 111.116 362.301 111.95 362.97C112.211 363.172 112.506 363.328 112.82 363.43C113.013 363.478 113.211 363.505 113.41 363.51C113.632 363.511 113.852 363.46 114.05 363.36C114.33 363.205 114.581 363.002 114.79 362.76C114.971 362.555 115.139 362.338 115.29 362.11C115.848 361.259 116.327 360.359 116.72 359.42C117.12 358.51 117.46 357.59 117.72 356.66L116.49 356.57C116.579 357.701 116.732 358.826 116.95 359.94C117.061 360.507 117.201 361.068 117.37 361.62C117.535 362.198 117.76 362.758 118.04 363.29C118.196 363.59 118.395 363.867 118.63 364.11C118.782 364.266 118.961 364.391 119.16 364.48C119.289 364.542 119.428 364.583 119.57 364.6C119.693 364.615 119.817 364.615 119.94 364.6C120.711 364.518 121.451 364.254 122.1 363.83C123.226 363.132 124.246 362.277 125.13 361.29Z" fill="#263238"/>
    <path d="M74.9 395.89C78.8717 395.659 82.8567 395.931 86.76 396.7C82.7884 396.931 78.8035 396.658 74.9 395.89Z" fill="#263238"/>
    <path d="M103.69 402.22C105.566 402.872 107.393 403.654 109.16 404.56C110.94 405.436 112.654 406.438 114.29 407.56C110.545 406.231 106.984 404.433 103.69 402.21V402.22Z" fill="#263238"/>
    <path d="M81.25 416C83.2175 412.543 85.6167 409.351 88.39 406.5C87.4219 408.243 86.3291 409.914 85.12 411.5C83.939 413.09 82.6457 414.594 81.25 416Z" fill="#263238"/>
    <path d="M70 384.07C71.55 384.56 73.06 385.12 74.56 385.7C76.06 386.28 77.56 386.9 79.04 387.53C80.52 388.16 82.04 388.81 83.45 389.53C84.86 390.25 86.37 390.92 87.79 391.7C86.24 391.2 84.73 390.64 83.23 390.06C81.73 389.48 80.23 388.86 78.75 388.23C77.27 387.6 75.75 386.95 74.34 386.23C72.93 385.51 71.43 384.84 70 384.07Z" fill="#263238"/>
    <path d="M105.13 392.93C106.523 392.23 107.976 391.654 109.47 391.21C110.953 390.739 112.476 390.404 114.02 390.21C111.227 391.602 108.223 392.524 105.13 392.94V392.93Z" fill="#263238"/>
    <path d="M90.75 387.87C89.93 386.57 89.19 385.24 88.46 383.87C87.73 382.5 87.03 381.17 86.34 379.8C85.65 378.43 84.99 377.06 84.34 375.66C83.69 374.26 83.09 372.87 82.55 371.43C83.37 372.73 84.12 374.07 84.85 375.43C85.58 376.79 86.28 378.13 86.97 379.49C87.66 380.85 88.31 382.23 88.97 383.63C89.63 385.03 90.21 386.43 90.75 387.87Z" fill="#263238"/>
    <path d="M111 419.5C110.11 418.5 109.28 417.41 108.47 416.34C107.66 415.27 106.88 414.16 106.1 413.06C105.32 411.96 104.59 410.83 103.88 409.68C103.17 408.53 102.46 407.38 101.82 406.19C102.71 407.19 103.54 408.28 104.35 409.35C105.16 410.42 105.95 411.53 106.72 412.63C107.49 413.73 108.23 414.86 108.94 416.01C109.65 417.16 110.36 418.3 111 419.5Z" fill="#263238"/>
    <path d="M379.94 168.86H297.28L290.88 112.72H373.54L379.94 168.86Z" fill="#A6A6A6"/>
    <path d="M375.44 165.1H300.93L295.39 116.49H369.9L375.44 165.1Z" fill="white"/>
    <path d="M329.42 142.06L328.23 143.48L316.51 133.36L317.7 131.94L329.42 142.06Z" fill="#FFC727"/>
    <path d="M326.4 131.94L328.04 133.36L319.53 143.48L317.89 142.06L326.4 131.94Z" fill="#FFC727"/>
    <path d="M354.48 142.06L353.29 143.48L341.57 133.36L342.76 131.94L354.48 142.06Z" fill="#FFC727"/>
    <path d="M351.46 131.94L353.1 133.36L344.59 143.48L342.95 142.06L351.46 131.94Z" fill="#FFC727"/>
    <path d="M315.01 151.79L314.69 149.79H360.12L360.44 151.79H315.01Z" fill="#FFC727"/>
    <path d="M404.2 165.1H297.86V168.87H404.2V165.1Z" fill="#A6A6A6"/>
    <path d="M413.18 165.1H320.96V168.87H413.18V165.1Z" fill="#C7C7C7"/>
    <path d="M370.17 118.85L369.9 116.49H295.39L295.66 118.85H370.17Z" fill="#263238"/>
    <path d="M301.66 117.67C301.672 117.822 301.738 117.964 301.846 118.07C301.955 118.177 302.098 118.241 302.25 118.25C302.321 118.249 302.39 118.232 302.454 118.2C302.517 118.169 302.573 118.124 302.617 118.068C302.661 118.013 302.692 117.949 302.708 117.88C302.724 117.811 302.725 117.739 302.71 117.67C302.701 117.517 302.635 117.372 302.527 117.263C302.418 117.155 302.273 117.089 302.12 117.08C302.049 117.083 301.979 117.101 301.916 117.134C301.852 117.166 301.797 117.212 301.753 117.268C301.709 117.325 301.678 117.39 301.662 117.459C301.646 117.528 301.645 117.6 301.66 117.67Z" fill="#C7C7C7"/>
    <path d="M299.5 117.67C299.514 117.822 299.582 117.965 299.692 118.071C299.803 118.178 299.947 118.241 300.1 118.25C300.17 118.247 300.239 118.229 300.301 118.197C300.364 118.165 300.419 118.12 300.462 118.065C300.506 118.01 300.537 117.946 300.554 117.878C300.571 117.81 300.573 117.739 300.56 117.67C300.548 117.517 300.483 117.374 300.374 117.266C300.266 117.157 300.123 117.092 299.97 117.08C299.899 117.083 299.829 117.102 299.765 117.134C299.701 117.166 299.645 117.212 299.601 117.268C299.556 117.324 299.524 117.389 299.507 117.458C299.489 117.527 299.487 117.6 299.5 117.67Z" fill="white"/>
    <path d="M297.35 117.67C297.362 117.822 297.428 117.964 297.536 118.07C297.645 118.177 297.788 118.241 297.94 118.25C298.011 118.249 298.08 118.232 298.144 118.2C298.207 118.169 298.263 118.124 298.307 118.068C298.351 118.013 298.382 117.949 298.398 117.88C298.414 117.811 298.415 117.739 298.4 117.67C298.391 117.517 298.325 117.372 298.217 117.263C298.108 117.155 297.963 117.089 297.81 117.08C297.739 117.083 297.669 117.101 297.606 117.134C297.542 117.166 297.487 117.212 297.443 117.268C297.399 117.325 297.368 117.39 297.352 117.459C297.336 117.528 297.335 117.6 297.35 117.67Z" fill="#FFC727"/>
</svg>
