<svg viewBox="0 0 17 16" fill="black" xmlns="http://www.w3.org/2000/svg">
    <path d="M12.1667 8C11.9015 8 11.6471 7.89464 11.4596 7.70711C11.272 7.51957 11.1667 7.26522 11.1667 7C11.1667 6.73478 11.272 6.48043 11.4596 6.29289C11.6471 6.10536 11.9015 6 12.1667 6C12.4319 6 12.6862 6.10536 12.8738 6.29289C13.0613 6.48043 13.1667 6.73478 13.1667 7C13.1667 7.26522 13.0613 7.51957 12.8738 7.70711C12.6862 7.89464 12.4319 8 12.1667 8ZM10.1667 5.33333C9.90145 5.33333 9.6471 5.22798 9.45956 5.04044C9.27202 4.8529 9.16667 4.59855 9.16667 4.33333C9.16667 4.06812 9.27202 3.81376 9.45956 3.62623C9.6471 3.43869 9.90145 3.33333 10.1667 3.33333C10.4319 3.33333 10.6862 3.43869 10.8738 3.62623C11.0613 3.81376 11.1667 4.06812 11.1667 4.33333C11.1667 4.59855 11.0613 4.8529 10.8738 5.04044C10.6862 5.22798 10.4319 5.33333 10.1667 5.33333ZM6.83333 5.33333C6.56812 5.33333 6.31376 5.22798 6.12623 5.04044C5.93869 4.8529 5.83333 4.59855 5.83333 4.33333C5.83333 4.06812 5.93869 3.81376 6.12623 3.62623C6.31376 3.43869 6.56812 3.33333 6.83333 3.33333C7.09855 3.33333 7.3529 3.43869 7.54044 3.62623C7.72798 3.81376 7.83333 4.06812 7.83333 4.33333C7.83333 4.59855 7.72798 4.8529 7.54044 5.04044C7.3529 5.22798 7.09855 5.33333 6.83333 5.33333ZM4.83333 8C4.56812 8 4.31376 7.89464 4.12623 7.70711C3.93869 7.51957 3.83333 7.26522 3.83333 7C3.83333 6.73478 3.93869 6.48043 4.12623 6.29289C4.31376 6.10536 4.56812 6 4.83333 6C5.09855 6 5.3529 6.10536 5.54044 6.29289C5.72798 6.48043 5.83333 6.73478 5.83333 7C5.83333 7.26522 5.72798 7.51957 5.54044 7.70711C5.3529 7.89464 5.09855 8 4.83333 8ZM8.5 2C6.9087 2 5.38258 2.63214 4.25736 3.75736C3.13214 4.88258 2.5 6.4087 2.5 8C2.5 9.5913 3.13214 11.1174 4.25736 12.2426C5.38258 13.3679 6.9087 14 8.5 14C8.76522 14 9.01957 13.8946 9.20711 13.7071C9.39464 13.5196 9.5 13.2652 9.5 13C9.5 12.74 9.4 12.5067 9.24 12.3333C9.08667 12.1533 8.98667 11.92 8.98667 11.6667C8.98667 11.4015 9.09202 11.1471 9.27956 10.9596C9.4671 10.772 9.72145 10.6667 9.98667 10.6667H11.1667C12.0507 10.6667 12.8986 10.3155 13.5237 9.69036C14.1488 9.06523 14.5 8.21739 14.5 7.33333C14.5 4.38667 11.8133 2 8.5 2Z"/>
</svg>
