<svg viewBox="0 0 121 121" fill="none" xmlns="http://www.w3.org/2000/svg">
    <path d="M17.5668 71.8885L14.3917 71.9539L12.78 71.9829C12.2403 71.9829 11.6983 71.9829 11.1586 71.995H11.0521V71.8861L11.0376 69.1781V69.0547H11.1586L14.3627 69.0692C15.4323 69.0692 16.4995 69.0958 17.5668 69.1079H17.6345V69.1733C17.6345 69.6331 17.6127 70.088 17.6031 70.5406L17.5668 71.8885ZM17.5668 71.8885L17.5329 70.5188C17.5329 70.0687 17.5063 69.6234 17.5014 69.1805L17.5668 69.2459C16.4995 69.258 15.4323 69.2846 14.3627 69.2846L11.1586 69.3015L11.2796 69.1805V71.8885L11.1707 71.7796C11.6983 71.7796 12.2258 71.7796 12.7558 71.7941L14.3482 71.8208L17.5668 71.8885Z" fill="#EBEBEB"/>
    <path d="M13.9924 75.3031L10.8174 75.3685L9.20566 75.3975C8.666 75.3975 8.12392 75.3975 7.58426 75.4096H7.47778V75.3007L7.46326 72.6V72.4766H7.58426L10.7883 72.4911C11.8556 72.4911 12.9252 72.5177 13.9924 72.5298H14.0602V72.6C14.0602 73.0598 14.0408 73.5148 14.0287 73.9673L13.9924 75.3031ZM13.9924 75.3031L13.9585 73.9334C13.9585 73.4833 13.9319 73.038 13.9271 72.5952L13.9924 72.6605C12.9252 72.6726 11.8556 72.6992 10.7883 72.6992L7.58426 72.7162L7.70526 72.5952L7.69316 75.3031L7.58426 75.1942C8.11182 75.1942 8.63938 75.1942 9.16936 75.2088L10.7617 75.2354L13.9924 75.3031Z" fill="#EBEBEB"/>
    <path d="M70.9471 36.0289L67.7721 36.0967L66.1604 36.1233C65.6207 36.1233 65.0786 36.1233 64.539 36.1378H64.4325V36.0289L64.418 33.321V33.2H64.539L67.743 33.2169C68.8127 33.2169 69.8799 33.2435 70.9471 33.2556H71.0149V33.321C71.0149 33.7808 70.9931 34.2381 70.981 34.6907L70.9471 36.0289ZM70.9471 36.0289L70.9132 34.6616C70.9132 34.2115 70.8866 33.7638 70.8818 33.321L70.9471 33.3887C69.8799 33.4008 68.8127 33.425 67.743 33.4274L64.539 33.442L64.66 33.321L64.6479 36.0289L64.539 35.9225C65.0665 35.9225 65.5941 35.9225 66.1241 35.9346L67.7164 35.9612L70.9471 36.0289Z" fill="#EBEBEB"/>
    <path d="M67.3728 39.446L64.1977 39.5137L62.586 39.5404C62.0464 39.5525 61.5043 39.5404 60.9646 39.5549H60.8581V39.446L60.8436 36.738V36.617H60.9646L64.1687 36.6339C65.2359 36.6339 66.3056 36.6606 67.3728 36.6727H67.4405V36.738C67.4405 37.1978 67.4212 37.6552 67.4091 38.1077L67.3728 39.446ZM67.3728 39.446L67.3389 38.0787C67.3268 37.6286 67.3123 37.1809 67.3074 36.738L67.3728 36.8058C66.3056 36.8058 65.2359 36.8421 64.1687 36.8445L60.9646 36.859L61.0856 36.738V39.446L60.9767 39.3395C61.5043 39.3395 62.0318 39.3395 62.5618 39.3395L64.1542 39.3661L67.3728 39.446Z" fill="#EBEBEB"/>
    <path d="M63.813 36.0289L60.6355 36.0967L59.0238 36.1233C58.4865 36.1233 57.9445 36.1233 57.4048 36.1378H57.2959V36.0289V33.321V33.2H57.4169L60.621 33.2169C61.6882 33.2169 62.7554 33.2435 63.8251 33.2556H63.888V33.321C63.888 33.7808 63.8662 34.2381 63.8565 34.6907L63.813 36.0289ZM63.813 36.0289L63.7791 34.6616C63.767 34.2115 63.75 33.7638 63.7452 33.321L63.813 33.3887C62.7433 33.4008 61.6761 33.425 60.6089 33.4274L57.4048 33.442L57.5258 33.321L57.5113 36.0289L57.4048 35.9225C57.9324 35.9225 58.4575 35.9225 58.9875 35.9346L60.5798 35.9612L63.813 36.0289Z" fill="#EBEBEB"/>
    <path d="M113.416 75.3031L110.238 75.3685L108.626 75.3975C108.089 75.3975 107.547 75.3975 107.007 75.4096H106.899V75.3007L106.886 72.6V72.4766H107.007L110.212 72.4911C111.279 72.4911 112.348 72.5177 113.416 72.5298H113.481V72.6C113.481 73.0598 113.462 73.5148 113.45 73.9673L113.416 75.3031ZM113.416 75.3031L113.382 73.9334C113.382 73.4833 113.353 73.038 113.35 72.5952L113.416 72.6605C112.348 72.6726 111.279 72.6992 110.212 72.6992L107.007 72.7162L107.128 72.5952L107.114 75.3031L107.007 75.1942C107.535 75.1942 108.063 75.1942 108.59 75.2088L110.183 75.2354L113.416 75.3031Z" fill="#EBEBEB"/>
    <path d="M109.841 14.0505L106.664 14.1159L105.052 14.1449C104.515 14.1449 103.973 14.1449 103.433 14.1449H103.334V14.0384V11.3304V11.207H103.457L106.661 11.2215C107.729 11.2215 108.796 11.2482 109.866 11.2603H109.931V11.3256C109.931 11.783 109.909 12.2404 109.899 12.6929L109.841 14.0505ZM109.841 14.0505L109.807 12.6808C109.795 12.2307 109.778 11.7854 109.774 11.3425L109.841 11.4079C108.772 11.4079 107.705 11.4466 106.637 11.4466L103.433 11.4611L103.554 11.3425L103.54 14.0505L103.433 13.9416C103.961 13.9416 104.486 13.9416 105.016 13.9416L106.608 13.9707L109.841 14.0505Z" fill="#EBEBEB"/>
    <path d="M113.416 17.4651L110.238 17.5305L108.626 17.5595C108.089 17.5595 107.547 17.5595 107.007 17.5595H106.899V17.4506L106.886 14.762V14.6386H107.007L110.212 14.6531C111.279 14.6531 112.348 14.6797 113.416 14.6918H113.481V14.762C113.481 15.2194 113.462 15.6768 113.45 16.1293L113.416 17.4651ZM113.416 17.4651L113.382 16.0954C113.382 15.6453 113.353 15.2 113.35 14.7572L113.416 14.8225C112.348 14.8225 111.279 14.8612 110.212 14.8612L107.007 14.8757L107.128 14.7572L107.114 17.4627L107.007 17.3562C107.535 17.3562 108.063 17.3562 108.59 17.3562L110.183 17.3853L113.416 17.4651Z" fill="#EBEBEB"/>
    <path d="M17.5668 14.0505L14.3917 14.1159L12.78 14.1449C12.2403 14.1449 11.6983 14.1449 11.1586 14.1449H11.0521V14.0384L11.0376 11.3304V11.207H11.1586L14.3627 11.2215C15.4323 11.2215 16.4995 11.2482 17.5668 11.2603H17.6345V11.3256C17.6345 11.783 17.6127 12.2404 17.6031 12.6929L17.5668 14.0505ZM17.5668 14.0505L17.5329 12.6808C17.5329 12.2307 17.5063 11.7854 17.5014 11.3425L17.5668 11.4079C16.4995 11.4079 15.4323 11.4466 14.3627 11.4466L11.1586 11.4611L11.2796 11.3425V14.0505L11.1707 13.9416C11.6983 13.9416 12.2258 13.9416 12.7558 13.9416L14.3482 13.9707L17.5668 14.0505Z" fill="#EBEBEB"/>
    <path d="M9.97282 73.2703H67.4188L68.6118 49.6995H8.77734L9.97282 73.2703Z" fill="#EBEBEB"/>
    <path d="M64.6962 60.5H40.6801L40.23 52.3155H65.2213L64.6962 60.5ZM40.9536 60.2096H64.4276L64.9116 52.606H40.5349L40.9536 60.2096Z" fill="#DBDBDB"/>
    <path d="M64.2534 69.9041H41.6239L41.2561 62.5183H64.7301L64.2534 69.9041ZM41.895 69.6137H63.9799L64.4058 62.8063H41.5562L41.895 69.6137Z" fill="#DBDBDB"/>
    <path d="M54.9993 57.2862H50.9651L50.7231 55.3115H55.2655L54.9993 57.2862ZM51.2192 56.9958H54.7452L54.9243 55.6019H51.0402L51.2192 56.9958Z" fill="#DBDBDB"/>
    <path d="M54.9993 67.1961H50.9651L50.7231 65.2238H55.2655L54.9993 67.1961ZM51.2192 66.9082H54.7452L54.9243 65.5142H51.0402L51.2192 66.9082Z" fill="#DBDBDB"/>
    <path d="M36.4476 60.5H12.4315L11.979 52.3059H36.9728L36.4476 60.5ZM12.705 60.2096H36.179L36.663 52.606H12.2863L12.705 60.2096Z" fill="#DBDBDB"/>
    <path d="M36.0022 69.9041H13.3704L13.0026 62.5183H36.4766L36.0022 69.9041ZM13.6463 69.6137H35.7312L36.1571 62.8063H13.3099L13.6463 69.6137Z" fill="#DBDBDB"/>
    <path d="M26.7506 57.2862H22.7165L22.46 55.3115H27.0047L26.7506 57.2862ZM22.9706 56.9958H26.4965L26.6756 55.6019H22.8036L22.9706 56.9958Z" fill="#DBDBDB"/>
    <path d="M26.7506 67.1961H22.7165L22.46 65.2238H27.0047L26.7506 67.1961ZM22.9706 66.9082H26.4965L26.6756 65.5142H22.8036L22.9706 66.9082Z" fill="#DBDBDB"/>
    <path d="M15.1249 73.2703L14.7644 75.838L14.0384 80.9974H12.6202V73.2703H15.1249Z" fill="#EBEBEB"/>
    <path d="M15.1249 73.2703L14.7644 75.838H12.6202V73.2703H15.1249Z" fill="#DBDBDB"/>
    <path d="M62.2666 73.2703L62.6272 75.838L63.3532 80.9974H64.7713V73.2703H62.2666Z" fill="#EBEBEB"/>
    <path d="M62.2666 73.2703L62.6272 75.838H64.7713V73.2703H62.2666Z" fill="#DBDBDB"/>
    <path d="M30.0781 49.6899V32.3118H25.7028V49.6899H30.0781Z" fill="#C7C7C7"/>
    <path d="M30.0781 33.2919V31.3825H25.7028V33.2919H30.0781Z" fill="#DBDBDB"/>
    <path d="M30.0781 36.4476V35.7386H25.7028V36.4476H30.0781Z" fill="#DBDBDB"/>
    <path d="M30.0781 47.4102V45.5008H25.7028V47.4102H30.0781Z" fill="#DBDBDB"/>
    <path d="M33.137 49.6899V29.4175H30.0781V49.6899H33.137Z" fill="#DBDBDB"/>
    <path d="M32.5127 39.1193V31.322H30.6783V39.1193H32.5127Z" fill="#EBEBEB"/>
    <path d="M54.9211 47.4912L40.504 33.2392L38.3536 35.4146L52.7706 49.6665L54.9211 47.4912Z" fill="#C7C7C7"/>
    <path d="M51.112 44.5754L45.5669 39.0937L44.2773 40.3983L49.8224 45.8799L51.112 44.5754Z" fill="#DBDBDB"/>
    <path d="M38.3303 49.6923V34.2938H33.137V49.6923H38.3303Z" fill="#A6A6A6"/>
    <path d="M38.3303 48.0588V46.6237H33.137V48.0588H38.3303Z" fill="#C7C7C7"/>
    <path d="M38.3303 45.6848V45.1282H33.137V45.6848H38.3303Z" fill="#C7C7C7"/>
    <path d="M20.0212 49.7056L25.7291 36.4072L22.4312 34.9916L16.7233 48.29L20.0212 49.7056Z" fill="#A6A6A6"/>
    <path d="M20.6258 48.2908L21.1575 47.0521L17.8596 45.6366L17.3279 46.8753L20.6258 48.2908Z" fill="#C7C7C7"/>
    <path d="M24.0228 40.3852L24.5544 39.1466L21.2565 37.731L20.7249 38.9697L24.0228 40.3852Z" fill="#C7C7C7"/>
    <path d="M23.5074 41.912L23.7113 41.4311L20.4096 40.0315L20.2057 40.5124L23.5074 41.912Z" fill="#C7C7C7"/>
    <path d="M71.6053 10.3382V45.98H107.039V10.3382H71.6053ZM106.105 45.0338H72.5395V11.2724H106.105V45.0338Z" fill="#EBEBEB"/>
    <path d="M106.105 11.2724V45.0338H90.1522V11.5168H89.2205V45.0338H72.5394V11.2724H106.105Z" fill="white"/>
    <path d="M90.1522 11.5168H89.2205V45.5008H90.1522V11.5168Z" fill="#EBEBEB"/>
    <path d="M70.7584 13.5278L107.886 13.5278V12.2258L70.7584 12.2258V13.5278Z" fill="#EBEBEB"/>
    <path d="M70.7584 14.9919L107.886 14.9919V13.6899L70.7584 13.6899V14.9919Z" fill="#EBEBEB"/>
    <path d="M70.7584 16.456L107.886 16.456V15.154L70.7584 15.154V16.456Z" fill="#EBEBEB"/>
    <path d="M70.7584 17.9177L107.886 17.9177V16.6157L70.7584 16.6157V17.9177Z" fill="#EBEBEB"/>
    <path d="M70.7584 19.3818L107.886 19.3818V18.0798L70.7584 18.0798V19.3818Z" fill="#EBEBEB"/>
    <path d="M70.7584 20.8459L107.886 20.8459V19.5439L70.7584 19.5439V20.8459Z" fill="#EBEBEB"/>
    <path d="M70.7584 22.31L107.886 22.31V21.008L70.7584 21.008V22.31Z" fill="#EBEBEB"/>
    <path d="M70.7584 23.7741L107.886 23.7741V22.4721L70.7584 22.4721V23.7741Z" fill="#EBEBEB"/>
    <path d="M70.7584 25.2382L107.886 25.2382V23.9362L70.7584 23.9362V25.2382Z" fill="#EBEBEB"/>
    <path d="M73.7688 11.9621H73.5341V31.2712H73.7688V11.9621Z" fill="#263238"/>
    <path d="M73.234 32.3602H74.0641L73.856 31.1672H73.4421L73.234 32.3602Z" fill="#263238"/>
    <path d="M72.9266 11.9621H72.6919V44.6659H72.9266V11.9621Z" fill="#263238"/>
    <path d="M72.3943 45.542H73.2219L73.0138 44.3513H72.6024L72.3943 45.542Z" fill="#263238"/>
    <path d="M69.3088 12.8792L109.336 12.8792V10.1567L69.3088 10.1567V12.8792Z" fill="#DBDBDB"/>
    <path d="M60.5 111.131C78.0005 111.131 92.1875 108.48 92.1875 105.21C92.1875 101.939 78.0005 99.2878 60.5 99.2878C42.9995 99.2878 28.8125 101.939 28.8125 105.21C28.8125 108.48 42.9995 111.131 60.5 111.131Z" fill="#EBEBEB"/>
    <path d="M7.41003 80.9974L20.6837 80.9393L33.955 80.9175L60.5 80.8764L87.045 80.9175L100.316 80.9393L113.59 80.9974L100.316 81.0579L87.045 81.0797L60.5 81.1184L33.955 81.0772L20.6837 81.0579L7.41003 80.9974Z" fill="#263238"/>
    <path d="M106.843 48.642C105.73 47.5506 104.29 46.222 102.589 46.706C100.987 47.1464 100.374 48.8961 100.086 50.3529C99.7185 52.2284 99.4305 54.1257 99.1328 56.0133C98.8352 57.9009 98.5472 59.8345 98.2737 61.7463C98.1124 62.8256 97.9591 63.9049 97.8139 64.9843L97.5889 66.6032C97.5163 67.1332 97.4267 67.6632 97.3977 68.198C97.3977 68.3674 97.6566 68.3916 97.6929 68.2295C97.8986 67.3292 97.9833 66.3927 98.1164 65.4779C98.2495 64.5632 98.3826 63.6412 98.5182 62.7216C98.7844 60.8969 99.057 59.0722 99.3361 57.2475C99.6152 55.4228 99.8992 53.5974 100.188 51.7711C100.43 50.2247 100.553 48.3032 101.923 47.2844C102.673 46.7254 103.634 46.7181 104.486 47.0424C105.386 47.386 106.107 48.0322 106.814 48.671C106.833 48.6928 106.865 48.6589 106.843 48.642Z" fill="#263238"/>
    <path d="M105.318 47.524C105.318 47.524 103.044 46.706 101.93 48.3661C100.817 50.0263 102.148 54.2516 112.511 56.6353C112.207 53.3958 111.364 50.2297 110.018 47.2675C107.787 42.4226 103.83 44.257 105.318 47.524Z" fill="#FF8551"/>
    <path d="M111.906 55.9431C111.749 55.6532 111.575 55.3728 111.385 55.1034C111.211 54.8372 111.037 54.571 110.86 54.3048C110.727 54.1064 110.592 53.9103 110.454 53.7119C110.454 53.6635 110.466 53.6151 110.473 53.5643L110.509 53.2957C110.533 53.1021 110.563 52.906 110.592 52.7124C110.621 52.5188 110.652 52.3277 110.688 52.1341C110.714 51.9269 110.759 51.7226 110.824 51.5242C110.838 51.4952 110.783 51.4782 110.78 51.5242C110.757 51.641 110.726 51.7558 110.686 51.8679C110.662 51.955 110.64 52.0421 110.618 52.1292C110.567 52.3252 110.519 52.5237 110.475 52.7221C110.432 52.9206 110.4 53.0875 110.369 53.2715C110.352 53.361 110.34 53.4481 110.328 53.5377C110.144 53.2739 109.955 53.0125 109.762 52.756C109.21 52.03 108.629 51.3355 108.026 50.653C108.026 50.653 108.026 50.653 108.026 50.6361C108.08 49.5471 108.053 48.4581 108.295 47.3981C108.295 47.3691 108.259 47.3521 108.251 47.3812C108.024 48.3855 107.799 49.4406 107.864 50.4788C107.649 50.2368 107.429 49.9948 107.208 49.7528C106.702 49.2107 106.187 48.6775 105.664 48.1532C105.643 48.1338 105.609 48.1532 105.631 48.1846C106.504 49.126 107.325 50.1037 108.14 51.1007C107.508 51.0914 106.875 51.1149 106.245 51.1709C105.543 51.2241 104.846 51.3137 104.147 51.4129C104.118 51.4129 104.128 51.4637 104.147 51.4589C104.842 51.3585 105.541 51.2955 106.243 51.2701C106.918 51.2435 107.591 51.2701 108.266 51.2701C108.702 51.8122 109.133 52.3575 109.561 52.906H109.464C109.304 52.906 109.147 52.906 108.98 52.906C108.665 52.906 108.351 52.9351 108.036 52.9617C107.392 53.0145 106.753 53.1099 106.122 53.2473C106.117 53.2489 106.113 53.2519 106.11 53.2561C106.107 53.2602 106.105 53.2652 106.105 53.2703C106.105 53.2754 106.107 53.2803 106.11 53.2844C106.113 53.2886 106.117 53.2917 106.122 53.2932C106.758 53.2206 107.397 53.1626 108.036 53.1408C108.343 53.1287 108.648 53.1287 108.953 53.1287C109.113 53.1287 109.27 53.1287 109.437 53.1287C109.525 53.1395 109.614 53.1313 109.699 53.1045C109.977 53.4651 110.258 53.8305 110.533 54.1911C110.754 54.4815 110.969 54.7719 111.182 55.0671C111.395 55.3623 111.598 55.6963 111.84 55.977C111.886 55.9915 111.918 55.9673 111.906 55.9431Z" fill="#263238"/>
    <path d="M106.311 49.8786C105.943 49.831 105.573 49.8124 105.202 49.823C104.832 49.823 104.462 49.8351 104.091 49.8472C104.088 49.846 104.084 49.8457 104.08 49.8463C104.076 49.8468 104.073 49.8483 104.07 49.8506C104.067 49.8528 104.064 49.8557 104.062 49.8592C104.061 49.8626 104.06 49.8663 104.06 49.8702C104.06 49.874 104.061 49.8778 104.062 49.8812C104.064 49.8846 104.067 49.8875 104.07 49.8898C104.073 49.892 104.076 49.8935 104.08 49.8941C104.084 49.8947 104.088 49.8943 104.091 49.8932C104.467 49.8665 104.839 49.8617 105.217 49.8665C105.594 49.8714 105.943 49.9052 106.303 49.8956C106.32 49.8956 106.323 49.8811 106.311 49.8786Z" fill="#263238"/>
    <path d="M109.563 50.7135C109.604 50.3602 109.65 50.0045 109.725 49.656C109.726 49.6524 109.727 49.6485 109.726 49.6447C109.726 49.6409 109.724 49.6373 109.722 49.6342C109.72 49.6311 109.717 49.6286 109.713 49.6269C109.71 49.6251 109.706 49.6242 109.702 49.6242C109.698 49.6242 109.695 49.6251 109.691 49.6269C109.688 49.6286 109.685 49.6311 109.683 49.6342C109.68 49.6373 109.679 49.6409 109.678 49.6447C109.678 49.6485 109.678 49.6524 109.679 49.656C109.626 50.0045 109.558 50.3505 109.507 50.699C109.481 50.8732 109.457 51.0475 109.437 51.2217C109.407 51.3812 109.392 51.5433 109.394 51.7057C109.396 51.7123 109.4 51.7181 109.405 51.7222C109.41 51.7263 109.417 51.7285 109.424 51.7285C109.431 51.7285 109.437 51.7263 109.443 51.7222C109.448 51.7181 109.452 51.7123 109.454 51.7057C109.486 51.5463 109.504 51.3843 109.507 51.2217C109.524 51.062 109.544 50.8805 109.563 50.7135Z" fill="#263238"/>
    <path d="M108.881 46.7907C108.791 47.1368 108.702 47.4852 108.639 47.8361C108.607 48.0128 108.581 48.1919 108.556 48.371C108.523 48.543 108.51 48.7186 108.52 48.8937C108.52 48.8975 108.522 48.9012 108.524 48.904C108.527 48.9067 108.531 48.9082 108.535 48.9082C108.538 48.9082 108.542 48.9067 108.545 48.904C108.548 48.9012 108.549 48.8975 108.549 48.8937C108.589 48.7299 108.616 48.5632 108.629 48.3952C108.653 48.2242 108.68 48.0523 108.709 47.8797C108.772 47.5191 108.837 47.1537 108.927 46.8052C108.931 46.7786 108.9 46.7617 108.881 46.7907Z" fill="#263238"/>
    <path d="M95.3868 67.8084C95.3312 67.1574 95.2658 66.504 95.1981 65.8531C95.0625 64.5632 94.9028 63.2758 94.731 61.9811C94.5592 60.6864 94.3922 59.4134 94.1865 58.1357C94.1097 57.5422 93.9776 56.9573 93.792 56.3884C93.7248 56.1447 93.6025 55.9195 93.4347 55.7303C93.2669 55.5411 93.058 55.3929 92.824 55.297C91.614 54.8759 90.784 56.1416 90.2903 57.0346C90.2882 57.0399 90.2882 57.0458 90.2901 57.0512C90.2919 57.0566 90.2957 57.0612 90.3006 57.0641C90.3056 57.067 90.3114 57.068 90.317 57.0671C90.3226 57.0661 90.3277 57.0632 90.3314 57.0588C90.6267 56.6353 91.4422 55.4446 92.3666 55.5003C92.9886 55.5366 93.4871 55.9843 93.7848 57.5307C94.5301 61.4027 95.2005 69.2435 95.2779 69.7565C95.319 70.0276 95.5199 70.0179 95.5199 69.7251C95.5175 69.091 95.4425 68.4473 95.3868 67.8084Z" fill="#263238"/>
    <path d="M90.6194 56.5627C90.6194 56.5627 91.6842 52.7996 89.3296 54.6799C85.4067 57.8114 85.2688 64.6261 85.2688 64.6261C85.2688 64.6261 92.2384 60.575 93.1072 57.9058C94.397 53.9273 90.6194 56.5627 90.6194 56.5627Z" fill="#FF8551"/>
    <path d="M91.9383 58.4091C91.3914 58.5204 90.8372 58.593 90.2855 58.6705L89.499 58.7818C89.3223 58.806 89.1456 58.8229 88.9666 58.8447C89.4869 58.1187 90.0096 57.4169 90.5081 56.6861C90.5275 56.6595 90.4839 56.6304 90.4597 56.6522C90.0475 57.0792 89.6589 57.5283 89.2957 57.9977C89.194 57.7049 89.09 57.4145 88.9859 57.1241C88.8673 56.7877 88.7439 56.4513 88.6544 56.1053C88.6544 56.0995 88.6521 56.094 88.648 56.0899C88.6439 56.0858 88.6384 56.0835 88.6326 56.0835C88.6268 56.0835 88.6213 56.0858 88.6172 56.0899C88.6131 56.094 88.6108 56.0995 88.6108 56.1053C88.7052 56.4513 88.773 56.8022 88.8528 57.1483C88.9327 57.4944 89.044 57.8114 89.1626 58.1381C88.9061 58.4696 88.6616 58.8084 88.4245 59.1521C88.3035 58.8108 88.1559 58.4817 88.0494 58.1381C88.0478 58.1323 88.0439 58.1274 88.0387 58.1245C88.0335 58.1215 88.0273 58.1208 88.0216 58.1224C88.0158 58.124 88.0109 58.1278 88.0079 58.133C88.005 58.1382 88.0042 58.1444 88.0058 58.1502C88.1292 58.5325 88.197 58.9294 88.3156 59.3142C88.1559 59.5562 87.9937 59.7813 87.8316 60.0184C87.5509 60.4516 87.2847 60.8945 87.0257 61.3422C87.0059 61.3508 86.9893 61.3656 86.9784 61.3843C86.9675 61.403 86.9629 61.4247 86.9652 61.4462C86.5248 62.2085 86.1061 62.9805 85.6923 63.7622C85.6912 63.7673 85.6918 63.7727 85.694 63.7775C85.6963 63.7822 85.7 63.7861 85.7047 63.7886C85.7093 63.791 85.7146 63.7919 85.7198 63.7911C85.725 63.7903 85.7298 63.7877 85.7334 63.7839C86.1473 63.0144 86.6071 62.2642 87.0862 61.5261C87.1603 61.5035 87.2365 61.4889 87.3137 61.4825L87.5557 61.4293C87.7348 61.3906 87.9139 61.3446 88.0929 61.2986C88.4463 61.2115 88.7972 61.1292 89.1553 61.0566C89.1844 61.0566 89.1723 61.0058 89.1408 61.013C88.7197 61.0929 88.2962 61.1413 87.8703 61.1897C87.6694 61.2139 87.4686 61.2381 87.2677 61.2696H87.2387C87.4807 60.8896 87.742 60.5121 88.001 60.137C88.2599 59.7619 88.514 59.411 88.7754 59.0456C89.0174 59.0117 89.2594 58.9488 89.5014 58.9028L90.3121 58.7455C90.8517 58.6366 91.389 58.5035 91.9311 58.4261C91.9819 58.4478 91.9601 58.4019 91.9383 58.4091Z" fill="#263238"/>
    <path d="M87.7492 58.7794L87.6548 58.4793C87.5905 58.2725 87.5372 58.0625 87.4951 57.8501C87.4951 57.8211 87.4443 57.8332 87.4515 57.8501C87.4951 58.0631 87.5459 58.276 87.5943 58.4866C87.6389 58.6998 87.6996 58.9093 87.7758 59.1133C87.779 59.1239 87.7863 59.1328 87.796 59.138C87.8058 59.1433 87.8172 59.1444 87.8278 59.1412C87.8384 59.138 87.8473 59.1307 87.8525 59.1209C87.8577 59.1112 87.8589 59.0997 87.8557 59.0891C87.8266 58.9923 87.7831 58.8859 87.7492 58.7794Z" fill="#263238"/>
    <path d="M92.6522 57.5379C92.3352 57.5863 92.0133 57.6081 91.6842 57.6347C91.3551 57.6614 91.0453 57.7073 90.7162 57.7557C90.6993 57.7557 90.6993 57.7848 90.7162 57.7848C91.0381 57.763 91.3551 57.7364 91.6842 57.6952C92.0133 57.6541 92.3231 57.6057 92.6522 57.5839C92.6861 57.5815 92.6861 57.5331 92.6522 57.5379Z" fill="#263238"/>
    <path d="M100.517 63.0459C100.394 60.275 100.217 57.5089 99.9387 54.7501C99.8008 53.3755 99.6459 52.001 99.4547 50.6361C99.2812 49.2918 99.016 47.9609 98.6609 46.6528C98.3754 45.6557 98.0003 44.6563 97.3348 43.8456C97.0243 43.4392 96.6154 43.1187 96.1467 42.9142C95.678 42.7097 95.1649 42.628 94.6558 42.6767C93.4458 42.8268 92.4657 43.5891 91.6212 44.4191C90.6749 45.3508 89.8062 46.3672 88.9301 47.3643C88.7075 47.6063 88.4873 47.87 88.2695 48.1241C88.2501 48.1459 88.284 48.1798 88.3033 48.1556C89.16 47.1707 90.053 46.2196 90.9847 45.2976C91.8462 44.4506 92.7344 43.5261 93.9298 43.1777C94.4835 42.9997 95.0768 42.9854 95.6384 43.1365C96.0824 43.279 96.4824 43.5332 96.8 43.8746C97.4727 44.574 97.8502 45.5202 98.1189 46.4374C98.8642 48.9832 99.1304 51.6525 99.4063 54.283C99.687 56.945 99.8782 59.6337 100.011 62.3174C100.144 65.0012 100.253 67.7165 100.512 70.4051C100.544 70.7366 100.587 71.0682 100.628 71.3973C100.657 71.6199 101.003 71.6199 100.984 71.3973C100.769 68.6094 100.64 65.824 100.517 63.0459Z" fill="#263238"/>
    <path d="M91.476 44.7168C91.476 44.7168 93.0563 41.7886 91.1881 40.8448C89.3198 39.901 83.0617 46.8948 81.2322 57.1023C81.2322 57.1023 91.3381 52.6326 94.7697 48.1774C98.2012 43.7221 94.305 42.7445 91.476 44.7168Z" fill="#FF8551"/>
    <path d="M92.9522 47.0981C91.8173 47.0981 90.6847 47.0134 89.5497 47.0206C89.7603 46.7786 89.9732 46.5366 90.1886 46.2946C90.5065 45.9704 90.8032 45.6261 91.0767 45.2637C91.0913 45.2395 91.0574 45.2056 91.0356 45.225C90.7278 45.49 90.4407 45.778 90.1765 46.0865C89.8909 46.3898 89.6078 46.6931 89.3271 46.9964C88.8915 47.4659 88.468 47.9426 88.0421 48.4218V47.6958C88.0421 47.3086 88.0421 46.9238 88.0542 46.539C88.0542 45.7574 88.0542 44.9733 88.1147 44.1941C88.1147 44.165 88.0687 44.165 88.0663 44.1941C88.013 44.9757 87.9332 45.755 87.8944 46.5415C87.8751 46.9262 87.8654 47.311 87.8606 47.6958C87.8606 47.8967 87.8606 48.0951 87.8606 48.2935C87.8606 48.4024 87.8606 48.5162 87.8606 48.6275C87.7952 48.7025 87.7275 48.7751 87.6597 48.8501C86.7546 49.8859 85.8931 50.958 85.0534 52.047C85.0534 51.9889 85.0534 51.926 85.0388 51.8679C85.0388 51.7469 85.0122 51.6259 85.0001 51.5073C84.9687 51.2459 84.9348 50.987 84.8961 50.7281C84.8573 50.4691 84.821 50.2441 84.7799 50.0021C84.7388 49.7601 84.6662 49.4527 84.6444 49.1768C84.6444 49.1711 84.6421 49.1655 84.638 49.1614C84.6339 49.1574 84.6284 49.1551 84.6226 49.1551C84.6168 49.1551 84.6113 49.1574 84.6072 49.1614C84.6031 49.1655 84.6008 49.1711 84.6008 49.1768C84.6481 49.4523 84.6796 49.7303 84.6952 50.0093C84.7194 50.2513 84.7412 50.5078 84.763 50.7571C84.7847 51.0064 84.8089 51.258 84.8356 51.5073C84.8477 51.6283 84.8573 51.7493 84.8719 51.8679C84.8719 51.9292 84.8791 51.9897 84.8936 52.0494C84.8978 52.1002 84.9144 52.1493 84.942 52.1922C84.7968 52.3809 84.6516 52.5673 84.5089 52.756C83.9353 53.5135 83.3739 54.2806 82.8149 55.0478C82.7955 55.072 82.8294 55.1034 82.8487 55.0792C83.3811 54.3839 83.9264 53.6998 84.4847 53.0271C84.9009 53.044 85.3244 53.0125 85.7406 53.0077C86.1569 53.0029 86.6167 53.0077 87.0547 53.0077C87.0595 53.0061 87.0638 53.003 87.0668 52.9989C87.0697 52.9948 87.0713 52.9898 87.0713 52.9847C87.0713 52.9796 87.0697 52.9746 87.0668 52.9705C87.0638 52.9664 87.0595 52.9633 87.0547 52.9617C86.6143 52.9617 86.1762 52.9762 85.7382 52.9762C85.3389 52.9762 84.9324 52.9593 84.5282 52.9762C85.0122 52.3809 85.5107 51.7929 86.0044 51.2024L86.5465 50.5611C86.7149 50.5837 86.8852 50.5893 87.0547 50.578H87.6524C88.0251 50.578 88.3978 50.578 88.7729 50.5635C89.5425 50.5514 90.3144 50.5248 91.0864 50.5224C91.0913 50.5208 91.0955 50.5177 91.0985 50.5136C91.1015 50.5094 91.1031 50.5045 91.1031 50.4994C91.1031 50.4943 91.1015 50.4893 91.0985 50.4852C91.0955 50.481 91.0913 50.478 91.0864 50.4764C90.312 50.4764 89.54 50.4328 88.7681 50.4135C88.3954 50.4135 88.0203 50.3917 87.6476 50.3868H87.0499C86.9361 50.3868 86.8079 50.3868 86.7038 50.3868C87.1297 49.8859 87.5532 49.3801 87.9767 48.8792C87.9824 48.8767 87.9875 48.8731 87.9917 48.8685C87.9959 48.8639 87.999 48.8585 88.0009 48.8526C88.4147 48.3686 88.8286 47.8846 89.2496 47.4006C89.3053 47.3328 89.3634 47.2675 89.4215 47.2021C90.6 47.2384 91.7737 47.161 92.9522 47.1852C92.9837 47.1465 92.9837 47.0981 92.9522 47.0981Z" fill="#263238"/>
    <path d="M92.3714 49.1067H92.0979C92.0946 49.1055 92.0911 49.1052 92.0877 49.1057C92.0842 49.1062 92.081 49.1075 92.0781 49.1095C92.0753 49.1115 92.073 49.1142 92.0714 49.1172C92.0698 49.1203 92.069 49.1238 92.069 49.1272C92.069 49.1307 92.0698 49.1341 92.0714 49.1372C92.073 49.1403 92.0753 49.143 92.0781 49.145C92.081 49.147 92.0842 49.1483 92.0877 49.1488C92.0911 49.1493 92.0946 49.1489 92.0979 49.1478H92.3738C92.3772 49.1454 92.3799 49.1422 92.3817 49.1385C92.3835 49.1348 92.3843 49.1307 92.3841 49.1266C92.3838 49.1224 92.3825 49.1184 92.3803 49.115C92.3781 49.1115 92.375 49.1086 92.3714 49.1067Z" fill="#263238"/>
    <path d="M91.7616 49.1091C91.3962 49.1091 91.0356 49.097 90.6702 49.0873L90.1233 49.0704C89.9546 49.0486 89.7838 49.0486 89.6151 49.0704C89.6106 49.0704 89.6063 49.0721 89.6031 49.0753C89.5999 49.0785 89.5981 49.0828 89.5981 49.0873C89.5981 49.0918 89.5999 49.0961 89.6031 49.0993C89.6063 49.1024 89.6106 49.1042 89.6151 49.1042C89.782 49.1394 89.953 49.1516 90.1233 49.1405H90.6678C91.0308 49.1405 91.3938 49.1405 91.7592 49.1405C91.7931 49.1575 91.7907 49.1115 91.7616 49.1091Z" fill="#263238"/>
    <path d="M88.5841 52.514C87.8447 52.3919 87.0973 52.324 86.348 52.3107V52.3277C87.0885 52.3979 87.8339 52.439 88.5696 52.5697C88.601 52.5697 88.6131 52.514 88.5841 52.514Z" fill="#263238"/>
    <path d="M85.547 49.2688C85.547 49.2035 85.5301 49.1381 85.5228 49.0752C85.5035 48.9276 85.4817 48.7824 85.4575 48.6372C85.4139 48.3589 85.3655 48.083 85.3123 47.8071C85.3123 47.7805 85.2639 47.7878 85.2663 47.8071C85.3026 48.0927 85.3317 48.3782 85.3583 48.6638C85.3728 48.8042 85.3825 48.9469 85.3946 49.0873C85.3906 49.2228 85.4103 49.3579 85.4527 49.4866C85.4581 49.4955 85.4661 49.5025 85.4756 49.5069C85.485 49.5113 85.4955 49.5128 85.5059 49.5113C85.5162 49.5097 85.5258 49.5052 85.5335 49.4982C85.5413 49.4912 85.5468 49.4822 85.5495 49.4721C85.5611 49.4047 85.5603 49.3358 85.547 49.2688Z" fill="#263238"/>
    <path d="M100.43 40.9561C100.067 40.2833 99.6073 39.3952 98.7046 39.4508C97.9592 39.4968 97.6229 40.2567 97.4631 40.8859C96.9791 42.8219 96.938 44.8837 96.8412 46.8754C96.6379 51.0886 96.4564 55.3043 96.4298 59.5223C96.4298 60.6912 96.4298 61.86 96.4298 63.0289C96.4298 64.1978 96.4298 65.4199 96.5145 66.6105C96.5145 66.6336 96.5237 66.6558 96.54 66.6721C96.5564 66.6884 96.5785 66.6976 96.6016 66.6976C96.6247 66.6976 96.6469 66.6884 96.6632 66.6721C96.6796 66.6558 96.6888 66.6336 96.6888 66.6105C96.6888 65.5917 96.6597 64.5704 96.6549 63.5516C96.65 62.5328 96.6549 61.56 96.6742 60.5653C96.7081 58.5487 96.7622 56.532 96.8364 54.5153C96.9114 52.5116 96.9985 50.5102 97.0784 48.5089C97.1219 47.507 97.1631 46.5076 97.209 45.5081C97.255 44.5086 97.2937 43.5721 97.4051 42.6041C97.468 42.0644 97.5478 41.5248 97.6592 40.9924C97.7157 40.5966 97.8769 40.2232 98.1262 39.9106C98.2988 39.7413 98.5259 39.6387 98.7671 39.6215C99.0083 39.6042 99.2478 39.6732 99.4427 39.8163C99.8548 40.1125 100.178 40.5159 100.377 40.9827C100.391 41.0093 100.43 40.9827 100.43 40.9561Z" fill="#263238"/>
    <path d="M100.173 40.6367C100.173 40.6367 99.4305 38.0134 101.071 39.325C103.803 41.503 103.9 46.2535 103.9 46.2535C103.9 46.2535 99.0433 43.4318 98.4407 41.5708C97.5405 38.7999 100.173 40.6367 100.173 40.6367Z" fill="#FF8551"/>
    <path d="M102.879 44.3078C102.836 44.2352 102.787 44.165 102.741 44.0924C102.747 44.0175 102.747 43.9423 102.741 43.8674C102.741 43.756 102.741 43.6423 102.741 43.531C102.741 43.3083 102.756 43.0881 102.765 42.8655C102.765 42.8364 102.722 42.8364 102.719 42.8655C102.719 43.0809 102.7 43.2987 102.693 43.5165C102.693 43.6254 102.693 43.7343 102.681 43.8432C102.681 43.8843 102.681 43.9327 102.681 43.9835C102.49 43.6867 102.293 43.3938 102.09 43.1051L101.911 42.8631C101.881 42.5785 101.876 42.2918 101.897 42.0064C101.897 41.7015 101.897 41.3965 101.913 41.094C101.913 41.0626 101.868 41.065 101.868 41.094C101.868 41.4111 101.843 41.7281 101.826 42.0451C101.809 42.2705 101.803 42.4967 101.809 42.7227C101.34 42.0838 100.841 41.4691 100.338 40.8593C100.321 40.8375 100.285 40.8593 100.302 40.8883C100.614 41.2828 100.914 41.6869 101.207 42.0983C100.636 41.9652 100.053 41.8902 99.4741 41.8055C99.4427 41.8055 99.433 41.8467 99.4741 41.8515C100.089 41.9435 100.684 42.0935 101.299 42.2314C101.299 42.2314 101.299 42.2314 101.311 42.2314C101.543 42.5541 101.773 42.8832 102.001 43.2188C102.095 43.3543 102.185 43.4898 102.276 43.6254H102.25L102.061 43.6012C101.928 43.5842 101.792 43.5745 101.659 43.5624C101.379 43.5407 101.098 43.5261 100.817 43.5116C100.788 43.5116 100.788 43.5576 100.817 43.5576C101.093 43.5576 101.367 43.5842 101.64 43.6157L102.076 43.6665L102.264 43.6907H102.32L102.787 44.378C103.063 44.7845 103.307 45.2177 103.6 45.6098C103.617 45.634 103.649 45.6098 103.637 45.5856C103.409 45.1451 103.156 44.7185 102.879 44.3078Z" fill="#263238"/>
    <path d="M101.669 41.3457C101.669 41.2441 101.669 41.1424 101.669 41.0408C101.663 40.8259 101.672 40.6108 101.696 40.3971C101.697 40.3934 101.697 40.3896 101.697 40.3858C101.696 40.382 101.695 40.3784 101.692 40.3753C101.69 40.3722 101.687 40.3697 101.684 40.368C101.68 40.3662 101.677 40.3653 101.673 40.3653C101.669 40.3653 101.665 40.3662 101.662 40.368C101.658 40.3697 101.655 40.3722 101.653 40.3753C101.651 40.3784 101.649 40.382 101.649 40.3858C101.648 40.3896 101.649 40.3934 101.65 40.3971C101.65 40.61 101.626 40.823 101.616 41.0335C101.616 41.14 101.616 41.2465 101.616 41.353C101.616 41.4014 101.616 41.4498 101.616 41.5006C101.607 41.5503 101.607 41.601 101.616 41.6506C101.617 41.6549 101.62 41.6586 101.624 41.6612C101.628 41.6639 101.632 41.6653 101.636 41.6653C101.641 41.6653 101.645 41.6639 101.649 41.6612C101.653 41.6586 101.656 41.6549 101.657 41.6506C101.664 41.6041 101.664 41.5568 101.657 41.5103C101.669 41.4522 101.669 41.399 101.669 41.3457Z" fill="#263238"/>
    <path d="M101.069 42.4323C100.89 42.4008 100.703 42.3911 100.522 42.3766C100.34 42.3621 100.12 42.3427 99.9218 42.3161C99.9181 42.3149 99.9143 42.3146 99.9105 42.3152C99.9067 42.3158 99.9031 42.3173 99.9 42.3195C99.8969 42.3218 99.8944 42.3247 99.8927 42.3281C99.8909 42.3315 99.89 42.3353 99.89 42.3391C99.89 42.3429 99.8909 42.3467 99.8927 42.3501C99.8944 42.3535 99.8969 42.3565 99.9 42.3587C99.9031 42.361 99.9067 42.3624 99.9105 42.363C99.9143 42.3636 99.9181 42.3633 99.9218 42.3621C100.304 42.3863 100.686 42.4541 101.069 42.4686C101.086 42.4686 101.091 42.4347 101.069 42.4323Z" fill="#263238"/>
    <path d="M102.608 42.4468C102.614 42.4804 102.614 42.5148 102.608 42.5485V42.6331C102.608 42.6936 102.608 42.7566 102.608 42.8171C102.608 42.8776 102.608 42.9381 102.608 43.001C102.597 43.0537 102.597 43.108 102.608 43.1607C102.609 43.1622 102.611 43.1634 102.612 43.1643C102.614 43.1651 102.616 43.1655 102.618 43.1655C102.62 43.1655 102.621 43.1651 102.623 43.1643C102.625 43.1634 102.626 43.1622 102.627 43.1607C102.632 43.1351 102.632 43.1089 102.627 43.0833V42.8171C102.627 42.7541 102.627 42.6936 102.627 42.6331V42.5485C102.627 42.5218 102.627 42.4686 102.627 42.4468C102.627 42.425 102.564 42.4032 102.608 42.4468Z" fill="#263238"/>
    <path d="M100.529 54.934C99.508 54.1669 98.5932 53.0658 97.2187 53.0125C96.0837 52.9665 95.2827 53.8208 94.835 54.7719C94.6055 55.2768 94.42 55.8007 94.2808 56.3376C94.0759 57.0539 93.8823 57.7743 93.7 58.4987C93.345 59.9216 93.0425 61.3575 92.7925 62.8063C92.6545 63.6145 92.5263 64.4228 92.4222 65.2263C92.2909 66.0498 92.2101 66.8806 92.1802 67.714C92.1741 67.749 92.1822 67.785 92.2026 67.814C92.223 67.8431 92.2541 67.8628 92.2891 67.8689C92.3241 67.875 92.3601 67.867 92.3891 67.8465C92.4181 67.8261 92.4379 67.795 92.444 67.76C92.5819 67.0824 92.64 66.3806 92.7392 65.6933C92.8385 65.006 92.9449 64.3139 93.0611 63.6267C93.3031 62.2521 93.5645 60.8799 93.8742 59.5126C94.167 58.2276 94.455 56.9233 94.8688 55.6721C95.1665 54.7743 95.6432 53.7361 96.6112 53.407C98.085 52.923 99.4233 54.162 100.503 54.9727C100.522 54.9945 100.553 54.9606 100.529 54.934Z" fill="#263238"/>
    <path d="M99.4742 54.208C99.4742 54.208 98.5328 51.5194 99.8928 50.9918C101.935 50.2029 107.276 56.219 106.231 65.4344C106.231 65.4344 102.102 63.162 99.0555 60.5944C96.0087 58.0268 95.2295 54.6968 96.5702 53.8329C97.9108 52.969 99.4742 54.208 99.4742 54.208Z" fill="#FF8551"/>
    <path d="M105.614 63.4621C105.471 63.1408 105.305 62.8302 105.118 62.5328C104.943 62.2158 104.767 61.9012 104.583 61.5914C104.229 60.984 103.876 60.3814 103.513 59.774C103.455 59.6772 103.394 59.5804 103.334 59.4836C103.334 59.4473 103.349 59.411 103.358 59.3771C103.378 59.2876 103.397 59.1981 103.419 59.1085C103.462 58.9101 103.499 58.7068 103.535 58.5059C103.61 58.1115 103.678 57.7122 103.777 57.325C103.777 57.2959 103.738 57.2863 103.731 57.325C103.646 57.717 103.523 58.1066 103.407 58.4914C103.349 58.6826 103.288 58.8714 103.237 59.0625L103.186 59.261C102.746 58.535 102.301 57.8259 101.819 57.1338C101.85 57.0385 101.867 56.9389 101.867 56.8386C101.882 56.703 101.899 56.5699 101.913 56.4344C101.95 56.1319 101.984 55.827 102.03 55.5245C102.106 54.9313 102.214 54.3424 102.351 53.7603C102.351 53.7313 102.313 53.7216 102.305 53.7603C102.16 54.3411 102.001 54.9219 101.889 55.51C101.836 55.798 101.785 56.0884 101.746 56.3788C101.727 56.5264 101.71 56.6716 101.696 56.8168C101.696 56.8603 101.684 56.9063 101.679 56.9499C101.531 56.7418 101.383 56.5312 101.229 56.3279C100.757 55.7084 100.261 55.1034 99.7766 54.5008C99.7597 54.4766 99.7209 54.5008 99.7403 54.5275C100.584 55.6071 101.359 56.7387 102.061 57.9155L102.46 58.5664L102.33 58.5495C102.155 58.5277 101.981 58.518 101.809 58.5011C101.461 58.4696 101.115 58.4382 100.766 58.4116C100.072 58.3559 99.3749 58.3123 98.6803 58.2397C98.6755 58.2413 98.6713 58.2444 98.6683 58.2485C98.6653 58.2527 98.6637 58.2576 98.6637 58.2627C98.6637 58.2678 98.6653 58.2728 98.6683 58.2769C98.6713 58.281 98.6755 58.2841 98.6803 58.2857C99.3821 58.3656 100.082 58.4793 100.781 58.5785L101.814 58.7165C102.076 58.77 102.343 58.7975 102.61 58.7988L103.431 60.1298C103.37 60.1249 103.308 60.1249 103.247 60.1298H102.252C101.805 60.1298 101.357 60.1298 100.909 60.1298C100.88 60.1298 100.885 60.1757 100.909 60.1757C101.364 60.1757 101.814 60.2048 102.269 60.229C102.485 60.229 102.698 60.2532 102.913 60.2677L103.235 60.2895C103.328 60.3101 103.425 60.3101 103.518 60.2895C103.76 60.667 103.985 61.0421 104.215 61.422C104.445 61.802 104.646 62.1166 104.866 62.4602C105.071 62.8288 105.305 63.1808 105.565 63.5129C105.587 63.5057 105.623 63.4911 105.614 63.4621Z" fill="#263238"/>
    <path d="M103.646 56.0133C103.605 56.3092 103.544 56.6019 103.462 56.8894C103.387 57.187 103.3 57.4823 103.203 57.7751C103.201 57.7788 103.199 57.7831 103.199 57.7876C103.198 57.792 103.199 57.7965 103.2 57.8008C103.202 57.805 103.204 57.8088 103.207 57.812C103.211 57.8151 103.214 57.8174 103.219 57.8188C103.223 57.8202 103.228 57.8205 103.232 57.8198C103.236 57.8191 103.241 57.8174 103.244 57.8148C103.248 57.8122 103.251 57.8088 103.253 57.8049C103.255 57.8009 103.256 57.7965 103.257 57.792C103.349 57.5016 103.429 57.2088 103.499 56.9136C103.569 56.6183 103.615 56.3158 103.687 56.0206C103.699 55.9916 103.651 55.9819 103.646 56.0133Z" fill="#263238"/>
    <path d="M100.614 57.8114C100.551 57.758 100.471 57.7289 100.389 57.7291L99.9993 57.6759C99.7573 57.642 99.5153 57.6154 99.2733 57.5863C98.7699 57.5283 98.2666 57.4798 97.7632 57.4169C97.7584 57.4185 97.7542 57.4216 97.7512 57.4257C97.7482 57.4299 97.7466 57.4348 97.7466 57.4399C97.7466 57.445 97.7482 57.45 97.7512 57.4541C97.7542 57.4582 97.7584 57.4613 97.7632 57.4629C98.2472 57.521 98.7094 57.5912 99.1838 57.6541C99.4137 57.6856 99.646 57.717 99.8783 57.7436L100.215 57.7824C100.345 57.7834 100.474 57.8055 100.597 57.8477C100.614 57.8598 100.631 57.838 100.614 57.8114Z" fill="#263238"/>
    <path d="M103.639 61.8649C103.397 61.8455 103.155 61.8383 102.925 61.831L102.564 61.8189H102.393C102.317 61.8222 102.242 61.8181 102.168 61.8068C102.134 61.8068 102.131 61.8576 102.168 61.8528C102.238 61.8455 102.308 61.8455 102.378 61.8528H102.564L102.925 61.8746C103.167 61.8891 103.409 61.9036 103.639 61.9036C103.666 61.9157 103.668 61.8673 103.639 61.8649Z" fill="#263238"/>
    <path d="M105.093 60.834C105.122 60.7009 105.147 60.5654 105.171 60.4298C105.222 60.1636 105.27 59.8974 105.318 59.6312C105.317 59.6264 105.314 59.6222 105.31 59.6192C105.306 59.6162 105.301 59.6146 105.295 59.6146C105.29 59.6146 105.285 59.6162 105.281 59.6192C105.277 59.6222 105.274 59.6264 105.272 59.6312L105.098 60.4081C105.067 60.5363 105.04 60.667 105.011 60.7953L104.975 60.9768C104.956 61.0377 104.948 61.1018 104.953 61.1655C104.953 61.1873 104.989 61.2067 105.004 61.1825C105.056 61.0731 105.086 60.9548 105.093 60.834Z" fill="#263238"/>
    <path d="M91.1227 66.7L91.4107 69.967L92.3859 80.9974H101.025L102.245 69.967L102.606 66.7H91.1227Z" fill="#455A64"/>
    <path d="M91.1227 66.7L91.4107 69.967H102.245L102.606 66.7H91.1227Z" fill="#263238"/>
    <path d="M90.2684 68.4594H103.462V65.8095H90.2684V68.4594Z" fill="#455A64"/>
    <path d="M34.0978 67.8762C33.5896 68.4981 33.1443 84.7581 33.7493 86.7522C34.3543 88.7462 38.1755 92.4343 38.3207 92.9595C38.4245 93.4591 38.4245 93.9747 38.3207 94.4744C38.2626 94.7164 37.0599 95.711 36.6582 96.195C36.4525 96.437 36.104 98.2956 36.4162 98.4408C36.7284 98.586 39.0975 98.4117 39.8042 97.7414C40.5108 97.0711 42.2968 94.2977 42.4662 93.8694C42.6356 93.441 42.1564 90.3991 42.033 89.7868C41.9096 89.1746 45.9655 80.4892 45.98 77.4182C45.9945 74.3472 35.1602 66.579 34.0978 67.8762Z" fill="#FF8551"/>
    <path d="M38.8822 96.195C38.8847 96.1918 38.8885 96.1897 38.8926 96.1893C38.8966 96.1888 38.9007 96.19 38.904 96.1926C38.9072 96.1951 38.9092 96.1989 38.9097 96.203C38.9101 96.2071 38.9089 96.2112 38.9064 96.2144C38.6644 96.5943 38.4587 96.9888 38.2651 97.3905C38.0605 97.7394 37.9756 98.1456 38.0231 98.5472C38.0231 98.5524 38.021 98.5573 38.0174 98.5609C38.0138 98.5646 38.0088 98.5666 38.0037 98.5666C37.9986 98.5666 37.9937 98.5646 37.99 98.5609C37.9864 98.5573 37.9844 98.5524 37.9844 98.5472C37.8632 98.1519 37.87 97.7285 38.0037 97.3372C38.2093 96.8967 38.5092 96.5068 38.8822 96.195Z" fill="#263238"/>
    <path d="M37.5729 96.1684C37.5754 96.1667 37.5784 96.1658 37.5815 96.1659C37.5845 96.166 37.5875 96.1671 37.5899 96.169C37.5923 96.1708 37.5941 96.1734 37.5949 96.1764C37.5958 96.1793 37.5957 96.1824 37.5947 96.1853C37.3855 96.5612 37.2004 96.95 37.0405 97.3493C36.8977 97.6833 36.6267 98.1988 36.888 98.5351C36.9316 98.5932 36.888 98.6102 36.8396 98.5618C36.5057 98.2714 36.6218 97.7486 36.7477 97.3832C36.9267 96.9208 37.209 96.5053 37.5729 96.1684Z" fill="#263238"/>
    <path d="M59.803 67.1114C60.3112 67.7334 60.7565 83.9934 60.1515 85.9995C59.5465 88.0057 55.7253 91.6793 55.5801 92.202C55.4763 92.7024 55.4763 93.2189 55.5801 93.7193C55.6382 93.9613 56.9595 95.0987 57.2427 95.44C57.6468 95.924 58.0485 97.3203 57.7267 97.4655C57.4048 97.6107 54.5468 97.4655 54.0967 96.9815C53.4263 96.2821 51.6016 93.5403 51.4347 93.1095C51.2677 92.6787 51.7468 89.6368 51.8678 89.0245C51.9888 88.4123 47.9305 79.7245 47.9257 76.6535C47.9208 73.5825 58.7406 65.824 59.803 67.1114Z" fill="#FF8551"/>
    <g opacity="0.1">
        <path d="M59.803 67.1114C60.3112 67.7334 60.7565 83.9934 60.1515 85.9995C59.5465 88.0057 55.7253 91.6793 55.5801 92.202C55.4763 92.7024 55.4763 93.2189 55.5801 93.7193C55.6382 93.9613 56.9595 95.0987 57.2427 95.44C57.6468 95.924 58.0485 97.3203 57.7267 97.4655C57.4048 97.6107 54.5468 97.4655 54.0967 96.9815C53.4263 96.2821 51.6016 93.5403 51.4347 93.1095C51.2677 92.6787 51.7468 89.6368 51.8678 89.0245C51.9888 88.4123 47.9305 79.7245 47.9257 76.6535C47.9208 73.5825 58.7406 65.824 59.803 67.1114Z" fill="black"/>
    </g>
    <path d="M54.9485 95.3044C54.9364 95.3044 54.917 95.3044 54.9267 95.3262C55.1832 95.6916 55.4276 96.0667 55.6527 96.4563C55.8838 96.7885 56.0002 97.187 55.9842 97.5913C55.9842 97.5965 55.9863 97.6014 55.9899 97.605C55.9935 97.6086 55.9985 97.6107 56.0036 97.6107C56.0087 97.6107 56.0137 97.6086 56.0173 97.605C56.0209 97.6014 56.023 97.5965 56.023 97.5913C56.1176 97.1872 56.0811 96.7634 55.9189 96.3813C55.6793 95.9548 55.3478 95.587 54.9485 95.3044Z" fill="#263238"/>
    <path d="M56.2553 95.1859C56.2408 95.1859 56.2214 95.1859 56.2311 95.2076C56.467 95.5672 56.6796 95.9414 56.8676 96.3281C57.0321 96.6524 57.3395 97.1461 57.1096 97.5018C57.0684 97.5623 57.1096 97.5768 57.158 97.526C57.4726 97.2114 57.3201 96.6984 57.1701 96.3426C56.9555 95.8935 56.6429 95.4982 56.2553 95.1859Z" fill="#263238"/>
    <path d="M58.2518 93.7508C58.2518 93.7508 66.1435 98.9127 67.126 99.2055C68.1085 99.4983 81.5395 105.461 82.5752 105.563C82.9939 105.604 87.2483 105.919 87.5096 105.788C87.771 105.657 86.3722 103.733 85.3873 103.274C84.4023 102.814 81.5613 102.548 81.1886 102.306C80.8159 102.064 72.6484 93.7968 72.1838 93.0756C71.7191 92.3545 70.4898 85.6753 70.4898 85.6753L58.2518 93.7508Z" fill="#FF8551"/>
    <path d="M84.3249 103.876C84.3104 103.876 84.2934 103.876 84.3055 103.898C84.5983 104.234 84.8815 104.583 85.1428 104.946C85.4079 105.252 85.5652 105.637 85.5905 106.042C85.592 106.046 85.5948 106.05 85.5985 106.053C85.6022 106.055 85.6066 106.057 85.6111 106.057C85.6156 106.057 85.62 106.055 85.6237 106.053C85.6274 106.05 85.6302 106.046 85.6317 106.042C85.6804 105.627 85.5956 105.208 85.3897 104.844C85.1477 104.418 84.7266 104.15 84.3249 103.876Z" fill="#263238"/>
    <path d="M85.6099 103.622C85.5978 103.61 85.5808 103.622 85.5905 103.644C85.863 103.976 86.1136 104.326 86.3407 104.692C86.5392 104.997 86.8973 105.456 86.6989 105.834C86.665 105.899 86.6989 105.909 86.7497 105.853C87.028 105.507 86.8223 105.011 86.636 104.675C86.378 104.251 86.0272 103.891 85.6099 103.622Z" fill="#263238"/>
    <path opacity="0.1" d="M72.116 92.928L61.6277 95.9167C59.8151 94.7624 58.2615 93.7387 58.2615 93.7387L70.5043 85.668C70.5043 85.668 71.6029 91.7301 72.116 92.928Z" fill="black"/>
    <path d="M63.174 79.9108C61.1195 76.5228 60.1926 62.4045 56.8119 59.3723C54.8759 57.6275 42.9719 48.5815 38.8869 49.7141C37.5535 50.0843 33.4782 64.5632 34.1776 69.1128C34.9617 74.1948 38.3448 82.4228 39.9057 84.3588C41.4666 86.2948 50.8151 85.2929 52.2477 86.0818C53.6804 86.8707 63.174 79.9108 63.174 79.9108Z" fill="#FF8551"/>
    <path d="M39.3589 84.0587C39.3274 83.9046 39.2862 83.7526 39.2355 83.6037C39.1508 83.3206 39.0564 83.0423 38.9596 82.764C38.7684 82.2147 38.5627 81.6726 38.3522 81.1329C37.9287 80.0512 37.4543 78.9888 36.9679 77.9313C36.692 77.3263 36.4089 76.7213 36.1282 76.1211C36.1282 76.0969 36.0774 76.1211 36.087 76.138C36.9389 78.316 37.6988 80.5061 38.5772 82.672C38.7006 82.9745 38.8192 83.2746 38.9547 83.5747C39.0128 83.7102 39.0757 83.8433 39.1387 83.9764C39.2209 84.1531 39.3395 84.3007 39.4073 84.4846C39.4073 84.5064 39.4533 84.4967 39.4436 84.4725C39.4025 84.3375 39.3742 84.199 39.3589 84.0587Z" fill="#263238"/>
    <path d="M34.894 73.3696C34.7948 72.7013 34.7801 72.0232 34.8504 71.3513C34.9061 70.6664 34.9811 69.9816 35.0779 69.3015C35.1892 68.5352 35.3175 67.7705 35.4627 67.0074C35.4627 66.9953 35.4457 66.9904 35.4433 67.0074C35.1021 68.3747 34.8456 69.7613 34.6326 71.1553C34.5081 71.826 34.4691 72.5099 34.5164 73.1905C34.5872 73.8382 34.7561 74.4715 35.0174 75.0684C35.3133 75.7385 35.6587 76.3856 36.0507 77.0044C36.0628 77.0213 36.0943 77.0044 36.087 76.9875C35.6345 75.8041 35.1069 74.628 34.894 73.3696Z" fill="#263238"/>
    <path d="M38.8459 54.0652C37.6794 51.033 33.321 44.9515 34.9158 37.7326C36.0968 32.4086 42.4372 24.7832 42.2121 21.0346C42.0379 18.104 35.0368 19.9166 34.9158 16.5141C34.7754 12.5501 42.9962 10.9481 45.9631 15.8728C49.852 22.3366 40.3051 34.122 39.1072 40.2712C37.8392 46.7883 40.9755 51.5121 40.8448 51.8195C40.7141 52.1268 38.8459 54.0652 38.8459 54.0652Z" fill="#FF8551"/>
    <path d="M40.0776 80.344C40.0776 80.344 38.6885 87.846 40.0123 90.3628C41.0214 92.2988 43.5697 98.7287 44.1819 102.136C44.2812 102.695 44.5232 103.772 44.6853 104.036C44.8474 104.3 48.4145 105.258 48.8187 105.069C49.0607 104.958 49.0365 103.617 48.8622 103.317C48.6202 102.869 47.5772 102.08 47.5506 101.93C47.5046 101.688 47.2384 94.2299 47.3376 93.5862C47.4368 92.9425 50.5272 87.846 50.9894 85.426C51.4516 83.006 40.5471 79.5817 40.0776 80.344Z" fill="#FF8551"/>
    <path d="M46.5632 102.712C46.561 102.709 46.5576 102.707 46.5537 102.706C46.5499 102.705 46.5459 102.706 46.5427 102.708C46.5395 102.711 46.5373 102.714 46.5366 102.718C46.5359 102.722 46.5368 102.726 46.539 102.729C46.7665 103.114 46.9795 103.508 47.1707 103.912C47.3756 104.262 47.4605 104.669 47.4127 105.072C47.4127 105.077 47.4147 105.082 47.4183 105.085C47.422 105.089 47.4269 105.091 47.432 105.091C47.4372 105.091 47.4421 105.089 47.4457 105.085C47.4493 105.082 47.4514 105.077 47.4514 105.072C47.5782 104.678 47.5782 104.255 47.4514 103.862C47.2451 103.417 46.9416 103.024 46.5632 102.712Z" fill="#263238"/>
    <path d="M47.8749 102.698C47.8628 102.685 47.841 102.698 47.8507 102.714C48.0571 103.092 48.239 103.482 48.3952 103.883C48.5355 104.22 48.8017 104.735 48.5355 105.072C48.492 105.127 48.5355 105.147 48.5839 105.098C48.9227 104.81 48.809 104.285 48.688 103.922C48.513 103.458 48.235 103.039 47.8749 102.698Z" fill="#263238"/>
    <path d="M41.6991 93.9952C41.5926 93.7072 41.5006 93.4144 41.3966 93.124C41.1884 92.5432 40.961 91.9697 40.7335 91.3962C40.506 90.8226 40.2882 90.295 40.068 89.7433C39.8336 89.2021 39.6709 88.6326 39.584 88.0493C39.5315 87.4545 39.5275 86.8564 39.5719 86.2609C39.6009 85.6511 39.6396 85.0388 39.688 84.429C39.7824 83.219 39.93 82.009 40.068 80.799C40.235 79.4341 40.3802 78.0668 40.6149 76.7092C40.6163 76.7008 40.6145 76.6922 40.6099 76.6851C40.6053 76.678 40.5982 76.6729 40.59 76.6708C40.5818 76.6686 40.5731 76.6697 40.5656 76.6736C40.5581 76.6776 40.5524 76.6842 40.5496 76.6922C40.2543 77.9022 39.9905 79.1122 39.7558 80.3222C39.546 81.5237 39.3998 82.7354 39.3178 83.9522C39.2678 84.5717 39.2266 85.1921 39.1944 85.8132C39.1492 86.4292 39.1379 87.0473 39.1605 87.6645C39.2282 88.8745 39.7025 89.9853 40.1817 91.0815C40.46 91.7156 40.7286 92.3569 41.0263 92.9812C41.1763 93.2934 41.3385 93.5983 41.4837 93.9129C41.6289 94.2275 41.808 94.5494 41.9532 94.8809C41.9532 94.9003 41.9967 94.8809 41.9894 94.864C41.8878 94.5809 41.8055 94.2856 41.6991 93.9952Z" fill="#263238"/>
    <path d="M39.8598 74.8361C39.8598 74.8226 39.8544 74.8097 39.8449 74.8001C39.8353 74.7906 39.8224 74.7853 39.8089 74.7853C39.7955 74.7853 39.7825 74.7906 39.773 74.8001C39.7635 74.8097 39.7581 74.8226 39.7581 74.8361C39.7121 75.5088 39.6589 76.1864 39.6541 76.8616C39.6541 77.1932 39.6541 77.5247 39.6807 77.8562C39.6807 78.016 39.7073 78.1781 39.717 78.3402C39.7198 78.503 39.7385 78.6651 39.7726 78.8242C39.7726 78.8294 39.7747 78.8343 39.7783 78.8379C39.7819 78.8416 39.7869 78.8436 39.792 78.8436C39.7971 78.8436 39.8021 78.8416 39.8057 78.8379C39.8093 78.8343 39.8114 78.8294 39.8114 78.8242C39.8736 78.5134 39.9068 78.1974 39.9106 77.8804C39.9324 77.5392 39.9469 77.1956 39.9469 76.8544C39.9469 76.1816 39.9009 75.504 39.8598 74.8361Z" fill="#263238"/>
    <path d="M72.358 83.248C73.084 83.2722 72.8952 71.2569 70.0711 68.0964C69.6645 67.6438 63.2709 75.8646 63.1813 76.1429C63.0918 76.4212 70.8455 83.1923 72.358 83.248Z" fill="#FF8551"/>
    <path opacity="0.1" d="M72.1281 83.1948C72.7524 83.2165 72.5854 72.963 70.1751 70.2647C69.8291 69.8775 64.3671 76.8931 64.2969 77.1327C64.2268 77.3722 70.843 83.1488 72.1281 83.1948Z" fill="black"/>
    <path d="M69.9138 82.4494C69.9426 82.1244 69.9895 81.8012 70.0542 81.4814C70.1162 81.1543 70.197 80.8311 70.2962 80.5134C70.4772 79.8853 70.7487 79.287 71.102 78.7371C71.4468 78.1836 71.9065 77.7107 72.45 77.3504C72.586 77.2624 72.7265 77.1816 72.8711 77.1084C73.0165 77.0347 73.1659 76.9693 73.3188 76.9124C73.6261 76.7924 73.9436 76.7001 74.2674 76.6365C73.5994 76.6906 72.9532 76.8994 72.3798 77.2464C72.0898 77.417 71.8244 77.6262 71.5909 77.8683C71.3532 78.107 71.14 78.3688 70.9544 78.65C70.5993 79.2184 70.3332 79.8378 70.1655 80.4868C69.9948 81.1269 69.9101 81.7869 69.9138 82.4494Z" fill="#263238"/>
    <path d="M69.454 82.2437C69.4214 81.7699 69.4214 81.2945 69.454 80.8207C69.4772 80.3477 69.5297 79.8765 69.6113 79.4099C69.7604 78.4771 70.0389 77.5697 70.439 76.714C70.6386 76.2871 70.8734 75.8776 71.1408 75.4895C71.4121 75.1037 71.7139 74.7404 72.0434 74.4029C72.3736 74.0636 72.7331 73.7543 73.1179 73.4785C73.5032 73.1982 73.9075 72.9451 74.3279 72.721C73.4514 73.1078 72.6489 73.6442 71.9563 74.3061C71.6102 74.64 71.2958 75.0054 71.0173 75.3975C70.7417 75.7907 70.4988 76.2059 70.2913 76.639C69.8877 77.5108 69.6138 78.437 69.4782 79.3881C69.3347 80.334 69.3265 81.2955 69.454 82.2437Z" fill="#263238"/>
    <path d="M47.5264 85.3655C46.8004 85.4575 45.8735 73.4785 48.3903 70.0663C48.7509 69.5823 55.8923 77.1665 56.0012 77.4352C56.1101 77.7038 49.0219 85.184 47.5264 85.3655Z" fill="#FF8551"/>
    <path opacity="0.1" d="M47.7442 85.2929C47.1246 85.3728 46.3333 75.1507 48.4702 72.2394C48.7799 71.8208 54.8686 78.2894 54.9654 78.5314C55.0622 78.7734 49.0195 85.1283 47.7442 85.2929Z" fill="black"/>
    <path d="M56.0327 77.3601C55.5487 76.6341 53.1553 74.0568 52.5213 73.4373C51.8873 72.8178 51.1782 72.1934 50.4909 71.5884C50.1312 71.2658 49.769 70.9487 49.4043 70.6374L48.855 70.18C48.7122 70.0321 48.5492 69.905 48.371 69.8025C47.9354 69.6089 47.0497 71.8837 46.602 74.4707C46.3254 76.2041 46.2394 77.9626 46.3455 79.7148C46.3865 80.6985 46.4932 81.6784 46.6649 82.6478C46.8266 83.6069 47.0571 84.5532 47.3546 85.4792C47.356 85.4829 47.3585 85.4861 47.3617 85.4884C47.3649 85.4906 47.3688 85.4918 47.3728 85.4918C47.3767 85.4918 47.3806 85.4906 47.3838 85.4884C47.3871 85.4861 47.3895 85.4829 47.3909 85.4792C47.2215 84.6443 47.0569 83.8094 46.9577 82.9673C46.8585 82.1251 46.7883 81.2999 46.7496 80.465C46.6623 78.7877 46.7206 77.1059 46.9238 75.4387C47.3449 72.2176 48.3299 70.18 48.3613 70.2066L48.8889 70.6906C49.2245 71.0052 49.5641 71.3174 49.9077 71.6272C50.5684 72.2225 51.2266 72.8226 51.8994 73.4034C52.6133 74.0157 55.3454 76.6825 55.965 77.4206C55.994 77.4521 56.0642 77.4085 56.0327 77.3601Z" fill="#263238"/>
    <path d="M49.8786 84.3467C49.8165 84.0196 49.7357 83.6965 49.6366 83.3787C49.5466 83.0629 49.4384 82.7526 49.3123 82.4494C49.0727 81.8411 48.7467 81.2706 48.3443 80.7554C47.9479 80.2383 47.4464 79.8111 46.8729 79.5018C46.7296 79.4229 46.5818 79.3526 46.4301 79.2913C46.2776 79.2381 46.1252 79.1751 45.9654 79.1364C45.6487 79.047 45.3248 78.9855 44.9974 78.9525C45.6672 78.9433 46.33 79.09 46.9334 79.3808C47.2377 79.5264 47.5216 79.7111 47.778 79.9302C48.0375 80.1468 48.2736 80.3902 48.4822 80.6562C48.8939 81.1873 49.2205 81.7792 49.4502 82.4107C49.6797 83.0337 49.8238 83.685 49.8786 84.3467Z" fill="#263238"/>
    <path d="M50.319 84.0974C50.3106 83.6224 50.2693 83.1486 50.1956 82.6793C50.129 82.2107 50.0328 81.7467 49.9076 81.2902C49.6692 80.3749 49.3035 79.4975 48.821 78.6839C48.5817 78.2777 48.3098 77.8916 48.0079 77.5295C47.7013 77.1716 47.3671 76.8383 47.0085 76.5325C46.6477 76.2256 46.2606 75.9511 45.8517 75.7121C45.4439 75.4701 45.0202 75.2558 44.5836 75.0708C45.4926 75.3743 46.3417 75.8337 47.0932 76.4284C47.468 76.7286 47.8147 77.0624 48.1289 77.4255C48.4416 77.7911 48.7233 78.182 48.9711 78.5943C49.4565 79.424 49.8161 80.3211 50.0383 81.2563C50.2666 82.1852 50.3611 83.1419 50.319 84.0974Z" fill="#263238"/>
    <path d="M67.6777 93.9541C67.9003 93.8839 72.4935 90.6968 74.0471 86.031C74.3109 85.2372 68.2899 76.9342 65.369 75.4145C63.8952 74.6473 55.1542 75.8985 54.629 76.0654C52.5769 76.7213 46.5559 85.3002 46.8366 87.9234C46.9383 88.8914 49.8157 92.6473 54.8347 94.7382C56.0593 95.2585 62.3634 95.636 67.6777 93.9541Z" fill="#FF8551"/>
    <path d="M48.5501 83.3956C47.9012 84.1359 47.3662 84.9686 46.9625 85.8664C46.7701 86.3191 46.6272 86.7914 46.5366 87.2749C46.4439 87.7536 46.3929 88.2394 46.3842 88.7269C46.3855 88.7306 46.388 88.7338 46.3913 88.736C46.3945 88.7383 46.3984 88.7395 46.4023 88.7395C46.4063 88.7395 46.4101 88.7383 46.4134 88.736C46.4166 88.7338 46.4191 88.7306 46.4205 88.7269C46.5342 88.255 46.6625 87.7903 46.8052 87.3281C46.948 86.8659 47.1223 86.4303 47.2892 85.985C47.6186 85.0796 48.0548 84.2169 48.5888 83.415C48.6081 83.4029 48.5694 83.3738 48.5501 83.3956Z" fill="#263238"/>
    <path d="M48.7944 90.7137C48.3465 90.2585 47.946 89.7591 47.599 89.223C47.2298 88.5937 47.0736 87.8621 47.1537 87.1369C47.1537 87.1127 47.1198 87.1031 47.1174 87.1369C47.039 87.5194 46.9952 87.9082 46.9867 88.2985C47.0016 88.666 47.1001 89.0252 47.2747 89.3488C47.6159 89.9659 48.187 90.3822 48.7606 90.7694C48.7896 90.779 48.8138 90.7355 48.7944 90.7137Z" fill="#263238"/>
    <path d="M67.1816 76.6656C66.8016 76.3074 66.4338 75.9396 66.0224 75.6129C65.8413 75.4585 65.6393 75.3306 65.4222 75.233C65.1996 75.1434 62.6828 74.8095 54.9654 75.7847C54.4361 75.886 53.9558 76.1611 53.6005 76.5664C53.177 76.985 52.7971 77.4473 52.3905 77.8901C52.3712 77.9095 52.3905 77.9337 52.4172 77.9167C52.7971 77.5755 53.177 77.2319 53.5618 76.8955C53.9466 76.5591 54.358 76.2106 54.8372 76.1453C58.8132 75.5911 64.2873 75.1967 65.7272 75.6952C65.9751 75.8219 66.2027 75.985 66.4023 76.1792C66.6443 76.3607 66.8863 76.5301 67.1283 76.7164C67.1671 76.743 67.213 76.6971 67.1816 76.6656Z" fill="#263238"/>
    <path d="M73.7325 84.4919C73.2722 83.679 72.7067 82.9304 72.0506 82.2655C71.6755 81.871 71.2787 81.5007 70.9084 81.1014C70.8915 81.0845 70.8673 81.1014 70.8818 81.1305C71.2883 81.5903 71.6586 82.0815 72.0216 82.5825C72.3846 83.0834 72.704 83.5142 73.0186 84.0006C73.3332 84.487 73.568 84.942 73.8269 85.426C74.107 85.9228 74.3164 86.4563 74.4489 87.0111C74.4489 87.0353 74.4948 87.0304 74.4924 87.0111C74.4074 86.1295 74.1492 85.2734 73.7325 84.4919Z" fill="#263238"/>
    <path d="M73.7664 86.7812C72.0047 91.0356 67.8882 93.8912 67.6777 93.9541C62.3537 95.6481 56.0617 95.2609 54.8348 94.7478C52.5901 93.8161 50.5471 92.4585 48.8186 90.75L48.7944 90.7185C48.7944 90.7185 50.8539 90.0288 51.9792 90.2539C53.1045 90.479 54.7162 92.0641 57.1023 92.0108C59.4884 91.9576 59.5997 90.4911 60.1418 89.54C60.3838 89.0947 61.0808 88.255 62.7264 88.6857C62.7264 88.6857 63.0894 84.6903 63.5056 84.5282C64.0283 84.3273 64.7785 88.4002 64.8826 88.497C64.9866 88.5938 65.4247 88.0323 66.0103 88.497C66.5959 88.9616 67.1114 90.5975 68.803 90.5975C70.8503 90.5975 71.0294 87.7686 72.2612 87.1466C72.7308 86.9179 73.2442 86.7933 73.7664 86.7812Z" fill="white"/>
    <path d="M68.244 83.7998C69.8243 83.6304 70.7874 85.1235 70.9834 86.9675C71.1432 88.4631 70.3663 90.0869 68.849 90.2491C67.3317 90.4112 66.2015 88.7172 66.0539 87.316C65.9063 85.9148 66.5137 83.974 68.244 83.7998Z" fill="#263238"/>
    <path d="M68.1205 84.2015C69.6064 84.0442 70.5115 85.4478 70.6954 87.1805C70.8455 88.5841 70.117 90.1135 68.6892 90.2636C67.2614 90.4136 66.2015 88.8261 66.066 87.5072C65.9304 86.1883 66.5064 84.3733 68.1205 84.2015Z" fill="white"/>
    <path d="M68.5005 85.426C69.6645 85.3026 70.3711 86.394 70.5163 87.7589C70.6325 88.8576 70.0614 90.053 68.9457 90.1789C67.8301 90.3047 67.0097 89.0536 66.8887 88.0202C66.7677 86.9869 67.2372 85.5688 68.5005 85.426Z" fill="#263238"/>
    <path d="M67.639 84.942C68.1666 84.8863 68.4884 85.3849 68.5538 86.002C68.607 86.5005 68.3481 87.0426 67.8399 87.0982C67.3317 87.1539 66.9566 86.5852 66.9058 86.1181C66.8549 85.6511 67.0655 85.0025 67.639 84.942Z" fill="white"/>
    <path d="M57.0297 85.2784C54.98 85.0049 53.7409 86.4424 53.4965 88.2816C53.4506 88.6906 53.4866 89.1047 53.6022 89.4998C53.7178 89.8949 53.9108 90.263 54.17 90.5827C54.4292 90.9025 54.7494 91.1676 55.112 91.3625C55.4745 91.5573 55.8722 91.6782 56.2819 91.718C58.2518 91.9793 59.7038 90.3531 59.8902 88.9543C59.9477 88.5246 59.919 88.0876 59.8058 87.6691C59.6926 87.2505 59.4972 86.8587 59.2309 86.5165C58.9646 86.1742 58.6328 85.8885 58.2549 85.6759C57.8769 85.4634 57.4605 85.3282 57.0297 85.2784Z" fill="#263238"/>
    <path d="M57.1773 85.6898C55.2413 85.4332 54.0845 86.7836 53.8546 88.5139C53.8121 88.898 53.8463 89.2866 53.9554 89.6574C54.0644 90.0281 54.246 90.3734 54.4896 90.6733C54.7332 90.9733 55.034 91.2218 55.3745 91.4044C55.715 91.5871 56.0884 91.7002 56.4731 91.7373C58.3244 91.9793 59.6917 90.4548 59.8611 89.1407C59.9152 88.7373 59.8884 88.3272 59.7823 87.9343C59.6762 87.5414 59.4929 87.1736 59.243 86.8523C58.9932 86.531 58.6818 86.2628 58.3271 86.0632C57.9724 85.8636 57.5816 85.7366 57.1773 85.6898Z" fill="white"/>
    <path d="M57.4678 86.9046C55.9577 86.7038 55.0478 87.7613 54.8663 89.1141C54.8331 89.4151 54.8601 89.7196 54.9456 90.0101C55.0311 90.3006 55.1734 90.5712 55.3643 90.8062C55.5552 91.0413 55.7909 91.236 56.0577 91.3793C56.3245 91.5225 56.6171 91.6113 56.9184 91.6406C58.3704 91.8318 59.4352 90.6339 59.5804 89.6054C59.623 89.2887 59.6018 88.9667 59.5181 88.6584C59.4344 88.3501 59.2899 88.0616 59.093 87.81C58.8962 87.5583 58.651 87.3486 58.3719 87.1931C58.0928 87.0376 57.7854 86.9395 57.4678 86.9046Z" fill="#263238"/>
    <path d="M56.1441 86.3795C55.4592 86.2875 55.0454 86.7691 54.9655 87.3814C54.9501 87.5179 54.962 87.6561 55.0005 87.788C55.0391 87.9199 55.1035 88.0428 55.1899 88.1495C55.2764 88.2563 55.3833 88.3447 55.5043 88.4098C55.6253 88.4749 55.758 88.5152 55.8948 88.5284C56.1763 88.5593 56.4588 88.4809 56.6841 88.3093C56.9093 88.1376 57.0599 87.886 57.1048 87.6064C57.1241 87.4625 57.1143 87.3162 57.0762 87.1761C57.0381 87.036 56.9723 86.9049 56.8828 86.7906C56.7933 86.6763 56.6818 86.581 56.555 86.5104C56.4281 86.4398 56.2884 86.3953 56.1441 86.3795Z" fill="white"/>
    <path d="M62.6393 88.6301C62.6708 88.7995 63.7356 89.3827 63.8493 89.3778C63.9631 89.373 64.9867 88.6785 65.0061 88.5067C65.0254 88.3348 64.0574 88.3203 63.8106 88.3348C63.5638 88.3493 62.6103 88.4607 62.6393 88.6301Z" fill="#263238"/>
    <path d="M65.8434 89.69C65.6861 89.932 65.5263 90.191 65.3594 90.416C65.2747 90.5286 65.1782 90.6316 65.0714 90.7234C65.0305 90.7579 64.9813 90.7813 64.9286 90.7911C64.8793 90.7834 64.8327 90.7634 64.7931 90.7331C64.6951 90.6493 64.6131 90.5485 64.5511 90.4354C64.4776 90.3148 64.4122 90.1895 64.3551 90.0603C64.2399 89.7965 64.1412 89.5257 64.0598 89.2496L63.9122 88.7438L63.7646 89.2496C63.6669 89.5872 63.5406 89.9159 63.3871 90.2321C63.3128 90.3872 63.2236 90.5347 63.1209 90.6726C63.0346 90.8029 62.9117 90.9048 62.7676 90.9654H62.7192H62.6683C62.6301 90.9648 62.5921 90.9608 62.5546 90.9533C62.4705 90.937 62.3891 90.9094 62.3126 90.871C62.1595 90.7899 62.0172 90.6899 61.8891 90.5733C61.6251 90.3305 61.3867 90.0613 61.1776 89.7699C61.3399 90.0971 61.5459 90.4007 61.7899 90.6726C61.9157 90.8139 62.0607 90.9369 62.2206 91.038C62.3941 91.1584 62.6077 91.2062 62.816 91.1711C63.0146 91.1101 63.189 90.9882 63.3145 90.8226C63.4356 90.6724 63.541 90.5102 63.6291 90.3386C63.801 90.009 63.9412 89.6638 64.0477 89.3077H63.7525C63.8407 89.5983 63.9515 89.8815 64.084 90.1547C64.1552 90.2933 64.2361 90.4267 64.326 90.554C64.4167 90.6931 64.5354 90.8118 64.6745 90.9025C64.7578 90.9543 64.8548 90.9796 64.9528 90.9751C65.0457 90.9565 65.1304 90.9091 65.1948 90.8395C65.3051 90.7297 65.3996 90.6051 65.4755 90.4693C65.6203 90.2206 65.7433 89.9599 65.8434 89.69Z" fill="#263238"/>
    <path d="M71.5981 88.2501C72.4645 88.163 73.3309 88.1025 74.1972 88.0638C75.0636 88.0251 75.9348 87.996 76.8011 88.0081C77.2367 88.0081 77.6699 88.0081 78.1031 88.0202C78.5363 88.0323 78.9719 88.0517 79.4051 88.0759C80.2738 88.1122 81.1378 88.1969 82.0066 88.2719C81.5758 88.2017 81.1475 88.1291 80.7143 88.0759C80.2811 88.0227 79.8479 87.9743 79.4147 87.9404C78.546 87.8654 77.6748 87.8412 76.8011 87.8315C75.9275 87.8218 75.0587 87.8629 74.19 87.9283C73.7568 87.9622 73.3212 88.0057 72.888 88.0541C72.4548 88.1025 72.0241 88.1679 71.5981 88.2501Z" fill="#263238"/>
    <path d="M71.9635 88.7462C72.3555 88.7462 72.7476 88.7632 73.1396 88.7801C73.5317 88.797 73.9237 88.8091 74.3133 88.8309C75.095 88.8696 75.8766 88.9156 76.6559 88.9882C77.0479 89.0148 77.4375 89.056 77.8272 89.0923L78.9936 89.2254L79.5768 89.2956L80.1576 89.3778C80.5472 89.4238 80.932 89.4988 81.3216 89.5497C80.5593 89.3657 79.7898 89.206 79.0105 89.0899C78.2313 88.9737 77.4545 88.8842 76.6704 88.814C75.8863 88.7438 75.1047 88.7075 74.3182 88.6954C73.5317 88.6833 72.7476 88.6906 71.9635 88.7462Z" fill="#263238"/>
    <path d="M71.7531 89.2448C72.0773 89.2908 72.4016 89.3367 72.7211 89.39C73.0405 89.4432 73.3648 89.4892 73.6891 89.5449C74.3328 89.6586 74.9765 89.7675 75.6251 89.8933C76.2736 90.0192 76.9052 90.1474 77.5441 90.2854C78.183 90.4233 78.817 90.5685 79.4583 90.7089C79.1453 90.604 78.8332 90.5048 78.5218 90.4112C78.2072 90.3241 77.8926 90.2346 77.5731 90.1547C76.9415 89.9853 76.3002 89.8498 75.6589 89.7215C75.0176 89.5933 74.3691 89.494 73.7229 89.4118C73.0768 89.3295 72.4089 89.2641 71.7531 89.2448Z" fill="#263238"/>
    <path d="M52.2479 91.0695C51.7106 91.0307 51.1685 91.0235 50.6289 91.0162C50.0892 91.009 49.5496 91.0162 49.0075 91.0477C47.9282 91.0888 46.8513 91.1784 45.7768 91.2897C44.7023 91.401 43.6302 91.5704 42.5703 91.7737C42.0403 91.8729 41.5127 91.9915 40.9852 92.1125C40.7214 92.173 40.4625 92.2431 40.2011 92.3133L39.4194 92.5239C40.477 92.3036 41.5297 92.0762 42.5945 91.9068C43.1269 91.8148 43.6593 91.735 44.1917 91.6648C44.7241 91.5946 45.2589 91.5196 45.7961 91.4663C46.8658 91.3332 47.9403 91.2485 49.0147 91.1783C50.0892 91.1082 51.1685 91.0719 52.2479 91.0695Z" fill="#263238"/>
    <path d="M51.8654 91.7325C50.8974 91.7809 49.9294 91.885 48.9614 92.0132C47.9934 92.1415 47.0254 92.3085 46.0768 92.4972C45.1281 92.686 44.1698 92.9038 43.2308 93.1579C42.2919 93.412 41.3578 93.7024 40.443 94.0291C40.9149 93.9081 41.3771 93.7581 41.849 93.6443L42.5557 93.458L43.2623 93.2886C43.7463 93.1724 44.2109 93.0684 44.6828 92.9595C45.1547 92.8506 45.6339 92.7562 46.1106 92.6691C47.0617 92.473 48.02 92.3061 48.9808 92.1536C49.4648 92.0737 49.9488 92.0011 50.4328 91.9334C50.9168 91.8656 51.3838 91.793 51.8654 91.7325Z" fill="#263238"/>
    <path d="M52.1945 92.3157C51.3911 92.4392 50.5997 92.6158 49.8108 92.7997C49.0219 92.9837 48.2402 93.2208 47.4634 93.4556C46.6866 93.6903 45.9194 93.9589 45.162 94.2493C44.7796 94.3897 44.4045 94.5421 44.027 94.6946C43.6495 94.8471 43.2816 95.0116 42.9114 95.1786C43.6761 94.9124 44.4384 94.6317 45.2055 94.3752C45.9727 94.1186 46.7422 93.8597 47.5166 93.6225C48.291 93.3854 49.0654 93.1531 49.8447 92.9304C50.2343 92.8167 50.6239 92.7126 51.016 92.6086C51.408 92.5045 51.8 92.4125 52.1945 92.3157Z" fill="#263238"/>
    <path d="M69.362 99.6241C69.3487 99.4841 69.3764 99.3432 69.4417 99.2186C69.507 99.094 69.6071 98.9911 69.7298 98.9223C69.612 98.8506 69.52 98.7432 69.4674 98.6157C69.4147 98.4882 69.4041 98.3472 69.437 98.2133C69.5725 97.7728 70.1146 97.8188 70.1146 97.8188C70.0093 97.7291 69.9394 97.6049 69.9172 97.4684C69.895 97.3318 69.9221 97.1919 69.9936 97.0734C70.1824 96.6862 70.7632 96.8919 70.7632 96.8919C70.6529 96.7746 70.5857 96.6234 70.5725 96.463C70.5594 96.3025 70.601 96.1424 70.6906 96.0087C70.8164 95.7957 71.2157 95.8223 71.2423 95.786C72.1523 94.605 74.0592 92.2092 78.7734 93.366C82.355 94.2493 83.4779 97.7075 83.3278 100.718C83.3278 100.764 83.5698 100.786 83.5698 101.112C83.577 101.191 83.5612 101.271 83.5243 101.341C83.4873 101.411 83.4308 101.468 83.3617 101.507C83.4376 101.572 83.4887 101.661 83.5063 101.759C83.524 101.858 83.5071 101.959 83.4585 102.047C83.4134 102.141 83.3378 102.218 83.2438 102.264C83.1498 102.31 83.043 102.323 82.9406 102.301C83.0035 102.422 83.3085 102.613 83.1391 103.051C83.0888 103.173 82.9984 103.275 82.8827 103.339C82.7671 103.403 82.633 103.426 82.5026 103.404C82.5725 103.498 82.6119 103.612 82.6153 103.729C82.6188 103.846 82.5862 103.962 82.522 104.06C82.4663 104.157 82.0646 104.181 81.9968 104.225C85.8688 106.221 91.8946 106.161 93.1167 106.645C97.117 108.225 92.4101 112.085 88.9567 110.882C88.7389 110.807 89.0947 110.398 89.3246 110.415C93.2159 110.771 95.0309 107.944 92.6956 107.288C91.1807 106.865 85.2445 106.937 81.6871 104.914C81.3967 104.75 81.2031 105.156 81.1329 105.236C79.2937 107.085 75.4314 107.625 72.9847 106.26C69.8629 104.52 69.5822 101.732 69.6597 100.21C69.5605 100.149 69.4802 100.063 69.4276 99.9593C69.375 99.8558 69.3523 99.7398 69.362 99.6241Z" fill="#455A64"/>
    <path d="M71.3513 97.9059C72.2539 99.6677 74.1657 100.766 75.9735 101.41C77.8964 102.091 79.961 102.271 81.9727 101.933C82.1227 101.906 82.188 102.139 82.0356 102.175C79.9149 102.537 77.7362 102.333 75.7194 101.584C73.9213 100.909 72.0482 99.8032 71.1432 98.039C71.073 97.889 71.2811 97.768 71.3513 97.9059Z" fill="#263238"/>
    <path d="M70.7341 99.992C72.0366 101.44 73.662 102.56 75.4784 103.261C77.2948 103.963 79.2511 104.227 81.1885 104.031C81.3434 104.014 81.3409 104.254 81.1885 104.273C79.2191 104.469 77.2313 104.198 75.3857 103.483C73.5402 102.769 71.8887 101.63 70.5647 100.159C70.4606 100.048 70.63 99.8782 70.7341 99.992Z" fill="#263238"/>
    <path d="M71.039 95.9143L71.114 96.3184C71.1431 96.4709 71.373 96.4055 71.356 96.2555C71.3415 96.1853 71.3294 96.1152 71.3173 96.0474C71.3295 96.036 71.3401 96.023 71.3488 96.0087C72.3797 94.1138 74.4948 93.487 76.5203 93.4362C76.4175 93.5271 76.3272 93.6313 76.2517 93.746C76.2343 93.7349 76.2142 93.7291 76.1936 93.729C75.2315 93.6724 74.2756 93.9164 73.4583 94.4271C72.641 94.9379 72.0027 95.6902 71.6319 96.5798C71.6319 96.5628 71.6101 96.5507 71.6005 96.5362C71.5109 96.4104 71.3028 96.5362 71.3923 96.6572C73.9817 100.246 78.4103 102.223 82.7663 100.967C82.7984 100.959 82.8259 100.938 82.8427 100.91C82.8595 100.881 82.8642 100.847 82.8559 100.815C82.8475 100.783 82.8268 100.755 82.7982 100.738C82.7696 100.722 82.7355 100.717 82.7034 100.725C82.1046 100.898 81.4901 101.01 80.8691 101.062C81.837 100.367 82.6083 99.4331 83.1076 98.3512C83.1729 98.2109 82.9648 98.0899 82.9019 98.2302C82.3907 99.3464 81.5819 100.3 80.5641 100.987C80.5482 100.997 80.5351 101.012 80.5258 101.029C80.5166 101.045 80.5115 101.064 80.5109 101.083C80.2883 101.083 80.0705 101.083 79.8502 101.083C80.0342 100.936 80.2132 100.783 80.3875 100.628C80.412 100.618 80.4324 100.601 80.4456 100.578C81.2716 99.8334 81.9835 98.9715 82.5582 98.0197C82.5592 98.0157 82.5592 98.0116 82.5582 98.0076C82.6115 97.918 82.6671 97.8285 82.7179 97.7365C82.7303 97.7092 82.732 97.6783 82.7229 97.6498C82.7138 97.6213 82.6944 97.5972 82.6685 97.5821C82.6426 97.5671 82.612 97.5621 82.5827 97.5683C82.5534 97.5745 82.5274 97.5913 82.5098 97.6155L82.488 97.6567C81.8225 95.5053 80.552 93.6564 78.178 93.2547C78.1583 93.2508 78.1379 93.2521 78.1188 93.2585C78.0997 93.2648 78.0826 93.276 78.0691 93.291C78.0596 93.2889 78.0496 93.2889 78.0401 93.291C78.0387 93.2754 78.0336 93.2604 78.0253 93.2471C78.0169 93.2338 78.0055 93.2227 77.9921 93.2147C77.9786 93.2067 77.9635 93.2019 77.9478 93.2009C77.9322 93.1999 77.9165 93.2026 77.9021 93.2087C77.5724 93.3305 77.2863 93.5476 77.0803 93.8325C76.8743 94.1173 76.7577 94.457 76.7454 94.8083C76.7454 94.8083 76.7454 94.8277 76.7454 94.8374C76.5706 94.8507 76.3968 94.875 76.2251 94.91C76.2263 94.9036 76.2263 94.897 76.2251 94.8906C76.1668 94.5597 76.2303 94.2188 76.4038 93.931C76.5772 93.6432 76.849 93.4279 77.1689 93.3249C77.3141 93.2765 77.2512 93.0442 77.106 93.095C76.9859 93.1354 76.8706 93.189 76.7623 93.2547C76.7535 93.2355 76.7391 93.2194 76.7209 93.2086C76.7028 93.1978 76.6818 93.1928 76.6607 93.1942C74.5504 93.2184 72.3216 93.85 71.2036 95.7715C71.1827 95.7643 71.1603 95.7627 71.1386 95.7669C71.117 95.7711 71.0968 95.781 71.0801 95.7954C71.0634 95.8099 71.0509 95.8285 71.0437 95.8494C71.0364 95.8702 71.0348 95.8926 71.039 95.9143ZM81.8782 98.6271C81.8782 96.5435 80.2931 94.6873 78.5725 93.5983C80.6561 94.1501 81.7378 95.924 82.3235 97.9543C82.1807 98.1794 82.0379 98.4069 81.8782 98.6271ZM81.1522 99.5491C81.1615 98.4669 80.9324 97.3959 80.4811 96.4121C80.0298 95.4284 79.3674 94.5562 78.541 93.8573C80.2544 94.9705 81.8008 96.8557 81.6362 98.9611C81.4716 99.1619 81.3119 99.3579 81.1425 99.5491H81.1522ZM77.6819 93.5814L77.7376 93.5499C78.749 94.2272 79.5708 95.1515 80.1252 96.2352C80.6795 97.3189 80.9481 98.5262 80.9054 99.7427C80.9046 99.7623 80.9096 99.7817 80.9199 99.7984C80.7747 99.9509 80.6295 100.101 80.4746 100.246C80.5335 98.9975 80.3134 97.7515 79.8304 96.5986C79.3473 95.4457 78.6133 94.415 77.6819 93.5814ZM78.7395 101.006C78.8778 98.7733 78.2941 96.5553 77.0745 94.6801C77.0582 94.6535 77.0322 94.6344 77.0019 94.6268C77.0234 94.4869 77.065 94.3508 77.1253 94.2227C78.5304 95.9189 79.2648 98.0714 79.1896 100.273C79.1896 100.305 79.2023 100.336 79.225 100.358C79.2477 100.381 79.2785 100.394 79.3106 100.394C79.3427 100.394 79.3734 100.381 79.3961 100.358C79.4188 100.336 79.4316 100.305 79.4316 100.273C79.5088 97.9933 78.7419 95.7657 77.2778 94.017L77.2487 93.9952C77.3182 93.894 77.3994 93.8014 77.4907 93.7193C78.4357 94.556 79.1741 95.6 79.6481 96.7697C80.1221 97.9394 80.3189 99.203 80.2229 100.461C80.0245 100.638 79.8212 100.812 79.6082 100.975C79.593 100.986 79.5807 101.001 79.5723 101.018C79.5639 101.036 79.5597 101.055 79.5598 101.074H79.4219C79.4219 100.955 79.4219 100.832 79.4219 100.716C79.4219 100.599 79.1799 100.563 79.1799 100.716C79.1799 100.829 79.1799 100.943 79.1678 101.054C79.0274 101.042 78.8919 101.028 78.7346 101.006H78.7395ZM78.3716 98.6852C78.391 98.8062 78.4079 98.9272 78.4249 99.0506C77.6971 98.8318 77.0167 98.4789 76.4187 98.01C76.4125 97.9942 76.4024 97.9804 76.3892 97.9698C76.3761 97.9591 76.3604 97.9522 76.3437 97.9495C75.6383 97.3778 75.0681 96.6572 74.6739 95.8393C74.813 95.7353 74.9593 95.6415 75.1119 95.5585C75.819 96.9337 76.9643 98.0339 78.3668 98.6852H78.3716ZM75.3321 95.4497C75.5844 95.329 75.8489 95.2357 76.121 95.1713C75.9054 95.4559 75.7783 95.7976 75.7556 96.1539C75.5969 95.9292 75.4538 95.6939 75.3273 95.4497H75.3321ZM74.2939 96.1757C74.3568 96.1127 74.4222 96.0498 74.4924 95.9893C74.5456 96.103 74.6061 96.2144 74.6666 96.3208C74.651 96.331 74.6384 96.3452 74.6303 96.362C74.4556 96.6612 74.379 97.0077 74.4111 97.3527C74.4432 97.6977 74.5825 98.024 74.8094 98.2859C74.7024 98.3953 74.5811 98.4897 74.4488 98.5666C74.2278 98.2242 74.0968 97.8315 74.068 97.4249C74.0392 97.0184 74.1136 96.6111 74.2842 96.241C74.2926 96.2211 74.2959 96.1995 74.2939 96.1781V96.1757ZM74.8045 96.5483C74.9592 96.7976 75.1307 97.0361 75.3176 97.2622C75.2999 97.278 75.2879 97.2993 75.2837 97.3227C75.2399 97.6028 75.1313 97.8688 74.9667 98.0995C74.7905 97.8874 74.6807 97.6281 74.651 97.3539C74.6213 97.0798 74.673 96.8029 74.7997 96.558L74.8045 96.5483ZM78.1562 97.6833C78.2192 97.9253 78.2772 98.1552 78.3256 98.3924C78.0942 98.2762 77.8696 98.1469 77.6529 98.0052C77.6628 97.9959 77.6703 97.9842 77.6747 97.9713C77.7127 97.8787 77.7797 97.8008 77.8656 97.7494C77.9515 97.6979 78.0518 97.6756 78.1514 97.6857L78.1562 97.6833ZM77.4593 97.8769C77.2206 97.7118 76.9934 97.5307 76.7793 97.3348V97.3203C76.8405 97.1018 76.9619 96.905 77.1296 96.7522C77.2974 96.5995 77.5047 96.497 77.7279 96.4564C77.8621 96.7794 77.9801 97.1089 78.0812 97.4437C77.9459 97.4481 77.8146 97.4916 77.7034 97.5689C77.5922 97.6462 77.5057 97.754 77.4544 97.8793L77.4593 97.8769ZM76.3582 96.9089C76.4032 96.6377 76.5293 96.3865 76.7197 96.1882C76.9102 95.99 77.1562 95.854 77.4254 95.7981C77.4956 95.9409 77.5658 96.0837 77.6311 96.2313C77.3913 96.2826 77.1686 96.3945 76.9843 96.5563C76.8 96.7182 76.6602 96.9245 76.5784 97.1557C76.5034 97.0783 76.4284 96.9984 76.3533 96.9162L76.3582 96.9089ZM77.5682 100.749C77.9618 100.613 78.2955 100.343 78.512 99.9872C78.5249 100.31 78.5249 100.632 78.512 100.955C78.1917 100.906 77.8743 100.839 77.5609 100.757L77.5682 100.749ZM76.4308 100.365C76.696 100.21 76.9168 99.9895 77.0719 99.7245C77.2271 99.4596 77.3113 99.1591 77.3165 98.8522C77.6617 99.028 78.0222 99.1722 78.3934 99.2829C78.4154 99.2903 78.4392 99.2903 78.4612 99.2829C78.4733 99.387 78.4805 99.491 78.4902 99.5951C78.4734 99.5975 78.4576 99.6044 78.4444 99.6151C78.4312 99.6257 78.4211 99.6397 78.4152 99.6556C78.3195 99.8833 78.1715 100.085 77.9831 100.245C77.7947 100.405 77.5713 100.518 77.331 100.575C77.3102 100.579 77.2911 100.589 77.2763 100.604C77.2616 100.62 77.2519 100.639 77.2487 100.66C76.9559 100.58 76.6921 100.481 76.4235 100.372L76.4308 100.365ZM75.0659 99.704C75.3979 99.6161 75.6984 99.4365 75.9329 99.1857C76.1675 98.9349 76.3266 98.623 76.3921 98.2859C76.6074 98.4472 76.8329 98.5943 77.0672 98.7263C77.0862 99.0357 77.0126 99.3436 76.8557 99.6109C76.6988 99.8782 76.4657 100.093 76.1864 100.227C76.1725 100.233 76.1602 100.242 76.1501 100.253C75.7782 100.092 75.4162 99.9082 75.0659 99.704ZM74.4682 99.3265C75.2111 99.1982 75.6056 98.5303 75.8984 97.8745C75.9903 97.9568 76.0823 98.0366 76.1791 98.1165C76.1376 98.4585 75.9869 98.7779 75.7492 99.0273C75.5116 99.2767 75.1998 99.4428 74.8602 99.5007C74.8355 99.5047 74.8131 99.5176 74.7973 99.537C74.686 99.4765 74.5771 99.4015 74.4682 99.3289V99.3265ZM74.0084 98.9998C74.3773 98.9147 74.7138 98.7249 74.9774 98.4531C75.241 98.1814 75.4205 97.8393 75.4942 97.4679C75.5668 97.5478 75.6394 97.6276 75.7169 97.7099C75.4458 98.3246 75.0877 99.0482 74.3351 99.1111C74.315 99.1129 74.2958 99.1198 74.2792 99.1313C74.2627 99.1428 74.2494 99.1583 74.2407 99.1764C74.1608 99.1159 74.0858 99.0579 74.0084 99.0022V98.9998ZM73.459 97.3808C73.5823 97.1217 73.7281 96.8739 73.8946 96.6403C73.8111 96.9846 73.7977 97.3422 73.8551 97.6918C73.9124 98.0414 74.0395 98.3759 74.2286 98.6755C74.0997 98.7298 73.9648 98.7687 73.8269 98.7917C73.6824 98.608 73.5776 98.3965 73.5189 98.1703C73.4601 97.9442 73.4488 97.7083 73.4856 97.4776C73.4887 97.4609 73.4879 97.4437 73.4833 97.4273C73.4787 97.411 73.4704 97.3959 73.459 97.3832V97.3808ZM73.096 98.2399C73.142 98.1213 73.188 97.9979 73.2364 97.8866C73.2488 98.095 73.2971 98.2996 73.3792 98.4916C73.2824 98.4117 73.188 98.3294 73.096 98.252V98.2399ZM72.4015 97.5357C72.4222 97.5213 72.4369 97.4998 72.4426 97.4752C72.6791 96.6728 73.1372 95.9534 73.7644 95.3999C74.3916 94.8463 75.1623 94.481 75.9879 94.3461C75.9528 94.5471 75.9528 94.7526 75.9879 94.9535C75.4474 95.0931 74.9404 95.34 74.4972 95.6795C73.6841 96.2966 73.2606 97.1461 72.9024 98.0705C72.733 97.8963 72.566 97.7172 72.4015 97.5381V97.5357ZM76.1186 93.9638C76.0992 94.0073 76.0799 94.0509 76.0629 94.0944H76.0387C75.161 94.2197 74.3371 94.5923 73.6634 95.1688C72.9896 95.7452 72.494 96.5015 72.2345 97.3493C72.0796 97.1678 71.9296 96.9815 71.7844 96.7927C71.7898 96.7864 71.7939 96.779 71.7965 96.771C72.1319 95.9093 72.7296 95.1749 73.5052 94.6716C74.2808 94.1683 75.1951 93.9215 76.1186 93.9662V93.9638ZM76.4985 95.0963C76.6717 95.0716 76.8463 95.0579 77.0213 95.0552C77.1253 95.227 77.2245 95.4037 77.3189 95.5803C77.0443 95.6464 76.7923 95.7843 76.5886 95.98C76.3849 96.1756 76.2369 96.4218 76.1597 96.6935C76.1017 96.6258 76.0484 96.558 75.9952 96.4878C75.9636 96.2341 75.9928 95.9765 76.0803 95.7363C76.1679 95.496 76.3112 95.28 76.4985 95.106V95.0963Z" fill="#263238"/>
    <path d="M70.2986 103.6C70.3107 103.753 70.5406 103.753 70.5406 103.6C70.4768 102.878 70.616 102.152 70.9423 101.504C71.0222 101.592 71.1044 101.679 71.1843 101.761C70.9453 102.165 70.7918 102.614 70.7331 103.08C70.6744 103.545 70.7118 104.018 70.8431 104.469C70.8514 104.499 70.8715 104.525 70.899 104.541C70.9264 104.557 70.959 104.561 70.9895 104.552C71.02 104.544 71.0459 104.524 71.0615 104.497C71.0772 104.469 71.0813 104.437 71.073 104.406C70.953 103.996 70.9167 103.566 70.9662 103.141C71.0156 102.717 71.1499 102.307 71.361 101.935C71.5013 102.071 71.6441 102.204 71.7917 102.33C71.4789 102.826 71.3216 103.404 71.3401 103.99C71.3587 104.576 71.5522 105.143 71.8958 105.618C71.9853 105.744 72.191 105.618 72.1039 105.497C71.7863 105.065 71.6045 104.549 71.5817 104.013C71.5589 103.477 71.696 102.947 71.9756 102.489C72.1112 102.603 72.2467 102.71 72.387 102.816C72.3667 102.819 72.3477 102.828 72.3322 102.842C72.3168 102.856 72.3056 102.874 72.2999 102.894C72.1366 103.383 72.0881 103.903 72.1582 104.413C72.2282 104.924 72.415 105.412 72.7041 105.839C72.7192 105.86 72.7405 105.875 72.7649 105.884C72.7894 105.892 72.8159 105.893 72.8407 105.886C72.8656 105.879 72.8876 105.864 72.9039 105.844C72.9201 105.824 72.9298 105.799 72.9315 105.773C73.9836 105.678 74.9792 105.255 75.7775 104.563C75.9856 104.626 76.1937 104.687 76.4067 104.738C76.0225 105.143 75.5582 105.464 75.0433 105.681C74.5284 105.898 73.9741 106.005 73.4155 105.996C73.3834 105.996 73.3527 106.009 73.33 106.031C73.3073 106.054 73.2945 106.085 73.2945 106.117C73.2945 106.149 73.3073 106.18 73.33 106.203C73.3527 106.225 73.3834 106.238 73.4155 106.238C74.0162 106.247 74.6121 106.13 75.1646 105.894C75.717 105.658 76.2136 105.309 76.622 104.868C76.6387 104.849 76.6488 104.826 76.6511 104.801C76.7939 104.832 76.9366 104.859 77.0818 104.885C76.7377 105.677 76.158 106.344 75.4217 106.795C75.3944 106.811 75.3747 106.837 75.3667 106.868C75.3588 106.898 75.3633 106.931 75.3794 106.958C75.3954 106.985 75.4216 107.005 75.4523 107.013C75.4829 107.021 75.5154 107.016 75.5427 107C76.3221 106.527 76.9353 105.824 77.2972 104.987C77.3032 104.965 77.3032 104.943 77.2972 104.922C77.4521 104.946 77.6094 104.965 77.7667 104.984C77.5656 105.688 77.1979 106.333 76.6946 106.865C76.5882 106.976 76.7576 107.146 76.864 107.034C77.4054 106.464 77.7984 105.769 78.0087 105.011L78.2313 105.028C78.1169 105.699 77.7833 106.314 77.2827 106.775C77.169 106.882 77.3383 107.051 77.4521 106.945C77.9972 106.444 78.3564 105.774 78.4709 105.043L78.8775 105.057C78.7471 105.661 78.461 106.221 78.0474 106.681C77.9434 106.795 78.1128 106.964 78.2168 106.85C78.6733 106.343 78.9865 105.723 79.1243 105.055C79.3357 105.055 79.5462 105.047 79.7559 105.033C79.7193 105.523 79.4916 105.979 79.1219 106.303C79.0082 106.407 79.1776 106.574 79.2913 106.473C79.7079 106.1 79.9616 105.579 79.9979 105.021L80.2545 104.997C80.4069 104.98 80.4093 104.74 80.2545 104.755C78.5319 104.95 76.7874 104.729 75.1683 104.109C73.5493 103.489 72.1031 102.489 70.952 101.192C70.8576 101.086 70.71 101.221 70.7681 101.333C70.7581 101.341 70.7498 101.35 70.7438 101.362C70.3873 102.051 70.2329 102.827 70.2986 103.6ZM74.265 105.207C74.065 104.788 73.9951 104.318 74.0641 103.859C74.5329 104.096 75.0182 104.299 75.5161 104.467C75.1409 104.776 74.7206 105.027 74.2698 105.21L74.265 105.207ZM73.5027 105.449C73.248 104.812 73.1791 104.115 73.3042 103.44C73.4809 103.549 73.6624 103.653 73.8439 103.753V103.772C73.7582 104.289 73.8299 104.82 74.0496 105.297C73.8702 105.356 73.6876 105.405 73.5027 105.444V105.449ZM72.5347 102.961C72.5358 102.951 72.5358 102.94 72.5347 102.93C72.7186 103.063 72.9049 103.194 73.0985 103.315C73.0854 103.33 73.0763 103.348 73.0719 103.368C72.9342 104.081 72.9996 104.818 73.2607 105.495C73.1469 105.514 73.0332 105.529 72.917 105.541C72.8993 105.543 72.8821 105.548 72.8667 105.557C72.8512 105.565 72.8379 105.577 72.8275 105.592C72.5883 105.201 72.4379 104.762 72.3869 104.307C72.3359 103.852 72.3855 103.391 72.5322 102.956L72.5347 102.961Z" fill="#263238"/>
    <path d="M75.8742 102.656C77.9216 103.612 80.194 103.433 82.3816 103.237C82.5365 103.223 82.5341 103.462 82.3816 103.479C80.1431 103.68 77.8465 103.842 75.7532 102.865C75.6129 102.799 75.746 102.591 75.8742 102.656Z" fill="#263238"/>
    <path d="M82.43 101.398L83.3375 101.296C83.4924 101.279 83.49 101.519 83.3375 101.538L82.43 101.64C82.28 101.664 82.28 101.425 82.43 101.398Z" fill="#263238"/>
    <path d="M70.1388 97.8164C70.9669 99.693 72.4979 101.17 74.4029 101.93C74.5456 101.986 74.4827 102.218 74.3399 102.16C72.376 101.384 70.7953 99.8675 69.938 97.9374C69.8702 97.7995 70.0759 97.676 70.1388 97.8164Z" fill="#263238"/>
    <path d="M70.906 96.7056C72.3345 98.5671 74.1973 100.05 76.3316 101.025C76.472 101.091 76.351 101.296 76.2106 101.233C74.0412 100.237 72.1492 98.7239 70.7003 96.8266C70.5962 96.7032 70.8043 96.5846 70.906 96.7056Z" fill="#263238"/>
    <path d="M76.7261 101.175C76.7582 101.175 76.789 101.188 76.8117 101.211C76.8344 101.233 76.8471 101.264 76.8471 101.296C76.8471 101.328 76.8344 101.359 76.8117 101.382C76.789 101.405 76.7582 101.417 76.7261 101.417C76.694 101.417 76.6632 101.405 76.6405 101.382C76.6179 101.359 76.6051 101.328 76.6051 101.296C76.6051 101.264 76.6179 101.233 76.6405 101.211C76.6632 101.188 76.694 101.175 76.7261 101.175Z" fill="#263238"/>
    <path d="M76.4962 102.124C78.5599 102.803 80.7733 102.887 82.8825 102.366C83.0326 102.33 83.0979 102.56 82.9479 102.596C80.7967 103.129 78.5389 103.045 76.4332 102.354C76.288 102.303 76.351 102.071 76.4962 102.124Z" fill="#263238"/>
    <path d="M75.2886 102.422C75.3207 102.422 75.3515 102.434 75.3742 102.457C75.3969 102.48 75.4096 102.511 75.4096 102.543C75.4096 102.575 75.3969 102.606 75.3742 102.628C75.3515 102.651 75.3207 102.664 75.2886 102.664C75.2565 102.664 75.2257 102.651 75.203 102.628C75.1804 102.606 75.1676 102.575 75.1676 102.543C75.1676 102.511 75.1804 102.48 75.203 102.457C75.2257 102.434 75.2565 102.422 75.2886 102.422Z" fill="#263238"/>
    <path d="M69.8606 100.353C69.8185 100.275 69.7821 100.194 69.7517 100.111C69.6984 99.9654 69.9283 99.9024 69.9816 100.048C70.1013 100.38 70.3222 100.667 70.6132 100.868C70.739 100.955 70.6132 101.163 70.4922 101.076L70.4172 101.018C70.1975 101.508 70.1139 102.048 70.1752 102.581C70.1921 102.734 69.9525 102.734 69.9332 102.581C69.873 101.989 69.9786 101.392 70.2381 100.856C70.1603 100.782 70.089 100.701 70.0251 100.614C69.9594 100.806 69.9187 101.005 69.9041 101.207C69.892 101.362 69.6621 101.362 69.6621 101.207C69.6806 100.913 69.7476 100.624 69.8606 100.353Z" fill="#263238"/>
    <path d="M80.6973 104.687L81.3144 104.595C81.3338 104.592 81.3534 104.594 81.3718 104.601C81.3903 104.607 81.4071 104.617 81.4209 104.631C81.4631 104.518 81.5303 104.416 81.6174 104.332C81.7046 104.248 81.8094 104.185 81.9243 104.147C82.0695 104.099 82.1324 104.331 81.9872 104.389C81.8871 104.423 81.7988 104.484 81.7328 104.567C81.6667 104.649 81.6256 104.749 81.6145 104.854C81.6 105.006 81.3604 105.006 81.3725 104.854L80.7578 104.943C80.6102 104.938 80.5449 104.709 80.6973 104.687Z" fill="#263238"/>
</svg>
