<svg viewBox="0 0 121 121" fill="none" xmlns="http://www.w3.org/2000/svg">
    <path d="M85.5349 66.7291V71.5546H86.6481C86.5904 71.0464 86.5904 70.5333 86.6481 70.0251C86.7546 69.4564 87.9646 67.9875 87.9307 66.7291H85.5349Z" fill="#E0E0E0"/>
    <path d="M94.4478 66.7291V71.5546H95.5634C95.5057 71.0464 95.5057 70.5333 95.5634 70.0251C95.6699 69.4564 96.8799 67.9875 96.8436 66.7291H94.4478Z" fill="#E0E0E0"/>
    <path d="M103.174 66.7291V71.5546H102.059C102.116 71.0464 102.116 70.5333 102.059 70.0251C101.952 69.4564 100.742 67.9875 100.779 66.7291H103.174Z" fill="#E0E0E0"/>
    <path d="M110.889 66.7291V71.5546H109.776C109.834 71.0464 109.834 70.5333 109.776 70.0251C109.67 69.4564 108.46 67.9875 108.493 66.7291H110.889Z" fill="#E0E0E0"/>
    <path d="M111.475 42.9114H84.7775V66.8864H111.475V42.9114Z" fill="#EBEBEB"/>
    <path d="M104.283 42.9114L104.481 66.8864H111.473V42.909L104.283 42.9114Z" fill="#E0E0E0"/>
    <path d="M103.119 44.6756H85.9778V50.7765H103.119V44.6756Z" fill="#E0E0E0"/>
    <path d="M103.119 51.9913H85.9778V58.0921H103.119V51.9913Z" fill="#E0E0E0"/>
    <path d="M103.119 59.3069H85.9778V65.4078H103.119V59.3069Z" fill="#E0E0E0"/>
    <path d="M92.5482 36.0217L91.8101 42.8824H101.282L102.068 36.0217H92.5482Z" fill="#E0E0E0"/>
    <path d="M92.9377 36.5154L92.219 42.517H100.766L101.459 36.5154H92.9377Z" fill="#F5F5F5"/>
    <path d="M94.3777 37.5245L93.9348 41.5078H99.329L99.6049 37.5245H94.3777Z" fill="#E0E0E0"/>
    <path d="M101.73 38.9765L103.685 42.909L101.282 42.8824L101.759 38.72" fill="#E0E0E0"/>
    <path d="M17.2135 21.325C17.5941 21.3868 17.9672 21.4881 18.3267 21.6275C18.6988 21.7304 19.059 21.8723 19.4012 22.051C19.02 21.9921 18.6466 21.8906 18.288 21.7485C17.9154 21.647 17.5551 21.505 17.2135 21.325Z" fill="#E0E0E0"/>
    <path d="M44.9951 61.1558V70.2308H43.7803L42.1492 61.0542L44.9951 61.1558Z" fill="#E0E0E0"/>
    <path d="M33.9502 61.1558V70.2308H32.7329L31.1042 61.0542L33.9502 61.1558Z" fill="#E0E0E0"/>
    <path d="M20.1368 61.1558V70.2308H21.3517L22.9828 61.0542L20.1368 61.1558Z" fill="#E0E0E0"/>
    <path d="M12.3783 61.1558V70.2308H13.5931L15.2242 61.0542L12.3783 61.1558Z" fill="#E0E0E0"/>
    <path d="M37.4036 41.1957C37.4036 41.1957 42.2049 39.8114 43.5286 41.6579C44.8524 43.5043 44.9952 61.2817 44.9952 61.2817C44.9952 61.2817 36.4259 61.4365 36.2686 61.2817C36.1113 61.1268 37.4036 41.1957 37.4036 41.1957Z" fill="#E0E0E0"/>
    <path d="M12.6228 58.0389L12.4123 27.2105C12.4058 26.2645 12.5874 25.3267 12.9465 24.4515C13.3055 23.5763 13.8349 22.7811 14.5038 22.1122C15.1727 21.4433 15.9679 20.9139 16.8431 20.5549C17.7183 20.1958 18.6561 20.0142 19.6021 20.0207H30.918C31.8581 20.0207 32.7887 20.2087 33.655 20.5737C34.5214 20.9386 35.306 21.4731 35.9628 22.1457C36.6196 22.8182 37.1353 23.6154 37.4796 24.4901C37.8239 25.3649 37.9897 26.2997 37.9675 27.2395L37.2415 58.0389H12.6228Z" fill="#EBEBEB"/>
    <path d="M12.6228 58.0389C12.6228 58.0389 16.9788 51.6041 22.1116 51.3935C27.2444 51.183 38.2893 51.3935 38.2893 51.3935C38.2893 51.3935 43.1874 51.5775 43.5286 57.6468V61.226H12.6228V58.0389Z" fill="#EBEBEB"/>
    <path d="M22.6537 51.5775L35.3418 51.5097C36.6655 51.5097 38.1732 51.3403 39.4558 51.7057C43.2382 52.7778 43.7924 57.6154 43.4923 60.9501C43.4802 61.0881 43.6932 61.0881 43.7053 60.9501C43.9473 58.155 43.6617 54.237 41.2708 52.3736C39.889 51.2992 38.2869 51.2822 36.6389 51.2895L22.6537 51.3645C22.6255 51.3645 22.5984 51.3757 22.5784 51.3957C22.5585 51.4157 22.5472 51.4427 22.5472 51.471C22.5472 51.4992 22.5585 51.5263 22.5784 51.5463C22.5984 51.5662 22.6255 51.5775 22.6537 51.5775Z" fill="#E0E0E0"/>
    <path d="M34.4633 20.9838C34.4347 20.9803 34.4063 20.9747 34.3786 20.9669C34.3229 20.9669 34.2431 20.9282 34.1366 20.9088L33.73 20.8531C33.5679 20.8386 33.3815 20.8168 33.1734 20.8023C32.3313 20.7442 31.1092 20.7152 29.6015 20.7152C28.8465 20.7152 28.0212 20.7152 27.1355 20.7418C26.1923 20.7379 25.2496 20.7847 24.3114 20.8822C23.8073 20.945 23.3072 21.0363 22.8134 21.1556C22.2989 21.2768 21.7997 21.4554 21.3251 21.688C20.3524 22.2316 19.551 23.0363 19.0116 24.0112C18.8822 24.2609 18.7799 24.5238 18.7067 24.7953C18.6451 25.0679 18.6031 25.3444 18.5808 25.623C18.5131 26.1796 18.4574 26.7289 18.4042 27.2686C18.2977 28.3503 18.2178 29.3933 18.1622 30.3879C18.0315 32.3796 17.9686 34.1752 17.9202 35.6829C17.8718 37.1906 17.8476 38.4054 17.8234 39.2548C17.8234 39.6711 17.8016 39.9978 17.7943 40.2228C17.7943 40.3293 17.7943 40.4116 17.7943 40.4648C17.7975 40.4938 17.7975 40.523 17.7943 40.5519C17.7922 40.5229 17.7922 40.4938 17.7943 40.4648V40.2228C17.7943 39.9929 17.7943 39.6662 17.7943 39.2548C17.7943 38.4102 17.8161 37.1906 17.85 35.6805C17.8839 34.1704 17.9419 32.3748 18.0654 30.3807C18.1283 29.3861 18.2057 28.3406 18.3074 27.2589C18.3606 26.7168 18.4163 26.1675 18.4816 25.6084C18.5044 25.3241 18.548 25.0418 18.6123 24.7639C18.6779 24.4857 18.7737 24.2154 18.8978 23.958C19.1709 23.451 19.5193 22.9883 19.9312 22.5859C20.3259 22.1893 20.7758 21.8519 21.267 21.584C21.7496 21.3465 22.2579 21.1654 22.7819 21.0443C23.2812 20.9246 23.7871 20.8341 24.2969 20.7733C25.2383 20.6767 26.1844 20.633 27.1307 20.6426C28.0188 20.6426 28.844 20.6257 29.5991 20.6426C31.1092 20.6426 32.3313 20.6958 33.1734 20.7684C33.384 20.7878 33.5703 20.812 33.7324 20.8289C33.8946 20.8459 34.0301 20.8798 34.139 20.8991C34.2479 20.9185 34.3278 20.9548 34.381 20.9693C34.4089 20.9713 34.4364 20.9762 34.4633 20.9838Z" fill="#E0E0E0"/>
    <path d="M16.3713 29.0908C16.6811 29.1296 16.9841 29.2111 17.2716 29.3328C17.5727 29.4156 17.8609 29.5393 18.1283 29.7007C17.8187 29.6604 17.516 29.579 17.228 29.4587C16.9278 29.3734 16.6399 29.2497 16.3713 29.0908Z" fill="#E0E0E0"/>
    <path d="M17.3248 30.8623C17.3248 30.826 17.5015 30.7897 17.7241 30.78C17.9468 30.7703 18.1283 30.78 18.1283 30.826C18.1283 30.8719 17.9516 30.8961 17.729 30.9058C17.5063 30.9155 17.3272 30.8961 17.3248 30.8623Z" fill="#E0E0E0"/>
    <path d="M24.5848 30.2718C24.4434 30.2707 24.3065 30.3215 24.2 30.4146C24.1468 30.463 24.1084 30.5255 24.0891 30.5949C24.0698 30.6642 24.0705 30.7376 24.0911 30.8066C24.1169 30.8897 24.1663 30.9635 24.2334 31.0189C24.3004 31.0743 24.3822 31.109 24.4686 31.1188C24.5558 31.1181 24.6411 31.0939 24.7157 31.0488C24.7902 31.0036 24.8512 30.9392 24.8921 30.8623C24.9265 30.7982 24.9444 30.7268 24.9444 30.6541C24.9444 30.5815 24.9265 30.51 24.8921 30.446C24.8184 30.3237 24.7108 30.2254 24.5824 30.1629C24.5824 30.1629 24.6308 30.1629 24.7058 30.1798C24.8152 30.2228 24.9077 30.3001 24.9696 30.4C25.0191 30.4752 25.0486 30.5618 25.0554 30.6515C25.0621 30.7413 25.0459 30.8313 25.0083 30.9131C24.9608 31.0146 24.8846 31.1001 24.7892 31.159C24.6937 31.2179 24.5832 31.2477 24.4711 31.2446C24.3586 31.2343 24.2519 31.1898 24.1654 31.1171C24.0789 31.0444 24.0167 30.9471 23.9871 30.8381C23.9639 30.7506 23.9667 30.6583 23.9951 30.5723C24.0234 30.4864 24.0761 30.4106 24.1468 30.3541C24.237 30.2769 24.3524 30.2355 24.4711 30.2379C24.5485 30.25 24.5872 30.2645 24.5848 30.2718Z" fill="#E0E0E0"/>
    <path d="M24.1685 27.4162C24.3182 27.483 24.45 27.5841 24.5533 27.7114C24.8247 28.0026 25.007 28.3655 25.0786 28.757C25.1502 29.1486 25.1082 29.5525 24.9575 29.9209C24.9113 30.0756 24.8282 30.2168 24.7155 30.3323C24.6961 30.3323 24.7953 30.1677 24.8849 29.8918C25.005 29.5342 25.0325 29.1519 24.9648 28.7808C24.8971 28.4096 24.7364 28.0617 24.4977 27.7695C24.3041 27.5444 24.1564 27.4331 24.1685 27.4162Z" fill="#E0E0E0"/>
    <path d="M24.442 34.2696C24.4275 34.2575 24.5461 34.0954 24.684 33.8074C24.8674 33.433 24.9829 33.0291 25.0252 32.6143C25.0664 32.1303 25.0252 31.673 24.8437 31.4261C24.7425 31.2928 24.602 31.1946 24.442 31.1454C24.442 31.1454 24.4952 31.126 24.5872 31.1454C24.7181 31.1821 24.8342 31.2592 24.9187 31.3656C25.0407 31.5246 25.1176 31.7135 25.1414 31.9125C25.1732 32.1476 25.1781 32.3855 25.1559 32.6216C25.114 33.0516 24.9821 33.468 24.7687 33.8437C24.6915 34.0074 24.5801 34.1526 24.442 34.2696Z" fill="#E0E0E0"/>
    <path d="M26.2014 30.6445C26.0253 30.6016 25.8466 30.5701 25.6665 30.5501C25.4862 30.5675 25.3075 30.5982 25.1317 30.642C25.1075 30.6178 25.3253 30.4218 25.6665 30.4242C26.0078 30.4267 26.228 30.6227 26.2014 30.6445Z" fill="#E0E0E0"/>
    <path d="M31.7843 30.2718C31.6428 30.2705 31.5059 30.3213 31.3995 30.4146C31.3463 30.463 31.3078 30.5255 31.2886 30.5949C31.2693 30.6642 31.27 30.7376 31.2906 30.8066C31.3164 30.8897 31.3658 30.9635 31.4329 31.0189C31.4999 31.0743 31.5817 31.109 31.6681 31.1188C31.7553 31.1181 31.8406 31.0939 31.9152 31.0488C31.9897 31.0036 32.0507 30.9392 32.0916 30.8623C32.1241 30.7973 32.14 30.7252 32.1379 30.6526C32.1358 30.58 32.1157 30.509 32.0795 30.446C32.005 30.3243 31.8976 30.2262 31.7698 30.1629C31.7698 30.1629 31.8182 30.1629 31.8932 30.1798C32.0018 30.2241 32.094 30.3011 32.157 30.4C32.2065 30.4752 32.236 30.5618 32.2428 30.6515C32.2495 30.7413 32.2333 30.8313 32.1957 30.9131C32.1481 31.0146 32.072 31.1001 31.9765 31.159C31.8811 31.2179 31.7705 31.2477 31.6584 31.2446C31.5459 31.2343 31.4393 31.1898 31.3528 31.1171C31.2663 31.0444 31.2041 30.9471 31.1744 30.8381C31.1513 30.7506 31.1541 30.6583 31.1825 30.5723C31.2108 30.4864 31.2635 30.4106 31.3342 30.3541C31.4243 30.2769 31.5398 30.2355 31.6584 30.2379C31.7456 30.25 31.7867 30.2645 31.7843 30.2718Z" fill="#E0E0E0"/>
    <path d="M31.3681 27.4162C31.5178 27.483 31.6496 27.5841 31.7529 27.7114C32.0227 28.0035 32.204 28.3663 32.2755 28.7575C32.3471 29.1487 32.306 29.5522 32.157 29.9209C32.1109 30.0756 32.0278 30.2168 31.915 30.3323C31.8957 30.3323 31.9949 30.1677 32.0844 29.8918C32.2026 29.5339 32.23 29.1522 32.1643 28.7811C32.0933 28.4109 31.9329 28.0637 31.6972 27.7695C31.5036 27.5444 31.356 27.4331 31.3681 27.4162Z" fill="#E0E0E0"/>
    <path d="M31.6464 34.2696C31.6295 34.2575 31.7505 34.0954 31.8884 33.8074C32.0718 33.433 32.1873 33.0291 32.2297 32.6143C32.2708 32.1303 32.2297 31.673 32.0482 31.4261C31.9457 31.2919 31.8034 31.1936 31.6416 31.1454C31.6416 31.1454 31.6924 31.126 31.7868 31.1454C31.9177 31.1821 32.0338 31.2592 32.1183 31.3656C32.2403 31.5246 32.3172 31.7135 32.341 31.9125C32.3691 32.1481 32.3691 32.3861 32.341 32.6216C32.3002 33.0518 32.1682 33.4685 31.9538 33.8437C31.8818 34.0054 31.7772 34.1504 31.6464 34.2696Z" fill="#E0E0E0"/>
    <path d="M33.396 30.6445C33.22 30.6016 33.0413 30.5701 32.8612 30.5501C32.6809 30.5675 32.5022 30.5982 32.3264 30.642C32.2998 30.6178 32.52 30.4218 32.8612 30.4242C32.9616 30.4143 33.0629 30.4291 33.1561 30.4675C33.2494 30.5059 33.3318 30.5667 33.396 30.6445Z" fill="#E0E0E0"/>
    <path d="M12.7535 40.99C12.7535 40.99 20.0933 39.0903 21.4219 41.5901C22.7505 44.09 22.9901 61.301 22.9901 61.301C22.9901 61.301 12.3905 61.6906 12.3663 61.2454C12.3421 60.8001 12.7535 40.99 12.7535 40.99Z" fill="#F5F5F5"/>
    <path d="M12.3566 40.898C12.3566 40.898 17.1966 39.6517 18.53 41.4957C19.8634 43.3398 20.2022 61.376 20.2022 61.376C20.2022 61.376 12.4582 61.618 12.3082 61.4486C12.1581 61.2792 12.3566 40.898 12.3566 40.898Z" fill="#EBEBEB"/>
    <path d="M15.1977 49.8955C15.1977 49.8955 15.1614 49.8834 15.1057 49.8955C15.0689 49.9025 15.0347 49.9196 15.0069 49.9448C14.9792 49.97 14.9589 50.0023 14.9484 50.0383C14.9161 50.1542 14.9111 50.276 14.9339 50.3941C14.9355 50.426 14.9438 50.4571 14.9584 50.4855C14.9729 50.514 14.9933 50.5389 15.0183 50.5589C15.0432 50.5788 15.0721 50.5931 15.1031 50.601C15.134 50.6089 15.1663 50.6101 15.1977 50.6046C15.2415 50.5923 15.2822 50.5709 15.3172 50.5417C15.3521 50.5126 15.3805 50.4763 15.4004 50.4354C15.4203 50.3944 15.4313 50.3497 15.4326 50.3042C15.434 50.2587 15.4257 50.2135 15.4082 50.1714C15.3595 50.0422 15.2757 49.929 15.1662 49.8447L15.1202 49.806H15.1735C15.2606 49.7867 15.3066 49.7818 15.3114 49.7915C15.3114 49.7915 15.2727 49.8254 15.1904 49.8617V49.8109C15.3311 49.8824 15.4417 50.0016 15.5026 50.1472C15.5434 50.2565 15.5434 50.3768 15.5026 50.486C15.4804 50.5515 15.4411 50.6098 15.3887 50.6549C15.3364 50.7 15.2729 50.7302 15.2049 50.7426C15.155 50.7514 15.1037 50.749 15.0547 50.7356C15.0057 50.7222 14.9604 50.6981 14.9218 50.6651C14.8568 50.5999 14.8159 50.5146 14.8056 50.4231C14.7836 50.2835 14.7995 50.1406 14.8516 50.0093C14.8701 49.961 14.9036 49.9199 14.9472 49.892C14.9907 49.8642 15.042 49.851 15.0936 49.8544C15.1783 49.852 15.2025 49.8907 15.1977 49.8955Z" fill="#E0E0E0"/>
    <path d="M16.5771 46.6237C16.6085 46.6431 16.1923 47.3497 15.7954 48.2572C15.3985 49.1647 15.1735 49.9512 15.1348 49.9512C15.149 49.7729 15.1864 49.5971 15.2461 49.4285C15.3637 49.0157 15.5092 48.6115 15.6817 48.2185C15.8518 47.8242 16.0483 47.4418 16.2697 47.0738C16.35 46.9098 16.4535 46.7582 16.5771 46.6237Z" fill="#E0E0E0"/>
    <path d="M13.6827 46.9286C13.7892 47.0534 13.8772 47.1927 13.9441 47.3425C14.0893 47.6087 14.2756 47.9838 14.4595 48.4073C14.6434 48.8308 14.7886 49.2252 14.883 49.5132C14.9458 49.6683 14.9873 49.8311 15.0064 49.9972C14.9701 50.0093 14.7088 49.3124 14.3434 48.4678C13.9779 47.6232 13.6488 46.948 13.6827 46.9286Z" fill="#E0E0E0"/>
    <path d="M16.5432 55.7616C16.4673 55.5144 16.409 55.2621 16.369 55.0066C16.2746 54.5395 16.1415 53.8934 15.9818 53.1843C15.822 52.4753 15.6647 51.8316 15.5486 51.3693C15.4752 51.1211 15.4194 50.868 15.3816 50.6119C15.4843 50.846 15.5653 51.089 15.6236 51.3379C15.7591 51.7953 15.9309 52.4366 16.0931 53.148C16.2552 53.8595 16.3714 54.5105 16.444 54.9848C16.5018 55.24 16.535 55.5001 16.5432 55.7616Z" fill="#E0E0E0"/>
    <path d="M13.6876 53.7869C13.6983 53.6222 13.73 53.4596 13.782 53.3029C13.8883 52.9122 14.0185 52.5283 14.1716 52.1534C14.3243 51.7789 14.5005 51.4143 14.6992 51.062C14.7712 50.909 14.865 50.7672 14.9775 50.6409C15.0089 50.6603 14.6435 51.3306 14.2902 52.2042C13.9369 53.0779 13.7239 53.7966 13.6876 53.7869Z" fill="#E0E0E0"/>
    <path d="M58.835 12.5574H44.5474V31.189L58.835 31.5471V12.5574Z" fill="#E0E0E0"/>
    <path d="M57.8937 13.2205H45.392V30.1169L57.8937 30.538V13.2205Z" fill="white"/>
    <path d="M55.706 16.289L47.4103 15.9744V27.784H55.706V16.289Z" fill="#E0E0E0"/>
    <path d="M47.4103 27.784L55.706 21.7171L47.4103 15.9744V27.784Z" fill="#F5F5F5"/>
    <path d="M74.052 25.2914H62.8934V39.8429L74.052 40.1212V25.2914Z" fill="#E0E0E0"/>
    <path d="M73.3188 25.8093H63.5541V39.0056L73.3188 39.3347V25.8093Z" fill="white"/>
    <path d="M71.6079 28.2075L65.1295 27.9607V37.1833H71.6079V28.2075Z" fill="#E0E0E0"/>
    <path d="M65.1295 37.1833L71.6079 32.4449L65.1295 27.9607V37.1833Z" fill="#F5F5F5"/>
    <path d="M61.3616 108.179C85.1571 108.179 104.447 99.9542 104.447 89.8086C104.447 79.663 85.1571 71.4384 61.3616 71.4384C37.566 71.4384 18.2759 79.663 18.2759 89.8086C18.2759 99.9542 37.566 108.179 61.3616 108.179Z" fill="#F5F5F5"/>
    <path d="M50.1425 88.7559C48.9954 88.9544 47.8096 89.1673 46.844 89.8183C45.8784 90.4693 45.1911 91.6841 45.5203 92.7997C45.922 94.1622 47.5168 94.7188 48.9083 95.031C57.9324 97.049 67.2884 97.0713 76.322 95.0963C77.4231 94.8543 78.742 94.3485 78.8703 93.2257C79.0203 91.9261 77.4667 91.1638 76.1962 90.8541C71.75 89.7696 67.1773 89.2934 62.603 89.4384" fill="#E0E0E0"/>
    <path d="M103.061 85.1646C103.08 85.1646 103.136 85.23 103.225 85.3897C103.353 85.63 103.455 85.8831 103.53 86.1447C103.797 87.1566 103.879 88.2085 103.772 89.2496C103.755 89.5908 103.687 89.9441 103.639 90.3192C103.591 90.6943 103.491 91.0791 103.368 91.476C103.251 91.8941 103.113 92.306 102.954 92.7102L102.673 93.3418C102.581 93.5572 102.453 93.7629 102.342 93.9783C101.828 94.894 101.175 95.7243 100.406 96.4394C99.5631 97.2233 98.6699 97.9508 97.7317 98.6174C95.5718 100.136 93.2253 101.37 90.75 102.289C87.9507 103.368 85.093 104.289 82.1905 105.047C78.9833 105.892 75.727 106.539 72.4403 106.983L69.846 107.283L69.1926 107.358C68.9724 107.383 68.7522 107.392 68.532 107.409L67.2034 107.501C65.4271 107.659 63.617 107.663 61.7899 107.709C54.9057 107.718 48.0484 106.852 41.382 105.134C40.6149 104.931 39.855 104.742 39.112 104.532L36.934 103.849L35.8692 103.515C35.5159 103.409 35.1747 103.274 34.8311 103.148L32.8152 102.407C30.1774 101.439 27.7526 100.316 25.7391 98.9465C23.8937 97.7383 22.3318 96.145 21.1605 94.2759C20.2861 92.8626 19.7035 91.2885 19.4471 89.6465C19.2835 88.6154 19.295 87.5641 19.481 86.5368C19.5257 86.271 19.5929 86.0095 19.6819 85.7551C19.7399 85.5809 19.7811 85.4962 19.8004 85.5131C19.8198 85.5301 19.8246 85.6123 19.8004 85.7914C19.7762 85.9705 19.7399 86.2319 19.7254 86.5779C19.651 87.58 19.717 88.5876 19.9214 89.5715C20.2522 91.1149 20.8712 92.5821 21.7461 93.896C22.9179 95.6309 24.4437 97.0981 26.2231 98.2012C28.1785 99.4668 30.5452 100.505 33.1709 101.427L35.1723 102.126C35.5135 102.24 35.8499 102.368 36.2008 102.475L37.2583 102.789L39.4145 103.438C40.1405 103.636 40.9028 103.813 41.6579 104.007C48.2437 105.635 55.0033 106.455 61.7874 106.449C63.5903 106.403 65.3715 106.4 67.1114 106.25L68.4207 106.163C68.6385 106.146 68.8538 106.139 69.0692 106.115L69.7154 106.044L72.2806 105.754C75.5213 105.331 78.7342 104.717 81.9025 103.915C84.7698 103.195 87.5971 102.324 90.3725 101.306C92.7849 100.452 95.0814 99.3013 97.209 97.8793C98.1318 97.2555 99.0144 96.5741 99.8516 95.8393C100.583 95.1976 101.212 94.4485 101.717 93.6177C101.829 93.4168 101.959 93.2305 102.051 93.0321L102.339 92.4464C102.505 92.0702 102.651 91.6857 102.777 91.2945C102.913 90.9218 102.993 90.5516 103.087 90.2031C103.182 89.8546 103.237 89.5134 103.269 89.1891C103.422 88.1971 103.422 87.1875 103.269 86.1956C103.224 85.9382 103.164 85.6837 103.09 85.4333C103.056 85.2687 103.041 85.184 103.061 85.1646Z" fill="#E0E0E0"/>
    <path d="M98.206 88.7245C98.1487 88.5879 98.1175 88.4418 98.1141 88.2937C98.0963 88.1163 98.0639 87.9406 98.0173 87.7686C97.969 87.5291 97.9026 87.2937 97.8188 87.0643L97.6688 86.6529C97.6155 86.5077 97.5308 86.365 97.4582 86.2125C97.2923 85.8775 97.104 85.5541 96.8944 85.2445C96.3449 84.4897 95.7108 83.8004 95.0044 83.1899C93.4096 81.8033 91.1324 80.4819 88.3518 79.3179C85.1648 78.0512 81.8654 77.0878 78.4975 76.4405C74.413 75.6422 70.2746 75.1495 66.1168 74.9668C61.3457 74.735 56.5638 74.8644 51.8122 75.354C49.3051 75.6177 46.7496 75.9953 44.1674 76.5204C41.541 77.0476 38.9537 77.7534 36.4234 78.6331C33.8703 79.5599 31.3075 80.6755 29.0424 82.2631C27.9044 83.0296 26.8956 83.9722 26.0537 85.0557L25.7561 85.4647L25.4899 85.91C25.4487 85.9826 25.4027 86.0528 25.364 86.1278L25.26 86.3529C25.1946 86.5029 25.1172 86.6505 25.0591 86.8054C24.5671 88.0341 24.5671 89.4051 25.0591 90.6338C25.1148 90.7863 25.1946 90.9339 25.26 91.0864L25.364 91.3114C25.4027 91.3865 25.4487 91.4566 25.4899 91.5292L25.7464 91.96L26.044 92.369C26.887 93.4554 27.8985 94.3998 29.04 95.1665C31.3075 96.7589 33.88 97.8745 36.4234 98.7965C38.9536 99.6763 41.541 100.382 44.1674 100.909C46.7471 101.434 49.3051 101.812 51.8122 102.076C56.5646 102.565 61.3473 102.695 66.1192 102.463C70.277 102.28 74.4154 101.787 78.5 100.989C81.8678 100.341 85.1671 99.378 88.3542 98.1116C91.142 96.9549 93.412 95.636 95.0044 94.2396C95.7114 93.6299 96.3456 92.9404 96.8944 92.1851C97.104 91.8755 97.2923 91.5521 97.4582 91.2171C97.5308 91.0646 97.6155 90.9218 97.6688 90.7766L97.8188 90.3652C97.9026 90.1358 97.969 89.9004 98.0173 89.661C98.0636 89.4897 98.096 89.3149 98.1141 89.1383C98.1528 88.8527 98.1842 88.7051 98.206 88.7051C98.2278 88.7051 98.2399 88.8527 98.2423 89.148C98.2486 89.3302 98.2365 89.5127 98.206 89.6925C98.1799 89.9445 98.1321 90.1939 98.0632 90.4378C98.0221 90.5758 97.9785 90.7234 97.935 90.8783C97.8914 91.0331 97.8116 91.1856 97.7438 91.3502C97.5905 91.7082 97.4109 92.0544 97.2066 92.3859C96.6747 93.1975 96.0457 93.9411 95.3335 94.6002C93.7339 96.0909 91.4421 97.5042 88.6277 98.7457C85.4215 100.102 82.0902 101.14 78.6815 101.846C74.5601 102.714 70.3781 103.264 66.1725 103.491C61.3464 103.774 56.5056 103.683 51.6936 103.218C49.1526 102.976 46.556 102.596 43.9278 102.073C41.239 101.549 38.5899 100.838 35.9999 99.946C33.3718 98.9998 30.7243 97.8624 28.3067 96.1732C27.0588 95.3314 25.9534 94.2954 25.0325 93.1047L24.684 92.6545L24.3839 92.1512C24.3355 92.0665 24.2823 91.9842 24.2387 91.8971L24.1129 91.6285C24.033 91.447 23.9411 91.2727 23.8709 91.0864C23.2691 89.5668 23.2691 87.8749 23.8709 86.3553C23.9411 86.1714 24.0306 85.9947 24.1129 85.8132L24.2387 85.5446C24.2847 85.4575 24.3379 85.3752 24.3863 85.2905L24.6864 84.7871L25.0276 84.3201C25.9517 83.1285 27.0613 82.0932 28.314 81.2539C30.734 79.5599 33.3766 78.4298 36.0048 77.4811C38.5952 76.5907 41.2441 75.8807 43.9327 75.3564C46.5608 74.8337 49.155 74.4634 51.696 74.2117C56.508 73.747 61.3488 73.6556 66.1749 73.9383C70.3797 74.1656 74.5609 74.7158 78.6815 75.5839C82.091 76.2897 85.4231 77.328 88.6301 78.6839C91.4445 79.9229 93.7363 81.3459 95.3335 82.8293C96.047 83.4878 96.6769 84.2315 97.209 85.0436C97.4134 85.3752 97.5929 85.7214 97.7462 86.0794C97.814 86.244 97.889 86.3964 97.9374 86.5513C97.9858 86.7062 98.0245 86.8538 98.0657 86.9917C98.1345 87.2356 98.1823 87.485 98.2084 87.7371C98.2388 87.9169 98.251 88.0993 98.2447 88.2816C98.2415 88.5768 98.2286 88.7245 98.206 88.7245Z" fill="#EBEBEB"/>
    <path d="M93.8743 88.3542C93.8525 88.3542 93.8211 88.2308 93.7824 87.996C93.7824 87.9355 93.7654 87.8702 93.7509 87.7976C93.7364 87.725 93.7073 87.65 93.6831 87.5556C93.6589 87.4612 93.6323 87.3789 93.6057 87.2821C93.5791 87.1853 93.5234 87.0885 93.4799 86.9821C93.3778 86.7471 93.2589 86.5199 93.1241 86.302C93.0515 86.181 92.9547 86.06 92.8652 85.939C92.8216 85.8761 92.7732 85.8132 92.7272 85.7479L92.5627 85.5615C92.3248 85.2879 92.0702 85.0292 91.8004 84.7871L91.3333 84.4023C91.176 84.2692 90.9921 84.1603 90.8179 84.0224C90.0098 83.4641 89.1585 82.9713 88.272 82.5486C87.2127 82.0477 86.1251 81.6089 85.0147 81.2346C82.2931 80.3265 79.5015 79.6434 76.6681 79.1921C73.2332 78.6252 69.7655 78.2793 66.2863 78.1563C62.2928 77.9967 58.2931 78.0945 54.3122 78.4491C52.214 78.6355 50.0699 78.9114 47.8992 79.2913C45.6868 79.6723 43.4992 80.1855 41.3482 80.828C39.1349 81.4583 37.0017 82.3418 34.9909 83.461C33.9955 84.0198 33.0845 84.7173 32.2853 85.5325C32.1885 85.6341 32.1062 85.743 32.0167 85.8471C31.9278 85.9496 31.8469 86.0589 31.7747 86.1738L31.5472 86.5102L31.3633 86.8659C31.1232 87.3261 30.9979 87.8375 30.9979 88.3566C30.9979 88.8757 31.1232 89.3871 31.3633 89.8473L31.5496 90.2031L31.7771 90.5395C31.8493 90.6544 31.9302 90.7636 32.0191 90.8662C32.1111 90.9702 32.1934 91.0815 32.2877 91.1832C33.0879 91.9972 33.9987 92.6946 34.9933 93.2547C37.0052 94.3734 39.1392 95.2569 41.3531 95.8877C43.5044 96.5258 45.6919 97.0349 47.904 97.4123C50.082 97.7922 52.2189 98.0681 54.3194 98.2544C58.3004 98.6091 62.3 98.7069 66.2936 98.5472C69.7736 98.4243 73.2421 98.0783 76.6778 97.5115C79.5105 97.0605 82.3012 96.3773 85.0219 95.469C86.1308 95.0882 87.2168 94.6438 88.2744 94.138C89.16 93.7233 90.0105 93.2377 90.8179 92.686C90.9945 92.5553 91.176 92.444 91.3333 92.3036L91.8004 91.9213C92.0697 91.6785 92.3242 91.42 92.5627 91.1469L92.7272 90.9605L92.8676 90.7694C92.9547 90.6435 93.0515 90.5274 93.1241 90.4064C93.2599 90.1891 93.3788 89.9617 93.4799 89.7263C93.5234 89.6199 93.567 89.5206 93.6057 89.4263L93.6831 89.1528C93.7073 89.0681 93.7291 88.9907 93.7509 88.9108C93.7727 88.8309 93.7727 88.7729 93.7824 88.7124C93.8211 88.4704 93.8525 88.3542 93.8743 88.3542C93.8961 88.3542 93.9082 88.4776 93.9106 88.7269C93.9106 88.7874 93.9106 88.8576 93.9106 88.935L93.8695 89.177C93.855 89.269 93.838 89.3658 93.8211 89.4722C93.8041 89.5787 93.7533 89.6828 93.717 89.7989C93.6325 90.0574 93.5247 90.3077 93.3952 90.5467C93.3274 90.6822 93.2354 90.8081 93.1532 90.9484L93.0176 91.1614L92.8555 91.3671C92.6211 91.6674 92.3681 91.9527 92.098 92.2214L91.631 92.6449C91.4713 92.7925 91.2898 92.9183 91.1107 93.0635C90.3035 93.6742 89.4453 94.2142 88.5455 94.6777C87.4794 95.2291 86.3803 95.7141 85.2543 96.1297C82.5155 97.1229 79.6963 97.8783 76.8278 98.3875C73.3616 99.0226 69.857 99.4269 66.3371 99.5975C62.297 99.806 58.2474 99.7454 54.2154 99.416C52.0858 99.2418 49.9078 98.978 47.6959 98.6029C45.4334 98.2296 43.1957 97.7197 40.9949 97.0759C38.6855 96.4218 36.4603 95.5008 34.3641 94.3316C33.2608 93.7122 32.252 92.938 31.3681 92.0326C31.2544 91.914 31.1528 91.7906 31.0463 91.6575C30.9369 91.5328 30.8358 91.401 30.7438 91.263L30.4631 90.8444L30.2211 90.3894C29.8982 89.7583 29.7299 89.0595 29.7299 88.3506C29.7299 87.6416 29.8982 86.9429 30.2211 86.3117L30.4631 85.8592L30.7462 85.4405C30.8375 85.302 30.9386 85.1701 31.0487 85.0461C31.1552 84.9226 31.2568 84.7895 31.3681 84.671C32.253 83.7674 33.2617 82.9942 34.3641 82.3744C36.4603 81.2083 38.6857 80.2913 40.9949 79.6422C43.1946 78.9973 45.4316 78.4873 47.6935 78.1152C49.9053 77.7401 52.0833 77.4763 54.2129 77.3021C58.2442 76.9727 62.293 76.9121 66.3323 77.1206C69.8521 77.2911 73.3568 77.6953 76.823 78.3306C79.6922 78.839 82.5122 79.5936 85.2519 80.586C86.3769 80.9992 87.476 81.48 88.5431 82.0259C89.4426 82.4907 90.3008 83.0315 91.1083 83.6425C91.2849 83.7852 91.4688 83.9135 91.6261 84.0611L92.0932 84.4846C92.3647 84.7526 92.6185 85.038 92.8531 85.3389L93.0128 85.5446L93.1507 85.7551C93.2354 85.8955 93.3274 86.0237 93.3927 86.1568C93.521 86.3974 93.6286 86.6484 93.7146 86.907C93.7509 87.0232 93.7872 87.1321 93.8186 87.2337C93.8501 87.3354 93.8525 87.437 93.8671 87.529L93.9082 87.771C93.9082 87.8484 93.9082 87.9186 93.9082 87.9791C93.9082 88.2308 93.8961 88.3542 93.8743 88.3542Z" fill="#EBEBEB"/>
    <path d="M68.8829 78.984C68.8829 78.984 71.4311 76.1235 73.9649 76.6487C76.4986 77.1738 76.9415 77.6167 76.9415 77.6167C76.9415 77.6167 80.828 76.714 80.8716 77.2125C80.9151 77.7111 79.6616 80.2424 79.6616 80.2424C80.0288 80.9056 80.232 81.647 80.2543 82.4048C80.2767 83.1626 80.1174 83.9147 79.7898 84.5984C79.7898 84.5984 82.8051 87.408 81.4596 88.1243C80.1141 88.8406 77.2416 87.9017 77.2416 87.9017C77.2416 87.9017 71.315 93.6274 66.1096 94.7091C60.9041 95.7909 54.5783 93.0708 52.4027 90.8589C50.0988 88.5188 48.1556 82.2123 48.6105 81.8904C49.2736 81.4258 48.1435 77.999 52.4825 74.8724C56.8216 71.7458 56.4392 69.938 56.4392 69.938L58.1332 69.3645C58.1332 69.3645 56.3933 74.7587 58.9125 78.2193C61.4317 81.6799 65.9014 83.3448 68.8829 78.984Z" fill="#FF8551"/>
    <g opacity="0.2">
        <path d="M73.9286 76.5906C73.4387 76.7712 73.0163 77.0981 72.7186 77.5271C72.5737 77.741 72.4795 77.9852 72.4435 78.2411C72.4074 78.497 72.4303 78.7577 72.5105 79.0033C72.5977 79.247 72.7569 79.4585 72.9669 79.6097C73.1769 79.761 73.4279 79.8449 73.6866 79.8503C74.2965 79.8334 74.8966 79.3228 75.4581 79.5841C75.7993 79.7463 75.9566 80.1431 76.2446 80.3876C76.3664 80.4813 76.5065 80.5484 76.6559 80.5846C76.8053 80.6208 76.9607 80.6253 77.1119 80.5977C77.2631 80.5701 77.4068 80.511 77.5338 80.4244C77.6608 80.3378 77.7682 80.2255 77.849 80.0947C77.9375 79.9126 77.9834 79.7128 77.9834 79.5103C77.9834 79.3078 77.9375 79.108 77.849 78.9259C77.6697 78.5617 77.4119 78.2418 77.094 77.9893C76.1729 77.2059 75.0239 76.74 73.8173 76.6608" fill="white"/>
    </g>
    <path d="M49.4407 81.237C49.0342 80.5908 47.2627 80.995 46.6263 81.4064C45.9898 81.8178 45.5784 82.5026 45.1742 83.1464C44.5789 84.0781 43.8868 84.9807 42.9575 85.5833C42.0282 86.1859 40.8279 86.4545 39.7946 86.0673C38.7613 85.6801 38.0522 84.6589 37.4012 83.732C36.7502 82.8051 35.9879 81.8371 34.8917 81.554C33.3888 81.162 31.7747 82.3478 31.3827 83.8506C30.9906 85.3534 31.6247 86.9845 32.6846 88.1195C34.4295 89.9901 37.256 90.6605 39.7462 90.0555C42.2364 89.4505 44.3611 87.7177 45.7188 85.5494C46.2318 84.729 46.6577 83.8312 47.3595 83.1657C48.0613 82.5002 49.1527 82.1106 50.0215 82.5559" fill="#FF8551"/>
    <path d="M71.8136 79.5357C71.8317 79.9055 71.7079 80.2682 71.4675 80.5497C71.5595 80.3997 71.4095 80.2206 71.2739 80.1093C71.1384 79.9979 70.986 79.8261 71.0707 79.6737C71.2013 79.4317 71.6369 79.6737 71.8233 79.4776" fill="#263238"/>
    <path d="M71.2691 78.2459C71.2691 78.2652 71.1674 78.333 70.9956 78.4467C70.7708 78.5761 70.5993 78.781 70.5116 79.0251C70.4806 79.1444 70.4885 79.2705 70.5342 79.385C70.58 79.4995 70.6611 79.5964 70.7657 79.6616C70.9351 79.7632 71.0706 79.7535 71.0706 79.7777C71.0706 79.8019 70.9327 79.8407 70.7197 79.7487C70.5968 79.6909 70.4958 79.595 70.4318 79.4752C70.3525 79.3268 70.3326 79.1538 70.3761 78.9912C70.4227 78.8537 70.497 78.7271 70.5944 78.6193C70.6918 78.5115 70.8102 78.4248 70.9424 78.3644C71.041 78.301 71.1527 78.2605 71.2691 78.2459Z" fill="#263238"/>
    <path d="M73.1251 81.8347C73.1913 81.8328 73.2561 81.8541 73.3082 81.8949C73.3603 81.9357 73.3964 81.9935 73.4103 82.0582C73.4242 82.123 73.415 82.1905 73.3843 82.2491C73.3536 82.3078 73.3033 82.3538 73.2421 82.3792C73.181 82.4046 73.1129 82.4078 73.0497 82.3882C72.9865 82.3686 72.9321 82.3275 72.896 82.272C72.86 82.2164 72.8445 82.1501 72.8523 82.0843C72.8601 82.0186 72.8907 81.9577 72.9388 81.9122" fill="#263238"/>
    <path d="M73.3744 78.0571C73.4406 78.0551 73.5053 78.0764 73.5574 78.1173C73.6095 78.1581 73.6457 78.2159 73.6596 78.2806C73.6735 78.3453 73.6643 78.4129 73.6336 78.4715C73.6028 78.5302 73.5525 78.5762 73.4914 78.6016C73.4303 78.627 73.3622 78.6302 73.299 78.6106C73.2357 78.591 73.1814 78.5499 73.1453 78.4944C73.1092 78.4388 73.0938 78.3724 73.1016 78.3067C73.1094 78.241 73.14 78.1801 73.1881 78.1345" fill="#263238"/>
    <path d="M64.2656 81.4499C69.1546 81.4499 73.1179 77.4866 73.1179 72.5976C73.1179 67.7086 69.1546 63.7452 64.2656 63.7452C59.3765 63.7452 55.4132 67.7086 55.4132 72.5976C55.4132 77.4866 59.3765 81.4499 64.2656 81.4499Z" fill="#455A64"/>
    <path d="M69.7203 81.9775C69.6805 79.9312 68.9282 77.9628 67.5931 76.4115C67.1575 75.9106 66.6251 75.4435 65.9838 75.2959C65.3425 75.1483 64.5535 75.4362 64.3309 76.063C64.1252 76.6511 64.4519 77.273 64.7157 77.8417C65.6277 79.801 65.8725 82.0052 65.4126 84.1168" fill="#FF8551"/>
    <path d="M69.5703 81.9001C69.5647 81.8405 69.5647 81.7805 69.5703 81.721C69.5703 81.6048 69.5703 81.4354 69.5558 81.2152C69.5175 80.5969 69.4137 79.9844 69.246 79.3881C68.9969 78.5039 68.6009 77.6678 68.0747 76.9149C67.7833 76.4629 67.4078 76.0711 66.9688 75.7605C66.7362 75.6045 66.4744 75.4975 66.1992 75.4459C65.9169 75.3986 65.6271 75.4235 65.3571 75.5185C65.0883 75.6096 64.8581 75.7886 64.7037 76.0267C64.5688 76.2673 64.5114 76.5436 64.5391 76.8181C64.6232 77.3517 64.7611 77.8755 64.9505 78.3814C65.2543 79.2561 65.4811 80.1557 65.6281 81.07C65.7217 81.69 65.7217 82.3206 65.6281 82.9407C65.6017 83.1089 65.5654 83.2753 65.5192 83.4392C65.5042 83.4966 65.4839 83.5525 65.4587 83.6062C65.4442 83.6062 65.5216 83.3642 65.5749 82.9334C65.6455 82.3179 65.6292 81.6955 65.5265 81.0845C65.3639 80.1789 65.1259 79.2885 64.815 78.4225L64.573 77.6602C64.4833 77.391 64.424 77.1126 64.3963 76.8302C64.3636 76.5271 64.4271 76.2215 64.5778 75.9565C64.7488 75.6911 65.0048 75.4915 65.3038 75.3903C65.596 75.2858 65.9102 75.2583 66.2162 75.3104C66.5098 75.3664 66.7889 75.4817 67.0365 75.6492C67.4881 75.9709 67.8742 76.3758 68.1739 76.8423C69.0609 78.1321 69.5566 79.6505 69.6017 81.2152C69.6017 81.4378 69.6017 81.6097 69.6017 81.7258C69.5978 81.7849 69.5873 81.8433 69.5703 81.9001Z" fill="#263238"/>
    <path d="M65.4441 77.3359C65.2777 77.1426 65.1295 76.9344 65.0012 76.714C64.8356 76.5172 64.6882 76.3058 64.5608 76.0824C64.9966 76.3845 65.3099 76.8326 65.4441 77.3456V77.3359Z" fill="#263238"/>
    <path d="M66.0322 76.7479C65.8474 76.5743 65.6848 76.3784 65.5482 76.1647C65.3752 75.9793 65.2264 75.7728 65.1053 75.55C65.132 75.5234 65.3982 75.7436 65.6571 76.08C65.8324 76.2704 65.9609 76.4991 66.0322 76.7479Z" fill="#263238"/>
    <path d="M66.734 76.5591C66.6928 76.5591 66.6275 76.2615 66.4557 75.9275C66.2838 75.5935 66.0806 75.3564 66.1096 75.3273C66.3226 75.4479 66.4882 75.6374 66.5791 75.8646C66.71 76.071 66.7647 76.3166 66.734 76.5591Z" fill="#263238"/>
    <path d="M51.079 80.828C51.6872 80.3927 52.1557 79.7897 52.4273 79.0928C52.6988 78.3958 52.7618 77.6349 52.6084 76.9028C52.5174 76.6819 52.5174 76.434 52.6084 76.2131C52.8069 75.9009 53.2618 76.0606 53.6248 76.1138C55.6504 76.4042 59.3457 76.23 59.3457 76.23C60.5896 76.1139 62.5256 75.9106 62.5256 75.9106C61.5939 77.4715 59.3796 78.6452 57.6977 78.6185C58.371 79.1976 58.9513 79.8766 59.4183 80.632C60.2324 81.9136 60.5936 83.431 60.4444 84.942C60.3629 85.6914 60.1188 86.414 59.7293 87.0593C59.3397 87.7047 58.8141 88.2572 58.1889 88.6785C56.9233 89.4868 55.2075 89.6029 53.908 88.8479" fill="#FF8551"/>
    <path d="M55.6164 89.3706C55.9742 89.3544 56.3298 89.3058 56.6788 89.2254C57.6363 88.9623 58.4875 88.4064 59.1133 87.6355C59.8145 86.8122 60.2334 85.786 60.3088 84.7073C60.3318 84.3008 60.3148 83.8931 60.258 83.49C60.202 83.0584 60.1056 82.6331 59.97 82.2195C59.8336 81.7834 59.6578 81.3606 59.4449 80.9563C59.0036 80.0916 58.3958 79.3226 57.6565 78.6936L57.5258 78.5822H57.6976C58.8396 78.5412 59.9506 78.1998 60.9187 77.5925C61.5686 77.1671 62.1005 76.5844 62.465 75.8985L62.5352 75.9977C59.1882 76.3643 55.8136 76.4072 52.4583 76.126L52.5092 76.0606C52.7348 76.7574 52.7977 77.4967 52.6931 78.2217C52.6201 78.7669 52.4565 79.2961 52.2091 79.7874C52.0513 80.0959 51.8606 80.3863 51.6404 80.6538C51.5629 80.7433 51.5 80.8087 51.4589 80.8522L51.3911 80.9175C51.4077 80.8911 51.4263 80.8661 51.4468 80.8425C51.4855 80.7965 51.546 80.7288 51.6186 80.6368C51.8271 80.3639 52.0087 80.0713 52.1607 79.7632C52.397 79.2747 52.5516 78.7506 52.6181 78.212C52.712 77.4992 52.6433 76.7745 52.4172 76.0921L52.393 76.0219H52.468C55.8168 76.2779 59.1821 76.2228 62.5207 75.8573L62.6538 75.8404L62.5909 75.9565C62.2141 76.6594 61.6665 77.2561 60.9985 77.6917C60.0102 78.314 58.8745 78.663 57.7073 78.7032L57.746 78.5822C58.8459 79.5385 59.6579 80.782 60.091 82.1735C60.2278 82.5942 60.3242 83.0269 60.379 83.4658C60.4346 83.8812 60.4484 84.3012 60.4201 84.7194C60.3918 85.1122 60.3179 85.5004 60.1999 85.8761C59.9856 86.5456 59.6391 87.1652 59.1811 87.6984C58.5399 88.4768 57.6664 89.0297 56.6885 89.2762C56.6038 89.2956 56.5239 89.3174 56.4465 89.3319L56.2287 89.3561L56.0448 89.3803H55.6842L55.6164 89.3706Z" fill="#263238"/>
    <path d="M60.1564 77.2561C60.4593 77.1518 60.7448 77.0025 61.0034 76.8132C61.4124 76.472 61.5406 76.0364 61.5818 76.0509C61.6229 76.0654 61.5818 76.1695 61.5213 76.3413C61.4256 76.5649 61.2789 76.763 61.0929 76.9197C60.9086 77.0768 60.6896 77.1879 60.454 77.244C60.2725 77.2851 60.1564 77.273 60.1564 77.2561Z" fill="#263238"/>
    <path d="M70.5697 81.237C70.5697 81.2539 70.4197 81.237 70.2696 81.0821C70.1842 80.9838 70.1296 80.8627 70.1123 80.7336C70.0939 80.5766 70.1217 80.4177 70.1922 80.2762C70.2547 80.1499 70.3441 80.0388 70.454 79.9506C70.5639 79.8624 70.6918 79.7993 70.8287 79.7656C71.0368 79.7196 71.1675 79.7656 71.165 79.7656C71.1626 79.7656 71.0392 79.7874 70.8577 79.8552C70.6219 79.9405 70.4284 80.114 70.318 80.3392C70.2613 80.4451 70.234 80.5643 70.2391 80.6844C70.2442 80.8044 70.2815 80.9209 70.3471 81.0216C70.4536 81.1765 70.577 81.2176 70.5697 81.237Z" fill="#263238"/>
    <g opacity="0.3">
        <path d="M80.1649 77.048C80.4456 77.0601 79.5188 78.0039 79.1292 78.4298C78.9961 78.6117 78.7989 78.7363 78.5774 78.7783C78.3963 78.7713 78.2222 78.706 78.0813 78.5919C77.7065 78.3384 77.3741 78.0272 77.0964 77.6699L77.0334 77.5949C77.0334 77.5949 79.5793 77.0213 80.1649 77.048Z" fill="black"/>
    </g>
    <g opacity="0.3">
        <path d="M78.9381 85.3994C78.2484 85.8942 77.7387 86.6001 77.4861 87.4104C78.3382 87.8304 79.2975 87.9822 80.2376 87.846C80.3334 87.8431 80.4276 87.8201 80.5139 87.7784C80.6002 87.7367 80.6767 87.6773 80.7386 87.604C80.8789 87.391 80.7628 87.1031 80.62 86.8925C80.1941 86.2657 79.56 85.8205 78.9381 85.3897" fill="black"/>
    </g>
    <path d="M69.9986 87.5024C69.9768 87.5024 70.1244 87.1321 70.3156 86.5344C70.814 84.9717 71.0311 83.3329 70.9569 81.6944C70.9303 81.0676 70.8819 80.6804 70.9037 80.6755C70.9362 80.762 70.9573 80.8523 70.9666 80.9442C70.9981 81.1184 71.0295 81.3725 71.0561 81.6871C71.1845 83.3384 70.9635 84.9983 70.4076 86.5586C70.3258 86.7947 70.2321 87.0265 70.1269 87.2531C70.096 87.3418 70.0528 87.4257 69.9986 87.5024Z" fill="#263238"/>
    <path d="M71.6901 86.6965C71.6683 86.6965 71.7288 86.3674 71.7893 85.8374C71.9432 84.4583 71.8614 83.063 71.5473 81.7113C71.4287 81.191 71.3295 80.874 71.3513 80.8667C71.3941 80.9324 71.4267 81.0042 71.4481 81.0797C71.5037 81.2201 71.5715 81.4282 71.6441 81.6871C72.016 83.043 72.0984 84.462 71.8861 85.8519C71.845 86.1157 71.8014 86.3359 71.7627 86.4739C71.7512 86.5516 71.7267 86.6269 71.6901 86.6965Z" fill="#263238"/>
    <path d="M70.9907 77.682C71.0991 77.9174 71.1474 78.176 71.1311 78.4346C71.1601 78.6914 71.1261 78.9514 71.0318 79.1921C70.9907 78.9435 70.9777 78.691 70.9931 78.4395C70.9628 78.1879 70.962 77.9337 70.9907 77.682Z" fill="#263238"/>
    <g opacity="0.2">
        <path d="M73.4204 91.0622C73.3115 90.4039 72.3435 89.3053 71.6756 89.3246C71.0076 89.344 70.3954 89.6683 69.7952 89.9611C69.1951 90.2539 68.5392 90.5249 67.8786 90.4306C67.0292 90.3071 66.3685 89.6102 65.5384 89.39C65.1821 89.3084 64.8127 89.3011 64.4534 89.3686C64.0941 89.436 63.7525 89.5767 63.45 89.782C62.8461 90.1989 62.3555 90.7594 62.0222 91.4131C61.6664 92.0641 61.4172 92.778 60.9598 93.3612C60.5024 93.9444 59.7498 94.4937 59.0238 94.3026C59.0238 94.3026 63.6702 95.8126 67.4164 94.4381C70.18 93.4314 73.4204 91.0622 73.4204 91.0622Z" fill="white"/>
    </g>
    <g opacity="0.2">
        <path d="M69.0886 79.0324C68.7959 78.9904 68.4973 79.0247 68.2217 79.1319C67.9461 79.2391 67.7029 79.4156 67.5155 79.6444C67.3281 79.8731 67.2029 80.1464 67.1521 80.4376C67.1012 80.7289 67.1264 81.0284 67.2252 81.3072C67.3212 81.5094 67.3958 81.7211 67.4478 81.9388C67.5059 82.3599 67.247 82.7543 67.1889 83.173C67.1616 83.3609 67.179 83.5525 67.2395 83.7324C67.3001 83.9124 67.4021 84.0755 67.5374 84.2087C67.6762 84.338 67.8493 84.4245 68.0359 84.458C68.2226 84.4915 68.415 84.4705 68.5901 84.3975C69.0136 84.2063 69.2193 83.7247 69.3378 83.277C69.7042 81.8737 69.6057 80.3895 69.0571 79.0469" fill="white"/>
    </g>
    <g opacity="0.2">
        <path d="M51.062 89.3561C51.9396 89.5302 52.8451 89.5056 53.7119 89.2841C54.5788 89.0626 55.385 88.6497 56.0714 88.0759C56.7781 87.4757 57.3564 86.665 57.4678 85.743C57.5791 84.821 57.1241 83.807 56.2578 83.4464C55.1083 82.9624 53.7627 83.778 52.5648 83.4464C52.0723 83.2666 51.6158 83.0002 51.2169 82.6599C50.8163 82.3205 50.3371 82.0867 49.823 81.9799C49.3051 81.9146 48.7098 82.1542 48.538 82.6503V83.0713C49.0655 84.7992 50.0117 87.0159 51.062 89.3561Z" fill="white"/>
    </g>
    <g opacity="0.2">
        <path d="M36.5421 90.1305C36.8424 90.1866 37.1517 90.1729 37.4459 90.0906C37.7402 90.0082 38.0116 89.8593 38.2391 89.6553C38.4667 89.4514 38.6443 89.1979 38.7584 88.9144C38.8724 88.6309 38.9197 88.325 38.8967 88.0203C38.8851 87.8998 38.8591 87.7812 38.8193 87.6669C38.5071 86.8175 37.7593 86.0964 36.8615 85.9923C36.3291 85.9294 35.7604 86.0794 35.2643 85.8761C34.7682 85.6728 34.4391 85.1114 34.2552 84.5766C34.0712 84.0418 33.9527 83.4682 33.6211 83.0084C33.2896 82.5486 32.6531 82.2461 32.1498 82.5244C32.1498 82.5244 30.5187 83.9764 31.5738 86.3843C32.4281 88.3131 34.0567 89.707 36.5421 90.1305Z" fill="white"/>
    </g>
    <path d="M69.7372 66.279C69.7176 66.3332 69.6908 66.3845 69.6573 66.4314L69.4008 66.8525C69.2686 67.0761 69.1249 67.2925 68.97 67.5011C68.791 67.7431 68.5998 68.0383 68.3529 68.3311L67.9754 68.7982C67.8447 68.9603 67.6923 69.1176 67.5422 69.2822C67.2494 69.6234 66.9009 69.9549 66.5404 70.3107C65.7371 71.0625 64.8762 71.7503 63.9655 72.3677C63.0465 72.9722 62.0812 73.503 61.0784 73.9552C60.6114 74.1512 60.1709 74.3472 59.7426 74.4876C59.5296 74.5602 59.3263 74.6401 59.1255 74.7006L58.5495 74.87C58.1841 74.9861 57.8429 75.049 57.5476 75.112C57.2955 75.175 57.0402 75.2251 56.7829 75.262L56.2989 75.337C56.2431 75.3481 56.1864 75.3537 56.1295 75.354C56.1834 75.3328 56.2394 75.3174 56.2965 75.308L56.7805 75.2088C56.991 75.17 57.2476 75.1168 57.5404 75.0369C57.8332 74.9571 58.1696 74.8893 58.5326 74.7683L59.1037 74.5917C59.3021 74.5287 59.503 74.4465 59.7135 74.3714C60.137 74.2262 60.5726 74.0302 61.0373 73.8318C63.0317 72.9272 64.8639 71.7008 66.4605 70.2018C66.8211 69.8485 67.172 69.5218 67.4672 69.1854C67.6173 69.0208 67.7697 68.8659 67.9052 68.7014L68.2852 68.2416C68.5272 67.9536 68.7329 67.6705 68.9168 67.4285C69.1007 67.1865 69.2483 66.9735 69.3645 66.7944L69.6428 66.3903C69.6719 66.3512 69.7034 66.314 69.7372 66.279Z" fill="#263238"/>
    <path d="M63.162 72.963C63.0825 72.8702 63.0112 72.7706 62.9491 72.6653C62.8837 72.5661 62.8063 72.4427 62.7264 72.2951C62.6466 72.1475 62.5474 71.9829 62.4627 71.7893C62.2464 71.3418 62.0651 70.8782 61.9206 70.4026C61.7484 69.8178 61.6253 69.2196 61.5527 68.6143C61.4887 68.009 61.4757 67.3994 61.514 66.792C61.5501 66.2959 61.6237 65.8032 61.7342 65.3182C61.7754 65.1101 61.8359 64.9286 61.8819 64.7665C61.9194 64.6269 61.9646 64.4896 62.0174 64.3551C62.0532 64.2379 62.1002 64.1244 62.1577 64.0163C62.1844 64.0163 61.998 64.5148 61.831 65.34C61.7341 65.819 61.671 66.3042 61.6423 66.792C61.572 67.9952 61.7078 69.2016 62.044 70.3591C62.1806 70.8311 62.3504 71.2929 62.5522 71.7409C62.8837 72.5129 63.1741 72.9485 63.162 72.963Z" fill="#263238"/>
    <path d="M65.524 70.8866C65.454 70.82 65.3923 70.7453 65.3401 70.664C65.1791 70.4532 65.0328 70.2317 64.9021 70.0009C64.7044 69.6593 64.5345 69.3024 64.3939 68.9337C64.2244 68.481 64.0941 68.0147 64.0042 67.5398C63.9205 67.0603 63.8776 66.5745 63.876 66.0878C63.8776 65.6929 63.9107 65.2988 63.9752 64.9092C64.016 64.6465 64.0751 64.387 64.1519 64.1324C64.1734 64.0375 64.2067 63.9456 64.2511 63.859C64.2753 63.859 64.1591 64.2631 64.072 64.9238C64.0244 65.3091 64.0018 65.6971 64.0042 66.0854C64.0099 66.5654 64.0519 67.0443 64.1301 67.518C64.2194 67.986 64.3448 68.4464 64.5052 68.895C64.641 69.2602 64.8027 69.6152 64.9892 69.9574C65.2941 70.5406 65.5458 70.8697 65.524 70.8866Z" fill="#263238"/>
    <path d="M67.7262 68.8611C67.5523 68.6856 67.4048 68.4859 67.2882 68.2682C66.9855 67.7539 66.7628 67.1966 66.6275 66.6153C66.4923 66.0336 66.4474 65.4345 66.4944 64.8391C66.5025 64.5918 66.5474 64.3471 66.6275 64.1131C66.6517 64.1131 66.6081 64.3938 66.5936 64.8391C66.5542 66.0134 66.8238 67.1775 67.3753 68.215C67.5858 68.6167 67.7455 68.8466 67.7262 68.8611Z" fill="#263238"/>
    <path d="M72.0556 68.1399C72.0353 68.1969 72.0085 68.2513 71.9757 68.3021L71.7192 68.7619C71.6103 68.9603 71.4772 69.2023 71.2885 69.4709C71.0997 69.7396 70.9182 70.0566 70.6714 70.3809L70.2938 70.906C70.1632 71.0851 70.0107 71.2617 69.8607 71.4481C69.5654 71.828 69.2169 72.2031 68.8539 72.6024C68.0486 73.4509 67.1823 74.2395 66.2621 74.9619C65.3333 75.6772 64.3538 76.3242 63.3315 76.8979C62.8475 77.1399 62.4022 77.394 61.9618 77.5852C61.744 77.682 61.5359 77.7861 61.3302 77.8708L60.7348 78.1128C60.3597 78.2701 60.0088 78.3765 59.7015 78.483C59.3942 78.5895 59.128 78.6669 58.9053 78.725L58.3995 78.8581C58.3414 78.8767 58.2813 78.8889 58.2205 78.8944C58.2758 78.8684 58.3333 78.8474 58.3923 78.8315L58.8908 78.6718C59.1086 78.6064 59.3748 78.5242 59.6749 78.408C59.975 78.2918 60.3283 78.1854 60.6985 78.0208L61.2866 77.7788C61.4923 77.6917 61.698 77.5876 61.9134 77.486C62.349 77.2924 62.7943 77.0431 63.2686 76.7914C64.2795 76.2183 65.2498 75.5763 66.1726 74.87C67.0862 74.1495 67.9497 73.3676 68.7571 72.5298C69.1177 72.1354 69.4686 71.7651 69.7663 71.3924C69.9163 71.2061 70.0712 71.0343 70.2043 70.8576L70.5867 70.3494C70.8287 70.03 71.0344 69.7178 71.2183 69.454C71.4022 69.1902 71.5522 68.9531 71.6684 68.7595C71.7846 68.5659 71.8741 68.4303 71.9467 68.3166C71.9774 68.2544 72.0138 68.1953 72.0556 68.1399Z" fill="#263238"/>
    <path d="M73.2631 69.3403C73.2511 69.3987 73.2324 69.4555 73.2075 69.5097C73.1591 69.6331 73.0937 69.7904 73.0163 69.9937L72.8759 70.3397C72.8203 70.4632 72.7525 70.5938 72.6847 70.7366C72.542 71.0197 72.3943 71.3513 72.1862 71.7046L71.874 72.2298C71.7651 72.4185 71.632 72.6048 71.5062 72.8009C71.2642 73.2002 70.9472 73.597 70.6302 74.0109C69.209 75.8202 67.4655 77.3512 65.4877 78.5266C65.0254 78.7855 64.5923 79.042 64.1639 79.2381C63.9534 79.3373 63.7525 79.4438 63.5517 79.5285L62.9709 79.7705C62.6054 79.9326 62.257 80.0343 61.9569 80.1407C61.8068 80.1891 61.6689 80.24 61.5382 80.2787L61.1776 80.373L60.6815 80.5013C60.6239 80.5185 60.5648 80.5298 60.5049 80.5352C60.5591 80.5086 60.6159 80.4876 60.6743 80.4723L61.1583 80.3222L61.514 80.2158C61.6423 80.1722 61.7778 80.119 61.9278 80.0657C62.2231 79.9544 62.5667 79.8455 62.9273 79.6785L63.5008 79.4365C63.6993 79.3494 63.8977 79.2405 64.1083 79.1388C64.5318 78.9404 64.9601 78.6815 65.4151 78.4128C67.3726 77.2359 69.103 75.7171 70.5237 73.9286C70.8431 73.5099 71.1529 73.1203 71.4046 72.7186C71.5328 72.5226 71.6659 72.3411 71.7772 72.1547L72.0967 71.6175C72.3096 71.2811 72.4597 70.9544 72.6097 70.6761C72.6799 70.5357 72.7525 70.4051 72.8106 70.2841C72.8687 70.1631 72.9146 70.0421 72.963 69.9453C73.0502 69.7541 73.1203 69.5992 73.176 69.4806C73.2017 69.4319 73.2309 69.385 73.2631 69.3403Z" fill="#263238"/>
    <path d="M62.0973 70.906C61.8185 70.8156 61.5447 70.7106 61.2769 70.5914C59.9628 70.0721 58.5889 69.7193 57.1871 69.5411C56.8948 69.5173 56.604 69.4777 56.3159 69.4225C56.3953 69.4049 56.477 69.4 56.5579 69.408C56.7104 69.408 56.9306 69.4201 57.2016 69.4419C58.621 69.5707 60.0102 69.9278 61.3156 70.4994C61.5576 70.6108 61.7633 70.7076 61.8989 70.7802C61.9707 70.8123 62.0376 70.8547 62.0973 70.906Z" fill="#263238"/>
    <path d="M61.8432 67.8979C61.8239 67.9367 61.0349 67.5228 59.9919 67.2058C58.9489 66.8888 58.0559 66.7847 58.0559 66.7412C58.2516 66.724 58.4488 66.7346 58.6416 66.7726C59.5769 66.8971 60.4853 67.1751 61.3302 67.5954C61.5154 67.6699 61.6884 67.7718 61.8432 67.8979Z" fill="#263238"/>
    <path d="M61.0494 73.6091C60.7939 73.5344 60.5434 73.4439 60.2992 73.3381C59.6992 73.1174 59.0866 72.9324 58.4648 72.7839C57.8419 72.6379 57.2107 72.5296 56.5748 72.4596C56.3093 72.4436 56.045 72.4113 55.7834 72.3628C56.0496 72.3327 56.3183 72.3327 56.5845 72.3628C57.8754 72.4489 59.143 72.749 60.3355 73.251C60.587 73.3413 60.8267 73.4615 61.0494 73.6091Z" fill="#263238"/>
    <path d="M51.2218 72.6315C51.2218 72.617 51.4154 72.6315 51.7469 72.5322C52.2145 72.3918 52.6423 72.1431 52.9957 71.8062C53.5163 71.3045 53.9404 70.7115 54.2468 70.0566C54.6267 69.3306 54.9728 68.486 55.5391 67.7116C56.0648 66.9809 56.7046 66.3395 57.4339 65.8119C58.0316 65.3822 58.6823 65.0317 59.3699 64.7689C59.8303 64.5927 60.3058 64.4591 60.7905 64.3696C60.9623 64.3381 61.0978 64.326 61.1898 64.3139C61.2355 64.3075 61.282 64.3075 61.3277 64.3139C61.1552 64.3634 60.9799 64.4022 60.8026 64.4301C60.3261 64.5382 59.8591 64.6846 59.4062 64.8681C58.7363 65.1413 58.1023 65.4957 57.5186 65.9232C56.8059 66.4487 56.1796 67.0823 55.6625 67.8012C55.1059 68.5586 54.7598 69.3983 54.3702 70.1243C54.0526 70.7887 53.6116 71.3865 53.0707 71.8861C52.7021 72.2233 52.2556 72.4636 51.7711 72.5855C51.6401 72.6161 51.5063 72.6339 51.3718 72.6387C51.3217 72.6435 51.2712 72.6411 51.2218 72.6315Z" fill="#455A64"/>
    <path d="M68.6748 71.1238C68.6555 71.102 69.1032 70.7995 69.6791 70.1558C70.4231 69.3225 70.9647 68.3287 71.2618 67.2518C71.3528 66.9456 71.396 66.6273 71.3901 66.308C71.3889 66.0198 71.3003 65.7388 71.136 65.5021C70.9801 65.2954 70.758 65.1485 70.5068 65.0859C70.2854 65.0296 70.055 65.018 69.8292 65.052C69.4971 65.1128 69.1752 65.2204 68.8733 65.3715C68.7626 65.4317 68.6468 65.4819 68.5272 65.5215C68.628 65.4454 68.7358 65.379 68.8491 65.3231C69.1502 65.1499 69.477 65.0257 69.8171 64.9552C70.0579 64.9122 70.3049 64.9187 70.5431 64.9746C70.823 65.0381 71.0721 65.1973 71.2473 65.4247C71.428 65.6817 71.5282 65.9866 71.5353 66.3007C71.5453 66.6276 71.5053 66.954 71.4167 67.2687C71.1176 68.3697 70.5525 69.3802 69.7711 70.2115C69.5364 70.4629 69.2806 70.6936 69.0064 70.9012C68.9054 70.9887 68.7941 71.0634 68.6748 71.1238Z" fill="#455A64"/>
</svg>
