<svg viewBox="0 0 16 16" fill="black" xmlns="http://www.w3.org/2000/svg">
    <path d="M9.48529 10.152L6.65663 7.32335L2.88529 11.0947L4.29996 12.5087C4.67502 12.8836 5.18363 13.0943 5.71396 13.0943C6.24429 13.0943 6.75291 12.8836 7.12796 12.5087L9.48529 10.152ZM8.52263 13H10.3333C10.5101 13 10.6797 13.0703 10.8047 13.1953C10.9297 13.3203 11 13.4899 11 13.6667C11 13.8435 10.9297 14.0131 10.8047 14.1381C10.6797 14.2631 10.5101 14.3333 10.3333 14.3333H2.99996C2.83094 14.3332 2.66829 14.2689 2.5449 14.1533C2.42152 14.0378 2.34662 13.8798 2.33535 13.7111C2.32408 13.5425 2.3773 13.3758 2.48422 13.2449C2.59114 13.114 2.7438 13.0286 2.91129 13.006L1.94263 12.0373C1.69267 11.7873 1.55225 11.4482 1.55225 11.0947C1.55225 10.7411 1.69267 10.402 1.94263 10.152L9.48529 2.60935C9.73533 2.35938 10.0744 2.21896 10.428 2.21896C10.7815 2.21896 11.1206 2.35938 11.3706 2.60935L14.2 5.43801C14.4499 5.68805 14.5903 6.02713 14.5903 6.38068C14.5903 6.73423 14.4499 7.07331 14.2 7.32335L8.52263 13Z"/>
</svg>
